<svg width="154" height="57" viewBox="0 0 154 57" fill="none" xmlns="http://www.w3.org/2000/svg">
<path d="M19.6293 3.90524V12.6225L26.2656 14.366V37.031H31.7843V0.697266L19.6293 3.90524ZM12.9929 3.90524L12.0149 3.62628V37.031H12.9929V3.90524ZM9.70966 3.06837V37.1008H10.8274V3.41707L9.70966 3.06837ZM5.23885 1.88282V37.031H6.35655V2.16177L5.23885 1.88282ZM3.00344 1.32491V37.1008H4.12114V1.60387L3.00344 1.32491ZM0.837891 0.697266V37.031H1.81588V0.97622L0.837891 0.697266ZM7.47425 2.44073V37.031H8.59196V2.71968L7.47425 2.44073Z" fill="#B88E5F"/>
<path d="M121.621 21.689H125.882V23.3628H125.952C126.301 22.7351 127.279 21.2009 130.213 21.2009C131.61 21.2009 133.427 21.689 134.614 23.9207C135.592 22.3864 137.129 21.2009 139.504 21.2009C140.552 21.2009 142.298 21.4101 143.556 22.7351C144.953 24.2694 145.232 25.2457 145.232 28.6629V37.0315H140.622V28.9419C140.622 27.6866 140.622 25.5247 138.247 25.5247C135.732 25.5247 135.732 27.826 135.732 28.7326V37.1013H131.121V28.8024C131.121 28.0352 131.121 25.5944 128.816 25.5944C126.231 25.5944 126.231 28.105 126.231 29.0116V37.1013H121.621V21.689ZM19.9099 12.623V37.0315H12.9941V14.3665L19.9099 12.623ZM37.7233 16.5981H44.4295L48.4812 30.0577H48.5511L52.5329 16.5981H59.309V37.0315H54.4889L54.6286 21.7588L54.5587 21.689L50.1578 37.0315H46.7348L42.3339 21.689L42.264 21.7588L42.4037 37.0315H37.7233V16.5981ZM72.931 27.6866C72.7214 26.78 71.8831 25.1062 69.4382 25.1062C67.063 25.1062 66.1549 26.78 65.9453 27.6866H72.931ZM76.9827 32.2196C76.2142 33.963 75.1664 35.288 73.8391 36.1249C72.5118 37.0315 71.1147 37.5197 69.4382 37.5197C65.0372 37.5197 61.3348 33.963 61.3348 29.43C61.3348 25.176 64.6879 21.2009 69.3683 21.2009C74.0487 21.2009 77.4717 24.897 77.4717 29.4998C77.4717 30.1274 77.4716 30.3366 77.3319 30.6853H65.8056C66.0851 32.5683 67.6219 33.6143 69.3683 33.6143C70.7654 33.6143 71.5339 32.9867 72.1626 32.1498L76.9827 32.2196ZM84.9463 21.689H87.1817V25.5247H84.9463V36.9618H80.3358V25.5247H78.1004V21.689H80.3358V16.5981H84.9463V21.689ZM88.509 21.689H92.8401V23.293H92.9099C93.2592 22.5259 94.0975 21.1311 96.752 21.1311V25.7339C94.6563 25.8036 93.1195 26.2221 93.1195 28.5234V36.9618H88.509V21.689ZM103.179 37.0315H98.5683V21.689H103.179V37.0315ZM98.6382 15.0639H103.249V19.2482H98.6382V15.0639ZM119.316 37.0315H114.985V35.4275H114.915C114.007 37.3802 112.12 37.5197 110.933 37.5197C110.025 37.5197 107.789 37.3105 106.392 35.567C105.135 34.0328 104.995 32.9867 104.995 30.8248V21.689H109.606V30.1971C109.606 31.2432 109.606 33.2656 112.051 33.2656C113.378 33.2656 114.705 32.5683 114.705 30.1274V21.689H119.316V37.0315Z" fill="#00403F"/>
<path d="M11.8752 49.8639L9.15081 53.4903H7.68382V47.702H9.15081V51.3284L11.8752 47.702H13.3422V53.4903H11.8752V49.8639Z" fill="black"/>
<path d="M25.9164 53.4903H24.4494V49.2362H22.9125L22.8427 49.8639C22.5632 53.0021 21.7948 53.6297 20.258 53.6297L20.1183 52.1652C20.6073 52.235 21.3058 51.7468 21.4455 49.5152L21.5154 47.702H25.9164V53.4903Z" fill="black"/>
<path d="M28.501 49.1665H26.6149V47.702H31.8542V49.1665H29.968V53.4903H28.501V49.1665Z" fill="black"/>
<path d="M54.0685 53.4903H52.6015V51.2586H50.0867V53.4903H48.6197V47.702H50.0867V49.8639H52.6015V47.702H54.0685V53.4903Z" fill="black"/>
<path d="M76.5623 53.4903H75.0953H75.0255V47.702H78.9374V49.0967H76.5623V53.4903Z" fill="black"/>
<path d="M94.236 53.4903H92.769L92.6991 49.0967H90.2542V53.4903H88.7872V47.702H94.236V53.4903Z" fill="black"/>
<path d="M105.902 47.702H107.788L105.553 50.4915L108.068 53.4903H106.112L103.806 50.5613V53.4903H102.339V47.702H103.806V50.5613L105.902 47.702Z" fill="black"/>
<path d="M120.153 53.4903H118.686V49.2362H117.149L117.079 49.8639C116.8 53.0021 116.031 53.6297 114.494 53.6297L114.355 52.1652C114.844 52.235 115.542 51.7468 115.682 49.5152L115.752 47.702H120.153V53.4903Z" fill="black"/>
<path d="M133.076 53.4903H131.609V51.2586H129.094V53.4903H127.627V47.702H129.094V49.8639H131.609V47.702H133.076V53.4903Z" fill="black"/>
<path d="M138.595 49.8639L135.87 53.4903H134.403V47.702H135.87V51.3284L138.595 47.702H140.062V53.4903H138.595V49.8639Z" fill="black"/>
<path fill-rule="evenodd" clip-rule="evenodd" d="M0.907747 56.0706H2.37473V53.3508C2.72401 53.56 3.21301 53.6297 3.70201 53.6297C5.51827 53.6297 6.77569 52.3047 6.77569 50.4915C6.77569 48.8178 5.72784 47.5625 4.12114 47.5625C3.35272 47.5625 2.72401 47.8415 2.30488 48.2599V47.702H0.837891V56.0706H0.907747ZM5.23885 50.5613C5.23885 49.6547 4.68 48.9573 3.70201 48.9573C3.21301 48.9573 2.79387 49.1665 2.44459 49.5849V51.8863C2.79387 52.1652 3.14315 52.235 3.63215 52.235C4.68 52.235 5.23885 51.5376 5.23885 50.5613Z" fill="black"/>
<path fill-rule="evenodd" clip-rule="evenodd" d="M19.1403 51.8863C18.791 52.1652 18.2321 52.4442 17.5336 52.4442C16.6255 52.4442 15.9269 51.956 15.7872 51.1192H19.9786C20.0484 50.91 20.0484 50.7007 20.0484 50.352C20.0484 48.7481 18.791 47.702 17.324 47.702C15.4379 47.702 14.2503 49.027 14.2503 50.7007C14.2503 52.5139 15.5077 53.6995 17.3939 53.6995C18.2321 53.6995 19.0006 53.4903 19.6293 53.0021L19.1403 51.8863ZM18.5814 50.0731C18.5814 49.3757 18.0924 48.8178 17.2542 48.8178C16.346 48.8178 15.857 49.306 15.7173 50.0731H18.5814Z" fill="black"/>
<path fill-rule="evenodd" clip-rule="evenodd" d="M31.9939 50.631C31.9939 52.3745 33.2513 53.6297 35.1374 53.6297C37.0235 53.6297 38.281 52.3047 38.281 50.631C38.281 48.8875 37.0235 47.6322 35.1374 47.6322C33.1814 47.5625 31.9939 48.8875 31.9939 50.631ZM35.0676 48.9573C34.2293 48.9573 33.5307 49.6547 33.5307 50.631C33.5307 51.5376 34.2293 52.235 35.0676 52.3047C35.9757 52.3047 36.6743 51.6073 36.6743 50.631C36.6743 49.6547 35.9757 48.9573 35.0676 48.9573Z" fill="black"/>
<path fill-rule="evenodd" clip-rule="evenodd" d="M39.1891 56.0706H40.6561V53.3508C41.0054 53.56 41.4944 53.6297 41.9833 53.6297C43.7996 53.6297 45.057 52.3047 45.057 50.4915C45.057 48.8178 44.0092 47.5625 42.4025 47.5625C41.6341 47.5625 41.0054 47.8415 40.5862 48.2599V47.702H39.1192V56.0706H39.1891ZM43.5202 50.5613C43.5202 49.6547 42.9613 48.9573 41.9833 48.9573C41.4944 48.9573 41.0054 49.1665 40.7259 49.5849V51.8863C41.0752 52.1652 41.4245 52.235 41.9135 52.235C42.9613 52.235 43.5202 51.5376 43.5202 50.5613Z" fill="black"/>
<path fill-rule="evenodd" clip-rule="evenodd" d="M54.9766 50.631C54.9766 52.3745 56.2341 53.6297 58.1202 53.6297C60.0063 53.6297 61.2637 52.3047 61.2637 50.631C61.2637 48.8875 60.0063 47.6322 58.1202 47.6322C56.2341 47.5625 54.9766 48.8875 54.9766 50.631ZM58.1202 48.9573C57.2819 48.9573 56.5833 49.6547 56.5833 50.631C56.5833 51.5376 57.2819 52.235 58.1202 52.3047C59.0283 52.3047 59.7269 51.6073 59.7269 50.631C59.7269 49.6547 59.0283 48.9573 58.1202 48.9573Z" fill="black"/>
<path fill-rule="evenodd" clip-rule="evenodd" d="M67.9001 50.631C67.9001 52.3745 69.1575 53.6297 71.0436 53.6297C72.9298 53.6297 74.1872 52.3047 74.1872 50.631C74.1872 48.8875 72.9298 47.6322 71.0436 47.6322C69.1575 47.5625 67.9001 48.8875 67.9001 50.631ZM71.0436 48.9573C70.2054 48.9573 69.5068 49.6547 69.5068 50.631C69.5068 51.5376 70.1355 52.235 71.0436 52.3047C71.9518 52.3047 72.6503 51.6073 72.6503 50.631C72.6503 49.6547 71.9518 48.9573 71.0436 48.9573Z" fill="black"/>
<path fill-rule="evenodd" clip-rule="evenodd" d="M78.9374 50.631C78.9374 52.3745 80.1948 53.6297 82.081 53.6297C83.9671 53.6297 85.2245 52.3047 85.2245 50.631C85.2245 48.8875 83.9671 47.6322 82.081 47.6322C80.1948 47.5625 78.9374 48.8875 78.9374 50.631ZM82.081 48.9573C81.2427 48.9573 80.5441 49.6547 80.5441 50.631C80.5441 51.5376 81.2427 52.235 82.081 52.3047C82.9891 52.3047 83.6877 51.6073 83.6877 50.631C83.6877 49.6547 82.9891 48.9573 82.081 48.9573Z" fill="black"/>
<path fill-rule="evenodd" clip-rule="evenodd" d="M95.1441 50.631C95.1441 52.3745 96.4015 53.6297 98.2877 53.6297C100.174 53.6297 101.431 52.3047 101.431 50.631C101.431 48.8875 100.174 47.6322 98.2877 47.6322C96.4015 47.5625 95.1441 48.8875 95.1441 50.631ZM98.2877 48.9573C97.4494 48.9573 96.7508 49.6547 96.7508 50.631C96.7508 51.5376 97.3795 52.235 98.2877 52.3047C99.1958 52.3047 99.8943 51.6073 99.8943 50.631C99.8943 49.6547 99.1958 48.9573 98.2877 48.9573Z" fill="black"/>
<path fill-rule="evenodd" clip-rule="evenodd" d="M107.858 50.631C107.858 52.3745 109.115 53.6297 111.002 53.6297C112.888 53.6297 114.145 52.3047 114.145 50.631C114.145 48.8875 112.888 47.6322 111.002 47.6322C109.115 47.5625 107.858 48.8875 107.858 50.631ZM111.002 48.9573C110.163 48.9573 109.465 49.6547 109.465 50.631C109.465 51.5376 110.093 52.235 111.002 52.3047C111.91 52.3047 112.608 51.6073 112.608 50.631C112.608 49.6547 111.91 48.9573 111.002 48.9573Z" fill="black"/>
<path fill-rule="evenodd" clip-rule="evenodd" d="M125.951 51.8863C125.602 52.1652 125.043 52.4442 124.344 52.4442C123.436 52.4442 122.737 51.956 122.598 51.1192H126.789C126.859 50.91 126.859 50.7007 126.859 50.352C126.859 48.7481 125.602 47.702 124.135 47.702C122.248 47.702 121.061 49.027 121.061 50.7007C121.061 52.5139 122.318 53.6995 124.204 53.6995C125.043 53.6995 125.811 53.4903 126.44 53.0021L125.951 51.8863ZM125.322 50.0731C125.322 49.3757 124.833 48.8178 123.995 48.8178C123.157 48.8178 122.668 49.306 122.458 50.0731H125.322Z" fill="black"/>
<path fill-rule="evenodd" clip-rule="evenodd" d="M144.113 47.702C142.018 47.702 141.249 48.6086 141.249 49.7244C141.249 50.7007 141.878 51.1889 142.367 51.3981L140.83 53.4205H142.507L143.694 51.6771H144.533V53.4205H146V47.6322H144.113V47.702ZM143.834 48.9573C143.135 48.9573 142.786 49.4454 142.786 49.8639C142.786 50.352 143.275 50.631 143.694 50.631H144.463V48.9573H143.834Z" fill="black"/>
<path fill-rule="evenodd" clip-rule="evenodd" d="M64.4771 53.56C64.1084 53.56 63.6423 53.5406 63.2022 53.5222C62.8086 53.5058 62.4357 53.4903 62.1719 53.4903H62.0322V47.7717C62.2778 47.7717 62.5775 47.7582 62.9134 47.7431C63.3415 47.7239 63.8285 47.702 64.3374 47.702C66.0838 47.702 66.992 48.1901 66.992 49.2362C66.992 49.9336 66.503 50.4218 65.9441 50.4915C66.7824 50.7007 67.2015 51.1192 67.2015 51.8166C67.2015 52.9324 66.3633 53.56 64.4771 53.56ZM64.6168 48.8178C65.1757 48.8178 65.525 49.027 65.525 49.4454C65.525 49.8639 65.1058 50.1428 64.6168 50.1428H63.6388V48.8875C63.7303 48.8875 63.8617 48.8742 64.0098 48.8593C64.201 48.8399 64.42 48.8178 64.6168 48.8178ZM65.7345 51.7468C65.7345 51.2586 65.3154 51.0494 64.6168 51.0494V51.1192H63.7087V52.3745C63.8002 52.3745 63.9316 52.3877 64.0797 52.4027C64.2709 52.422 64.4899 52.4442 64.6867 52.4442C65.3154 52.4442 65.7345 52.1652 65.7345 51.7468Z" fill="black"/>
</svg>
