<svg width="48" height="48" viewBox="0 0 48 48" fill="none" xmlns="http://www.w3.org/2000/svg"><path d="M1.5 41.25v4.5c0 .414.336.75.75.75h10.5a.75.75 0 00.75-.75v-4.5a6.002 6.002 0 00-3.347-5.374A4.49 4.49 0 0012 32.25c0-2.482-2.018-4.5-4.5-4.5a4.504 4.504 0 00-4.5 4.5 4.49 4.49 0 001.847 3.626A6.002 6.002 0 001.5 41.25zm6-4.5c.251 0 .497.026.736.066a.744.744 0 01-.736.684.744.744 0 01-.737-.684c.24-.04.486-.066.737-.066zm0-7.5c.968 0 1.822.469 2.37 1.183a6.706 6.706 0 00-4.74 0A2.987 2.987 0 017.5 29.25zm-2.98 3.201A5.194 5.194 0 017.5 31.5c1.078 0 2.096.338 2.98.951A2.995 2.995 0 017.5 35.25a2.995 2.995 0 01-2.98-2.799zm.81 4.86A2.247 2.247 0 007.5 39c1.046 0 1.92-.72 2.17-1.69A4.503 4.503 0 0112 41.25V45H3v-3.75c0-1.694.942-3.172 2.33-3.94zM41.25 30v-6a6.756 6.756 0 00-4.03-6.173A4.491 4.491 0 0039 14.25c0-2.482-2.018-4.5-4.5-4.5a4.504 4.504 0 00-4.5 4.5c0 1.459.7 2.753 1.779 3.576-.755.332-1.452.8-2.056 1.4A6.736 6.736 0 0027.75 24v6c0 .414.336.75.75.75h12a.75.75 0 00.75-.75zm-6.75-9.981l.702 1.754-.702 2.105-.702-2.105.702-1.754zm0-8.769c.968 0 1.822.469 2.37 1.183a6.705 6.705 0 00-4.74 0 2.987 2.987 0 012.37-1.183zm-2.98 3.201a5.193 5.193 0 012.98-.951c1.078 0 2.096.338 2.98.951a2.995 2.995 0 01-2.98 2.799 2.995 2.995 0 01-2.98-2.799zm8.23 14.799h-10.5V24c0-1.399.546-2.719 1.533-3.713a5.259 5.259 0 012.555-1.403l-1.035 2.587a.754.754 0 00-.015.516l1.5 4.5a.75.75 0 001.424 0l1.5-4.5a.754.754 0 00-.015-.516l-1.035-2.587A5.257 5.257 0 0139.75 24v5.25z" fill="#fff"/><path d="M46.46 6.594a.751.751 0 00-.598-.503l-3.75-.57-1.684-3.589a.748.748 0 00-1.357 0l-1.683 3.59-3.75.569a.75.75 0 00-.425 1.265l1.5 1.537 1.074-1.047-.48-.492 2.703-.41a.75.75 0 00.566-.423l1.174-2.504 1.173 2.503a.749.749 0 00.567.424l2.703.41-1.98 2.03a.75.75 0 00-.203.643l.457 2.82-2.354-1.301-.726 1.312 3.705 2.047a.747.747 0 00.795-.041.751.751 0 00.309-.734l-.645-3.969 2.736-2.804a.753.753 0 00.174-.763zM21.75 4.5H6c-.827 0-1.5.673-1.5 1.5v12.75c0 .827.673 1.5 1.5 1.5h15.75c.827 0 1.5-.673 1.5-1.5v-4.255l4.294 1.227a.75.75 0 00.737-1.251L23.25 9.44V6c0-.827-.673-1.5-1.5-1.5zm3.423 8.984l-1.51-.432a1.488 1.488 0 00-1.316.245c-.38.285-.597.722-.597 1.197v4.256H6V6h15.75v3.44c0 .4.156.777.44 1.06l2.983 2.984zM19.5 44.25h9.75c.827 0 1.5-.673 1.5-1.5V34.5c0-.827-.673-1.5-1.5-1.5H19.5c-.827 0-1.5.673-1.5 1.5v2.114l-3.626-.604a.75.75 0 00-.604 1.315L18 40.85v1.9c0 .827.673 1.5 1.5 1.5zm-2.645-6.305l1.771.295a.751.751 0 00.874-.74v-3h9.75v8.25H19.5V40.5a.75.75 0 00-.27-.576l-2.375-1.98z" fill="#fff"/><path d="M21 36h1.5v1.5H21V36zm3 0h3.75v1.5H24V36zm-3 3.75h1.5v1.5H21v-1.5zm3 0h3.75v1.5H24v-1.5zM11.972 14.66L9.53 12.22l-1.06 1.06 3 3c.14.141.331.22.53.22h.02a.747.747 0 00.537-.248l6.75-7.5-1.114-1.004-6.222 6.912z" fill="#fff"/></svg>