<svg width="48" height="48" viewBox="0 0 48 48" fill="none" xmlns="http://www.w3.org/2000/svg"><path d="M18 39v6.75c0 .414.335.75.75.75h10.5a.75.75 0 00.75-.75V39c0-1.603-.624-3.11-1.757-4.243a6.018 6.018 0 00-1.594-1.137c.985-.719 1.678-1.815 1.82-3.102a3.926 3.926 0 00.01-.93C28.266 27.294 26.3 25.5 24 25.5c-2.3 0-4.267 1.796-4.477 4.074a3.945 3.945 0 00.006.926 4.463 4.463 0 001.826 3.122A6.003 6.003 0 0018 39zm6-12c.963 0 1.837.473 2.39 1.207a6.725 6.725 0 00-2.42-.457 6.7 6.7 0 00-2.33.417A3.006 3.006 0 0124 27zm-2.982 3.32c-.005-.043-.005-.087-.008-.129a5.143 5.143 0 012.96-.941c1.103 0 2.133.348 3.016.98-.003.036-.002.069-.007.107A2.99 2.99 0 0124 33a2.996 2.996 0 01-2.982-2.68zm3.687 9.343L24 41.073l-.705-1.41.705-2.82.705 2.82zm-1.693-5.05l-1.24 4.956a.749.749 0 00.057.517l1.5 3a.752.752 0 001.342 0l1.5-3c.08-.16.1-.344.056-.518l-1.239-4.956a4.47 4.47 0 012.194 1.205c.85.85 1.318 1.98 1.318 3.183v6h-9v-6a4.504 4.504 0 013.512-4.387zm21.731-2.856a6.018 6.018 0 00-1.594-1.137 4.441 4.441 0 001.82-3.102 3.926 3.926 0 00.01-.93C44.766 24.294 42.8 22.5 40.5 22.5c-2.3 0-4.267 1.796-4.477 4.074a3.946 3.946 0 00.006.926 4.462 4.462 0 001.826 3.122A6.003 6.003 0 0034.5 36v6.75c0 .414.335.75.75.75h10.5a.75.75 0 00.75-.75V36c0-1.603-.624-3.11-1.757-4.243zM40.5 24c.963 0 1.837.473 2.39 1.207a6.725 6.725 0 00-2.42-.457 6.7 6.7 0 00-2.33.417A3.006 3.006 0 0140.5 24zm-2.982 3.32c-.005-.043-.005-.087-.008-.129a5.143 5.143 0 012.96-.941c1.102 0 2.133.348 3.016.98-.003.036-.002.069-.007.107A2.99 2.99 0 0140.5 30a2.996 2.996 0 01-2.982-2.68zm3.687 9.343l-.705 1.41-.705-1.41.705-2.82.705 2.82zM45 42h-9v-6a4.504 4.504 0 013.511-4.387l-1.239 4.956a.748.748 0 00.057.517l1.5 3a.752.752 0 001.342 0l1.5-3c.08-.16.1-.344.056-.518l-1.238-4.956a4.47 4.47 0 012.193 1.205c.85.85 1.318 1.98 1.318 3.183v6zM2.25 43.5h10.5a.75.75 0 00.75-.75V36c0-1.603-.624-3.11-1.757-4.243a6.02 6.02 0 00-1.594-1.137 4.441 4.441 0 001.82-3.102 3.926 3.926 0 00.01-.93C11.766 24.294 9.8 22.5 7.5 22.5c-2.3 0-4.267 1.796-4.477 4.074a3.946 3.946 0 00.006.926 4.462 4.462 0 001.827 3.122A6.003 6.003 0 001.5 36v6.75c0 .414.335.75.75.75zM7.5 24a3 3 0 012.39 1.207 6.725 6.725 0 00-2.42-.457 6.7 6.7 0 00-2.33.417A3.006 3.006 0 017.5 24zm-2.982 3.32c-.005-.043-.005-.087-.007-.129a5.143 5.143 0 012.959-.941c1.103 0 2.133.348 3.016.98-.003.036-.002.069-.007.107A2.99 2.99 0 017.5 30a2.996 2.996 0 01-2.982-2.68zm3.687 9.343l-.705 1.41-.705-1.41.705-2.82.705 2.82zM3 36a4.504 4.504 0 013.511-4.387l-1.239 4.955a.748.748 0 00.057.517l1.5 3a.75.75 0 001.342 0l1.5-3c.08-.16.1-.343.056-.517l-1.239-4.956a4.47 4.47 0 012.194 1.205c.85.85 1.318 1.98 1.318 3.183v6H3v-6zm31.5-20.25a.75.75 0 00.75-.75v-4.5a.75.75 0 00-.75-.75h-2.02a9.093 9.093 0 00-.36-.876l1.426-1.427a.75.75 0 000-1.06l-3.181-3.183a.772.772 0 00-1.061 0l-1.427 1.427A9.072 9.072 0 0027 4.27V2.25a.75.75 0 00-.75-.75h-4.5a.75.75 0 00-.75.75v2.02c-.3.106-.593.226-.876.36l-1.427-1.427a.772.772 0 00-1.06 0l-3.182 3.183a.75.75 0 000 1.06l1.426 1.427a8.8 8.8 0 00-.36.876H13.5a.75.75 0 00-.75.75V15c0 .414.335.75.75.75h2.02c.106.3.226.594.36.876l-1.426 1.427a.75.75 0 000 1.061l3.181 3.182a.772.772 0 001.061 0l1.427-1.427c.284.135.576.256.876.36v2.022c0 .414.335.75.75.75h4.5a.75.75 0 00.75-.75v-2.02c.3-.105.593-.226.876-.36l1.427 1.427a.772.772 0 001.061 0l3.181-3.183a.75.75 0 000-1.06l-1.426-1.427a8.61 8.61 0 00.36-.876H34.5v-.001zm-3.829 1.55l1.284 1.284-2.12 2.121-1.285-1.284a.752.752 0 00-.896-.124 7.473 7.473 0 01-1.608.663.75.75 0 00-.546.721V22.5h-3v-1.819a.75.75 0 00-.546-.721 7.469 7.469 0 01-1.608-.663.752.752 0 00-.896.124l-1.284 1.284-2.121-2.121 1.284-1.285a.75.75 0 00.124-.896 7.473 7.473 0 01-.663-1.608.749.749 0 00-.721-.545H14.25v-3h1.819a.75.75 0 00.721-.545c.162-.569.385-1.11.664-1.608a.75.75 0 00-.125-.896l-1.284-1.285 2.121-2.121 1.285 1.284a.75.75 0 00.896.124 7.472 7.472 0 011.608-.663.75.75 0 00.545-.721V3h3v1.819c0 .335.223.63.546.721.569.162 1.11.384 1.608.663a.75.75 0 00.896-.124l1.284-1.284 2.121 2.122L30.671 8.2a.75.75 0 00-.124.896c.279.498.502 1.04.663 1.608a.75.75 0 00.721.545h1.819v3h-1.819a.75.75 0 00-.721.545 7.468 7.468 0 01-.664 1.608.751.751 0 00.125.896z" fill="#fff"/><path d="M24 6.75c-3.308 0-6 2.692-6 6s2.692 6 6 6 6-2.692 6-6-2.692-6-6-6zm0 10.5a4.504 4.504 0 01-4.5-4.5c0-2.482 2.018-4.5 4.5-4.5s4.5 2.018 4.5 4.5-2.018 4.5-4.5 4.5zm-17.25-4.5V21h1.5v-7.5h3V12H7.5a.75.75 0 00-.75.75zM41.25 21v-8.25a.75.75 0 00-.75-.75h-3.75v1.5h3V21h1.5z" fill="#fff"/></svg>