<svg width="48" height="48" viewBox="0 0 48 48" fill="none" xmlns="http://www.w3.org/2000/svg"><g clip-path="url(#clip0_595_2525)" fill="#fff"><path d="M47.062 32.812h-.937v-30A2.816 2.816 0 0043.312 0H4.687a2.816 2.816 0 00-2.812 2.812v30H.937A.938.938 0 000 33.75v2.812a2.816 2.816 0 002.812 2.813h22.749v5.812A2.816 2.816 0 0028.373 48h11.19a2.815 2.815 0 002.811-2.813v-5.812h2.813A2.816 2.816 0 0048 36.562V33.75a.938.938 0 00-.938-.938zm-4.688 0v-1.875h1.876v1.875h-1.876zM4.688 1.875h38.625c.517 0 .938.42.938.937v.938H3.75v-.938c0-.517.42-.937.937-.937zM3.75 30.937h.937a.937.937 0 100-1.875H3.75V5.625h40.5v23.437h-1.876v-6.375a2.815 2.815 0 00-2.812-2.812H28.373c-.433 0-.845.099-1.212.275l-4.025-4.025h1.487a.937.937 0 100-1.875h-3.75a.937.937 0 00-.937.938v3.75a.938.938 0 001.875 0V17.45l4.025 4.025a2.794 2.794 0 00-.275 1.212v6.374H13.125a.937.937 0 100 1.875h12.436v2.813h-6.248a.938.938 0 00-.938-.938H3.75v-1.875zM2.812 37.5a.938.938 0 01-.937-.938v-1.875h15.814c.325.56.931.938 1.623.938h6.249V37.5H2.812zM40.5 45.187c0 .518-.42.938-.938.938H28.373a.938.938 0 01-.937-.938V23.076l4.299 4.299h-1.487a.938.938 0 000 1.875h3.75c.518 0 .938-.42.938-.938v-3.75a.937.937 0 10-1.875 0v1.487l-4.3-4.299h10.801c.517 0 .938.42.938.938v22.5zm5.625-8.625c0 .517-.42.938-.938.938h-2.813v-2.813h3.75v1.875z"/><path d="M33.968 43.313a.937.937 0 10-.002 1.874.937.937 0 00.002-1.874zM36.28 9.375h5.157a.937.937 0 100-1.875H36.28a.937.937 0 000 1.875zm-4.217 0a.937.937 0 100-1.875.937.937 0 100 1.875zM8.907 29.062h-.001a.937.937 0 10-.002 1.874.937.937 0 00.003-1.874z"/></g><defs><clipPath id="clip0_595_2525"><path fill="#fff" d="M0 0h48v48H0z"/></clipPath></defs></svg>