<svg width="320" height="400" viewBox="0 0 320 400" fill="none" xmlns="http://www.w3.org/2000/svg"><g opacity=".2" fill="#1F5AFF"><path d="M105.263 304.866l-90.127-90.127a7.082 7.082 0 00-10.014 0l-20.028 20.028a7.08 7.08 0 000 10.014l90.127 90.127a7.082 7.082 0 0010.014 0l20.028-20.028a7.081 7.081 0 000-10.014zM140.31 179.69c5.531 5.53 14.498 5.53 20.028 0 5.531-5.531 5.531-14.498 0-20.029-5.53-5.53-14.497-5.53-20.028 0-5.531 5.531-5.531 14.498 0 20.029zM276.564 70.476l-4.191-17.6a7.039 7.039 0 00-5.248-5.247l-17.599-4.191a189.34 189.34 0 00-68.592-3.38l99.01 99.009a189.365 189.365 0 00-3.38-68.591z"/><path d="M180.367 139.633a42.485 42.485 0 00-46.302-9.21 42.49 42.49 0 000 78.505 42.488 42.488 0 0046.302-9.21 42.54 42.54 0 000-60.085zm-50.071 50.071a28.33 28.33 0 01-6.14-30.868 28.325 28.325 0 116.14 30.868zM56.843 88.431a64.437 64.437 0 00-62.188 16.604l-69.648 69.648a7.08 7.08 0 000 10.014A64.021 64.021 0 00-9.12 200.249l5.252-1.758 21.706-50.646a204.941 204.941 0 0139.005-59.414zm174.726 174.726a204.931 204.931 0 01-59.428 39.02l-50.642 21.701-1.757 5.252a64.026 64.026 0 00-1.634 35.156 64.028 64.028 0 0017.196 30.707 7.08 7.08 0 0010.014 0l69.648-69.648a64.439 64.439 0 0016.603-62.188z"/><path d="M239.405 234.061a190.269 190.269 0 0037.563-77.94L163.878 43.032A189.35 189.35 0 0030.836 153.443l-17.23 40.261a6.824 6.824 0 011.528 1.007l110.155 110.155c.411.466.757.987 1.027 1.547l40.261-17.229a190.792 190.792 0 0072.828-55.123zm-129.137-24.329a56.653 56.653 0 01-12.28-61.735 56.651 56.651 0 0152.336-34.97 56.65 56.65 0 0155.56 67.7 56.654 56.654 0 01-15.503 29.005 56.713 56.713 0 01-80.113 0zM-13.44 312.091l1.507 13.584a7.083 7.083 0 006.259 6.259l13.584 1.507a46.278 46.278 0 0034.964-10.85L-2.59 277.127a46.283 46.283 0 00-10.85 34.964z"/></g></svg>