<svg width="320" height="400" viewBox="0 0 320 400" fill="none" xmlns="http://www.w3.org/2000/svg"><g opacity=".2" clip-path="url(#clip0_1429_5561)" fill="#1F5AFF"><path d="M293.752 188.281h10.534c-2.276-20.239-10.144-38.617-22.247-53.747l-7.455 7.455a11.683 11.683 0 01-8.286 3.433 11.681 11.681 0 01-8.285-3.433c-4.578-4.578-4.578-11.993 0-16.571l7.455-7.455c-15.13-12.104-33.508-19.971-53.747-22.248v10.535c0 6.476-5.243 11.719-11.719 11.719-6.476 0-11.719-5.243-11.719-11.719V95.715c-20.239 2.277-38.617 10.144-53.747 22.248l7.455 7.455c4.578 4.578 4.578 11.993 0 16.571a11.678 11.678 0 01-8.286 3.433 11.683 11.683 0 01-8.285-3.433l-7.456-7.455c-12.103 15.13-19.97 33.508-22.247 53.747h10.535c6.476 0 11.719 5.243 11.719 11.719 0 6.476-5.243 11.719-11.719 11.719H95.391c1.858 16.778 7.479 32.754 16.961 46.875h175.299c9.485-14.102 15.107-30.084 16.962-46.875h-10.861c-6.476 0-11.719-5.243-11.719-11.719 0-6.476 5.243-11.719 11.719-11.719zm-49.518-15.942l-12.601 12.601c2.195 4.583 3.525 9.649 3.525 15.06 0 19.385-15.771 35.156-35.156 35.156-19.385 0-35.156-15.771-35.156-35.156 0-19.385 15.771-35.156 35.156-35.156 5.411 0 10.477 1.33 15.06 3.525l12.601-12.601c4.578-4.578 11.993-4.578 16.571 0 4.578 4.577 4.578 11.993 0 16.571z"/><path d="M200 188.281c-6.467 0-11.719 5.252-11.719 11.719s5.252 11.719 11.719 11.719 11.719-5.252 11.719-11.719-5.252-11.719-11.719-11.719z"/><path d="M391.132 165.198l-19.953-4.795c-4.37-19.067-11.786-36.999-22.11-53.491l10.129-16.891a11.715 11.715 0 00-1.761-14.316l-33.142-33.142a11.719 11.719 0 00-14.319-1.761l-16.891 10.126c-16.489-10.321-34.424-17.737-53.488-22.11l-4.795-19.95A11.717 11.717 0 00223.438 0h-46.876a11.717 11.717 0 00-11.364 8.868l-4.795 19.953c-19.067 4.37-36.999 11.786-53.491 22.11L90.021 40.802a11.716 11.716 0 00-14.316 1.76L42.563 75.706a11.716 11.716 0 00-1.761 14.316l10.126 16.891c-10.321 16.492-17.737 34.424-22.11 53.491l-19.95 4.795A11.717 11.717 0 000 176.562v46.876c0 5.38 3.662 10.058 8.868 11.364l19.953 4.795c4.37 19.067 11.786 36.999 22.11 53.491l-10.129 16.891a11.716 11.716 0 001.76 14.316l33.143 33.142c3.79 3.821 9.704 4.52 14.319 1.761l16.891-10.126c16.489 10.321 34.424 17.737 53.488 22.11l4.795 19.95A11.717 11.717 0 00176.562 400h46.876c5.38 0 10.058-3.662 11.364-8.868l4.795-19.953c19.067-4.37 36.999-11.786 53.491-22.11l16.891 10.129a11.716 11.716 0 0014.316-1.761l33.142-33.142a11.72 11.72 0 001.761-14.319l-10.126-16.891c10.321-16.489 17.737-34.424 22.11-53.488l19.95-4.795A11.717 11.717 0 00400 223.438v-46.876c0-5.38-3.662-10.058-8.868-11.364zM223.438 328.906h-46.876c-6.475 0-11.718-5.243-11.718-11.718 0-6.476 5.243-11.719 11.718-11.719h46.876c6.475 0 11.718 5.243 11.718 11.719 0 6.475-5.243 11.718-11.718 11.718zm79.617-51.544a11.701 11.701 0 01-9.363 4.669H106.308a11.678 11.678 0 01-9.363-4.681C80.032 254.865 71.094 228.119 71.094 200c0-71.078 57.828-128.906 128.906-128.906S328.906 128.922 328.906 200c0 28.131-8.938 54.886-25.851 77.362z"/></g><defs><clipPath id="clip0_1429_5561"><path fill="#fff" d="M0 0h400v400H0z"/></clipPath></defs></svg>