<svg width="48" height="48" viewBox="0 0 48 48" fill="none" xmlns="http://www.w3.org/2000/svg"><path d="M3.645 13.989h7.415a.703.703 0 000-1.407H3.645a.703.703 0 100 1.406zm7.16 3.384H7.876a.703.703 0 100 1.407h2.93a.703.703 0 100-1.407zM.703 22.25h7.173a.703.703 0 000-1.407H.703a.703.703 0 100 1.407zm11.06 12.465a.703.703 0 00-.703-.704H3.645a.703.703 0 100 1.407h7.415a.703.703 0 00.703-.703zm-.958-5.495H7.876a.703.703 0 000 1.407h2.93a.703.703 0 100-1.407zM8.58 26.454a.703.703 0 00-.704-.703H.703a.703.703 0 100 1.406h7.173a.703.703 0 00.703-.703zm21.376-10.907a.703.703 0 00.703-.704V13.77a.703.703 0 10-1.406 0v1.074c0 .388.315.703.703.703zm7.731.723a.703.703 0 00-.995 0l-.758.758a.703.703 0 10.994.995l.759-.76a.703.703 0 000-.994zm1.425 7.027a.703.703 0 100 1.406h1.073a.703.703 0 100-1.406h-1.073zm-2.184 6.68a.703.703 0 00-.994.995l.758.759a.703.703 0 00.995-.995l-.76-.759zm-7.675 3.18v1.073a.703.703 0 101.406 0v-1.073a.703.703 0 10-1.406 0zm-6.269-3.18l-.759.76a.703.703 0 00.995.994l.759-.76a.703.703 0 00-.995-.994zm-3.258-6.68a.703.703 0 100 1.406h1.073a.703.703 0 100-1.406h-1.073zm4.253-6.269l-.76-.759a.703.703 0 00-.994.995l.76.759a.703.703 0 10.994-.995zM33.737 24a.703.703 0 00-.703-.703h-2.375v-5.22a.703.703 0 10-1.406 0V24c0 .388.315.703.703.703h3.078a.703.703 0 00.703-.703z" fill="#1F5AFF"/><path d="M43.289 23.884a.703.703 0 00.659-.744C43.5 15.76 37.355 9.98 29.956 9.98c-7.73 0-14.018 6.29-14.018 14.02 0 7.729 6.288 14.018 14.018 14.018 6.925 0 12.835-5.074 13.863-11.921a.703.703 0 10-1.391-.209c-.924 6.151-6.235 10.724-12.472 10.724-6.954 0-12.612-5.658-12.612-12.613 0-6.954 5.658-12.612 12.612-12.612 6.656 0 12.186 5.2 12.588 11.837a.704.704 0 00.745.659z" fill="#1F5AFF"/><path d="M29.955 5.956c-2.473 0-4.896.513-7.126 1.472H10.423a.703.703 0 100 1.407h9.76a18.024 18.024 0 00-3.605 3.056.703.703 0 101.042.944 16.674 16.674 0 0112.335-5.473c9.175 0 16.638 7.464 16.638 16.638 0 9.174-7.463 16.638-16.638 16.638-9.174 0-16.637-7.464-16.637-16.638 0-3.213.917-6.33 2.653-9.017a.703.703 0 00-1.18-.764A17.979 17.979 0 0011.91 24c0 6.353 3.3 11.95 8.277 15.165h-9.765a.703.703 0 100 1.407h12.396a17.943 17.943 0 007.137 1.472C39.904 42.044 48 33.95 48 24c0-9.95-8.095-18.044-18.045-18.044z" fill="#1F5AFF"/></svg>