<svg width="48" height="48" viewBox="0 0 48 48" fill="none" xmlns="http://www.w3.org/2000/svg"><g clip-path="url(#clip0_1004_2320)"><path d="M9.064 39.592a.704.704 0 01-1.38-.269 2.304 2.304 0 012.254-1.852c.633 0 1.207.258 1.621.672a2.3 2.3 0 01.032 3.215c.396.413.64.973.64 1.593 0 .632-.255 1.206-.672 1.62a2.288 2.288 0 01-3.125.109 2.304 2.304 0 01-.792-1.73.702.702 0 111.406 0c0 .261.104.498.306.673a.893.893 0 001.211-.045.877.877 0 00.26-.627.883.883 0 00-.26-.63.883.883 0 00-.627-.26.703.703 0 110-1.406.877.877 0 00.627-.26.879.879 0 00.26-.63.877.877 0 00-.26-.628.877.877 0 00-.627-.26.884.884 0 00-.874.715zM24.977 6.42l.864 1.405 1.602.386a1.142 1.142 0 01.84 1.374 1.243 1.243 0 01-.09.25c-.04.076-.09.15-.152.223l-1.068 1.254.127 1.653.003.024a1.13 1.13 0 01-.28.805 1.13 1.13 0 01-1.35.285l-1.471-.609-1.531.633a1.132 1.132 0 01-1.486-.62 1.127 1.127 0 01-.085-.518l.128-1.653-1.068-1.254a1.138 1.138 0 01.366-1.767l.056-.024c.075-.03.146-.054.22-.07l.027-.002 1.534-.372.866-1.409v-.002a1.141 1.141 0 011.57-.375.52.52 0 01.062.045.889.889 0 01.151.13c.064.064.12.133.165.208zm-.183 2.386l-.795-1.292-.792 1.29v-.003a.69.69 0 01-.433.316l-1.47.356.957 1.121c.13.139.207.33.191.537l-.117 1.513 1.398-.58a.713.713 0 01.534 0l1.401.58-.12-1.513h.003a.697.697 0 01.165-.507l.98-1.15-1.416-.344a.704.704 0 01-.486-.324zm4.17 3.906c.156-.353.57-.512.924-.353a.698.698 0 01.354.925 21.185 21.185 0 01-1.414 2.657 6.013 6.013 0 001.183-.374 7.705 7.705 0 002.482-1.746 8.3 8.3 0 001.079-1.388c.3-.486.531-.983.693-1.474.234-.713.311-1.396.223-1.994-.08-.526-.287-.98-.637-1.312a2.065 2.065 0 00-1.016-.53 3.22 3.22 0 00-.773-.06 23.063 23.063 0 01-.688 3.14.701.701 0 11-1.348-.39 21.44 21.44 0 00.646-2.947c.107-.72.175-1.459.205-2.214h-13.75c.09 2.517.662 4.887 1.44 6.918.678 1.77 2.086 4.618 3.689 5.945 1.68 1.387.563 3.027-.662 4.823-.553.813-1.137 1.669-1.38 2.458h7.572c-.242-.79-.824-1.645-1.38-2.458-1.222-1.796-2.34-3.436-.661-4.823.484-.399 1.05-1.055 1.632-1.916a19.51 19.51 0 001.586-2.886zm-1.194 4.715a8.426 8.426 0 01-1.13 1.17c-.693.573.08 1.708.925 2.95.702 1.028 1.44 2.112 1.67 3.25h1.799c.388 0 .701.316.701.704v3.75h13.36c.39 0 .704.313.704.7V32.7a.702.702 0 01-.705.701.7.7 0 01-.701-.701v-2.044H31.735v15.937h12.658v-10.71a.7.7 0 01.701-.701c.391 0 .705.313.705.701v11.414a.702.702 0 01-.705.702H2.906a.703.703 0 01-.704-.702v-5.843a.703.703 0 011.406 0v5.14h12.658V36.12H3.608v2.15a.703.703 0 01-1.406 0v-2.854c0-.388.316-.702.704-.702h13.36v-2.761a.704.704 0 111.406 0v14.64h12.657V26.206H17.672v2.562a.702.702 0 11-1.406 0V25.5c0-.388.313-.704.704-.704h1.797c.23-1.137.97-2.221 1.668-3.25.848-1.24 1.619-2.376.928-2.95a8.276 8.276 0 01-1.127-1.17c-.874.04-1.842-.156-2.801-.568a9.171 9.171 0 01-2.944-2.07c-1.258-1.318-2.052-2.857-2.315-4.281-.284-1.523.03-2.934 1.007-3.872a3.436 3.436 0 011.693-.883c.295-.063.598-.093.9-.095-.028-.367-.05-.736-.06-1.111a2.321 2.321 0 01-.949-.577 2.32 2.32 0 010-3.287A2.32 2.32 0 0116.409 0h15.183c.64 0 1.222.263 1.642.683a2.32 2.32 0 010 3.287 2.29 2.29 0 01-.949.577c-.01.375-.032.744-.06 1.11.302.004.605.033.9.097a3.44 3.44 0 011.693.882c.587.563.935 1.297 1.06 2.128.12.811.022 1.715-.279 2.629a8.32 8.32 0 01-.834 1.778 9.96 9.96 0 01-1.255 1.618 9.09 9.09 0 01-2.944 2.068c-.957.414-1.924.61-2.796.57zm-8.594-1.483a21.932 21.932 0 01-1.922-3.875 23.84 23.84 0 01-1.318-5.006 3.21 3.21 0 00-.77.06c-.373.08-.718.245-1.016.53-.61.584-.794 1.536-.598 2.601.218 1.17.888 2.448 1.956 3.567a7.701 7.701 0 002.482 1.746c.404.172.803.3 1.186.377zM16.409 3.248h15.183a.913.913 0 00.648-.272.914.914 0 000-1.3.914.914 0 00-.648-.27H16.409a.915.915 0 00-.648.27.914.914 0 000 1.3.914.914 0 00.648.272zm23.503 34.935a.7.7 0 01.016 1.4c-.008 0-3.143.043-3.401-.045-.51-.17-.67-.539-.428-1.028.066-.143.186-.3.401-.582.327-.428.922-1.21 1.89-2.591.156-.226.279-.43.372-.617.204-.42.308-.823-.07-1.2a.877.877 0 00-.627-.261.884.884 0 00-.874.715.704.704 0 01-1.38-.269c.107-.531.394-.999.798-1.328a2.291 2.291 0 013.077.148c.516.516.787 1.3.622 2.02a3.676 3.676 0 01-.29.792c-.122.25-.281.518-.48.802a80.502 80.502 0 01-1.489 2.065l1.863-.02zm-16.577-9.376a.703.703 0 010-1.409h1.331c.388 0 .702.317.702.705v6.221c0 .925-1.406.925-1.406 0v-5.517h-.627z" fill="#1F5AFF"/></g><defs><clipPath id="clip0_1004_2320"><path fill="#fff" d="M0 0h48v48H0z"/></clipPath></defs></svg>