<svg width="48" height="48" viewBox="0 0 48 48" fill="none" xmlns="http://www.w3.org/2000/svg"><g clip-path="url(#clip0_1094_4489)" fill="#1F5AFF"><path d="M43.22 38.077A4.492 4.492 0 0045 34.5a4.504 4.504 0 00-3.75-4.433v-.817a3.754 3.754 0 00-3.75-3.75H24.75v-2.733c.405.308.892.483 1.41.483a2.338 2.338 0 002.332-2.258 2.335 2.335 0 002.25-2.25 2.335 2.335 0 002.25-2.25 2.34 2.34 0 002.258-2.333 2.33 2.33 0 00-.685-1.655l-.157-.156A7.06 7.06 0 0036 7.864 7.122 7.122 0 0028.886.75 7.06 7.06 0 0024 2.703 7.061 7.061 0 0019.114.75 7.122 7.122 0 0012 7.864c0 1.843.701 3.574 1.969 4.903a2.32 2.32 0 00-.469 1.392 2.339 2.339 0 002.258 2.333 2.335 2.335 0 002.25 2.25 2.335 2.335 0 002.25 2.25 2.34 2.34 0 002.333 2.258c.228 0 .447-.043.659-.105V25.5H10.5a3.754 3.754 0 00-3.75 3.75v.817A4.504 4.504 0 003 34.5c0 1.459.701 2.754 1.78 3.577A6.756 6.756 0 00.75 44.25v3h13.5v-3a6.756 6.756 0 00-4.03-6.173A4.492 4.492 0 0012 34.5a4.504 4.504 0 00-3.75-4.433v-.817c0-1.24 1.01-2.25 2.25-2.25h12.75v3.067A4.503 4.503 0 0019.5 34.5c0 1.459.701 2.754 1.78 3.577a6.756 6.756 0 00-4.03 6.173v3h13.5v-3a6.756 6.756 0 00-4.03-6.173A4.492 4.492 0 0028.5 34.5a4.504 4.504 0 00-3.75-4.433V27H37.5c1.24 0 2.25 1.01 2.25 2.25v.817A4.503 4.503 0 0036 34.5c0 1.459.701 2.754 1.78 3.577a6.756 6.756 0 00-4.03 6.173v3h13.5v-3a6.756 6.756 0 00-4.03-6.173zM28.885 2.25A5.62 5.62 0 0134.5 7.864a5.566 5.566 0 01-1.163 3.412L29.89 7.828c.224-.168.44-.347.642-.548l-1.06-1.06a4.345 4.345 0 01-3.093 1.28H25.19l-1.28 1.28a.747.747 0 01-.53.22h-2.82a.311.311 0 01-.22-.53l4.576-4.576a5.579 5.579 0 013.97-1.644zm-9.772 0a5.57 5.57 0 013.818 1.507L19.28 7.409a1.813 1.813 0 001.281 3.09h2.817a2.234 2.234 0 001.592-.658L25.81 9h.568c.75 0 1.476-.143 2.152-.41l4.974 4.975a.842.842 0 01-1.19 1.19L30.53 12.97l-1.06 1.06 1.784 1.785a.842.842 0 01-1.19 1.19L28.28 15.22l-1.06 1.06 1.784 1.784a.842.842 0 01-1.19 1.19L26.03 17.47l-1.06 1.06 1.784 1.784a.842.842 0 01-1.19 1.19l-.25-.25a2.335 2.335 0 00-2.072-3.246 2.335 2.335 0 00-2.25-2.25 2.335 2.335 0 00-2.25-2.25 2.34 2.34 0 00-2.333-2.258c-.504 0-.98.165-1.378.458A5.57 5.57 0 0113.5 7.864a5.62 5.62 0 015.614-5.614zM15 14.16c0-.226.088-.437.246-.595l.569-.569a.842.842 0 011.19 1.19l-.57.568A.842.842 0 0115 14.159zm2.25 2.25c0-.226.088-.437.246-.595l.569-.569a.842.842 0 011.19 1.19l-.57.568a.842.842 0 01-1.436-.595zm2.25 2.25c0-.226.088-.436.246-.596l.569-.568a.842.842 0 011.19 1.19l-.57.568a.842.842 0 01-1.436-.595zm3.09 3.09a.842.842 0 01-.594-1.436l.569-.568a.842.842 0 011.19 1.19l-.57.568a.837.837 0 01-.594.246zm-9.84 22.5v1.5h-1.5v-3h-1.5v3h-4.5v-3h-1.5v3h-1.5v-1.5A5.256 5.256 0 017.5 39a5.256 5.256 0 015.25 5.25zM10.5 34.5c0 1.654-1.345 3-3 3-1.654 0-3-1.346-3-3s1.346-3 3-3c1.655 0 3 1.346 3 3zm18.75 9.75v1.5h-1.5v-3h-1.5v3h-4.5v-3h-1.5v3h-1.5v-1.5A5.256 5.256 0 0124 39a5.256 5.256 0 015.25 5.25zM27 34.5c0 1.654-1.346 3-3 3s-3-1.346-3-3 1.346-3 3-3 3 1.346 3 3zm10.5 0c0-1.654 1.346-3 3-3s3 1.346 3 3-1.346 3-3 3-3-1.346-3-3zm8.25 11.25h-1.5v-3h-1.5v3h-4.5v-3h-1.5v3h-1.5v-1.5A5.256 5.256 0 0140.5 39a5.256 5.256 0 015.25 5.25v1.5z"/><path d="M28.5 28.5H30V30h-1.5v-1.5zm3 0H33V30h-1.5v-1.5zm3 0H36V30h-1.5v-1.5zm-22.5 0h1.5V30H12v-1.5zm3 0h1.5V30H15v-1.5zm3 0h1.5V30H18v-1.5z"/></g><defs><clipPath id="clip0_1094_4489"><path fill="#fff" d="M0 0h48v48H0z"/></clipPath></defs></svg>