<svg width="245" height="119" viewBox="0 0 245 119" fill="none" xmlns="http://www.w3.org/2000/svg">
<g clip-path="url(#clip0_1202_4627)">
<path d="M226.848 105.2C192.094 90.157 156.432 77.566 120.239 66.3967C116.004 65.0879 114.193 71.6767 118.413 72.9779C154.03 83.9668 189.177 96.287 223.378 111.089C227.393 112.834 230.901 106.96 226.848 105.2Z" fill="#1F5AFF"/>
<path d="M243.236 94.85C209.801 78.8368 175.177 61.6879 138.12 56.0468C133.794 55.3849 131.93 61.9586 136.294 62.628C172.836 68.1864 206.793 84.9442 239.766 100.739C243.736 102.642 247.229 96.7605 243.236 94.85Z" fill="#1F5AFF"/>
<path d="M196.232 112.255C169.23 104.132 141.735 97.9418 114.285 91.5486C109.982 90.5482 108.148 97.122 112.459 98.1298C139.909 104.531 167.411 110.713 194.406 118.836C198.642 120.115 200.46 113.526 196.232 112.255Z" fill="#1F5AFF"/>
</g>
<path d="M1.58559e-05 58.3972C1.58559e-05 58.3972 9.96511 81.5408 34.0121 79.9185C58.059 78.2962 54.2123 41.0909 66.2663 40.013C78.3202 38.9296 84.8599 52.9914 117.552 40.013C150.245 27.0346 160 0 160 0H0L1.58559e-05 58.3972Z" fill="#FFDD00"/>
<defs>
<clipPath id="clip0_1202_4627">
<rect width="135" height="63" fill="white" transform="translate(110 56)"/>
</clipPath>
</defs>
</svg>
