<svg width="245" height="119" viewBox="0 0 245 119" fill="none" xmlns="http://www.w3.org/2000/svg"><g clip-path="url(#clip0_1202_4627)" fill="#1F5AFF"><path d="M226.848 105.2c-34.754-15.043-70.416-27.634-106.609-38.803-4.235-1.31-6.046 5.28-1.826 6.58 35.617 10.99 70.764 23.31 104.965 38.112 4.015 1.745 7.523-4.129 3.47-5.889zm16.388-10.35c-33.435-16.013-68.059-33.162-105.116-38.803-4.326-.662-6.19 5.912-1.826 6.581 36.542 5.558 70.499 22.316 103.472 38.111 3.97 1.903 7.463-3.979 3.47-5.889zm-47.004 17.405c-27.002-8.123-54.497-14.313-81.947-20.706-4.303-1-6.137 5.573-1.826 6.58 27.45 6.402 54.952 12.584 81.947 20.707 4.236 1.279 6.054-5.31 1.826-6.581z"/></g><path d="M0 58.397s9.965 23.144 34.012 21.521c24.047-1.622 20.2-38.827 32.254-39.905 12.054-1.083 18.594 12.978 51.286 0C150.245 27.035 160 0 160 0H0v58.397z" fill="#FD0"/><defs><clipPath id="clip0_1202_4627"><path fill="#fff" transform="translate(110 56)" d="M0 0h135v63H0z"/></clipPath></defs></svg>