<svg width="189" height="151" viewBox="0 0 189 151" fill="none" xmlns="http://www.w3.org/2000/svg"><path d="M189 44.76s-41.637-38.368-74.008-5.363c-32.372 33.01-9.516 56.353-63.677 73.058C19.535 122.255 9 151 9 151h180V44.76z" fill="#1F5AFF"/><path d="M47.599 110.308c3.02 3.128 4.272 6.681 3.756 10.661-.501 3.964-2.755 7.88-6.762 11.75-3.691 3.564-7.628 6.022-11.81 7.374l-6.59-6.824c3.341-1.212 6.023-2.382 8.044-3.509 2.036-1.143 3.725-2.361 5.066-3.656 1.609-1.554 2.542-3.05 2.799-4.489.272-1.454-.179-2.789-1.353-4.005-.656-.68-1.425-1.097-2.307-1.253-.898-.172-1.953-.144-3.168.082-1.198.211-3.444.869-6.737 1.973-3.075 1.046-5.584 1.621-7.525 1.725a14.95 14.95 0 01-5.621-.754c-1.806-.607-3.495-1.724-5.066-3.351-2.96-3.065-4.253-6.472-3.88-10.221.39-3.764 2.413-7.414 6.073-10.948 1.798-1.736 3.716-3.176 5.753-4.318 2.052-1.158 4.343-2.21 6.873-3.158l3.15 7.996c-2.579 1.024-4.62 1.973-6.124 2.845a20.228 20.228 0 00-3.985 2.978c-1.388 1.34-2.14 2.692-2.256 4.056-.116 1.364.33 2.567 1.337 3.609.625.648 1.324 1.072 2.097 1.272.757.185 1.68.194 2.77.027 1.09-.197 3.421-.892 6.995-2.084 4.73-1.575 8.448-2.159 11.157-1.753 2.694.391 5.132 1.716 7.314 3.975zm36.738-16.886l-10.472-5.824-12.611 12.18 5.455 10.668-7.903 7.632L37.422 71.5l8.968-8.66 45.85 22.95-7.903 7.632zM66.165 83.129a9714.112 9714.112 0 01-16.17-8.885c-1.23-.705-2.183-1.28-2.859-1.728 1.432 2.525 4.77 8.965 10.014 19.319l9.015-8.706zm30.453-1.566L63.162 46.92l7.335-7.083 27.597 28.578 14.032-13.55 5.858 6.066-21.366 20.633zm47.323-45.699l-19.923 19.24-33.456-34.645 19.923-19.24 5.813 6.02-12.588 12.155 7.345 7.607 11.713-11.31 5.812 6.018-11.712 11.31 8.627 8.934 12.588-12.156 5.858 6.067z" fill="#1F5AFF"/><g clip-path="url(#clip0_1072_6176)" fill="#FD0"><path d="M143.43 67.545c-5.03 0-5.039 7.854 0 7.854 5.031 0 5.04-7.854 0-7.854zm-13.548 32.35c-5.031 0-5.04 7.854 0 7.854 5.022 0 5.03-7.853 0-7.853zm32.181 18.73c-5.03 0-5.039 7.854 0 7.854 5.031.009 5.039-7.854 0-7.854zm10.164-27.241c-5.03 0-5.039 7.854 0 7.854 5.031 0 5.039-7.854 0-7.854zm-1.697-28.949c-5.03 0-5.039 7.855 0 7.855 5.031 0 5.039-7.855 0-7.855zm-54.207 6.807c-5.031 0-5.039 7.854 0 7.854 5.031.009 5.039-7.854 0-7.854zM138.348 42c-5.03 0-5.039 7.854 0 7.854 5.031 0 5.04-7.854 0-7.854zm-35.576 68.113c-5.03 0-5.039 7.854 0 7.854 5.031 0 5.039-7.854 0-7.854zm42.356 17.033c-5.031 0-5.039 7.854 0 7.854 5.022 0 5.03-7.854 0-7.854z"/></g><defs><clipPath id="clip0_1072_6176"><path fill="#fff" transform="translate(99 42)" d="M0 0h77v93H0z"/></clipPath></defs></svg>