<svg width="240" height="18" viewBox="0 0 240 18" fill="none" xmlns="http://www.w3.org/2000/svg">
<g clip-path="url(#clip0_5520_3865)">
<path d="M0 6.6133V17.1828H4.20646V6.6133H0ZM22.2661 17.1828H26.4726V0H20.4714L13.3484 11.8685L5.77686 0H0V4.54663H4.26254L11.8902 17.1828H14.6946L22.2661 4.54663V17.1828Z" fill="#131313"/>
<path d="M29.4668 12.9018V4.28093C29.4668 3.09998 29.9809 2.09618 31.0092 1.26952C32.0374 0.423074 33.29 0 34.7668 0H50.6392C52.0975 0 53.3502 0.432966 54.397 1.29904C55.4253 2.1257 55.9394 3.1295 55.9394 4.31045V12.9018C55.9394 14.0827 55.4253 15.0964 54.397 15.9427C53.3502 16.7694 52.0975 17.1828 50.6392 17.1828H34.7668C33.29 17.1828 32.0374 16.7694 31.0092 15.9427C29.9809 15.0964 29.4668 14.0827 29.4668 12.9018ZM51.761 10.0971V6.79043C51.6301 6.19996 51.2376 5.67828 50.5832 5.22569C49.9476 4.77294 49.125 4.54663 48.1154 4.54663H37.2346C36.2439 4.54663 35.4118 4.77294 34.7389 5.22569C34.0658 5.65865 33.7106 6.19997 33.6732 6.84948V10.1561C33.6732 10.471 33.7573 10.7761 33.9256 11.0714C34.1126 11.3468 34.3651 11.5929 34.6827 11.8095C35.0006 12.0258 35.3745 12.203 35.8045 12.3409C36.2346 12.459 36.7018 12.518 37.2067 12.518H48.2556C49.1529 12.518 49.9569 12.2819 50.6673 11.8095C51.3964 11.3173 51.761 10.7466 51.761 10.0971Z" fill="#131313"/>
<path d="M74.1909 17.1828H69.9845V4.54663H58.9355V0H85.4081V4.54663H74.1909V17.1828Z" fill="#131313"/>
<path d="M103.656 17.1828H99.4493V4.54663H88.4004V0H114.872V4.54663H103.656V17.1828Z" fill="#131313"/>
<path d="M144.34 12.518V17.1828H123.167C121.691 17.1828 120.437 16.7694 119.41 15.9427C118.382 15.0964 117.867 14.0827 117.867 12.9018V6.49519H144.34V10.5695H122.074V12.518H144.34ZM117.867 4.54663V4.28093C117.867 3.09998 118.382 2.09618 119.41 1.26952C120.437 0.423074 121.691 0 123.167 0H144.34V4.54663H117.867Z" fill="#131313"/>
<path d="M157.262 10.5695L151.934 17.1828H147.334L154.121 8.5028L147.334 0H151.934L157.262 6.6133V10.5695Z" fill="#131313"/>
<path d="M181.01 17.1833H176.803V12.6367H181.01V17.1833Z" fill="#19BEFF"/>
<path d="M200.606 10.5695H188.267V17.1828H184.061V6.49519H206.159V4.54663H184.061V0H205.233C205.98 0 206.682 0.0983148 207.336 0.295237C207.991 0.472379 208.551 0.747834 209.018 1.1219C209.485 1.49581 209.85 1.96819 210.113 2.53903C210.392 3.10973 210.533 3.77903 210.533 4.54663V6.49519C210.533 7.99102 210.095 9.04397 209.215 9.65423C208.356 10.2643 207.018 10.5695 205.205 10.5695L210.533 17.1828H205.934L200.606 10.5695Z" fill="#19BEFF"/>
<path d="M235.822 10.0971V0H240.001V12.9018C240.001 14.0827 239.486 15.0964 238.459 15.9427C237.411 16.7694 236.158 17.1828 234.7 17.1828H218.828C217.351 17.1828 216.098 16.7694 215.071 15.9427C214.041 15.0964 213.527 14.0827 213.527 12.9018V0H217.735V10.1561C217.735 10.471 217.819 10.7761 217.987 11.0714C218.174 11.3468 218.426 11.5929 218.744 11.8095C219.061 12.0258 219.435 12.203 219.866 12.3409C220.294 12.459 220.763 12.518 221.267 12.518H232.317C233.215 12.518 234.017 12.2819 234.729 11.8095C235.457 11.3173 235.822 10.7466 235.822 10.0971Z" fill="#19BEFF"/>
<path d="M159.338 10.5695H163.881L169.209 17.1828H173.809L167.021 8.5028L173.809 0H169.209L163.881 6.6133H159.338V10.5695Z" fill="#19BEFF"/>
</g>
<defs>
<clipPath id="clip0_5520_3865">
<rect width="240" height="18" fill="white"/>
</clipPath>
</defs>
</svg>
