<?xml version="1.0" encoding="utf-8"?><svg viewBox="0 0 56 44" xmlns="http://www.w3.org/2000/svg" xmlns:xlink="http://www.w3.org/1999/xlink"><style>:root>svg{display:none}:root>svg:target{display:block}</style><svg fill="none" viewBox="0 0 40 32" id="arrow-right" xmlns="http://www.w3.org/2000/svg"><path d="M10 16h20M22 8l8 8-8 8" stroke="#1F5AFF" stroke-width="3" stroke-linecap="round" stroke-linejoin="round"/></svg><svg fill="none" viewBox="0 0 24 24" id="chevron-left" xmlns="http://www.w3.org/2000/svg"><path d="M15 18l-6-6 6-6" stroke="#1F5AFF" stroke-width="2" stroke-linecap="round" stroke-linejoin="round"/></svg><svg fill="none" viewBox="0 0 24 24" id="chevron-right" xmlns="http://www.w3.org/2000/svg"><path d="M9 18l6-6-6-6" stroke="#1F5AFF" stroke-width="2" stroke-linecap="round" stroke-linejoin="round"/></svg><svg fill="none" viewBox="0 0 12 12" id="dot" xmlns="http://www.w3.org/2000/svg"><g opacity=".75"><path d="M6 12A6 6 0 106 0a6 6 0 000 12z" fill="#1F5AFF"/><path d="M6 12A6 6 0 106 0a6 6 0 000 12z" fill="url(#dpaint0_linear_584_1933)"/></g><g opacity=".75"><path d="M1.758 10.243a6 6 0 008.485-8.486l-8.485 8.486z" fill="#1F5AFF"/><path d="M1.758 10.243a6 6 0 008.485-8.486l-8.485 8.486z" fill="url(#dpaint1_linear_584_1933)"/></g><defs><linearGradient id="dpaint0_linear_584_1933" x1="6" y1="-14.412" x2="6" y2="11.999" gradientUnits="userSpaceOnUse"><stop stop-color="#D5EBFF"/><stop offset="1" stop-color="#D5EBFF" stop-opacity="0"/></linearGradient><linearGradient id="dpaint1_linear_584_1933" x1="6.879" y1="-10.544" x2="6.879" y2="12" gradientUnits="userSpaceOnUse"><stop stop-color="#D5EBFF"/><stop offset="1" stop-color="#D5EBFF" stop-opacity="0"/></linearGradient></defs></svg><svg fill="none" viewBox="0 0 25 24" id="ic_arrow-right" xmlns="http://www.w3.org/2000/svg"><path d="M5.5 12h14M12.5 5l7 7-7 7" stroke="#1F5AFF" stroke-width="2" stroke-linecap="round" stroke-linejoin="round"/></svg><svg viewBox="0 0 24 24" id="ic_close" xmlns="http://www.w3.org/2000/svg"><path d="M0 0h24v24H0V0z" fill="none"/><path d="M19 6.41L17.59 5 12 10.59 6.41 5 5 6.41 10.59 12 5 17.59 6.41 19 12 13.41 17.59 19 19 17.59 13.41 12 19 6.41z"/></svg><svg viewBox="0 0 24 24" id="ic_expand" xmlns="http://www.w3.org/2000/svg"><path d="M24 24H0V0h24v24z" fill="none" opacity=".87"/><path d="M16.59 8.59L12 13.17 7.41 8.59 6 10l6 6 6-6-1.41-1.41z"/></svg><svg fill="none" viewBox="0 0 24 24" id="ic_menu" xmlns="http://www.w3.org/2000/svg"><path d="M6 12h16M2 6h20M2 18h20" stroke="#000" stroke-width="2" stroke-linecap="round" stroke-linejoin="round"/></svg><svg fill="none" viewBox="0 0 24 24" id="ic_menu-close" xmlns="http://www.w3.org/2000/svg"><path d="M18 6L6 18M6 6l12 12" stroke="#fff" stroke-width="2" stroke-linecap="round" stroke-linejoin="round"/></svg><svg fill="none" viewBox="0 0 44 44" id="ic_more" xmlns="http://www.w3.org/2000/svg"><path d="M22 9v26m0 0l13-13M22 35L9 22" stroke="#fff" stroke-width="4" stroke-linecap="round" stroke-linejoin="round"/></svg><svg viewBox="0 0 24 24" id="ic_person" xmlns="http://www.w3.org/2000/svg"><path d="M0 0h24v24H0V0z" fill="none"/><path d="M12 2C6.48 2 2 6.48 2 12s4.48 10 10 10 10-4.48 10-10S17.52 2 12 2zM7.07 18.28c.43-.9 3.05-1.78 4.93-1.78s4.51.88 4.93 1.78C15.57 19.36 13.86 20 12 20s-3.57-.64-4.93-1.72zm11.29-1.45c-1.43-1.74-4.9-2.33-6.36-2.33s-4.93.59-6.36 2.33A7.95 7.95 0 014 12c0-4.41 3.59-8 8-8s8 3.59 8 8c0 1.82-.62 3.49-1.64 4.83zM12 6c-1.94 0-3.5 1.56-3.5 3.5S10.06 13 12 13s3.5-1.56 3.5-3.5S13.94 6 12 6zm0 5c-.83 0-1.5-.67-1.5-1.5S11.17 8 12 8s1.5.67 1.5 1.5S12.83 11 12 11z"/></svg><svg fill="none" viewBox="0 0 24 24" id="ic_phone" xmlns="http://www.w3.org/2000/svg"><path d="M15.05 5A5 5 0 0119 8.95M15.05 1A9 9 0 0123 8.94m-1 7.98v3a1.998 1.998 0 01-2.18 2 19.791 19.791 0 01-8.63-3.07 19.5 19.5 0 01-6-6 19.79 19.79 0 01-3.07-8.67A2 2 0 014.11 2h3a2 2 0 012 1.72c.127.96.362 1.903.7 2.81a2 2 0 01-.45 2.11L8.09 9.91a16.001 16.001 0 006 6l1.27-1.27a2 2 0 012.11-.45c.908.339 1.85.573 2.81.7A2 2 0 0122 16.92z" stroke="#000" stroke-width="2" stroke-linecap="round" stroke-linejoin="round"/></svg><svg fill="none" viewBox="0 0 56 40" id="ic_quote-left" xmlns="http://www.w3.org/2000/svg"><path d="M14.703 40L0 20.109 14.595 0h15.567L16.216 20l13.946 20h-15.46zm25.838 0L25.838 20.109 40.432 0H56L42.054 20 56 40H40.54z" fill="#1F5AFF"/></svg><svg fill="none" viewBox="0 0 56 40" id="ic_quote-right" xmlns="http://www.w3.org/2000/svg"><path d="M15.676 40H0l14.054-20L0 0h15.784l14.378 20.109L15.676 40zm25.838 0H25.837l14.054-20L25.838 0h15.784L56 20.109 41.514 40z" fill="#1F5AFF"/></svg><svg viewBox="0 0 24 24" id="ic_up" xmlns="http://www.w3.org/2000/svg"><path d="M0 0h24v24H0V0z" fill="none"/><path d="M4 12l1.41 1.41L11 7.83V20h2V7.83l5.58 5.59L20 12l-8-8-8 8z"/></svg><svg fill="none" viewBox="0 0 44 44" id="icon_arrow_right" xmlns="http://www.w3.org/2000/svg"><path d="M9 22h26M22 9l13 13-13 13" stroke="#fff" stroke-width="4" stroke-linecap="round" stroke-linejoin="round"/></svg><svg fill="none" viewBox="0 0 24 24" id="icon_check_24" xmlns="http://www.w3.org/2000/svg"><path d="M19 7l-9.625 9L5 11.91" stroke="#1F5AFF" stroke-width="2" stroke-linecap="round" stroke-linejoin="round"/></svg><svg fill="none" viewBox="0 0 24 24" id="icon_go_top" xmlns="http://www.w3.org/2000/svg"><path d="M17 11l-5-5-5 5M17 18l-5-5-5 5" stroke="#fff" stroke-width="2" stroke-linecap="round" stroke-linejoin="round"/></svg><svg fill="none" viewBox="0 0 32 32" id="icon_minus_32" xmlns="http://www.w3.org/2000/svg"><path d="M8 16h16" stroke="#1F5AFF" stroke-width="2" stroke-linecap="round" stroke-linejoin="round"/></svg><svg fill="none" viewBox="0 0 32 32" id="icon_plus_32" xmlns="http://www.w3.org/2000/svg"><path d="M16 8v16M7.999 16h16" stroke="#1F5AFF" stroke-width="2" stroke-linecap="round" stroke-linejoin="round"/></svg><svg fill="none" viewBox="0 0 18 20" id="play" xmlns="http://www.w3.org/2000/svg"><path d="M18 10L0 20V0l18 10z" fill="#fff"/></svg><svg fill="none" viewBox="0 0 12 12" id="plus" xmlns="http://www.w3.org/2000/svg"><path d="M6 1v10M1 6h10" stroke="#4778FF" stroke-width="2" stroke-linecap="round" stroke-linejoin="round"/></svg><svg fill="none" viewBox="0 0 32 32" id="skype" xmlns="http://www.w3.org/2000/svg"><g clip-path="url(#wclip0_578_3822)"><path d="M16.065 25.63c-5.316 0-7.744-2.707-7.744-4.694a1.722 1.722 0 011.817-1.723c2.276 0 1.68 3.414 5.927 3.414 2.17 0 3.445-1.307 3.445-2.535 0-.737-.42-1.58-1.854-1.917l-4.742-1.196c-3.809-.97-4.473-3.087-4.473-5.052 0-4.078 3.73-5.554 7.281-5.554 3.272 0 7.16 1.807 7.16 4.252 0 1.054-.88 1.618-1.9 1.618-1.945 0-1.618-2.73-5.528-2.73-1.944 0-2.966.912-2.966 2.187s1.512 1.707 2.84 1.997l3.498.791c3.836.864 4.858 3.113 4.858 5.268 0 3.313-2.566 5.875-7.623 5.875m14.681-7.012c.152-.87.228-1.751.227-2.635a14.971 14.971 0 00-17.565-14.81A8.8 8.8 0 008.989 0a8.956 8.956 0 00-7.728 13.388 14.984 14.984 0 0017.343 17.437A8.81 8.81 0 0023.014 32a8.955 8.955 0 007.73-13.381z" fill="#00AAE8"/></g><defs><clipPath id="wclip0_578_3822"><path fill="#fff" d="M0 0h32v32H0z"/></clipPath></defs></svg><svg fill="none" viewBox="0 0 32 32" id="telegram" xmlns="http://www.w3.org/2000/svg"><g clip-path="url(#xclip0_578_3815)"><path fill-rule="evenodd" clip-rule="evenodd" d="M16 0C7.164 0 0 7.164 0 16s7.164 16 16 16 16-7.164 16-16S24.836 0 16 0zm7.416 10.881c-.24 2.53-1.283 8.67-1.812 11.503-.224 1.2-.667 1.601-1.093 1.64-.93.085-1.635-.615-2.535-1.204-1.408-.923-2.204-1.497-3.57-2.399-1.58-1.041-.557-1.613.343-2.548.236-.245 4.33-3.969 4.41-4.306.009-.043.02-.2-.075-.283-.095-.083-.232-.055-.33-.032-.142.032-2.391 1.519-6.75 4.46-.639.439-1.217.652-1.736.641-.57-.012-1.67-.322-2.487-.589-1.001-.325-1.798-.499-1.729-1.05.036-.289.432-.583 1.19-.885 4.663-2.032 7.774-3.372 9.33-4.02 4.444-1.848 5.367-2.169 5.97-2.18.754-.01.935.612.874 1.252z" fill="#1C93CF"/></g><defs><clipPath id="xclip0_578_3815"><path fill="#fff" d="M0 0h32v32H0z"/></clipPath></defs></svg><svg fill="none" viewBox="0 0 32 32" id="whatsapp" xmlns="http://www.w3.org/2000/svg"><g clip-path="url(#yclip0_578_3818)"><path fill-rule="evenodd" clip-rule="evenodd" d="M27.284 4.65A15.756 15.756 0 0016.067 0C7.327 0 .214 7.112.21 15.856a15.828 15.828 0 002.117 7.928L.077 32l8.405-2.205a15.84 15.84 0 007.577 1.93h.006c8.74 0 15.854-7.113 15.858-15.857a15.755 15.755 0 00-4.639-11.217zM16.067 29.048h-.006c-2.365 0-4.684-.636-6.707-1.838l-.482-.285-4.988 1.308 1.332-4.864-.313-.499a13.14 13.14 0 01-2.015-7.013C2.891 8.589 8.804 2.677 16.073 2.677c3.52 0 6.83 1.374 9.318 3.864a13.103 13.103 0 013.856 9.324c-.004 7.27-5.916 13.182-13.18 13.182zm7.23-9.871c-.397-.199-2.345-1.157-2.709-1.29-.363-.131-.627-.198-.892.198s-1.023 1.29-1.255 1.555c-.23.264-.462.297-.858.098-.396-.198-1.673-.616-3.187-1.966-1.177-1.051-1.973-2.348-2.204-2.746-.23-.397-.024-.61.174-.808.178-.177.396-.462.594-.694.2-.23.265-.395.399-.66.132-.264.066-.496-.034-.695-.1-.197-.891-2.148-1.22-2.941-.322-.774-.649-.668-.893-.68-.23-.012-.495-.014-.76-.014-.264 0-.693.099-1.056.496-.362.398-1.386 1.356-1.386 3.306s1.42 3.834 1.617 4.098c.197.264 2.793 4.267 6.768 5.983a22.94 22.94 0 002.259.835c.949.301 1.813.258 2.495.157.762-.113 2.345-.959 2.675-1.884.33-.925.33-1.72.23-1.884-.098-.167-.362-.265-.758-.464z" fill="#48A91F"/></g><defs><clipPath id="yclip0_578_3818"><path fill="#fff" d="M0 0h32v32H0z"/></clipPath></defs></svg></svg>