<svg width="48" height="48" viewBox="0 0 48 48" fill="none" xmlns="http://www.w3.org/2000/svg"><g clip-path="url(#clip0_862_1152)" fill="#fff"><path d="M47.235 23.48a3.544 3.544 0 00-1.945-1.315.704.704 0 00-.179-.022h-.019A3.511 3.511 0 0045.833 20c0-1.973-1.617-3.571-3.61-3.571-1.995 0-3.612 1.598-3.612 3.57.005.346.061.688.167 1.017a3.395 3.395 0 00-.708-.279.735.735 0 00-.181-.023h-.019a3.511 3.511 0 00.741-2.143C38.611 16.6 36.994 15 35 15c-1.994 0-3.611 1.599-3.611 3.571.003.776.263 1.529.74 2.143h-.018a.731.731 0 00-.181.023c-.246.066-.484.16-.708.28.106-.33.162-.672.167-1.017 0-1.973-1.617-3.571-3.611-3.571-1.995 0-3.611 1.598-3.611 3.57a3.51 3.51 0 00.74 2.144h-.018a.708.708 0 00-.183.023A3.69 3.69 0 0022 25.714v2.858c0 .394.323.714.722.714h1.445v5c0 .394.323.714.722.714.399 0 .722-.32.722-.714V28.57a.719.719 0 00-.722-.714h-1.444v-2.143a2.28 2.28 0 011.545-2.143h4.31a3.64 3.64 0 00-.078.715v2.857c0 .394.323.714.722.714h1.445v5c0 .395.323.714.722.714.399 0 .722-.32.722-.714v-5.714a.719.719 0 00-.722-.715h-1.444v-2.142a2.274 2.274 0 011.544-2.143h5.578a2.274 2.274 0 011.544 2.143v2.142H37.89a.718.718 0 00-.722.715v5.714c0 .395.323.714.722.714.399 0 .722-.32.722-.714v-5h1.445c.398 0 .722-.32.722-.714v-2.857a3.631 3.631 0 00-.079-.715h4.313c.43.137.805.406 1.07.769.305.395.47.877.474 1.374v2.143H45.11a.719.719 0 00-.722.715v5.714c0 .394.323.714.722.714.399 0 .722-.32.722-.714v-5h1.445c.398 0 .722-.32.722-.715v-2.857a3.686 3.686 0 00-.765-2.233zM25.611 20c0-1.184.97-2.143 2.167-2.143 1.196 0 2.166.96 2.166 2.143 0 1.183-.97 2.143-2.166 2.143-1.197 0-2.167-.96-2.167-2.143zm7.222-1.429c0-1.184.97-2.142 2.167-2.142 1.197 0 2.167.959 2.167 2.142 0 1.184-.97 2.143-2.167 2.143-1.197 0-2.167-.96-2.167-2.143zm9.39-.714c1.196 0 2.166.96 2.166 2.143 0 1.183-.97 2.143-2.167 2.143A2.155 2.155 0 0140.056 20c0-1.184.97-2.143 2.166-2.143z"/><path d="M39.214 41.6h-30.4v-6.4h1.348a5.596 5.596 0 105.852-7.936V26.4a5.609 5.609 0 00-4.528-5.495 4.789 4.789 0 00-2.672-8.033V6.4h30.4v7.2h1.6V4a4.004 4.004 0 00-4-4h-25.6a4.004 4.004 0 00-4 4v8.872a4.789 4.789 0 00-2.672 8.033A5.609 5.609 0 00.014 26.4v6.4a2.4 2.4 0 002.4 2.4h4.8V44a4.005 4.005 0 004 4h25.6a4.005 4.005 0 004-4v-9.6h-1.6v7.2zm-20-8.8a4 4 0 11-8 0 4 4 0 018 0zm-8-31.2h25.6a2.4 2.4 0 012.4 2.4v.8h-30.4V4a2.4 2.4 0 012.4-2.4zm-3.2 12.8a3.2 3.2 0 110 6.4 3.2 3.2 0 010-6.4zm-6.4 18.4v-6.4a4.005 4.005 0 014-4h4.8a4.005 4.005 0 014 4v.864A5.546 5.546 0 009.678 33.6H2.414a.8.8 0 01-.8-.8zm35.2 13.6h-25.6a2.4 2.4 0 01-2.4-2.4v-.8h30.4v.8a2.4 2.4 0 01-2.4 2.4z"/><path d="M36.014 8h1.6v1.6h-1.6V8zm-3.201 0h1.6v1.6h-1.6V8zm-3.199 0h1.6v1.6h-1.6V8zm-19.2 0h1.6v1.6h-1.6V8zm15.199 36h-3.2a.8.8 0 000 1.6h3.2a.8.8 0 000-1.6zM14.414 30.4V32h-1.6v1.6h1.6v1.6h1.6v-1.6h1.6V32h-1.6v-1.6h-1.6z"/></g><defs><clipPath id="clip0_862_1152"><path fill="#fff" d="M0 0h48v48H0z"/></clipPath></defs></svg>