<svg width="48" height="48" viewBox="0 0 48 48" fill="none" xmlns="http://www.w3.org/2000/svg"><path d="M42.325 18.903l-.008-.031a.937.937 0 10-1.82.45l.006.023a.938.938 0 101.822-.442zM17.502 30.586A7.636 7.636 0 0113.78 24c0-.84.134-1.665.4-2.453a.937.937 0 10-1.777-.598A9.547 9.547 0 0011.905 24a9.496 9.496 0 004.629 8.193.937.937 0 10.968-1.605zM28.02 17.037a9.525 9.525 0 00-6.553-2.6 9.528 9.528 0 00-3.332.597.938.938 0 00.654 1.757 7.659 7.659 0 012.678-.479c1.966 0 3.837.742 5.268 2.09a.933.933 0 001.325-.04.938.938 0 00-.04-1.325z" fill="#fff"/><path d="M47.063 24.282H40.01v-1.94c0-.942-.767-1.71-1.71-1.71h-1.258a15.86 15.86 0 00-4.307-7.901 15.953 15.953 0 00-14.127-4.41.937.937 0 00.335 1.844c4.544-.825 9.205.63 12.466 3.892a13.993 13.993 0 013.71 6.576h-5.117c-.942 0-1.71.767-1.71 1.71v1.939H21.24a.937.937 0 00-.937.937v5.75c0 .88.342 1.681.9 2.279v4.81c-3.657-.062-7.072-1.509-9.679-4.116a14.04 14.04 0 01-3.835-12.76.937.937 0 00-1.837-.374 15.911 15.911 0 004.346 14.46 16.002 16.002 0 0011.005 4.664v3.396c0 .088.006.175.017.26-10.69-.133-19.345-8.868-19.345-19.589 0-3.352.852-6.629 2.472-9.532l3.163 3.177a.938.938 0 00.664.277h5.896l5.78 5.78a.934.934 0 001.326 0 .937.937 0 000-1.326l-5.78-5.78v-5.896c0-.25-.1-.488-.276-.664l-3.17-3.164a19.556 19.556 0 019.517-2.464c7.605 0 14.586 4.46 17.786 11.363a.937.937 0 101.7-.789 21.501 21.501 0 00-7.781-8.98 21.384 21.384 0 00-11.704-3.468 21.422 21.422 0 00-10.894 2.966L7.875 2.808a.937.937 0 00-1.6.663v5.313H.948a.937.937 0 00-.665 1.598l2.694 2.707A21.423 21.423 0 000 23.999a21.326 21.326 0 006.287 15.18 21.326 21.326 0 0015.18 6.287H44.96a2.14 2.14 0 002.138-2.138v-10.08c.582-.62.901-1.426.901-2.28v-5.75a.937.937 0 00-.937-.936zM8.15 5.73l5.371 5.358v3.628l-5.37-5.383V5.73zm-1.326 4.928l5.371 5.387H8.564l-5.362-5.387h3.622zm23.343 11.85h7.968v1.774h-7.968v-1.774zm15.057 16.584h-6.151a.938.938 0 000 1.875h6.151v2.361a.264.264 0 01-.263.264H23.33a.263.263 0 01-.253-.264V34.26c.184.032.372.049.564.049h7.731a2.803 2.803 0 002.778 2.464 2.803 2.803 0 002.78-2.47l7.727.004h.002c.191 0 .38-.017.564-.048v4.833zm-11.997-5.118v-1.648h1.849v1.648a.925.925 0 01-1.849 0zm12.898-3.006c0 .391-.152.76-.43 1.036a1.455 1.455 0 01-1.035.429l-7.71-.005v-.86c0-.616-.501-1.117-1.117-1.117H32.47a1.12 1.12 0 00-1.118 1.118v.865h-7.71a1.466 1.466 0 01-1.465-1.465v-4.813h23.948v4.812z" fill="#fff"/><path d="M35.142 39.367a.944.944 0 00-.663-.275c-.247 0-.488.1-.663.275a.943.943 0 000 1.325.947.947 0 00.663.275c.247 0 .488-.1.663-.275a.944.944 0 00.275-.663c0-.246-.1-.488-.275-.663z" fill="#fff"/></svg>