<svg width="48" height="48" viewBox="0 0 48 48" fill="none" xmlns="http://www.w3.org/2000/svg"><path d="M27.993 12.84a.954.954 0 001.11-.756l.49-2.67.818 2.722a1.093 1.093 0 001.05.767h.006a1.092 1.092 0 001.047-.777l.79-2.718.522 2.685a.954.954 0 001.117.745.938.938 0 00.76-1.097l-1.167-5.988-.002-.012a1.091 1.091 0 00-1.013-.86 1.099 1.099 0 00-1.114.775l-.959 3.303-.995-3.312a1.098 1.098 0 00-1.123-.764 1.09 1.09 0 00-1.004.87l-.002.01-1.1 5.988a.939.939 0 00.77 1.089zm-12.351.062c.905 0 1.719-.292 2.354-.847.124-.109.241-.228.35-.355a.926.926 0 00-.118-1.32.967.967 0 00-1.345.115c-.05.057-.103.111-.158.16-.283.247-.647.373-1.083.373-1.2 0-2.176-.959-2.176-2.137s.976-2.136 2.176-2.136c.436 0 .857.126 1.216.364a.966.966 0 001.326-.252.927.927 0 00-.257-1.302 4.121 4.121 0 00-2.285-.685c-2.253 0-4.086 1.8-4.086 4.011 0 2.212 1.833 4.011 4.086 4.011zm7.357 0c1.403 0 2.582-.885 2.804-2.105.168-.924-.25-2.129-1.93-2.737a33.574 33.574 0 01-1.672-.662.256.256 0 01-.076-.232c.024-.162.162-.29.378-.355.799-.236 1.558.355 1.565.361l.097.068c.412.29.982.22 1.308-.16a.938.938 0 00-.192-1.398c-1.09-.716-2.188-1.004-3.33-.666-.928.275-1.586.996-1.716 1.883a2.107 2.107 0 00.964 2.1.942.942 0 00.133.071c.036.016.903.395 1.88.749.376.136.76.378.711.648-.041.226-.363.56-.924.56-.572 0-1.12-.223-1.47-.597a.981.981 0 00-1.314-.105.926.926 0 00-.106 1.358c.715.775 1.768 1.22 2.89 1.22z" fill="#fff"/><path d="M6.932 48h12.723c.527 0 .955-.42.955-.938a.946.946 0 00-.955-.937H6.932c-1.666 0-3.022-1.331-3.022-2.967V22.059c0-1.614 1.377-2.967 3.022-2.967h5.85c.773 0 1.526.296 2.085.819l2.315 2.165a5.007 5.007 0 003.402 1.337h20.424c1.667 0 3.082 1.305 3.082 2.967v16.778c0 1.636-1.356 2.967-3.022 2.967H28.057a.946.946 0 00-.955.937c0 .518.428.938.955.938h13.01C43.788 48 46 45.828 46 43.158V26.38c0-2.37-1.743-4.346-4.037-4.76V.936A.946.946 0 0041.008 0H6.69a.946.946 0 00-.955.938v16.424C3.592 17.889 2 19.795 2 22.059v21.099C2 45.828 4.213 48 6.932 48zM40.053 1.875v19.663H20.584a3.068 3.068 0 01-2.084-.82l-2.316-2.165a5.014 5.014 0 00-3.402-1.336H7.644V1.875h32.41z" fill="#fff"/><path d="M20.652 17.217c0 .518.428.937.955.937h14.795c.527 0 .955-.42.955-.937a.946.946 0 00-.955-.938H21.607a.946.946 0 00-.955.938zm6.33 25.005l.291-1.005a.301.301 0 01.364-.207l1.033.255a2.237 2.237 0 002.455-1.02l1.13-1.92a2.149 2.149 0 00-.327-2.598l-.742-.752a.292.292 0 010-.413l.742-.75c.685-.695.82-1.763.327-2.597l-1.13-1.922a2.237 2.237 0 00-2.454-1.02l-1.034.255a.301.301 0 01-.364-.206l-.291-1.008a2.218 2.218 0 00-2.127-1.575h-2.261c-.984 0-1.859.648-2.128 1.578l-.29 1.004a.302.302 0 01-.365.207l-1.032-.255a2.237 2.237 0 00-2.456 1.02l-1.129 1.92a2.148 2.148 0 00.327 2.599l.74.75a.292.292 0 010 .413l-.74.752a2.148 2.148 0 00-.328 2.596l1.13 1.922a2.236 2.236 0 002.455 1.02l1.033-.255a.3.3 0 01.364.206l.291 1.006a2.216 2.216 0 002.128 1.577h2.26c.982 0 1.857-.647 2.128-1.577zm-4.679-.512l-.29-1.006a2.196 2.196 0 00-2.12-1.58c-.18 0-.364.022-.547.067l-1.034.255a.304.304 0 01-.335-.138l-1.13-1.923a.292.292 0 01.045-.354l.741-.75a2.134 2.134 0 000-3.024l-.741-.75a.292.292 0 01-.045-.354l1.13-1.923a.304.304 0 01.335-.138l1.034.255c1.166.287 2.337-.377 2.666-1.513l.291-1.005a.302.302 0 01.29-.215h2.262c.134 0 .253.09.29.215l.29 1.006c.33 1.135 1.501 1.799 2.668 1.512l1.033-.255a.304.304 0 01.335.139l1.13 1.923a.292.292 0 01-.044.353l-.742.75a2.134 2.134 0 000 3.023l.741.752a.29.29 0 01.045.354l-1.13 1.922a.304.304 0 01-.335.139l-1.034-.256c-1.166-.286-2.337.378-2.666 1.513l-.29 1.004a.304.304 0 01-.291.217h-2.261a.303.303 0 01-.29-.215z" fill="#fff"/><path d="M27.262 34.77c0-1.916-1.588-3.475-3.539-3.475-1.95 0-3.537 1.559-3.537 3.474 0 1.916 1.586 3.474 3.537 3.474 1.951 0 3.539-1.558 3.539-3.474zm-3.539 1.598c-.897 0-1.627-.717-1.627-1.599 0-.881.73-1.599 1.627-1.599.898 0 1.629.718 1.629 1.6 0 .88-.73 1.598-1.629 1.598zm.914 10.174a.973.973 0 00-1.049-.383.951.951 0 00-.7.88c-.023.835 1.055 1.278 1.644.672a.934.934 0 00.105-1.169z" fill="#fff"/></svg>