<svg width="48" height="48" viewBox="0 0 48 48" fill="none" xmlns="http://www.w3.org/2000/svg"><g clip-path="url(#clip0_652_1007)" fill="#fff"><path d="M46.4 38.4V9.6a4.005 4.005 0 00-4-4h-8.218a1.6 1.6 0 00-.464-1.183l-1.335-1.335a1.6 1.6 0 00-2.018-.202l-2.053 1.35a9.358 9.358 0 00-1.318-.541l-.48-2.4A1.6 1.6 0 0024.944 0h-1.888a1.6 1.6 0 00-1.569 1.286l-.499 2.407a9.283 9.283 0 00-1.315.547l-2.037-1.36a1.6 1.6 0 00-2.02.2l-1.334 1.337c-.312.313-.48.741-.464 1.183H5.6a4.005 4.005 0 00-4 4v28.8A1.6 1.6 0 000 40v2.4A5.606 5.606 0 005.6 48h36.8a5.606 5.606 0 005.6-5.6V40a1.6 1.6 0 00-1.6-1.6zM16.748 4.213l2.038 1.36a1.62 1.62 0 001.621.088c.35-.176.71-.325 1.082-.447.554-.18.97-.643 1.086-1.214l.48-2.4h1.888l.48 2.4c.118.57.533 1.031 1.087 1.21.37.122.733.272 1.082.447.517.263 1.136.23 1.62-.088l2.038-1.36 1.336 1.335-1.36 2.038a1.619 1.619 0 00-.088 1.621c.175.35.324.71.447 1.082.178.556.643.973 1.215 1.09l2.4.48v1.888l-2.4.48a1.616 1.616 0 00-1.21 1.087 8.027 8.027 0 01-.447 1.082 1.617 1.617 0 00.088 1.62l1.36 2.038-1.335 1.336-2.038-1.36a1.624 1.624 0 00-1.621-.088c-.35.175-.71.324-1.082.447a1.616 1.616 0 00-1.09 1.215l-.48 2.4h-1.889l-.48-2.4a1.616 1.616 0 00-1.086-1.21 8.027 8.027 0 01-1.083-.447 1.652 1.652 0 00-.74-.176c-.313 0-.619.091-.88.264l-2.037 1.36-1.336-1.335 1.36-2.038a1.619 1.619 0 00.088-1.621 7.986 7.986 0 01-.447-1.082 1.616 1.616 0 00-1.215-1.09l-2.4-.48v-1.889l2.4-.48a1.616 1.616 0 001.21-1.086 8.03 8.03 0 01.447-1.083 1.617 1.617 0 00-.088-1.62l-1.36-2.038 1.339-1.336zM3.2 9.6a2.4 2.4 0 012.4-2.4h8.983l.847 1.288a9.36 9.36 0 00-.541 1.318l-2.4.48a1.6 1.6 0 00-1.289 1.57v1.888a1.6 1.6 0 001.286 1.569l2.407.499c.148.452.331.891.547 1.315l-1.36 2.037a1.6 1.6 0 00.2 2.02l1.334 1.334a1.6 1.6 0 002.019.2l2.053-1.348a9.36 9.36 0 001.318.541l.48 2.4a1.6 1.6 0 001.572 1.289h1.888a1.6 1.6 0 001.569-1.286l.499-2.407a9.288 9.288 0 001.315-.547l2.037 1.36a1.6 1.6 0 002.02-.2l1.334-1.334a1.6 1.6 0 00.2-2.019l-1.348-2.055a9.36 9.36 0 00.541-1.318l2.4-.48a1.6 1.6 0 001.289-1.57v-1.888a1.6 1.6 0 00-1.286-1.569l-2.407-.499a9.293 9.293 0 00-.547-1.315l.849-1.273H42.4a2.4 2.4 0 012.4 2.4v28.8H3.2V9.6zM16.8 40h14.4v.8a1.6 1.6 0 01-1.6 1.6H18.4a1.6 1.6 0 01-1.6-1.6V40zm29.6 2.4a4.005 4.005 0 01-4 4H5.6a4.005 4.005 0 01-4-4V40h13.6v.8a3.2 3.2 0 003.2 3.2h11.2a3.2 3.2 0 003.2-3.2V40h13.6v2.4z"/><path d="M12 41.6H9.6a.8.8 0 100 1.6H12a.8.8 0 000-1.6zm-7.2 1.6a.8.8 0 100-1.6.8.8 0 000 1.6zm2.4 0a.8.8 0 100-1.6.8.8 0 000 1.6zm16.8-24a6.4 6.4 0 10-6.4-6.4 6.407 6.407 0 006.4 6.4zM24 8a4.8 4.8 0 110 9.6A4.8 4.8 0 0124 8zm-4.8 21.6a7.2 7.2 0 10-7.2 7.2 7.209 7.209 0 007.2-7.2zM12 35.2a5.6 5.6 0 115.6-5.6 5.606 5.606 0 01-5.6 5.6zm24 1.6a7.2 7.2 0 10-7.2-7.2 7.209 7.209 0 007.2 7.2zM36 24a5.6 5.6 0 11-5.6 5.6A5.606 5.606 0 0136 24z"/><path d="M15.765 26.634a.8.8 0 00-1.13 0L10.4 30.87l-1.034-1.035a.8.8 0 00-1.132 1.132l1.6 1.6a.8.8 0 001.132 0l4.8-4.8a.8.8 0 000-1.132zm17.269 5.932a.8.8 0 001.131 0L36 30.73l1.834 1.835a.8.8 0 001.131-1.132L37.131 29.6l1.834-1.834a.8.8 0 00-1.131-1.132L36 28.47l-1.835-1.835a.8.8 0 00-1.131 1.132l1.834 1.834-1.834 1.834a.8.8 0 000 1.132z"/></g><defs><clipPath id="clip0_652_1007"><path fill="#fff" d="M0 0h48v48H0z"/></clipPath></defs></svg>