<svg width="48" height="48" viewBox="0 0 48 48" fill="none" xmlns="http://www.w3.org/2000/svg"><g clip-path="url(#clip0_885_894)" fill="#fff"><path d="M28.854 13.546a.8.8 0 00-1.132 0l-3.494 3.494a2.371 2.371 0 00-1.028-.24c-.37 0-.715.09-1.028.24l-1.798-1.797a.8.8 0 10-1.132 1.13l1.799 1.8A2.36 2.36 0 0020.8 19.2c0 1.323 1.077 2.4 2.4 2.4s2.4-1.077 2.4-2.4c0-.37-.09-.715-.24-1.028l3.494-3.494a.8.8 0 000-1.132zM23.2 20a.8.8 0 11.002-1.602A.8.8 0 0123.2 20zM20 24.8a.8.8 0 100 1.6h7.2a.8.8 0 100-1.6H20z"/><path d="M18.4 28c-.272-.027-1.094 0-1.094 0-2.059 0-4.054.604-5.768 1.747-.07.047-.136.1-.204.147C8.673 26.946 7.2 23.175 7.2 19.2c0-3.176.926-6.24 2.68-8.86a.799.799 0 10-1.329-.889A17.454 17.454 0 005.6 19.2c0 4.323 1.584 8.425 4.446 11.65a21.125 21.125 0 00-5.98 7.632L1.888 43.2H.8a.8.8 0 00-.8.8v3.2a.8.8 0 101.6 0v-2.4h14.175l-.55 2.206a.799.799 0 101.552.388l.8-3.2a.798.798 0 00-.777-.994h-.987l1.206-2.011a.805.805 0 01.687-.389H20.8a.8.8 0 100-1.6h-3.094c-.837 0-1.626.446-2.058 1.166l-1.7 2.834H3.65l1.868-4.047a19.53 19.53 0 016.907-8.075 8.773 8.773 0 014.881-1.478h1.016l5.943 1.189a1.213 1.213 0 01.956 1.433 1.207 1.207 0 01-.53.781c-.275.18-.605.24-.929.168l-5.187-1.153a.802.802 0 00-.954.608.801.801 0 00.608.954l5.187 1.153a2.788 2.788 0 001.614-.12l3.65.577a.799.799 0 00.687-.225l5.958-5.958a1.233 1.233 0 011.601-.114c.282.211.454.519.485.869.032.35-.081.684-.319.943l-6.652 7.207a4.014 4.014 0 01-2.942 1.288H24a.8.8 0 100 1.6h3.498a5.616 5.616 0 004.116-1.802l6.652-7.207a2.829 2.829 0 00.738-2.173 2.826 2.826 0 00-.637-1.532 17.546 17.546 0 002.429-8.513.8.8 0 00-.783-.817c-.455.011-.807.342-.817.783a15.944 15.944 0 01-2.157 7.648 2.85 2.85 0 00-1.933.087A14.358 14.358 0 0037.6 19.2c0-.586-.049-1.18-.123-1.772a8.803 8.803 0 001.723.172c4.852 0 8.8-3.948 8.8-8.8 0-1.73-.506-3.408-1.46-4.851a.8.8 0 10-1.334.884A7.164 7.164 0 0146.399 8.8c0 3.97-3.23 7.2-7.2 7.2S32 12.77 32 8.8s3.23-7.2 7.2-7.2c1.416 0 2.787.414 3.968 1.195a.8.8 0 10.883-1.334A8.759 8.759 0 0039.2 0a8.797 8.797 0 00-7.318 3.92A17.497 17.497 0 0023.2 1.6a17.466 17.466 0 00-12.538 5.246.8.8 0 001.14 1.124A15.872 15.872 0 0123.2 3.2a15.9 15.9 0 017.918 2.125 8.694 8.694 0 00-.499 1.55A14.254 14.254 0 0023.2 4.8c-7.94 0-14.4 6.46-14.4 14.4 0 2.985.912 5.85 2.636 8.286a.8.8 0 101.306-.925c-.068-.095-.125-.194-.19-.29l1.349-.777a.799.799 0 10-.8-1.386l-1.36.785A12.647 12.647 0 0110.432 20H12a.8.8 0 100-1.6h-1.56a12.684 12.684 0 011.31-4.887l1.352.78a.799.799 0 10.8-1.386l-1.359-.784a12.883 12.883 0 013.58-3.58l.783 1.357a.8.8 0 101.386-.8l-.78-1.35c1.49-.743 3.14-1.2 4.887-1.31V8A.8.8 0 1024 8V6.431c1.71.107 3.363.55 4.889 1.315l-.782 1.355a.8.8 0 001.386.8l.776-1.344c.046.031.093.06.138.093 0 .05-.006.099-.006.15 0 3.638 2.218 6.766 5.374 8.105.09.499.15.997.183 1.495H34.4a.8.8 0 100 1.6h1.565a12.714 12.714 0 01-1.318 4.885l-1.348-.779a.8.8 0 10-.8 1.386l1.35.78a12.905 12.905 0 01-3.576 3.578l-.78-1.352a.8.8 0 10-1.386.8l.787 1.363c-.667.333-1.368.607-2.098.82a2.806 2.806 0 00-2.218-2.263S19.967 28.153 18.4 28zm10.12 5.548l-1.986-.306c.008-.017.019-.033.027-.05a14.226 14.226 0 003.869-1.553l-1.91 1.909z"/><path d="M39.2 6.4a.8.8 0 01.8.8.8.8 0 101.6 0A2.397 2.397 0 0040 4.947V4a.8.8 0 10-1.6 0v.947A2.397 2.397 0 0036.8 7.2c0 1.323 1.077 2.4 2.4 2.4a.8.8 0 11-.8.8.8.8 0 10-1.6 0c0 1.042.671 1.922 1.6 2.253v.947a.8.8 0 101.6 0v-.947a2.397 2.397 0 001.6-2.253c0-1.323-1.077-2.4-2.4-2.4a.8.8 0 010-1.6zm4.254.046a.799.799 0 00-.487 1.02c.155.438.233.886.233 1.334 0 .448-.078.896-.233 1.334a.799.799 0 101.508.532A5.57 5.57 0 0044.8 8.8c0-.63-.11-1.258-.325-1.866a.8.8 0 00-1.021-.488zm-8.508 0a.799.799 0 00-1.02.487A5.578 5.578 0 0033.6 8.8c0 .63.11 1.257.324 1.866a.8.8 0 101.508-.533A3.99 3.99 0 0135.2 8.8c0-.448.078-.896.232-1.334a.8.8 0 00-.486-1.02z"/></g><defs><clipPath id="clip0_885_894"><path fill="#fff" d="M0 0h48v48H0z"/></clipPath></defs></svg>