<svg width="48" height="48" viewBox="0 0 48 48" fill="none" xmlns="http://www.w3.org/2000/svg"><g clip-path="url(#clip0_885_1026)" fill="#fff"><path d="M.774 41.81h1.177c.08.229.174.453.278.672l-.832.832a.773.773 0 000 1.095l2.194 2.194c.29.29.804.29 1.094 0l.833-.833c.22.104.443.196.672.277v1.179c0 .427.347.774.774.774h3.103a.775.775 0 00.774-.774v-1.18c.228-.081.451-.174.669-.278l.835.835a.773.773 0 001.095 0l2.194-2.194a.773.773 0 000-1.094l-.836-.837c.104-.217.196-.44.276-.668h1.184a.774.774 0 00.774-.774v-3.103a.774.774 0 00-.774-.774h-1.183a6.867 6.867 0 00-.276-.668l.836-.836a.774.774 0 000-1.095l-2.194-2.194a.797.797 0 00-1.095 0l-.835.835a7.12 7.12 0 00-.67-.277v-1.182a.774.774 0 00-.773-.774H6.965a.774.774 0 00-.775.774v1.178c-.228.08-.452.174-.67.277l-.834-.833a.774.774 0 00-1.095 0L1.397 34.56a.773.773 0 000 1.094l.833.833a7.07 7.07 0 00-.279.672H.774a.775.775 0 00-.774.774v3.103c0 .428.347.775.774.775zm.774-3.103h.975c.353 0 .661-.24.75-.581.126-.488.32-.956.575-1.389a.774.774 0 00-.12-.94l-.69-.69 1.1-1.1.69.69c.248.25.635.3.94.12.433-.255.9-.448 1.389-.574a.774.774 0 00.58-.749v-.978h1.555v.979c0 .353.238.66.58.75.49.126.955.32 1.387.574.304.18.692.13.94-.119l.693-.693 1.1 1.1-.694.693a.774.774 0 00-.12.941c.254.431.447.897.573 1.386a.775.775 0 00.75.581h.983v1.555h-.981a.773.773 0 00-.75.58 5.44 5.44 0 01-.572 1.387.774.774 0 00.119.94l.693.694-1.1 1.099-.692-.694a.774.774 0 00-.94-.12 5.39 5.39 0 01-1.388.575.774.774 0 00-.58.75v.978H7.74v-.977a.774.774 0 00-.58-.75 5.384 5.384 0 01-1.389-.573.776.776 0 00-.94.119l-.69.69-1.1-1.1.69-.689a.773.773 0 00.119-.94 5.386 5.386 0 01-.576-1.39.774.774 0 00-.75-.58h-.975v-1.555z"/><path d="M8.516 43.355a3.875 3.875 0 003.871-3.871 3.875 3.875 0 00-3.87-3.871 3.875 3.875 0 00-3.871 3.87 3.875 3.875 0 003.87 3.872zm0-6.194a2.325 2.325 0 012.323 2.323 2.325 2.325 0 01-2.323 2.322 2.325 2.325 0 01-2.322-2.322 2.325 2.325 0 012.322-2.323zM47.96 4.077a.774.774 0 00-.617-.52L44.54 3.13 43.282.446A.774.774 0 0041.88.445l-1.26 2.684-2.8.428a.774.774 0 00-.438 1.306l2.05 2.1-.486 2.976a.775.775 0 001.14.803l2.495-1.38 2.495 1.38a.778.778 0 00.821-.045.774.774 0 00.318-.758l-.484-2.976 2.049-2.1a.772.772 0 00.18-.786zm-3.611 2.085a.773.773 0 00-.21.666l.291 1.787-1.476-.815a.774.774 0 00-.749 0l-1.476.815.291-1.787a.773.773 0 00-.21-.666L39.54 4.86l1.72-.262a.774.774 0 00.584-.437l.736-1.564.735 1.564a.78.78 0 00.584.437l1.72.262-1.27 1.302zM35.905 9.35a1.559 1.559 0 00-1.193.31l-6.074 4.752a3.841 3.841 0 00.426-2.102 3.844 3.844 0 00-1.36-2.632 3.848 3.848 0 00-2.823-.9 3.85 3.85 0 00-2.632 1.36 3.831 3.831 0 00.135 5.12 3.838 3.838 0 00-2.23 1.52l-6.1 8.326a1.534 1.534 0 00-.073 1.66c.303.526.863.819 1.473.771l1.854-.157c.451-.038.861-.27 1.115-.623l3.682-4.845.28 3.306-1.83 12.548c-.69.142-1.385.27-2.082.367l.214 1.532c2.43-.34 4.828-.936 7.126-1.775a35.013 35.013 0 0010.772-6.316l.174-.052-.024-.08a36.208 36.208 0 005.7-6.215.772.772 0 00-.441-1.202l-1.194-.299 4.347-2.414 1.027 4.62-1.025-.341a.774.774 0 00-.892.308l-.128.193C34.397 40.908 23.578 44.5 16.215 44.904l.085 1.546c7.667-.421 18.885-4.104 28.921-19.205l1.759.586a.773.773 0 001-.902l-1.55-6.969a.772.772 0 00-1.131-.509l-6.968 3.871a.773.773 0 00.189 1.428l1.97.492a34.968 34.968 0 01-4.245 4.562l-1.38-4.63a1.548 1.548 0 00-.776-.908l-3.183-1.657-.498-3.785 7.089-5.4a1.547 1.547 0 00.341-2.104l-.895-1.315a1.55 1.55 0 00-1.04-.657zm-10.894.972a2.305 2.305 0 011.694.54c.474.4.763.96.816 1.58.052.618-.14 1.22-.54 1.693-.4.474-.96.764-1.58.816a2.3 2.3 0 01-1.693-.54c-.474-.4-.764-.96-.816-1.579a2.325 2.325 0 012.119-2.51zm1.052 25.807l1.611-9.297 2.846 1.381 1.683 4.723a33.17 33.17 0 01-6.14 3.193zm3.053-18.263a.775.775 0 00-.3.717l.61 4.629a.77.77 0 00.41.585l3.552 1.837 1.573 5.277c-.458.373-.94.743-1.442 1.11l-1.55-4.35a1.542 1.542 0 00-.758-.823l-3.784-1.856a.772.772 0 00-1.104.563l-1.937 11.18c-.73.243-1.466.466-2.212.658l1.756-12.04a.796.796 0 00.006-.177l-.456-5.4a.773.773 0 00-1.388-.403l-4.913 6.463-1.865.17 6.1-8.325a2.32 2.32 0 011.708-.983l2.41-.204h.002l3.085-.26a.777.777 0 00.412-.163l6.637-5.191.895 1.314-7.447 5.672zM2.322.774h1.549v1.549H2.322V.774zm1.549 1.549H5.42V3.87H3.871V2.323zm-3.097 0h1.549V3.87H.774V2.323zm1.548 1.548h1.549v1.548H2.322V3.871zm6.194-.774h1.548v1.548H8.516V3.097zm1.549 1.548h1.548v1.549h-1.548V4.645zm-3.097 0h1.548v1.549H6.968V4.645zm1.548 1.548h1.548v1.549H8.516V6.193zM44.129 42.58h1.548v1.55H44.13v-1.55zm1.549 1.55h1.548v1.547h-1.548V44.13zm-3.097 0h1.548v1.547h-1.548V44.13zm1.548 1.548h1.548v1.548H44.13v-1.548z"/></g><defs><clipPath id="clip0_885_1026"><path fill="#fff" d="M0 0h48v48H0z"/></clipPath></defs></svg>