<svg width="48" height="48" viewBox="0 0 48 48" fill="none" xmlns="http://www.w3.org/2000/svg"><path d="M13.5 40.5H5.25A2.25 2.25 0 013 38.25V9a2.25 2.25 0 012.25-2.25h3a.75.75 0 010 1.5h-3A.75.75 0 004.5 9v29.25a.75.75 0 00.75.75h8.25a.75.75 0 110 1.5zm17.25-24.75A.75.75 0 0130 15V9a.75.75 0 00-.75-.75h-3a.75.75 0 110-1.5h3A2.25 2.25 0 0131.5 9v6a.75.75 0 01-.75.75zM22.5 10.5H12a2.25 2.25 0 01-2.25-2.25v-1.5A2.25 2.25 0 0112 4.5h10.5a2.25 2.25 0 012.25 2.25v1.5a2.25 2.25 0 01-2.25 2.25zM12 6a.75.75 0 00-.75.75v1.5A.75.75 0 0012 9h10.5a.75.75 0 00.75-.75v-1.5A.75.75 0 0022.5 6H12z" fill="#1F5AFF"/><path d="M20.25 6h-6a.75.75 0 01-.75-.75v-1.5a2.25 2.25 0 012.25-2.25h3A2.25 2.25 0 0121 3.75v1.5a.75.75 0 01-.75.75zM15 4.5h4.5v-.75a.75.75 0 00-.75-.75h-3a.75.75 0 00-.75.75v.75zm11.25 33.75a8.25 8.25 0 114.125-15.392.75.75 0 01-.75 1.297 6.76 6.76 0 102.47 2.475.75.75 0 011.298-.75 8.25 8.25 0 01-7.143 12.37z" fill="#1F5AFF"/><path d="M26.25 44.25a14.25 14.25 0 117.918-26.093.75.75 0 11-.836 1.245 12.765 12.765 0 103.515 3.516.75.75 0 111.246-.836A14.245 14.245 0 0126.25 44.25z" fill="#1F5AFF"/><path d="M26.25 25.5a.75.75 0 01-.75-.75v-10.5a.75.75 0 111.5 0v10.5a.75.75 0 01-.75.75zM21 30.75H10.5a.75.75 0 110-1.5H21a.75.75 0 110 1.5zm5.25 15.75a.75.75 0 01-.75-.75v-10.5a.75.75 0 111.5 0v10.5a.75.75 0 01-.75.75zM42 30.75H31.5a.75.75 0 110-1.5H42a.75.75 0 110 1.5zm-15.75 0a.751.751 0 01-.53-1.28l8.78-8.78V16.5c0-.199.079-.39.22-.53l4.5-4.5a.751.751 0 011.28.53v3.75h3.75a.75.75 0 01.53 1.28l-4.5 4.5a.75.75 0 01-.53.22h-4.19l-8.78 8.78a.75.75 0 01-.53.22zm10.81-10.5h2.38l3-3h-2.38l-3 3zM36 16.81v2.38l3-3v-2.38l-3 3zM9 15H7.5a.75.75 0 110-1.5H9A.75.75 0 119 15zm14.25 0H12a.75.75 0 110-1.5h11.25a.75.75 0 110 1.5zM9 21.75H7.5a.75.75 0 110-1.5H9a.75.75 0 110 1.5zm4.5 0H12a.75.75 0 110-1.5h1.5a.75.75 0 110 1.5z" fill="#1F5AFF"/></svg>