<svg width="48" height="48" viewBox="0 0 48 48" fill="none" xmlns="http://www.w3.org/2000/svg">
<path d="M13.5 40.5H5.25C4.65326 40.5 4.08097 40.2629 3.65901 39.841C3.23705 39.419 3 38.8467 3 38.25V9C3 8.40326 3.23705 7.83097 3.65901 7.40901C4.08097 6.98705 4.65326 6.75 5.25 6.75H8.25C8.44891 6.75 8.63968 6.82902 8.78033 6.96967C8.92098 7.11032 9 7.30109 9 7.5C9 7.69891 8.92098 7.88968 8.78033 8.03033C8.63968 8.17098 8.44891 8.25 8.25 8.25H5.25C5.05109 8.25 4.86032 8.32902 4.71967 8.46967C4.57902 8.61032 4.5 8.80109 4.5 9V38.25C4.5 38.4489 4.57902 38.6397 4.71967 38.7803C4.86032 38.921 5.05109 39 5.25 39H13.5C13.6989 39 13.8897 39.079 14.0303 39.2197C14.171 39.3603 14.25 39.5511 14.25 39.75C14.25 39.9489 14.171 40.1397 14.0303 40.2803C13.8897 40.421 13.6989 40.5 13.5 40.5Z" fill="#1F5AFF"/>
<path d="M30.75 15.75C30.5511 15.75 30.3603 15.671 30.2197 15.5303C30.079 15.3897 30 15.1989 30 15V9C30 8.80109 29.921 8.61032 29.7803 8.46967C29.6397 8.32902 29.4489 8.25 29.25 8.25H26.25C26.0511 8.25 25.8603 8.17098 25.7197 8.03033C25.579 7.88968 25.5 7.69891 25.5 7.5C25.5 7.30109 25.579 7.11032 25.7197 6.96967C25.8603 6.82902 26.0511 6.75 26.25 6.75H29.25C29.8467 6.75 30.419 6.98705 30.841 7.40901C31.2629 7.83097 31.5 8.40326 31.5 9V15C31.5 15.1989 31.421 15.3897 31.2803 15.5303C31.1397 15.671 30.9489 15.75 30.75 15.75Z" fill="#1F5AFF"/>
<path d="M22.5 10.5H12C11.4033 10.5 10.831 10.2629 10.409 9.84099C9.98705 9.41903 9.75 8.84674 9.75 8.25V6.75C9.75 6.15326 9.98705 5.58097 10.409 5.15901C10.831 4.73705 11.4033 4.5 12 4.5H22.5C23.0967 4.5 23.669 4.73705 24.091 5.15901C24.5129 5.58097 24.75 6.15326 24.75 6.75V8.25C24.75 8.84674 24.5129 9.41903 24.091 9.84099C23.669 10.2629 23.0967 10.5 22.5 10.5ZM12 6C11.8011 6 11.6103 6.07902 11.4697 6.21967C11.329 6.36032 11.25 6.55109 11.25 6.75V8.25C11.25 8.44891 11.329 8.63968 11.4697 8.78033C11.6103 8.92098 11.8011 9 12 9H22.5C22.6989 9 22.8897 8.92098 23.0303 8.78033C23.171 8.63968 23.25 8.44891 23.25 8.25V6.75C23.25 6.55109 23.171 6.36032 23.0303 6.21967C22.8897 6.07902 22.6989 6 22.5 6H12Z" fill="#1F5AFF"/>
<path d="M20.25 6H14.25C14.0511 6 13.8603 5.92098 13.7197 5.78033C13.579 5.63968 13.5 5.44891 13.5 5.25V3.75C13.5 3.15326 13.7371 2.58097 14.159 2.15901C14.581 1.73705 15.1533 1.5 15.75 1.5H18.75C19.3467 1.5 19.919 1.73705 20.341 2.15901C20.7629 2.58097 21 3.15326 21 3.75V5.25C21 5.44891 20.921 5.63968 20.7803 5.78033C20.6397 5.92098 20.4489 6 20.25 6ZM15 4.5H19.5V3.75C19.5 3.55109 19.421 3.36032 19.2803 3.21967C19.1397 3.07902 18.9489 3 18.75 3H15.75C15.5511 3 15.3603 3.07902 15.2197 3.21967C15.079 3.36032 15 3.55109 15 3.75V4.5Z" fill="#1F5AFF"/>
<path d="M26.2503 38.25C24.9845 38.2507 23.7355 37.96 22.6 37.4006C21.4645 36.8411 20.473 36.0279 19.7021 35.0238C18.9313 34.0198 18.4018 32.8518 18.1548 31.6103C17.9077 30.3688 17.9496 29.0871 18.2773 27.8644C18.605 26.6417 19.2096 25.5108 20.0444 24.5593C20.8792 23.6077 21.9217 22.861 23.0914 22.377C24.261 21.8929 25.5263 21.6845 26.7894 21.7679C28.0525 21.8513 29.2795 22.2242 30.3753 22.8577C30.5386 22.9615 30.6554 23.1244 30.7015 23.3123C30.7475 23.5001 30.7191 23.6985 30.6223 23.866C30.5255 24.0335 30.3677 24.1571 30.182 24.211C29.9962 24.2649 29.7968 24.2449 29.6253 24.1553C28.206 23.3334 26.5363 23.0556 24.9274 23.3736C23.3184 23.6916 21.8799 24.5838 20.88 25.8838C19.8801 27.1838 19.3869 28.803 19.4923 30.4397C19.5978 32.0764 20.2947 33.6189 21.4531 34.7799C22.6116 35.9408 24.1527 36.641 25.7891 36.7499C27.4256 36.8588 29.0459 36.3691 30.348 35.3719C31.6501 34.3747 32.5453 32.9382 32.8667 31.3299C33.1882 29.7216 32.9139 28.0513 32.0951 26.6302C32.0027 26.4585 31.9808 26.2576 32.0341 26.07C32.0873 25.8824 32.2115 25.723 32.3804 25.6254C32.5492 25.5279 32.7494 25.4999 32.9385 25.5475C33.1276 25.5951 33.2908 25.7144 33.3933 25.8802C34.1161 27.1341 34.4962 28.5561 34.4956 30.0034C34.495 31.4506 34.1137 32.8723 33.39 34.1256C32.6663 35.3789 31.6256 36.4198 30.3724 37.1437C29.1192 37.8676 27.6976 38.2492 26.2503 38.25Z" fill="#1F5AFF"/>
<path d="M26.2501 44.25C24.0242 44.2511 21.8291 43.7307 19.8405 42.7306C17.852 41.7305 16.1254 40.2785 14.7991 38.491C13.4729 36.7034 12.5838 34.6301 12.2031 32.437C11.8224 30.2439 11.9608 27.9922 12.6071 25.8623C13.2534 23.7323 14.3897 21.7834 15.9249 20.1717C17.4601 18.56 19.3514 17.3303 21.4475 16.5812C23.5435 15.8321 25.7858 15.5845 27.9948 15.8581C30.2037 16.1317 32.3179 16.9189 34.1678 18.1568C34.2501 18.2114 34.3208 18.2818 34.3758 18.3638C34.4308 18.4458 34.4691 18.5379 34.4884 18.6348C34.5077 18.7317 34.5077 18.8314 34.4884 18.9283C34.4691 19.0251 34.4308 19.1172 34.3758 19.1993C34.3208 19.2813 34.2501 19.3517 34.1678 19.4063C34.0855 19.461 33.9932 19.4988 33.8963 19.5177C33.7993 19.5366 33.6996 19.5361 33.6028 19.5164C33.506 19.4966 33.4141 19.4579 33.3323 19.4025C30.698 17.6404 27.5024 16.9213 24.3672 17.3851C21.232 17.8488 18.3814 19.4623 16.3701 21.9116C14.3588 24.3609 13.3305 27.4709 13.4854 30.6364C13.6402 33.8019 14.9672 36.7966 17.208 39.0379C19.4488 41.2792 22.4432 42.6067 25.6087 42.7623C28.7742 42.9178 31.8843 41.8902 34.3341 39.8794C36.7838 37.8686 38.3979 35.0184 38.8623 31.8833C39.3268 28.7482 38.6083 25.5524 36.8468 22.9178C36.736 22.7525 36.6954 22.5499 36.734 22.3547C36.7725 22.1595 36.887 21.9875 37.0523 21.8768C37.2176 21.766 37.4201 21.7254 37.6154 21.7639C37.8106 21.8024 37.9825 21.917 38.0933 22.0823C39.5288 24.2271 40.3546 26.7217 40.4825 29.2994C40.6104 31.8772 40.0355 34.4413 38.8194 36.7177C37.6032 38.9941 35.7914 40.8973 33.5775 42.224C31.3637 43.5507 28.831 44.2509 26.2501 44.25Z" fill="#1F5AFF"/>
<path d="M26.25 25.5C26.0511 25.5 25.8603 25.421 25.7197 25.2803C25.579 25.1397 25.5 24.9489 25.5 24.75V14.25C25.5 14.0511 25.579 13.8603 25.7197 13.7197C25.8603 13.579 26.0511 13.5 26.25 13.5C26.4489 13.5 26.6397 13.579 26.7803 13.7197C26.921 13.8603 27 14.0511 27 14.25V24.75C27 24.9489 26.921 25.1397 26.7803 25.2803C26.6397 25.421 26.4489 25.5 26.25 25.5Z" fill="#1F5AFF"/>
<path d="M21 30.75H10.5C10.3011 30.75 10.1103 30.671 9.96967 30.5303C9.82902 30.3897 9.75 30.1989 9.75 30C9.75 29.8011 9.82902 29.6103 9.96967 29.4697C10.1103 29.329 10.3011 29.25 10.5 29.25H21C21.1989 29.25 21.3897 29.329 21.5303 29.4697C21.671 29.6103 21.75 29.8011 21.75 30C21.75 30.1989 21.671 30.3897 21.5303 30.5303C21.3897 30.671 21.1989 30.75 21 30.75Z" fill="#1F5AFF"/>
<path d="M26.25 46.5C26.0511 46.5 25.8603 46.421 25.7197 46.2803C25.579 46.1397 25.5 45.9489 25.5 45.75V35.25C25.5 35.0511 25.579 34.8603 25.7197 34.7197C25.8603 34.579 26.0511 34.5 26.25 34.5C26.4489 34.5 26.6397 34.579 26.7803 34.7197C26.921 34.8603 27 35.0511 27 35.25V45.75C27 45.9489 26.921 46.1397 26.7803 46.2803C26.6397 46.421 26.4489 46.5 26.25 46.5Z" fill="#1F5AFF"/>
<path d="M42 30.75H31.5C31.3011 30.75 31.1103 30.671 30.9697 30.5303C30.829 30.3897 30.75 30.1989 30.75 30C30.75 29.8011 30.829 29.6103 30.9697 29.4697C31.1103 29.329 31.3011 29.25 31.5 29.25H42C42.1989 29.25 42.3897 29.329 42.5303 29.4697C42.671 29.6103 42.75 29.8011 42.75 30C42.75 30.1989 42.671 30.3897 42.5303 30.5303C42.3897 30.671 42.1989 30.75 42 30.75Z" fill="#1F5AFF"/>
<path d="M26.2498 30.75C26.1015 30.7499 25.9566 30.7059 25.8332 30.6235C25.7099 30.5411 25.6138 30.424 25.5571 30.287C25.5003 30.1499 25.4855 29.9992 25.5144 29.8537C25.5433 29.7082 25.6147 29.5746 25.7196 29.4697L34.4998 20.6895V16.5C34.4999 16.3011 34.5789 16.1103 34.7196 15.9697L39.2196 11.4697C39.3245 11.3649 39.4581 11.2935 39.6036 11.2645C39.749 11.2356 39.8998 11.2505 40.0368 11.3072C40.1739 11.364 40.291 11.4601 40.3734 11.5834C40.4558 11.7067 40.4998 11.8516 40.4998 12V15.75H44.2498C44.3982 15.75 44.5431 15.794 44.6664 15.8764C44.7897 15.9588 44.8858 16.0759 44.9426 16.213C44.9994 16.35 45.0142 16.5008 44.9853 16.6462C44.9564 16.7917 44.8849 16.9253 44.7801 17.0302L40.2801 21.5302C40.1395 21.6709 39.9487 21.7499 39.7498 21.75H35.5603L26.7801 30.5302C26.6395 30.6709 26.4487 30.7499 26.2498 30.75ZM37.0603 20.25H39.4393L42.4393 17.25H40.0603L37.0603 20.25ZM35.9998 16.8105V19.1895L38.9998 16.1895V13.8105L35.9998 16.8105Z" fill="#1F5AFF"/>
<path d="M9 15H7.5C7.30109 15 7.11032 14.921 6.96967 14.7803C6.82902 14.6397 6.75 14.4489 6.75 14.25C6.75 14.0511 6.82902 13.8603 6.96967 13.7197C7.11032 13.579 7.30109 13.5 7.5 13.5H9C9.19891 13.5 9.38968 13.579 9.53033 13.7197C9.67098 13.8603 9.75 14.0511 9.75 14.25C9.75 14.4489 9.67098 14.6397 9.53033 14.7803C9.38968 14.921 9.19891 15 9 15Z" fill="#1F5AFF"/>
<path d="M23.25 15H12C11.8011 15 11.6103 14.921 11.4697 14.7803C11.329 14.6397 11.25 14.4489 11.25 14.25C11.25 14.0511 11.329 13.8603 11.4697 13.7197C11.6103 13.579 11.8011 13.5 12 13.5H23.25C23.4489 13.5 23.6397 13.579 23.7803 13.7197C23.921 13.8603 24 14.0511 24 14.25C24 14.4489 23.921 14.6397 23.7803 14.7803C23.6397 14.921 23.4489 15 23.25 15Z" fill="#1F5AFF"/>
<path d="M9 21.75H7.5C7.30109 21.75 7.11032 21.671 6.96967 21.5303C6.82902 21.3897 6.75 21.1989 6.75 21C6.75 20.8011 6.82902 20.6103 6.96967 20.4697C7.11032 20.329 7.30109 20.25 7.5 20.25H9C9.19891 20.25 9.38968 20.329 9.53033 20.4697C9.67098 20.6103 9.75 20.8011 9.75 21C9.75 21.1989 9.67098 21.3897 9.53033 21.5303C9.38968 21.671 9.19891 21.75 9 21.75Z" fill="#1F5AFF"/>
<path d="M13.5 21.75H12C11.8011 21.75 11.6103 21.671 11.4697 21.5303C11.329 21.3897 11.25 21.1989 11.25 21C11.25 20.8011 11.329 20.6103 11.4697 20.4697C11.6103 20.329 11.8011 20.25 12 20.25H13.5C13.6989 20.25 13.8897 20.329 14.0303 20.4697C14.171 20.6103 14.25 20.8011 14.25 21C14.25 21.1989 14.171 21.3897 14.0303 21.5303C13.8897 21.671 13.6989 21.75 13.5 21.75Z" fill="#1F5AFF"/>
</svg>
