<svg width="320" height="48" viewBox="0 0 320 48" fill="none" xmlns="http://www.w3.org/2000/svg">
<g clip-path="url(#clip0_5554_3738)">
<path d="M106.292 27.3684C104.451 28.4674 103.533 30.0363 103.52 32.0513V43.6171H108.57V25.9775L106.292 27.3684Z" fill="#93C227"/>
<path d="M137.396 21.1659L136.879 22.3006C135.239 23.1731 133.398 23.6175 131.534 23.5913C127.596 23.5913 124.904 22.1966 123.456 19.407C122.783 18.1083 122.437 16.6689 122.45 15.2108C122.45 12.7786 123.271 10.8388 124.915 9.39147C126.598 7.90002 128.897 7.1543 131.812 7.1543C133.664 7.15547 135.501 7.49121 137.231 8.14483L137.377 8.31444C137.1 9.49498 136.942 10.6993 136.903 11.9102L136.801 12.0204H136.134L136.02 11.8983C136.018 11.2745 135.976 10.6514 135.896 10.0326C134.954 8.98666 133.592 8.4637 131.812 8.4637C129.979 8.4637 128.543 9.03472 127.501 10.1768C126.46 11.3188 125.943 12.8696 125.95 14.8292C125.95 17.4774 126.877 19.5099 128.732 20.9267C129.72 21.6832 131.041 22.062 132.698 22.0631C134.246 22.0524 135.767 21.658 137.12 20.9166L137.396 21.1659Z" fill="black"/>
<path d="M156.356 14.8888C156.356 17.6264 155.545 19.7748 153.923 21.3341C152.347 22.847 150.195 23.604 147.465 23.6052C144.885 23.6052 142.861 22.8905 141.39 21.4613C139.92 20.032 139.185 18.0459 139.184 15.5028C139.184 11.9342 140.567 9.46353 143.335 8.09081C144.6 7.46777 146.151 7.15625 147.99 7.15625C150.622 7.15625 152.669 7.8347 154.134 9.19159C155.614 10.5711 156.355 12.4702 156.356 14.8888ZM152.872 15.4672C152.872 13.3188 152.432 11.6108 151.554 10.3432C150.676 9.07569 149.388 8.44304 147.69 8.4453C145.451 8.4453 143.966 9.43583 143.234 11.4169C142.843 12.514 142.651 13.6704 142.668 14.8329C142.668 17.126 143.098 18.9352 143.958 20.2604C144.847 21.632 146.178 22.3184 147.951 22.3195C150.1 22.3195 151.545 21.277 152.284 19.1919C152.691 17.9915 152.889 16.7324 152.872 15.4672Z" fill="black"/>
<path d="M175.973 8.26669L175.848 8.37864C175.406 8.39263 174.965 8.42943 174.526 8.48888C174.426 8.51005 174.336 8.56101 174.267 8.63479C174.197 8.70857 174.153 8.80156 174.14 8.90104C174.043 9.43475 173.994 10.5847 173.993 12.3509V16.8694C173.993 20.2005 174.042 22.3704 174.14 23.3791L173.993 23.4791C173.142 23.3389 172.497 23.2388 172.059 23.1789C170.038 20.9468 166.59 16.8762 161.714 10.9669V18.2449C161.714 20.0111 161.763 21.1611 161.86 21.6948C161.873 21.7942 161.917 21.8871 161.986 21.9609C162.055 22.0347 162.145 22.0857 162.245 22.107C162.684 22.1663 163.126 22.2031 163.569 22.2172L163.681 22.3292V23.0856L163.569 23.1857C162.701 23.1416 161.897 23.1196 161.155 23.1196C160.286 23.1196 159.415 23.1416 158.542 23.1857L158.428 23.0856V22.3292L158.542 22.2172C158.985 22.2031 159.427 22.1663 159.866 22.107C159.965 22.0855 160.055 22.0344 160.124 21.9607C160.193 21.8869 160.237 21.7941 160.25 21.6948C160.347 21.1611 160.396 20.0111 160.397 18.2449V12.3509C160.397 10.5858 160.348 9.43588 160.25 8.90104C160.237 8.80179 160.193 8.70896 160.124 8.63521C160.055 8.56145 159.965 8.51035 159.866 8.48888C159.427 8.42958 158.985 8.39278 158.542 8.37864L158.428 8.26669V7.51023L158.542 7.41016C159.256 7.45426 159.939 7.4763 160.588 7.4763C161.608 7.4763 162.452 7.45426 163.123 7.41016C165.839 10.972 169.029 14.7888 172.693 18.8606V12.3509C172.693 10.5858 172.644 9.43588 172.547 8.90104C172.534 8.8017 172.49 8.70874 172.421 8.63495C172.352 8.56115 172.262 8.51013 172.162 8.48888C171.723 8.42958 171.281 8.39278 170.838 8.37864L170.724 8.26669V7.51023L170.838 7.41016C171.683 7.45426 172.488 7.4763 173.252 7.4763C174.224 7.4763 175.099 7.45426 175.876 7.41016L175.988 7.51023L175.973 8.26669Z" fill="black"/>
<path d="M189.655 17.9792C189.674 19.1445 189.3 20.2831 188.592 21.2171C187.971 22.041 187.128 22.6774 186.159 23.054C185.109 23.4471 183.991 23.636 182.868 23.6103C181.254 23.6026 179.663 23.2373 178.212 22.5417L178.076 22.2958C178.287 21.4432 178.392 20.2305 178.393 18.6576L178.505 18.5457H179.23L179.331 18.6576V18.9138C179.342 19.465 179.387 20.015 179.468 20.5607C179.739 21.0356 180.225 21.4438 180.926 21.7853C181.636 22.1351 182.419 22.3174 183.212 22.3179C184.707 22.3179 185.741 21.809 186.316 20.7914C186.603 20.292 186.755 19.7284 186.757 19.1546C186.757 18.207 186.355 17.5286 185.55 17.1193C185.15 16.9191 184.505 16.7495 183.616 16.6104C181.602 16.3063 180.28 15.9246 179.65 15.4656C178.693 14.7679 178.214 13.688 178.214 12.226C178.214 10.7063 178.731 9.49354 179.766 8.58782C180.868 7.638 182.399 7.16309 184.359 7.16309C186.124 7.16309 187.55 7.44125 188.637 7.99757L188.714 8.26556C188.516 9.31545 188.406 10.3797 188.387 11.4475L188.262 11.5594H187.55L187.437 11.4475C187.437 10.8673 187.399 10.2876 187.323 9.71234C187.093 9.36294 186.686 9.06612 186.102 8.82188C185.489 8.5707 184.832 8.44212 184.168 8.44365C183.157 8.44365 182.358 8.70655 181.769 9.23234C181.498 9.47527 181.284 9.77323 181.141 10.1056C180.999 10.438 180.931 10.7969 180.943 11.1574C180.943 12.0123 181.256 12.6393 181.881 13.0384C182.289 13.2985 183.251 13.5473 184.766 13.7847C184.924 13.8062 185.366 13.8803 186.09 14.0069C186.511 14.0747 186.923 14.1826 187.323 14.3292C188.025 14.5643 188.63 15.018 189.047 15.6216C189.453 16.2458 189.655 17.0316 189.655 17.9792Z" fill="black"/>
<path d="M205.862 7.47671C205.771 8.03778 205.722 8.60468 205.715 9.17283L205.693 11.0385L205.579 11.1488H204.867L204.743 11.0487C204.738 10.4903 204.697 9.93281 204.618 9.37975C204.528 9.0835 204.286 8.90937 203.894 8.85735C203.743 8.83474 203.033 8.82343 201.767 8.82343H200.251C200.235 9.0835 200.228 10.1147 200.229 11.9171V18.2386C200.229 20.0048 200.278 21.1547 200.375 21.6884C200.388 21.7878 200.432 21.8807 200.501 21.9545C200.57 22.0283 200.66 22.0794 200.76 22.1006C201.199 22.1599 201.641 22.1967 202.084 22.2109L202.198 22.3228V23.0674L202.084 23.1776C201.338 23.1335 200.177 23.1115 198.6 23.1115C196.99 23.1115 195.829 23.1335 195.115 23.1776L195.013 23.0776V22.3211L195.127 22.2092C195.57 22.1952 196.011 22.1584 196.45 22.0989C196.549 22.0779 196.64 22.0269 196.709 21.9531C196.777 21.8793 196.821 21.7862 196.834 21.6867C196.933 21.153 196.982 20.0031 196.982 18.2369V11.9171C196.982 10.0853 196.971 9.0541 196.948 8.82343H195.331C193.98 8.82343 193.192 8.86413 192.967 8.94555C192.868 8.97532 192.78 9.03457 192.717 9.11516C192.62 9.34177 192.562 9.58241 192.544 9.82753C192.49 10.2298 192.456 10.6346 192.443 11.0402L192.329 11.1505H191.617L191.493 11.0402L191.468 9.13721C191.46 8.58201 191.415 8.02793 191.334 7.47841L191.436 7.36816C191.881 7.44166 193.502 7.47841 196.3 7.47841H200.881C203.46 7.47841 205.082 7.44166 205.746 7.36816L205.862 7.47671Z" fill="black"/>
<path d="M222.537 23.0667L222.423 23.177L221.994 23.1668C220.959 23.1295 220.314 23.1108 220.059 23.1108C219.675 23.1108 219.063 23.1329 218.226 23.177C218.131 22.8596 217.986 22.5591 217.795 22.2865L214.99 17.6799L213.735 15.7989C213.549 15.5409 213.324 15.3121 213.068 15.1204L213.192 14.7422C213.364 14.7422 213.494 14.7524 213.576 14.7524C214.315 14.7524 214.897 14.6393 215.32 14.4132C215.763 14.146 216.129 13.7702 216.382 13.3225C216.719 12.7579 216.887 12.1113 216.868 11.4568C216.868 10.204 216.393 9.35591 215.444 8.91265C214.99 8.70573 214.332 8.60057 213.463 8.60057C213.099 8.59979 212.736 8.62987 212.378 8.69046C212.302 9.41753 212.264 10.6563 212.264 12.4066V18.2277C212.264 19.9939 212.313 21.1439 212.411 21.6776C212.424 21.7769 212.468 21.8697 212.537 21.9434C212.606 22.0172 212.696 22.0683 212.795 22.0898C213.235 22.1491 213.676 22.1859 214.12 22.2L214.233 22.3119V23.0667L214.132 23.177C213.376 23.1329 212.215 23.1108 210.647 23.1108C209.024 23.1108 207.863 23.1329 207.163 23.177L207.049 23.0769V22.3204L207.163 22.2085C207.606 22.1943 208.048 22.1575 208.487 22.0982C208.586 22.0768 208.676 22.0257 208.745 21.9519C208.814 21.8782 208.858 21.7853 208.871 21.6861C208.968 21.1524 209.017 20.0024 209.018 18.2362V12.3507C209.018 10.5856 208.969 9.43563 208.871 8.90079C208.858 8.80153 208.814 8.7087 208.745 8.63495C208.676 8.5612 208.586 8.5101 208.487 8.48863C208.048 8.42932 207.606 8.39253 207.163 8.37838L207.049 8.26644V7.50997L207.163 7.4099C207.902 7.454 209.063 7.47605 210.647 7.47605C211.567 7.47605 212.314 7.46531 212.888 7.44383C214.026 7.3986 214.879 7.37598 215.445 7.37598C216.749 7.37598 217.706 7.48905 218.318 7.7152C218.695 7.84114 219.039 8.04821 219.325 8.32136C219.611 8.59452 219.831 8.92688 219.97 9.29428C220.114 9.70941 220.183 10.1464 220.173 10.585C220.173 12.6034 219.02 14.0355 216.713 14.8813C217.088 15.5054 217.488 16.1358 217.911 16.7724L219.656 19.4167C220.68 20.9748 221.362 21.8619 221.702 22.0779C221.922 22.201 222.174 22.2599 222.426 22.2475L222.54 22.3594L222.537 23.0667Z" fill="black"/>
<path d="M240.285 8.26669L240.173 8.37864C239.282 8.37864 238.782 8.611 238.668 9.07913C238.58 9.64047 238.535 10.2074 238.531 10.7752C238.509 11.422 238.498 12.3532 238.499 13.5687V16.9966C238.499 19.2004 238.057 20.7733 237.175 21.7152C236.006 22.959 234.339 23.5809 232.175 23.5809C230.199 23.5809 228.656 23.2586 227.547 22.6141C227.1 22.3623 226.708 22.0262 226.394 21.6251C226.079 21.2241 225.848 20.7659 225.714 20.2769C225.533 19.6312 225.442 17.947 225.444 15.2242V12.3509C225.444 10.5858 225.395 9.43588 225.297 8.90104C225.284 8.80179 225.24 8.70896 225.171 8.63521C225.102 8.56145 225.012 8.51035 224.913 8.48888C224.473 8.42958 224.031 8.39278 223.588 8.37864L223.475 8.26669V7.5204L223.588 7.41016C224.313 7.45426 225.474 7.4763 227.073 7.4763C228.703 7.4763 229.86 7.45426 230.545 7.41016L230.659 7.5204V8.26669L230.545 8.37864C230.102 8.39278 229.66 8.42958 229.221 8.48888C229.122 8.51013 229.031 8.56115 228.962 8.63495C228.894 8.70874 228.85 8.8017 228.837 8.90104C228.738 9.43475 228.689 10.5847 228.69 12.3509V14.6441C228.69 17.4483 228.818 19.1659 229.075 19.7969C229.588 21.0407 230.853 21.6626 232.868 21.6626C234.188 21.6626 235.218 21.3437 235.956 20.706C236.263 20.454 236.511 20.1384 236.68 19.7816C236.851 19.3156 236.958 18.8289 236.997 18.3348C237.065 17.7214 237.099 17.1048 237.099 16.4878V14.1759C237.099 12.2322 237.091 10.9041 237.076 10.1918C237.061 9.52577 237.016 9.09214 236.94 8.89086C236.901 8.81075 236.846 8.73929 236.778 8.68094C236.711 8.62259 236.631 8.57859 236.545 8.55164C236.372 8.48606 235.908 8.42952 235.154 8.38203L235.04 8.27009V7.52379L235.154 7.41355C235.809 7.45765 236.484 7.4797 237.178 7.4797C237.699 7.4797 238.698 7.45765 240.176 7.41355L240.288 7.52379L240.285 8.26669Z" fill="black"/>
<path d="M256.896 21.1659L256.379 22.3006C254.739 23.1729 252.898 23.6173 251.034 23.5913C247.096 23.5913 244.404 22.1966 242.956 19.407C242.283 18.1083 241.937 16.6689 241.95 15.2108C241.95 12.7786 242.771 10.8388 244.415 9.39147C246.098 7.90002 248.397 7.1543 251.312 7.1543C253.162 7.15522 254.996 7.48979 256.724 8.14144L256.87 8.31105C256.593 9.49144 256.434 10.6958 256.396 11.9068L256.294 12.0171H255.625L255.513 11.8949C255.511 11.2711 255.469 10.648 255.389 10.0292C254.447 8.98327 253.085 8.46031 251.305 8.46031C249.473 8.46031 248.036 9.03133 246.994 10.1734C245.953 11.3154 245.436 12.8662 245.443 14.8258C245.443 17.474 246.37 19.5065 248.225 20.9233C249.214 21.6798 250.536 22.0586 252.191 22.0597C253.74 22.049 255.26 21.6546 256.613 20.9132L256.896 21.1659Z" fill="black"/>
<path d="M272.605 7.47671C272.513 8.03768 272.464 8.60465 272.459 9.17283L272.436 11.0385L272.322 11.1488H271.61L271.485 11.0487C271.447 10.1006 271.407 9.54258 271.36 9.37975C271.271 9.0835 271.029 8.90937 270.636 8.85735C270.486 8.83474 269.777 8.82343 268.51 8.82343H266.995C266.98 9.0835 266.972 10.1147 266.971 11.9171V18.2386C266.971 20.0048 267.02 21.1547 267.119 21.6884C267.132 21.7878 267.176 21.8807 267.245 21.9545C267.314 22.0283 267.404 22.0794 267.504 22.1006C267.943 22.1601 268.385 22.1969 268.828 22.2109L268.94 22.3228V23.0674L268.828 23.1776C268.081 23.1335 266.919 23.1115 265.343 23.1115C263.727 23.1115 262.566 23.1335 261.859 23.1776L261.757 23.0776V22.3211L261.869 22.2092C262.312 22.195 262.754 22.1582 263.193 22.0989C263.293 22.0777 263.383 22.0266 263.452 21.9528C263.521 21.879 263.565 21.7861 263.578 21.6867C263.677 21.153 263.725 20.0031 263.724 18.2369V11.9171C263.724 10.0853 263.713 9.0541 263.691 8.82343H262.069C260.72 8.82343 259.932 8.86413 259.705 8.94555C259.607 8.97533 259.52 9.03461 259.457 9.11516C259.36 9.34171 259.302 9.58238 259.285 9.82753C259.233 10.221 259.199 10.6253 259.183 11.0402L259.071 11.1505H258.357L258.233 11.0402L258.21 9.13721C258.201 8.58197 258.156 8.0279 258.074 7.47841L258.176 7.36816C258.621 7.44166 260.243 7.47841 263.041 7.47841H267.622C270.202 7.47841 271.823 7.44166 272.486 7.36816L272.605 7.47671Z" fill="black"/>
<path d="M281.169 23.067L281.067 23.1772C280.312 23.1331 279.146 23.1111 277.571 23.1111C275.995 23.1111 274.834 23.1331 274.088 23.1772L273.984 23.067V22.3207L274.098 22.2087C274.541 22.1946 274.983 22.1578 275.422 22.0985C275.522 22.0772 275.612 22.0262 275.681 21.9524C275.75 21.8786 275.794 21.7857 275.807 21.6863C275.905 21.1526 275.953 20.0027 275.953 18.2364V12.3509C275.953 10.5858 275.905 9.43588 275.807 8.90104C275.794 8.8017 275.75 8.70874 275.681 8.63495C275.612 8.56115 275.522 8.51013 275.422 8.48888C274.983 8.42958 274.541 8.39278 274.098 8.37864L273.984 8.26669V7.51023L274.098 7.41016C274.822 7.45426 275.984 7.4763 277.583 7.4763C279.182 7.4763 280.339 7.45426 281.055 7.41016L281.169 7.51023V8.26669L281.055 8.37864C280.613 8.39263 280.171 8.42943 279.733 8.48888C279.633 8.51005 279.542 8.56101 279.473 8.63479C279.404 8.70857 279.36 8.80156 279.346 8.90104C279.25 9.43475 279.201 10.5847 279.2 12.3509V18.2381C279.2 20.0044 279.249 21.1543 279.346 21.688C279.36 21.7875 279.404 21.8805 279.473 21.9543C279.542 22.0281 279.633 22.079 279.733 22.1002C280.171 22.1596 280.613 22.1964 281.055 22.2104L281.169 22.3224V23.067Z" fill="black"/>
<path d="M300.321 14.8888C300.321 17.6264 299.51 19.7748 297.888 21.3341C296.312 22.847 294.159 23.604 291.429 23.6052C288.85 23.6052 286.825 22.8905 285.355 21.4613C283.885 20.032 283.15 18.0459 283.148 15.5028C283.148 11.9342 284.532 9.46353 287.3 8.09081C288.565 7.46777 290.116 7.15625 291.955 7.15625C294.586 7.15625 296.634 7.8347 298.098 9.19159C299.58 10.5711 300.321 12.4702 300.321 14.8888ZM296.836 15.4672C296.836 13.3188 296.397 11.6108 295.519 10.3432C294.641 9.07569 293.353 8.44304 291.655 8.4453C289.415 8.4453 287.929 9.43583 287.198 11.4169C286.807 12.514 286.616 13.6704 286.633 14.8329C286.633 17.126 287.063 18.9352 287.923 20.2604C288.812 21.632 290.143 22.3184 291.916 22.3195C294.066 22.3195 295.511 21.277 296.248 19.1919C296.655 17.9915 296.854 16.7324 296.836 15.4672Z" fill="black"/>
<path d="M319.935 8.26669L319.811 8.37864C319.369 8.39263 318.927 8.42943 318.489 8.48888C318.389 8.51005 318.299 8.56101 318.229 8.63479C318.16 8.70857 318.116 8.80156 318.103 8.90104C318.006 9.43475 317.957 10.5847 317.956 12.3509V16.8694C317.956 20.2005 318.005 22.3704 318.103 23.3791L317.956 23.4791C317.104 23.3389 316.46 23.2388 316.022 23.1789C314.001 20.9468 310.553 16.8762 305.677 10.9669V18.2449C305.677 20.0111 305.726 21.1611 305.823 21.6948C305.836 21.7942 305.88 21.8871 305.949 21.9609C306.018 22.0347 306.108 22.0857 306.208 22.107C306.647 22.1663 307.089 22.2031 307.532 22.2172L307.644 22.3292V23.0856L307.532 23.1857C306.665 23.1416 305.861 23.1196 305.118 23.1196C304.249 23.1196 303.378 23.1416 302.504 23.1857L302.391 23.0856V22.3292L302.504 22.2172C302.947 22.2031 303.389 22.1663 303.829 22.107C303.928 22.0855 304.018 22.0344 304.087 21.9607C304.156 21.8869 304.2 21.7941 304.213 21.6948C304.31 21.1611 304.358 20.0111 304.36 18.2449V12.3509C304.36 10.5858 304.311 9.43588 304.213 8.90104C304.2 8.80179 304.156 8.70896 304.087 8.63521C304.018 8.56145 303.928 8.51035 303.829 8.48888C303.389 8.42958 302.947 8.39278 302.504 8.37864L302.391 8.26669V7.51023L302.504 7.41016C303.219 7.45426 303.902 7.4763 304.551 7.4763C305.571 7.4763 306.415 7.45426 307.085 7.41016C309.802 10.972 312.992 14.7888 316.656 18.8606V12.3509C316.656 10.5858 316.607 9.43588 316.51 8.90104C316.497 8.8017 316.453 8.70874 316.384 8.63495C316.315 8.56115 316.225 8.51013 316.125 8.48888C315.686 8.42958 315.244 8.39278 314.801 8.37864L314.687 8.26669V7.51023L314.801 7.41016C315.646 7.45426 316.45 7.4763 317.215 7.4763C318.187 7.4763 319.062 7.45426 319.839 7.41016L319.951 7.51023L319.935 8.26669Z" fill="black"/>
<path d="M131.433 38.3743C131.446 39.1752 131.189 39.9579 130.702 40.5996C130.277 41.1663 129.698 41.6036 129.031 41.8615C128.309 42.1322 127.54 42.2623 126.767 42.2448C125.658 42.2393 124.563 41.9883 123.566 41.5104L123.473 41.3408C123.64 40.5181 123.713 39.6794 123.69 38.8407L123.767 38.7644H124.266L124.335 38.8407V39.0103C124.342 39.389 124.373 39.7668 124.428 40.1416C124.668 40.5172 125.018 40.8128 125.431 40.9897C125.919 41.2304 126.457 41.3558 127.002 41.3561C128.027 41.3561 128.737 41.0044 129.131 40.3011C129.328 39.9579 129.433 39.5707 129.435 39.1765C129.453 38.8885 129.383 38.6017 129.236 38.3526C129.088 38.1034 128.868 37.9032 128.604 37.7773C128.179 37.6019 127.732 37.4876 127.274 37.438C125.895 37.2288 124.985 36.9665 124.545 36.651C123.886 36.1716 123.557 35.4298 123.557 34.4257C123.557 33.3809 123.915 32.547 124.631 31.924C125.386 31.2727 126.438 30.9464 127.786 30.9453C129 30.9453 129.98 31.1364 130.726 31.5186L130.78 31.7035C130.643 32.4248 130.567 33.1561 130.554 33.8898L130.469 33.9661H129.98L129.902 33.8898C129.902 33.4928 129.876 33.0962 129.824 32.7025C129.611 32.4227 129.319 32.21 128.985 32.0902C128.563 31.918 128.112 31.8298 127.655 31.8307C126.966 31.8307 126.416 32.0116 126.007 32.3734C125.82 32.5401 125.673 32.7448 125.575 32.9733C125.476 33.2017 125.43 33.4485 125.438 33.6964C125.438 34.2833 125.654 34.7141 126.085 34.9888C126.364 35.1664 127.025 35.336 128.067 35.4977C128.176 35.5129 128.478 35.5638 128.976 35.6503C129.265 35.6973 129.55 35.7717 129.824 35.8725C130.305 36.0345 130.72 36.3458 131.005 36.7596C131.304 37.2457 131.452 37.8067 131.433 38.3743Z" fill="black"/>
<path d="M144.796 36.2558C144.796 38.1363 144.238 39.6125 143.123 40.6844C142.041 41.7247 140.561 42.2448 138.686 42.2448C136.913 42.2448 135.522 41.7535 134.511 40.7709C133.501 39.7883 132.995 38.4235 132.994 36.6765C132.994 34.2239 133.945 32.5278 135.848 31.5881C136.713 31.1585 137.778 30.9442 139.042 30.9453C140.85 30.9453 142.258 31.4117 143.265 32.3446C144.272 33.2775 144.782 34.5812 144.796 36.2558ZM142.401 36.6527C142.401 35.1749 142.099 34.0012 141.496 33.1316C140.892 32.2621 140.007 31.8273 138.841 31.8273C137.302 31.8273 136.28 32.5057 135.777 33.8626C135.509 34.6167 135.378 35.4113 135.389 36.21C135.389 37.7863 135.684 39.0301 136.275 39.9415C136.888 40.8845 137.803 41.3561 139.02 41.3561C140.496 41.3561 141.488 40.6397 141.998 39.2071C142.276 38.3838 142.413 37.5204 142.401 36.6527Z" fill="black"/>
<path d="M154.584 39.3496C154.462 40.1854 154.404 41.0291 154.411 41.8734L154.334 41.9497L148.682 41.904C147.74 41.904 147.074 41.9192 146.686 41.9497L146.606 41.8734V41.6597L146.646 41.5681C147.029 41.3273 147.237 41.178 147.268 41.117C147.314 41.0254 147.342 40.6861 147.353 40.0993L147.377 38.3862V34.5123C147.377 33.3001 147.343 32.5086 147.275 32.1377C147.265 32.0698 147.235 32.0064 147.188 31.9558C147.141 31.9053 147.079 31.8699 147.011 31.8545C146.71 31.8131 146.406 31.7876 146.101 31.7782L146.023 31.7018V31.1828L146.101 31.1133C146.636 31.1438 147.418 31.1591 148.449 31.1591C149.517 31.1591 150.328 31.1438 150.882 31.1133L150.96 31.1828V31.7171L150.882 31.7849C150.578 31.7945 150.275 31.82 149.973 31.8613C149.905 31.8764 149.843 31.9116 149.796 31.9622C149.748 32.0128 149.718 32.0764 149.708 32.1445C149.641 32.512 149.608 33.3035 149.608 34.5191V39.0986C149.608 39.7669 149.621 40.4148 149.646 41.0423H150.704C152.216 41.0423 153.144 40.9858 153.487 40.8727C153.536 40.8575 153.58 40.8279 153.611 40.7879C153.688 40.6452 153.738 40.4901 153.76 40.33L153.946 39.3818L154.023 39.297H154.498L154.584 39.3496Z" fill="black"/>
<path d="M167.147 31.7057L167.07 31.7821C166.458 31.7821 166.114 31.9426 166.035 32.2638C165.975 32.6488 165.944 33.0377 165.942 33.4273C165.926 33.8705 165.919 34.51 165.92 35.3456V37.7015C165.92 39.2167 165.616 40.2977 165.01 40.9445C164.205 41.8016 163.06 42.2295 161.573 42.2284C160.217 42.2284 159.157 42.0068 158.394 41.5635C158.087 41.391 157.817 41.1602 157.601 40.8845C157.385 40.6087 157.227 40.2936 157.135 39.9573C157.009 39.5141 156.946 38.3568 156.947 36.4854V34.5128C156.947 33.3006 156.914 32.5091 156.847 32.1382C156.838 32.0701 156.807 32.0065 156.76 31.9559C156.712 31.9053 156.65 31.8701 156.582 31.855C156.281 31.8137 155.977 31.7882 155.673 31.7787L155.596 31.7023V31.1935L155.673 31.1172C156.17 31.1477 156.968 31.163 158.068 31.163C159.188 31.163 159.983 31.1477 160.454 31.1172L160.532 31.1935V31.7023L160.454 31.7787C160.15 31.7882 159.846 31.8136 159.544 31.855C159.476 31.8704 159.414 31.9058 159.367 31.9563C159.32 32.0069 159.29 32.0703 159.28 32.1382C159.214 32.5057 159.18 33.2973 159.178 34.5128V36.0885C159.178 38.0108 159.267 39.1907 159.444 39.6283C159.796 40.4854 160.664 40.9139 162.047 40.9139C162.954 40.9139 163.662 40.6946 164.17 40.2558C164.381 40.0824 164.551 39.866 164.668 39.6215C164.786 39.3013 164.859 38.967 164.885 38.6276C164.932 38.2057 164.956 37.7816 164.956 37.3572V35.7662C164.956 34.432 164.951 33.5194 164.941 33.0287C164.948 32.728 164.916 32.4275 164.846 32.1349C164.82 32.0791 164.782 32.0292 164.736 31.9883C164.689 31.9475 164.634 31.9165 164.575 31.8974C164.261 31.8247 163.94 31.786 163.618 31.7821L163.541 31.7057V31.1969L163.618 31.1206C164.07 31.1511 164.534 31.1664 165.01 31.1664C165.366 31.1664 166.055 31.1511 167.078 31.1206L167.156 31.1969L167.147 31.7057Z" fill="black"/>
<path d="M177.859 31.1623C177.796 31.5494 177.763 31.9406 177.759 32.3326L177.743 33.6097L177.666 33.6861H177.176L177.09 33.6165C177.087 33.2329 177.058 32.8498 177.004 32.47C176.969 32.3668 176.902 32.2767 176.813 32.2123C176.725 32.1479 176.617 32.1123 176.507 32.1104C176.404 32.0946 175.916 32.0872 175.045 32.0883H174.01C174 32.2659 173.995 32.9743 173.995 34.2136V38.5573C173.995 39.7717 174.029 40.5632 174.097 40.9319C174.106 40.9998 174.137 41.0632 174.184 41.1138C174.231 41.1643 174.292 41.1997 174.36 41.2151C174.662 41.2564 174.965 41.2819 175.269 41.2914L175.348 41.3678V41.8766L175.269 41.9529C174.758 41.9224 173.96 41.9071 172.876 41.9071C171.766 41.9071 170.967 41.9224 170.481 41.9529L170.41 41.8851V41.3644L170.488 41.2881C170.793 41.2786 171.096 41.2531 171.398 41.2117C171.466 41.1963 171.528 41.1609 171.575 41.1104C171.622 41.0598 171.652 40.9964 171.662 40.9285C171.73 40.5621 171.764 39.7706 171.764 38.5539V34.2136C171.764 32.955 171.756 32.2466 171.74 32.0883H170.629C169.701 32.0883 169.159 32.116 169.004 32.1714C168.935 32.1915 168.875 32.2318 168.831 32.2868C168.765 32.4421 168.725 32.6072 168.714 32.7753C168.678 33.0466 168.655 33.3248 168.645 33.6097L168.567 33.6861H168.078L167.991 33.6097L167.976 32.302C167.97 31.9206 167.939 31.5398 167.883 31.1623L167.954 31.0859C168.258 31.1368 169.372 31.1623 171.295 31.1623H174.445C176.217 31.1623 177.331 31.1368 177.786 31.0859L177.859 31.1623Z" fill="black"/>
<path d="M183.745 41.8768L183.674 41.9531C183.157 41.9226 182.356 41.9073 181.272 41.9073C180.188 41.9073 179.39 41.9226 178.878 41.9531L178.809 41.8768V41.368L178.886 41.2917C179.19 41.2821 179.494 41.2566 179.795 41.2153C179.863 41.2002 179.925 41.165 179.972 41.1144C180.02 41.0638 180.05 41.0002 180.06 40.9321C180.128 40.5657 180.161 39.7742 180.16 38.5575V34.5123C180.16 33.3001 180.127 32.5086 180.06 32.1377C180.05 32.0696 180.02 32.006 179.972 31.9554C179.925 31.9048 179.863 31.8696 179.795 31.8545C179.494 31.8132 179.19 31.7877 178.886 31.7782L178.809 31.7018V31.1828L178.886 31.1133C179.383 31.1438 180.18 31.1591 181.279 31.1591C182.378 31.1591 183.174 31.1438 183.667 31.1133L183.745 31.1828V31.7018L183.667 31.7782C183.363 31.7876 183.059 31.8131 182.757 31.8545C182.689 31.8699 182.627 31.9053 182.58 31.9558C182.533 32.0064 182.503 32.0698 182.493 32.1377C182.425 32.5052 182.391 33.2967 182.391 34.5123V38.5575C182.391 39.7719 182.425 40.5635 182.493 40.9321C182.503 41.0002 182.534 41.0638 182.581 41.1144C182.628 41.165 182.69 41.2002 182.759 41.2153C183.06 41.2567 183.364 41.2822 183.669 41.2917L183.747 41.368L183.745 41.8768Z" fill="black"/>
<path d="M196.905 36.2558C196.905 38.1363 196.349 39.6125 195.235 40.6844C194.152 41.7247 192.672 42.2448 190.795 42.2448C189.023 42.2448 187.631 41.7535 186.621 40.7709C185.611 39.7883 185.105 38.4235 185.105 36.6765C185.105 34.2239 186.057 32.5278 187.959 31.5881C188.824 31.1585 189.889 30.9442 191.154 30.9453C192.963 30.9453 194.37 31.4117 195.374 32.3446C196.379 33.2775 196.889 34.5812 196.905 36.2558ZM194.512 36.6527C194.512 35.1749 194.21 34.0012 193.605 33.1316C193.001 32.2621 192.116 31.8273 190.952 31.8273C189.413 31.8273 188.392 32.5057 187.888 33.8626C187.62 34.6167 187.489 35.4113 187.5 36.21C187.5 37.7863 187.796 39.0301 188.387 39.9415C188.997 40.8845 189.911 41.3561 191.13 41.3561C192.607 41.3561 193.599 40.6397 194.107 39.2071C194.387 38.3839 194.524 37.5205 194.512 36.6527Z" fill="black"/>
<path d="M210.386 31.7052L210.3 31.7816C209.996 31.7911 209.692 31.8166 209.391 31.8579C209.323 31.8733 209.262 31.9087 209.214 31.9592C209.167 32.0098 209.137 32.0732 209.127 32.1411C209.058 32.5086 209.024 33.3001 209.025 34.5157V37.6213C209.025 39.9099 209.059 41.4008 209.127 42.0939L209.025 42.1635C208.439 42.0662 207.996 41.9972 207.696 41.9565C206.307 40.421 203.935 37.6218 200.582 33.5591V38.5609C200.582 39.7753 200.616 40.5668 200.684 40.9355C200.694 41.0034 200.724 41.0668 200.771 41.1174C200.818 41.1679 200.88 41.2033 200.948 41.2187C201.25 41.2601 201.554 41.2855 201.858 41.295L201.936 41.3714V41.8938L201.858 41.9616C201.262 41.9311 200.707 41.9158 200.194 41.9158C199.598 41.9158 198.999 41.9311 198.398 41.9616L198.32 41.8938V41.3731L198.398 41.2967C198.703 41.2856 199.008 41.2584 199.31 41.2153C199.378 41.1999 199.439 41.1645 199.487 41.114C199.534 41.0634 199.564 41 199.574 40.9321C199.642 40.5657 199.675 39.7742 199.675 38.5575V34.5123C199.675 33.3001 199.642 32.5086 199.574 32.1377C199.564 32.0698 199.534 32.0064 199.487 31.9558C199.439 31.9053 199.378 31.8699 199.31 31.8545C199.008 31.8131 198.704 31.7876 198.4 31.7782L198.322 31.7018V31.1828L198.4 31.1133C198.893 31.1438 199.362 31.1591 199.807 31.1591C200.507 31.1591 201.087 31.1438 201.548 31.1133C203.413 33.5602 205.606 36.1835 208.125 38.9833V34.5123C208.125 33.3001 208.092 32.5086 208.024 32.1377C208.014 32.0698 207.984 32.0064 207.937 31.9558C207.889 31.9053 207.828 31.8699 207.76 31.8545C207.458 31.8131 207.154 31.7876 206.85 31.7782L206.772 31.7018V31.1828L206.85 31.1133C207.43 31.1438 207.982 31.1591 208.507 31.1591C209.175 31.1591 209.775 31.1438 210.31 31.1133L210.388 31.1828L210.386 31.7052Z" fill="black"/>
<path d="M219.792 38.3743C219.805 39.1751 219.548 39.9575 219.061 40.5996C218.636 41.166 218.057 41.6032 217.391 41.8615C216.668 42.1322 215.9 42.2623 215.127 42.2448C214.017 42.2393 212.923 41.9883 211.925 41.5104L211.832 41.3408C211.999 40.5181 212.072 39.6794 212.049 38.8407L212.127 38.7644H212.625L212.694 38.8407V39.0103C212.701 39.389 212.732 39.7668 212.787 40.1416C213.027 40.5172 213.377 40.8128 213.791 40.9897C214.278 41.2305 214.816 41.356 215.361 41.3561C216.388 41.3561 217.098 41.0044 217.491 40.3011C217.688 39.9579 217.792 39.5707 217.794 39.1765C217.812 38.8885 217.743 38.6017 217.595 38.3526C217.447 38.1034 217.227 37.9032 216.963 37.7773C216.539 37.6019 216.091 37.4876 215.634 37.438C214.254 37.2288 213.345 36.9665 212.904 36.651C212.246 36.1716 211.917 35.4298 211.917 34.4257C211.917 33.3809 212.274 32.547 212.989 31.924C213.746 31.2727 214.799 30.9464 216.146 30.9453C217.36 30.9453 218.337 31.1364 219.077 31.5186L219.13 31.7035C218.994 32.4248 218.918 33.1561 218.904 33.8898L218.82 33.9661H218.33L218.253 33.8898C218.252 33.4927 218.226 33.0961 218.173 32.7025C217.96 32.422 217.669 32.2091 217.334 32.0902C216.913 31.9178 216.461 31.8296 216.004 31.8307C215.315 31.8307 214.766 32.0116 214.358 32.3734C214.171 32.5401 214.024 32.7448 213.925 32.9733C213.827 33.2017 213.781 33.4485 213.789 33.6964C213.789 34.2833 214.004 34.7141 214.435 34.9888C214.715 35.1664 215.375 35.336 216.417 35.4977C216.527 35.5129 216.829 35.5638 217.327 35.6503C217.616 35.6971 217.899 35.7715 218.173 35.8725C218.655 36.0341 219.07 36.3455 219.356 36.7596C219.658 37.2448 219.809 37.8058 219.792 38.3743Z" fill="black"/>
<path d="M237.105 38.0454L237.027 38.1302C236.707 38.2065 236.52 38.3117 236.469 38.4474C236.417 38.5831 236.391 39.0987 236.391 39.9959C236.391 40.4284 236.41 40.8576 236.453 41.2799C234.722 41.9221 233.151 42.2438 231.741 42.245C229.886 42.245 228.384 41.7333 227.236 40.71C226.088 39.6867 225.513 38.2936 225.512 36.5308C225.512 34.2331 226.525 32.5935 228.551 31.612C229.481 31.1597 230.661 30.9336 232.089 30.9336C232.936 30.9357 233.781 31.0256 234.608 31.2016C235.178 31.3099 235.733 31.4806 236.263 31.7104L236.334 31.8478C236.2 32.3001 236.088 33.0803 236 34.1884L235.913 34.2648H235.448L235.37 34.1884C235.37 34.0901 235.36 33.8899 235.339 33.588C235.33 33.3732 235.304 33.1594 235.262 32.9486C235.032 32.6433 234.644 32.3821 234.094 32.1684C233.484 31.9396 232.836 31.8246 232.182 31.8291C230.343 31.8291 229.076 32.5579 228.381 34.0154C228.047 34.7512 227.883 35.5505 227.9 36.3561C227.9 37.774 228.283 38.9494 229.05 39.8823C229.417 40.3476 229.891 40.7214 230.432 40.9736C230.974 41.2257 231.568 41.3493 232.167 41.3342C232.846 41.3341 233.518 41.1882 234.134 40.9067C234.171 40.5506 234.189 40.0609 234.188 39.4379C234.203 39.131 234.185 38.8235 234.134 38.5203C234.103 38.4389 234.005 38.3812 233.839 38.3507C233.674 38.3202 233.26 38.2829 232.526 38.2371L232.439 38.1607V37.679L232.526 37.6027C233.275 37.6231 234.062 37.6304 234.888 37.6248L237.026 37.6027L237.103 37.679L237.105 38.0454Z" fill="black"/>
<path d="M249.009 41.8771L248.93 41.9534H248.635C247.925 41.9286 247.482 41.9156 247.306 41.9144C247.042 41.9144 246.616 41.9297 246.047 41.9602C245.982 41.7421 245.882 41.5355 245.751 41.3479L243.823 38.183L242.961 36.8906C242.833 36.713 242.677 36.5558 242.501 36.4241L242.587 36.1629C242.706 36.1629 242.794 36.1714 242.851 36.1714C243.267 36.1926 243.682 36.1109 244.058 35.9339C244.363 35.7501 244.615 35.4919 244.789 35.1843C245.02 34.7978 245.136 34.3552 245.123 33.9071C245.123 33.0455 244.796 32.4643 244.142 32.1635C243.709 31.9998 243.246 31.927 242.782 31.9498C242.532 31.9491 242.282 31.9695 242.035 32.0108C241.984 32.5106 241.958 33.3621 241.958 34.5652V38.5646C241.958 39.779 241.992 40.5706 242.059 40.9392C242.069 41.0071 242.1 41.0705 242.147 41.1211C242.194 41.1716 242.255 41.207 242.323 41.2224C242.625 41.2638 242.929 41.2893 243.234 41.2987L243.311 41.3751V41.8839L243.241 41.9602C242.723 41.9297 241.926 41.9144 240.847 41.9144C239.732 41.9144 238.934 41.9297 238.453 41.9602L238.375 41.8924V41.3717L238.453 41.2954C238.757 41.2858 239.06 41.2603 239.361 41.219C239.429 41.2039 239.491 41.1687 239.539 41.1181C239.586 41.0675 239.617 41.0039 239.627 40.9358C239.695 40.5694 239.728 39.7779 239.727 38.5612V34.5126C239.727 33.3004 239.693 32.5089 239.627 32.138C239.617 32.0699 239.586 32.0063 239.539 31.9557C239.491 31.9051 239.429 31.8699 239.361 31.8548C239.06 31.8135 238.757 31.788 238.453 31.7785L238.375 31.7021V31.1831L238.453 31.1136C238.959 31.1441 239.758 31.1594 240.847 31.1594C241.478 31.1594 241.992 31.1509 242.385 31.1356C243.168 31.1051 243.754 31.0898 244.142 31.0898C245.039 31.0898 245.697 31.169 246.118 31.3273C246.377 31.4142 246.613 31.5567 246.81 31.7444C247.006 31.9322 247.157 32.1605 247.253 32.4128C247.352 32.6988 247.399 32.9996 247.392 33.3016C247.392 34.6867 246.599 35.6705 245.013 36.2528C245.273 36.6814 245.547 37.1144 245.837 37.552L247.044 39.3652C247.747 40.4349 248.216 41.0443 248.451 41.1936C248.602 41.2775 248.774 41.3169 248.947 41.3072L249.027 41.3836L249.009 41.8771Z" fill="black"/>
<path d="M261.765 36.2558C261.765 38.1363 261.207 39.6125 260.092 40.6844C259.009 41.7247 257.53 42.2448 255.654 42.2448C253.882 42.2448 252.49 41.7535 251.478 40.7709C250.467 39.7883 249.962 38.4235 249.963 36.6765C249.963 34.2239 250.914 32.5278 252.816 31.5881C253.682 31.1585 254.747 30.9442 256.011 30.9453C257.82 30.9453 259.227 31.4117 260.232 32.3446C261.255 33.2899 261.766 34.5937 261.765 36.2558ZM259.37 36.6527C259.37 35.1749 259.068 34.0012 258.465 33.1316C257.861 32.2621 256.976 31.8273 255.809 31.8273C254.269 31.8273 253.248 32.5057 252.746 33.8626C252.478 34.6167 252.346 35.4113 252.358 36.21C252.358 37.7863 252.653 39.0301 253.244 39.9415C253.857 40.8845 254.772 41.3561 255.989 41.3561C257.465 41.3561 258.457 40.6397 258.965 39.2071C259.245 38.3841 259.382 37.5205 259.37 36.6527Z" fill="black"/>
<path d="M274.468 31.7057L274.39 31.7821C273.78 31.7821 273.435 31.9426 273.355 32.2638C273.294 32.6486 273.262 33.0376 273.261 33.4273C273.245 33.8705 273.237 34.51 273.238 35.3456V37.7015C273.238 39.2167 272.935 40.2977 272.328 40.9445C271.523 41.8016 270.378 42.2295 268.892 42.2284C267.535 42.2284 266.476 42.0068 265.712 41.5635C265.405 41.3907 265.136 41.1598 264.92 40.8841C264.704 40.6084 264.545 40.2935 264.454 39.9573C264.33 39.5141 264.268 38.3568 264.268 36.4854V34.5128C264.268 33.3006 264.234 32.5091 264.166 32.1382C264.156 32.0703 264.126 32.0069 264.079 31.9563C264.031 31.9058 263.97 31.8704 263.902 31.855C263.6 31.8136 263.296 31.7882 262.992 31.7787L262.914 31.7023V31.1935L262.992 31.1172C263.49 31.1477 264.289 31.163 265.386 31.163C266.506 31.163 267.301 31.1477 267.773 31.1172L267.85 31.1935V31.7023L267.773 31.7787C267.469 31.7882 267.165 31.8137 266.864 31.855C266.796 31.8701 266.734 31.9053 266.686 31.9559C266.639 32.0065 266.608 32.0701 266.599 32.1382C266.532 32.5057 266.499 33.2973 266.499 34.5128V36.0885C266.499 38.0108 266.586 39.1907 266.762 39.6283C267.114 40.4854 267.982 40.9139 269.366 40.9139C270.273 40.9139 270.98 40.6946 271.488 40.2558C271.7 40.083 271.87 39.8664 271.986 39.6215C272.104 39.3013 272.177 38.967 272.204 38.6276C272.251 38.2057 272.274 37.7816 272.274 37.3572V35.7662C272.274 34.432 272.269 33.5194 272.259 33.0287C272.268 32.728 272.236 32.4275 272.166 32.1349C272.139 32.079 272.102 32.0291 272.055 31.9883C272.008 31.9474 271.953 31.9165 271.893 31.8974C271.58 31.8245 271.259 31.7859 270.936 31.7821L270.859 31.7057V31.1969L270.936 31.1206C271.388 31.1511 271.852 31.1664 272.328 31.1664C272.686 31.1664 273.376 31.1511 274.397 31.1206L274.474 31.1969L274.468 31.7057Z" fill="black"/>
<path d="M284.192 33.5104C284.192 34.5619 283.829 35.3817 283.101 35.9697C282.411 36.5442 281.536 36.8576 280.632 36.8534C280.315 36.8527 279.999 36.8168 279.691 36.7465C279.619 36.5546 279.528 36.37 279.42 36.1953L279.582 36.0257C279.775 36.0924 279.976 36.1285 280.18 36.1326C280.419 36.1412 280.656 36.0964 280.875 36.0015C281.093 35.9066 281.287 35.7641 281.441 35.5847C281.756 35.2217 281.915 34.7095 281.915 34.0582C281.915 32.6369 281.264 31.9256 279.963 31.9245C279.651 31.9389 279.339 31.97 279.03 32.0178C278.983 32.1399 278.96 32.9733 278.961 34.5178V38.5631C278.961 39.7775 278.995 40.569 279.061 40.9376C279.071 41.0055 279.102 41.069 279.149 41.1195C279.196 41.1701 279.257 41.2054 279.325 41.2209C279.374 41.2311 279.727 41.2565 280.391 41.2972L280.477 41.3803V41.8891L280.399 41.9655C279.689 41.9349 278.839 41.9197 277.849 41.9197C276.734 41.9197 275.937 41.9349 275.455 41.9655L275.377 41.8976V41.3888L275.463 41.3057C275.765 41.2959 276.066 41.2705 276.365 41.2294C276.433 41.2139 276.494 41.1786 276.541 41.128C276.589 41.0774 276.619 41.014 276.629 40.9461C276.695 40.5797 276.729 39.7882 276.73 38.5716V34.5128C276.73 33.3006 276.696 32.5091 276.629 32.1382C276.619 32.0703 276.589 32.0069 276.541 31.9563C276.494 31.9057 276.433 31.8704 276.365 31.8549C276.063 31.8137 275.759 31.7882 275.455 31.7786L275.377 31.6955V31.1867L275.463 31.1104C275.97 31.1409 276.75 31.1561 277.803 31.1561C278.237 31.1561 278.864 31.1482 279.684 31.1324C280.503 31.1171 280.974 31.1104 281.099 31.1104C282.518 31.1104 283.437 31.4648 283.858 32.1738C284.09 32.5817 284.205 33.0434 284.192 33.5104Z" fill="black"/>
<path d="M294.137 41.8768L294.066 41.9531C293.547 41.9226 292.746 41.9073 291.665 41.9073C290.583 41.9073 289.785 41.9226 289.27 41.9531L289.199 41.8768V41.368L289.279 41.2917C289.583 41.2821 289.886 41.2566 290.187 41.2153C290.255 41.1999 290.317 41.1645 290.364 41.114C290.411 41.0634 290.441 41 290.451 40.9321C290.518 40.5657 290.552 39.7742 290.553 38.5575V34.5123C290.553 33.3001 290.519 32.5086 290.451 32.1377C290.441 32.0698 290.411 32.0064 290.364 31.9558C290.317 31.9053 290.255 31.8699 290.187 31.8545C289.886 31.8132 289.583 31.7877 289.279 31.7782L289.199 31.7018V31.1828L289.279 31.1133C289.775 31.1438 290.573 31.1591 291.672 31.1591C292.77 31.1591 293.566 31.1438 294.058 31.1133L294.137 31.1828V31.7018L294.058 31.7782C293.754 31.7877 293.451 31.8132 293.149 31.8545C293.081 31.8699 293.02 31.9053 292.973 31.9558C292.926 32.0064 292.895 32.0698 292.885 32.1377C292.819 32.5052 292.785 33.2967 292.784 34.5123V38.5575C292.784 39.7719 292.818 40.5635 292.885 40.9321C292.895 41 292.926 41.0634 292.973 41.114C293.02 41.1645 293.081 41.1999 293.149 41.2153C293.451 41.2566 293.754 41.2821 294.058 41.2917L294.137 41.368V41.8768Z" fill="black"/>
<path d="M307.524 31.7052L307.438 31.7816C307.134 31.7911 306.83 31.8166 306.528 31.8579C306.46 31.8733 306.398 31.9087 306.351 31.9592C306.304 32.0098 306.274 32.0732 306.264 32.1411C306.197 32.5086 306.164 33.3001 306.164 34.5157V37.6213C306.164 39.9099 306.197 41.4008 306.264 42.0939L306.164 42.1635C305.578 42.0662 305.134 41.9972 304.833 41.9565C303.445 40.421 301.074 37.6218 297.721 33.5591V38.5609C297.721 39.7753 297.754 40.5668 297.821 40.9355C297.831 41.0036 297.862 41.0672 297.909 41.1178C297.956 41.1684 298.018 41.2036 298.087 41.2187C298.388 41.26 298.691 41.2855 298.995 41.295L299.073 41.3714V41.8938L298.995 41.9616C298.399 41.9311 297.845 41.9158 297.331 41.9158C296.737 41.9158 296.137 41.9311 295.537 41.9616L295.459 41.8938V41.3731L295.537 41.2967C295.841 41.2872 296.144 41.2617 296.445 41.2204C296.513 41.2053 296.575 41.1701 296.623 41.1195C296.67 41.0689 296.701 41.0053 296.711 40.9372C296.777 40.5708 296.811 39.7793 296.811 38.5626V34.5123C296.811 33.3001 296.777 32.5086 296.711 32.1377C296.701 32.0696 296.67 32.006 296.623 31.9554C296.575 31.9048 296.513 31.8696 296.445 31.8545C296.144 31.8132 295.841 31.7877 295.537 31.7782L295.459 31.7018V31.1828L295.537 31.1133C296.029 31.1438 296.497 31.1591 296.943 31.1591C297.643 31.1591 298.223 31.1438 298.685 31.1133C300.55 33.5602 302.742 36.1835 305.261 38.9833V34.5123C305.261 33.3001 305.227 32.5086 305.161 32.1377C305.151 32.0698 305.121 32.0064 305.073 31.9558C305.026 31.9053 304.965 31.8699 304.897 31.8545C304.595 31.8132 304.291 31.7877 303.987 31.7782L303.909 31.7018V31.1828L303.987 31.1133C304.568 31.1438 305.12 31.1591 305.642 31.1591C306.311 31.1591 306.912 31.1438 307.445 31.1133L307.524 31.1828V31.7052Z" fill="black"/>
<path d="M319.037 40.5693L318.68 41.3495C317.554 41.949 316.291 42.2545 315.011 42.2365C312.305 42.2365 310.455 41.2782 309.459 39.3616C308.998 38.4687 308.762 37.4798 308.77 36.4782C308.77 34.8059 309.335 33.4727 310.465 32.4788C311.614 31.4532 313.192 30.9404 315.199 30.9404C316.472 30.9402 317.735 31.1701 318.923 31.6189L319.023 31.7325C318.833 32.5438 318.724 33.3715 318.697 34.2037L318.627 34.2801H318.168L318.09 34.1953C318.089 33.766 318.061 33.3372 318.006 32.9113C317.358 32.1922 316.422 31.8326 315.199 31.8326C313.935 31.8326 312.947 32.225 312.237 33.0097C311.527 33.7944 311.169 34.8601 311.165 36.2069C311.165 38.0274 311.802 39.4244 313.077 40.398C313.756 40.917 314.666 41.177 315.806 41.1782C316.87 41.1708 317.916 40.8995 318.846 40.3895L319.037 40.5693Z" fill="black"/>
<path d="M50.759 34.5564C49.5108 36.7513 47.9573 38.7643 46.1435 40.5368C44.7294 41.9243 43.1261 43.1116 41.3797 44.0648C40.9245 44.309 40.4901 44.5329 40.0142 44.7432C39.7452 44.8653 39.4556 44.9874 39.1659 45.0824C37.097 45.8966 34.8194 46.285 32.3142 46.285C28.8159 46.285 25.7332 45.4369 23.0418 43.6984C20.3504 41.9599 18.2763 39.4429 16.7711 36.127C15.2659 32.8111 14.4952 28.7353 14.4952 23.9709C14.4952 19.2065 15.2607 15.1342 16.7711 11.7945C18.2814 8.45487 20.3728 5.95141 23.0435 4.21968C25.7142 2.48794 28.8176 1.61275 32.3159 1.61275C34.2886 1.59674 36.2517 1.88577 38.1332 2.46929C38.2042 2.49107 38.2734 2.51829 38.3401 2.5507H38.3607C38.8461 2.28357 39.3509 2.05226 39.8711 1.85868C40.0435 1.77727 40.2159 1.71621 40.409 1.6348C40.5125 1.61275 40.5952 1.57204 40.6987 1.55338C40.6159 1.51098 40.5125 1.49063 40.4297 1.44992C38.2987 0.757905 35.1107 0.126953 32.709 0.126953C27.8452 0.126953 23.9159 0.859673 20.8487 2.34716C17.0194 4.04328 13.9366 6.76554 11.5763 10.5733C9.1142 14.5241 7.87914 19.0443 7.87109 24.1337C7.95385 29.1627 9.19695 33.5607 11.5556 37.3482C13.9142 41.1356 17.0194 43.885 20.8487 45.554C23.9125 47.0414 27.8452 47.7945 32.709 47.7945C35.3176 47.7945 37.6763 47.4282 39.747 46.6751C40.2435 46.4919 40.7401 46.3087 41.1952 46.1052C41.267 46.0629 41.3433 46.0288 41.4228 46.0034C42.1311 45.6865 42.8218 45.3326 43.4918 44.9433C43.5634 44.9072 43.6325 44.8664 43.6987 44.8212C44.2159 44.5159 44.6918 44.1903 45.1676 43.8443C46.5871 42.7923 47.885 41.5905 49.0383 40.2604C49.9492 39.2016 50.76 38.0633 51.4608 36.8597C52.0401 35.842 52.3918 35.0686 52.5366 34.5597L50.759 34.5564Z" fill="black"/>
<path d="M7.99445 37.019C6.13238 33.028 5.18066 28.6707 5.18066 23.9589C5.18066 19.2471 6.13238 14.8779 7.99445 10.8869C9.85652 6.896 12.4031 3.536 15.6117 0.847656C12.5862 2.1523 9.84517 4.01942 7.53928 6.34646C5.23128 8.6393 3.38452 11.3405 2.09618 14.308C0.797617 17.3616 0.128906 20.6387 0.128906 23.9487C0.128906 27.2588 0.797617 30.5358 2.09618 33.5894C4.71896 39.5895 9.54518 44.396 15.6117 47.0498C12.4031 44.3699 9.85824 41.0099 7.99445 37.019Z" fill="#93C227"/>
<path d="M97.2872 27.6467C95.632 28.0742 93.9958 28.4812 92.3407 28.8069C90.6509 29.1423 88.9317 29.3127 87.2079 29.3157C85.1451 29.2981 83.0905 29.0592 81.0803 28.6034V30.4776C83.2218 30.8958 85.3973 31.1229 87.5803 31.156C90.3389 31.156 93.4165 30.7082 96.8114 29.811V43.6377C93.8723 45.4085 90.6246 46.291 87.0682 46.2853C83.57 46.2853 80.4648 45.4373 77.7941 43.6784C75.6631 42.2944 73.9027 40.4202 72.5165 38.0185C72.4958 38.0592 72.4751 38.0795 72.4545 38.1203C71.7662 39.1623 70.9529 40.119 70.032 40.9697C69.8596 41.1122 69.701 41.275 69.5355 41.4175C71.2575 43.15 73.3028 44.5396 75.5596 45.5102C78.6217 47.0378 82.582 47.7983 87.4407 47.7915C91.8499 47.7915 95.7683 46.6308 99.1958 44.3094C100.147 43.6804 101.047 42.9795 101.887 42.213V32.8657C101.887 30.3622 102.508 28.5084 103.792 27.2872C104.288 26.771 104.86 26.3318 105.489 25.9846C102.715 26.3238 99.972 26.8796 97.2872 27.6467ZM105.091 9.15912C105.029 9.0777 104.884 8.81989 104.863 8.79276L104.16 7.83615C104.069 7.74124 103.985 7.63912 103.911 7.53085C103.827 7.43728 103.738 7.34891 103.642 7.26625C101.473 4.98587 98.834 3.18796 95.901 1.99304C92.8372 0.709081 89.9596 0.078125 87.27 0.078125C83.1924 0.078125 79.7355 0.627668 76.8786 1.70809C72.051 3.56025 68.0407 6.69636 65.6803 11.5625C63.3631 16.3269 63.0527 18.9542 63.0527 18.9542C63.4251 19.0966 63.7976 19.2188 64.1493 19.3816C64.232 19.3982 64.3098 19.433 64.3769 19.4834C64.7217 19.6258 65.1424 19.809 65.5148 19.9718C65.8872 20.1347 66.2045 20.2771 66.5303 20.44C67.5231 20.9452 68.4495 21.5677 69.2889 22.2938V22.1106C69.4149 19.0026 69.951 15.9238 70.8838 12.9516C72.3114 9.24505 74.4085 6.42838 77.1751 4.50159C79.9424 2.54428 83.1924 1.58936 86.8958 1.58936C89.0888 1.57562 91.2558 2.05663 93.2303 2.99544C95.2401 3.94244 97.0733 5.21598 98.6527 6.76251C100.861 8.87498 102.688 11.3412 104.056 14.0558C104.449 14.7682 105.363 16.3642 105.711 18.2961C105.796 18.9852 105.845 19.6781 105.856 20.3721H106.394V12.0154C106.353 11.8525 105.153 9.26597 105.091 9.15912Z" fill="black"/>
<path d="M66.0733 42.5179C65.5975 41.8666 65.163 41.1932 64.7285 40.5012C64.1438 39.5389 63.612 38.5463 63.1354 37.5279C62.5927 36.3352 62.1223 35.1118 61.7268 33.8643C61.0993 31.8131 60.6834 29.7049 60.4854 27.5717C60.4026 26.6151 60.3406 25.6365 60.3406 24.6392V24.4356C60.3327 22.4563 60.5058 20.4803 60.8578 18.5314C61.3103 16.0647 62.0755 13.6635 63.1354 11.384C65.0182 7.39307 67.544 4.05342 70.7733 1.34473C68.5762 2.30033 66.5185 3.5398 64.6544 5.03038C64.2199 5.39674 63.8061 5.7648 63.3923 6.15151C63.3497 6.16676 63.3133 6.19537 63.2888 6.23293C63.2682 6.25328 63.2268 6.27363 63.2061 6.29398L62.6682 6.82318C60.3528 9.11044 58.5045 11.813 57.2233 14.7847C56.8551 15.6112 56.544 16.4612 56.2923 17.3289C56.2555 17.407 56.2277 17.4889 56.2095 17.5731C55.684 19.3776 55.3784 21.2372 55.2992 23.1126C55.282 23.1929 55.2751 23.2749 55.2785 23.3569C55.2578 23.6961 55.2578 24.0693 55.2578 24.4356C55.2578 24.9444 55.2785 25.4329 55.2992 25.9231C55.2948 25.9983 55.3018 26.0738 55.3199 26.147C55.4217 27.9841 55.7482 29.8024 56.2923 31.5627C56.313 31.6441 56.3337 31.7051 56.3544 31.7866C56.6021 32.5676 56.8898 33.3358 57.2164 34.0882C58.5035 37.0604 60.3503 39.7663 62.6595 42.0633C62.7423 42.1447 62.8319 42.2058 62.9078 42.2872C63.0319 42.4093 63.1561 42.5314 63.2802 42.6264C63.6251 42.9657 64.0044 43.2777 64.3768 43.583C64.5009 43.7052 64.6457 43.8069 64.7699 43.9087C66.5983 45.3687 68.6174 46.5809 70.7733 47.5129C68.9938 46.0548 67.4139 44.3758 66.0733 42.5179Z" fill="black"/>
<path d="M56.2842 31.5633C56.1807 31.5226 56.0566 31.5022 55.9531 31.4615C54.6704 31.1359 53.2204 30.8306 51.6273 30.5253L49.31 30.1385C47.4893 29.8536 45.5428 29.4855 43.4738 29.0785C41.4083 28.6699 39.3746 28.119 37.3876 27.4298C35.452 26.7763 33.6072 25.8868 31.8962 24.7822C30.2974 23.7271 28.9489 22.345 27.9428 20.7302C26.9497 19.1223 26.4531 17.1678 26.4531 14.8667C26.4738 12.9111 26.929 11.2014 27.7773 9.71395C28.9541 7.67856 30.5376 5.89864 32.4324 4.48145C31.0531 7.06802 30.3635 9.34759 30.3635 11.3643C30.3635 13.135 30.798 14.7243 31.6876 16.1134C33.3635 18.7 36.2411 20.776 40.3186 22.389C43.6934 23.7323 47.4606 24.7025 51.6204 25.2995C52.7583 25.4691 53.8617 25.6252 54.8962 25.8508C55.0292 25.8681 55.1606 25.8953 55.2893 25.9322C55.285 26.0074 55.2919 26.0829 55.31 26.1561C55.4131 27.9904 55.7401 29.8059 56.2842 31.5633Z" fill="#93C227"/>
<path d="M71.3923 24.5257C70.7722 23.7115 70.066 22.9644 69.2854 22.297C69.2854 22.297 69.2854 22.297 69.2767 22.297C68.4397 21.5774 67.5189 20.958 66.5336 20.4517C65.4148 19.8751 64.2542 19.3807 63.0612 18.9727C63.0233 19.1745 62.9854 19.3797 62.9526 19.5867C62.9198 19.7936 62.8854 19.9988 62.856 20.204C62.8267 20.4093 62.7974 20.6247 62.7767 20.8299C62.756 21.0351 62.7302 21.2268 62.7129 21.4235C62.7009 21.5355 62.6923 21.6474 62.6836 21.7628C62.6664 21.9324 62.6543 22.102 62.6457 22.2716C62.6216 22.6504 62.6049 23.0309 62.5957 23.4131C62.5957 23.6302 62.5957 23.849 62.5957 24.0712V24.1373C62.5957 24.273 62.5957 24.4138 62.5957 24.5495C62.5957 24.809 62.5957 25.0685 62.6164 25.328C63.2267 25.5841 63.8095 25.8606 64.3664 26.1438C67.1319 27.5505 68.9905 29.3031 69.9423 31.4018C70.4229 32.4991 70.6739 33.6805 70.6802 34.8754C70.6819 34.9059 70.6819 34.9365 70.6802 34.967C70.6802 36.7264 70.1526 38.7318 69.0974 40.9831C69.2061 41.1069 69.3233 41.2223 69.4423 41.341C69.475 41.3749 69.5043 41.4071 69.5371 41.436C69.6974 41.2969 69.8612 41.1392 70.0405 40.9797C70.9608 40.1327 71.7715 39.1774 72.4543 38.1354C72.4746 38.1065 72.493 38.0765 72.5095 38.0455C72.954 37.356 73.3326 36.6275 73.6405 35.8693C74.1029 34.7147 74.3307 33.4822 74.3112 32.2414C74.3112 29.7435 73.3382 27.1717 71.3923 24.5257Z" fill="#93C227"/>
<path d="M62.9054 42.291C62.8959 42.3051 62.8843 42.3176 62.8709 42.3283L62.8175 42.3826C61.5466 43.6135 60.0061 44.5418 58.314 45.0964C56.1381 45.8165 53.8563 46.1787 51.5606 46.1683C48.8954 46.1602 46.2462 45.7647 43.6985 44.9946L43.4847 44.9319C42.8194 45.3242 42.1315 45.6782 41.4244 45.9919L41.1934 46.0903L41.4244 46.1768C44.6689 47.3592 48.1006 47.9673 51.5606 47.973C54.0502 47.9802 56.525 47.5966 58.8916 46.8366C60.4921 46.3062 61.9906 45.515 63.3244 44.496C63.6892 44.219 64.0385 43.9228 64.3709 43.6089C63.9934 43.3053 63.6261 42.983 63.2658 42.6489C63.1485 42.5302 63.0261 42.4148 62.9054 42.291Z" fill="#93C227"/>
<path d="M64.3992 29.4325C63.9475 29.1238 63.4642 28.8269 62.9492 28.542C63.5766 32.3428 65.089 35.9495 67.3682 39.0799C67.6804 38.1096 67.8363 37.0972 67.8303 36.0795C67.8303 33.2312 66.6866 31.0155 64.3992 29.4325Z" fill="#93C227"/>
<path d="M64.6546 4.92908V5.03085C64.2202 5.39721 63.8064 5.76527 63.3926 6.15198C63.35 6.16723 63.3136 6.19584 63.2891 6.2334C63.0202 6.09092 62.834 6.00951 62.8133 5.98915C60.8233 4.8874 58.7119 4.01276 56.5202 3.38223C53.864 2.54342 51.0926 2.11096 48.3029 2.09997C46.0164 2.09267 43.7444 2.45715 41.5788 3.17869C41.434 3.23975 41.2684 3.28046 41.1236 3.34831C40.9788 3.41615 40.8133 3.47043 40.6684 3.53149C39.689 3.94124 38.7921 4.52028 38.0202 5.24117C37.1702 6.0977 36.7564 7.0136 36.7564 7.99057C36.7564 9.47636 37.6874 10.9435 39.5512 12.3275C41.7443 14.0994 45.7736 15.5043 51.6391 16.5424L53.9771 16.9494C54.5995 17.0308 55.1995 17.153 55.8202 17.2547C55.9926 17.2751 56.1305 17.3158 56.296 17.3362C56.2592 17.4143 56.2315 17.4962 56.2133 17.5804C55.6877 19.3849 55.3822 21.2444 55.3029 23.1199C55.1581 23.0995 55.0133 23.0588 54.8684 23.0385C53.834 22.835 52.7575 22.6518 51.6391 22.4889C45.7391 21.6731 41.1029 20.228 37.6736 18.152C34.4874 16.1958 32.8937 13.7319 32.8926 10.7603C32.9033 9.91272 33.0285 9.07028 33.265 8.25516C33.9909 5.89417 35.6253 4.04032 38.1512 2.65799C38.218 2.62001 38.2871 2.58603 38.3581 2.55622H38.3788C38.8641 2.28909 39.369 2.05778 39.8891 1.86421C40.0615 1.78279 40.234 1.72174 40.4271 1.64032C40.5305 1.61827 40.6133 1.57757 40.7167 1.55891H40.7374C40.8248 1.51305 40.9146 1.47172 41.0064 1.43509C43.3662 0.682744 45.8327 0.304867 48.3133 0.315654C51.2755 0.327939 54.2193 0.774401 57.0478 1.64032C58.9529 2.21022 62.2633 3.69601 64.2719 4.73403C64.3771 4.78661 64.5219 4.86802 64.6546 4.92908Z" fill="#93C227"/>
</g>
<defs>
<clipPath id="clip0_5554_3738">
<rect width="320" height="48" fill="white"/>
</clipPath>
</defs>
</svg>
