<svg width="48" height="48" viewBox="0 0 48 48" fill="none" xmlns="http://www.w3.org/2000/svg">
<g clip-path="url(#clip0_5669_3204)">
<path d="M24 48.0012C30.3652 48.0012 36.4697 45.4726 40.9706 40.9716C45.4714 36.4706 48 30.3659 48 24.0006C48 17.6352 45.4714 11.5306 40.9706 7.02961C36.4697 2.52863 30.3652 0 24 0C17.6348 0 11.5303 2.52863 7.02944 7.02961C2.52856 11.5306 0 17.6352 0 24.0006C0 30.3659 2.52856 36.4706 7.02944 40.9716C11.5303 45.4726 17.6348 48.0012 24 48.0012Z" fill="url(#paint0_linear_5669_3204)"/>
<path d="M8.46694 34.4708H22.9749V31.2547H13.4109C14.7309 25.9806 22.8099 24.8255 22.8099 18.9724C22.8099 15.8403 20.6649 13.5303 16.1319 13.5303C13.3299 13.5303 10.8519 14.3553 9.20194 15.1803L10.1919 18.1474C11.6829 17.4004 13.4109 16.7404 15.5559 16.7404C17.2059 16.7404 18.7689 17.4844 18.7689 19.3804C18.7659 23.6705 9.28594 24.0005 8.46094 34.4708H8.46694ZM23.3859 29.3587H32.7009V34.4708H36.4119V29.3587H39.5409V26.2266H36.4119V13.5303H33.6879L23.3829 26.8866V29.3617L23.3859 29.3587ZM27.5919 26.3916L32.8659 19.3024C32.8659 19.8784 32.7009 21.6935 32.7009 23.3405V26.3076H30.2259C29.4849 26.3076 28.0809 26.3886 27.5859 26.3886L27.5919 26.3916Z" fill="white"/>
</g>
<defs>
<linearGradient id="paint0_linear_5669_3204" x1="37.947" y1="43.4321" x2="9.89009" y2="4.48876" gradientUnits="userSpaceOnUse">
<stop stop-color="#2FC4F4"/>
<stop offset="1" stop-color="#409BEC"/>
</linearGradient>
<clipPath id="clip0_5669_3204">
<rect width="48" height="48.0012" fill="white"/>
</clipPath>
</defs>
</svg>
