<svg width="48" height="48" viewBox="0 0 48 48" fill="none" xmlns="http://www.w3.org/2000/svg">
<g clip-path="url(#clip0_5656_3359)">
<path d="M35.3281 29.7892L36.7148 26.2826H40.7185L38.8185 20.9632L41.1948 14.9535L48.0014 33.026H42.9818L41.8187 29.7892H35.3281Z" fill="#3D3D3D"/>
<path d="M31.0445 33.0261L38.3311 14.9535L33.5004 14.9535L28.5159 26.6324L24.9715 14.9535H21.2584L17.4526 26.6324L14.7687 21.3106L12.3398 28.7936L14.8058 33.0261H19.5599L22.999 22.5526L26.278 33.0261H31.0445Z" fill="#5A0FC8"/>
<path d="M4.58548 26.822H7.56096C8.46229 26.822 9.26489 26.7214 9.96875 26.5202L10.7383 24.1495L12.8889 17.5236C12.725 17.2639 12.5379 17.0183 12.3276 16.7869C11.2234 15.5646 9.60784 14.9535 7.48087 14.9535H0V33.026H4.58548V26.822ZM8.52398 19.1113C8.9553 19.5454 9.17093 20.1263 9.17093 20.854C9.17093 21.5874 8.98126 22.169 8.60196 22.5989C8.18614 23.0766 7.42048 23.3154 6.30502 23.3154H4.58548V18.4601H6.31766C7.35725 18.4601 8.0927 18.6771 8.52398 19.1113Z" fill="#3D3D3D"/>
</g>
<defs>
<clipPath id="clip0_5656_3359">
<rect width="48" height="48.0012" fill="white"/>
</clipPath>
</defs>
</svg>
