<svg width="48" height="48" viewBox="0 0 48 48" fill="none" xmlns="http://www.w3.org/2000/svg">
<path fill-rule="evenodd" clip-rule="evenodd" d="M6.0008 11.8211C7.652 11.8115 8.996 13.1427 9.0056 14.7908C9.0056 14.8004 9.0056 14.8132 9.0056 14.8228V17.1588V24.6694C9.0056 33.2424 15.9528 40.1898 24.5256 40.1898C33.0984 40.1898 40.0456 33.2424 40.0456 24.6694V16.9924V14.6563C40.036 13.0051 41.3672 11.6611 43.0152 11.6515C43.0248 11.6515 43.0376 11.6515 43.0472 11.6515H44.548V24.6694C44.548 35.7289 35.5816 44.6955 24.5224 44.6955C13.4632 44.6955 4.5 35.7321 4.5 24.6726V11.8211H6.0008ZM6.6696 4.6465C11.8216 4.6369 16.0072 8.8066 16.0136 13.9587C16.0136 13.9683 16.0136 13.9811 16.0136 13.9907V24.6726C16.0136 29.3735 19.8248 33.1848 24.5256 33.1848C29.2264 33.1848 33.0376 29.3735 33.0376 24.6726V13.9907C33.028 8.8386 37.1976 4.6529 42.3496 4.6465C42.3592 4.6465 42.372 4.6465 42.3816 4.6465H44.5512V9.15221H42.3816C39.7096 9.15221 37.5432 11.3187 37.5432 13.9907V24.6726C37.5432 31.7704 31.7896 37.5241 24.692 37.5241C17.5624 37.5337 11.7576 31.8024 11.6744 24.6726V13.9907C11.6488 11.2899 9.4376 9.12341 6.7368 9.14901C6.7144 9.14901 6.692 9.14901 6.6696 9.14901H4.5V4.6465H6.6696Z" fill="url(#paint0_linear_5656_3377)"/>
<defs>
<linearGradient id="paint0_linear_5656_3377" x1="14.1192" y1="3.50727" x2="40.5393" y2="39.9876" gradientUnits="userSpaceOnUse">
<stop stop-color="#25C5FF"/>
<stop offset="0.45" stop-color="#0048FF"/>
<stop offset="1" stop-color="#C500F3"/>
</linearGradient>
</defs>
</svg>
