<svg width="48" height="48" viewBox="0 0 48 48" fill="none" xmlns="http://www.w3.org/2000/svg">
<g clip-path="url(#clip0_5656_3380)">
<path d="M45.0024 41.9759C45.0024 45.2413 42.3723 47.9946 39.1347 47.9946H38.4242C35.3894 47.5871 33.1634 44.8324 33.2651 41.7721V6.26953C33.1634 3.20856 35.3894 0.555109 38.4242 0.0463617C41.6618 -0.359199 44.5957 1.9847 45.0024 5.24878V41.9759Z" fill="#F9AB00"/>
<path d="M7.87042 36.1609C9.03094 36.1609 10.1654 36.5079 11.1303 37.158C12.0953 37.8082 12.8473 38.7323 13.2915 39.8134C13.7356 40.8946 13.8518 42.0843 13.6254 43.2321C13.399 44.3798 12.8401 45.4341 12.0195 46.2616C11.1989 47.0891 10.1534 47.6526 9.01515 47.8809C7.87692 48.1092 6.69713 47.9921 5.62494 47.5442C4.55276 47.0964 3.63635 46.338 2.9916 45.365C2.34685 44.392 2.00272 43.248 2.00272 42.0777C1.90168 38.813 4.63282 36.1609 7.87042 36.1609ZM23.3492 18.1033C20.111 18.3077 17.5851 21.0617 17.5851 24.3264V40.3438C17.5851 44.628 19.5074 47.2808 22.2385 47.8927C25.4767 48.5053 28.5116 46.4645 29.2195 43.1997C29.3205 42.7922 29.3205 42.384 29.3205 41.9759V24.1227C29.3205 20.8573 26.6904 18.1033 23.4528 18.1033H23.3492Z" fill="#E37400"/>
</g>
<defs>
<clipPath id="clip0_5656_3380">
<rect width="48" height="48.0012" fill="white"/>
</clipPath>
</defs>
</svg>
