<svg width="48" height="48" viewBox="0 0 48 48" fill="none" xmlns="http://www.w3.org/2000/svg"><g clip-path="url(#clip0_1077_7776)" fill="#fff"><path d="M16.554 16.21a.8.8 0 00-1.13 0l-3.997 3.997a.8.8 0 000 1.13l3.997 3.997a.8.8 0 001.13-1.13l-3.431-3.432 3.431-3.431a.8.8 0 000-1.13zm8.461 9.124a.8.8 0 001.13 0l3.997-3.997a.8.8 0 000-1.13l-3.997-3.996a.8.8 0 00-1.13 1.13l3.432 3.431-3.432 3.432a.8.8 0 000 1.13zm-6.127.177a.8.8 0 001.04-.445l3.197-7.993a.8.8 0 10-1.486-.595l-3.197 7.993a.799.799 0 00.446 1.04z"/><path d="M20.784 41.554a20.674 20.674 0 0012.895-4.502l2.312 2.312c.044.773.37 1.504.917 2.053l5.595 5.595a3.197 3.197 0 104.52-4.521l-5.594-5.595a3.144 3.144 0 00-2.02-.884l-2.345-2.345a20.77 20.77 0 10-16.28 7.887zm25.11 2.067a1.599 1.599 0 010 2.26 1.636 1.636 0 01-2.26 0l-5.596-5.595a1.598 1.598 0 112.26-2.26l5.596 5.595zm-8.339-7.202a2.99 2.99 0 00-.647.48 3.132 3.132 0 00-.48.64l-1.527-1.529c.388-.36.763-.734 1.123-1.124l1.531 1.533zM20.785 1.59c10.594 0 19.183 8.588 19.183 19.183s-8.59 19.184-19.184 19.184c-10.595 0-19.183-8.59-19.183-19.184.012-10.59 8.594-19.17 19.183-19.183z"/><path d="M20.784 38.357c9.712 0 17.585-7.873 17.585-17.585 0-9.711-7.873-17.584-17.585-17.584S3.199 11.06 3.199 20.771c.011 9.708 7.878 17.574 17.585 17.585zm0-33.57c8.829 0 15.986 7.156 15.986 15.985 0 8.83-7.157 15.986-15.986 15.986S4.798 29.601 4.798 20.772c.01-8.824 7.161-15.976 15.986-15.986z"/><path d="M9.594 14.378h6.395a.8.8 0 100-1.599H9.594a.8.8 0 100 1.599zm2.399-3.198h17.584a.8.8 0 100-1.598H11.993a.8.8 0 100 1.599zm15.186 1.6h-7.993a.8.8 0 100 1.598h7.993a.8.8 0 100-1.599zm-9.593-4.797h6.395a.8.8 0 100-1.598h-6.395a.8.8 0 100 1.598zm11.99 5.596a.8.8 0 00.8.799h1.598a.8.8 0 100-1.599h-1.599a.8.8 0 00-.799.8zm-10.39 15.186a.8.8 0 100-1.598H9.594a.8.8 0 100 1.598h9.592zm10.39 1.599h-11.99a.8.8 0 100 1.599h11.99a.8.8 0 100-1.599zm-15.186 0h-2.397a.8.8 0 100 1.599h2.397a.8.8 0 100-1.599zm7.993-1.599h4.796a.8.8 0 100-1.598h-4.796a.8.8 0 100 1.598zm1.597 4.797h-6.394a.8.8 0 100 1.598h6.395a.8.8 0 100-1.598zm7.994-6.395h-1.599a.8.8 0 000 1.598h1.6a.8.8 0 100-1.598z"/></g><defs><clipPath id="clip0_1077_7776"><path fill="#fff" d="M0 0h48v48H0z"/></clipPath></defs></svg>