<svg width="48" height="48" viewBox="0 0 48 48" fill="none" xmlns="http://www.w3.org/2000/svg"><path d="M42.75 15v15H29.61l2.587-6.473 1.5-3.75a.76.76 0 00-.037-.637.749.749 0 00-.51-.375l-3.75-.75a.75.75 0 00-.862.495l-.473 1.432-.728-.36a.75.75 0 00-1.064.848l.69 2.768-.736 1.845a7.51 7.51 0 00-4.425-6.51l-2.302-1.02v-1.958a5.304 5.304 0 002.032-2.805h.218a2.25 2.25 0 000-4.5v-1.5a5.25 5.25 0 10-10.5 0v1.5a2.25 2.25 0 000 4.5h.217a5.304 5.304 0 002.033 2.805v1.957l-2.303 1.02a7.507 7.507 0 00-4.447 6.855V30h-1.5V11.25A2.257 2.257 0 017.5 9h.75V7.5H7.5a3.75 3.75 0 00-3.75 3.75v22.5A3.75 3.75 0 007.5 37.5h10.402L17.34 42h-.84a2.25 2.25 0 000 4.5h15a2.25 2.25 0 000-4.5h-.84l-.563-4.5H40.5a3.75 3.75 0 003.75-3.75V15h-1.5zm-21-5.25a.75.75 0 110 1.5v-1.5zm-10.5 1.5a.75.75 0 110-1.5v1.5zm16.913 10.418a.756.756 0 001.05-.428l.54-1.627 2.212.442-.975 2.445h-2.655l-.21-.848.038.015zM28.26 24h2.13l-2.4 6h-2.13l2.4-6zm-8.16-4.582l-.345 1.724-1.238-.99.585-1.177.998.442zM12.75 6.75a3.75 3.75 0 017.5 0v.053a5.79 5.79 0 00-.75-.053 7.772 7.772 0 00-3.293.81 6.466 6.466 0 01-2.707.69 3.766 3.766 0 01-.75-.068V6.75zm0 4.5V9.697c.249.034.5.052.75.053a7.772 7.772 0 003.293-.81 6.466 6.466 0 012.707-.69c.252-.003.503.02.75.068v2.932a3.75 3.75 0 01-7.5 0zM18 16.282v1.538l-1.5 3-1.5-3v-1.538c.979.29 2.021.29 3 0zm-4.102 2.693l.585 1.177-1.238.99-.345-1.724.998-.443zM8.25 25.387a6 6 0 013.248-5.317l.517 2.58a.75.75 0 001.2.435l1.957-1.568.66 1.32a.75.75 0 001.335 0l.66-1.32 1.958 1.568a.75.75 0 00.72.12.75.75 0 00.48-.555l.518-2.58a6 6 0 013.247 5.317v3.346L24.24 30H22.5v-5.25H21V30h-9v-5.25h-1.5V30H8.25v-4.613zM31.5 43.5a.75.75 0 110 1.5h-15a.75.75 0 110-1.5h15zM18.848 42l.562-4.5h9.18l.563 4.5H18.848zm23.902-8.25A2.257 2.257 0 0140.5 36h-33a2.257 2.257 0 01-2.25-2.25V31.5h37.5v2.25z" fill="#fff"/><path d="M39.75 33h-1.5v1.5h1.5V33zM42 1.5H28.5a2.25 2.25 0 00-2.25 2.25v7.5a2.25 2.25 0 002.25 2.25h2.25v2.25a.75.75 0 001.28.53l2.78-2.78H42a2.25 2.25 0 002.25-2.25v-7.5A2.25 2.25 0 0042 1.5zm.75 9.75A.75.75 0 0142 12h-7.5a.75.75 0 00-.53.22l-1.72 1.72v-1.19a.75.75 0 00-.75-.75h-3a.75.75 0 01-.75-.75v-7.5A.75.75 0 0128.5 3H42a.75.75 0 01.75.75v7.5z" fill="#fff"/><path d="M40.5 5.25H30v1.5h10.5v-1.5zm0 3H30v1.5h10.5v-1.5z" fill="#fff"/></svg>