<svg width="48" height="48" viewBox="0 0 48 48" fill="none" xmlns="http://www.w3.org/2000/svg"><g clip-path="url(#clip0_1165_2411)" fill="#fff"><path d="M6.193 30.968h1.549v1.548H6.193v-1.548zm-3.095 0h1.548v1.548H3.098v-1.548zm3.095 12.387h1.549v1.548H6.193v-1.548zm-3.095 0h1.548v1.548H3.098v-1.548zm6.193-6.194h1.548v1.548H9.291v-1.548zm3.096 0h1.548v1.548h-1.548v-1.548zm24.775-6.193h1.549v1.548h-1.549v-1.548zm-3.097 0h1.548v1.548h-1.548v-1.548zm0 12.387h1.548v1.548h-1.548v-1.548zm3.097 0h1.549v1.548h-1.549v-1.548zm3.096-6.194h1.548v1.548h-1.548v-1.548zm3.097 0h1.549v1.548h-1.549v-1.548zM18.58 48h10.84V34.065H18.58V48zm1.549-12.387h7.741v10.839h-7.742v-10.84z"/><path d="M21.678 43.355h4.645v1.548h-4.645v-1.548zm0-3.097h4.645v1.548h-4.645v-1.548zm0-3.097h4.645v1.548h-4.645v-1.548zM40.258 9.29h4.645v1.548h-4.645V9.29zm0-3.097h4.645v1.549h-4.645V6.193zm0-3.096h4.645v1.548h-4.645V3.097zM3.098 9.29h4.645v1.548H3.098V9.29zm0-3.097h4.645v1.549H3.098V6.193zm0-3.096h4.645v1.548H3.098V3.097zM24 15.483a5.426 5.426 0 00-5.42 5.42 5.427 5.427 0 005.42 5.42 5.426 5.426 0 005.419-5.42 5.426 5.426 0 00-5.42-5.42zm0 9.29a3.875 3.875 0 01-3.872-3.87A3.875 3.875 0 0124 17.032a3.875 3.875 0 013.871 3.87A3.875 3.875 0 0124 24.775z"/><path d="M24 18.581a2.325 2.325 0 00-2.322 2.323A2.325 2.325 0 0024 23.226a2.325 2.325 0 002.323-2.322A2.325 2.325 0 0024 18.58zm0 3.097a.775.775 0 11.002-1.55.775.775 0 01-.002 1.55zM21.81 6.327l1.095 1.095c.585-.585 1.604-.585 2.19 0l1.094-1.095c-1.17-1.17-3.209-1.17-4.378 0z"/><path d="M27.285 5.23l1.095-1.094a6.2 6.2 0 00-8.759 0l1.095 1.095a4.65 4.65 0 016.569 0z"/><path d="M43.355 21.677v-7.742H48V0H37.161v13.935h4.645v6.194h-7.741v-1.332l-2.018-.673a8.54 8.54 0 00-.39-.948l.95-1.9-2.98-2.98-1.898.95a8.612 8.612 0 00-.95-.39l-.672-2.017h-4.213l-.673 2.017a8.39 8.39 0 00-.949.39l-1.899-.95-2.979 2.98.95 1.9a8.677 8.677 0 00-.39.948l-2.019.673v1.332H6.194v-6.194h4.645V0H0v13.935h4.645v7.742h3.097v6.194h-5.42A2.325 2.325 0 000 30.194v3.096c0 .597.233 1.137.604 1.549A2.304 2.304 0 000 36.387v3.097c0 .597.233 1.136.604 1.548A2.309 2.309 0 000 42.581v3.096A2.325 2.325 0 002.323 48H14.71a2.325 2.325 0 002.322-2.323v-3.096c0-.597-.233-1.137-.604-1.549.372-.412.604-.951.604-1.548v-3.097c0-.597-.233-1.136-.604-1.548.372-.412.604-.952.604-1.549v-3.096a2.325 2.325 0 00-2.322-2.323H9.29v-6.194h4.646v1.333l2.017.673c.112.326.242.643.39.948l-.95 1.9 2.98 2.979 1.898-.95c.305.147.623.278.95.39l.672 2.018h4.213l.673-2.018a8.47 8.47 0 00.949-.39l1.899.95 2.979-2.98-.95-1.899c.147-.305.278-.622.39-.948l2.019-.673v-1.333h4.645v6.194h-5.42a2.325 2.325 0 00-2.322 2.323v3.096c0 .597.233 1.137.604 1.549a2.304 2.304 0 00-.604 1.548v3.097c0 .597.233 1.136.604 1.548a2.304 2.304 0 00-.604 1.549v3.096A2.325 2.325 0 0033.29 48h12.387A2.325 2.325 0 0048 45.677v-3.096c0-.597-.233-1.137-.604-1.549.372-.412.604-.951.604-1.548v-3.097c0-.597-.233-1.136-.604-1.548.372-.412.604-.952.604-1.549v-3.096a2.325 2.325 0 00-2.323-2.323h-5.419v-6.194h3.097zM38.71 1.548h7.742v10.84H38.71V1.547zm-37.162 0H9.29v10.84H1.548V1.547zm13.936 34.84v3.096a.775.775 0 01-.774.774H2.323a.775.775 0 01-.775-.774v-3.097c0-.427.348-.774.775-.774H14.71c.426 0 .774.347.774.774zm0 9.29a.775.775 0 01-.774.774H2.323a.775.775 0 01-.775-.775v-3.096c0-.428.348-.775.775-.775H14.71c.426 0 .774.347.774.775v3.096zm0-15.484v3.096a.775.775 0 01-.774.775H2.323a.775.775 0 01-.775-.775v-3.096c0-.428.348-.775.775-.775H14.71c.426 0 .774.347.774.774zm17.032-8.3l-1.718.572-.113.389a6.982 6.982 0 01-.575 1.397l-.195.356.807 1.617-1.4 1.4-1.617-.808-.356.196a6.907 6.907 0 01-1.396.575l-.39.113-.573 1.718h-1.98l-.572-1.718-.39-.113a6.958 6.958 0 01-1.396-.575l-.356-.196-1.617.808-1.4-1.4.807-1.617-.195-.356a6.89 6.89 0 01-.575-1.397l-.113-.39-1.718-.572v-1.98l1.718-.573.113-.39c.145-.495.338-.965.575-1.397l.195-.355-.807-1.617 1.4-1.4 1.617.807.355-.195a6.863 6.863 0 011.397-.576l.39-.113.573-1.717h1.981l.573 1.718.39.113a6.95 6.95 0 011.396.575l.355.196 1.617-.808 1.4 1.4-.807 1.618.195.355c.238.432.431.902.575 1.398l.113.389 1.718.572v1.98zm13.936 14.493v3.097a.775.775 0 01-.775.774H33.29a.775.775 0 01-.774-.774v-3.097c0-.427.348-.774.774-.774h12.387c.427 0 .775.347.775.774zm0 9.29a.775.775 0 01-.775.775H33.29a.775.775 0 01-.774-.775v-3.096c0-.428.348-.775.774-.775h12.387c.427 0 .775.347.775.775v3.096zm0-15.483v3.096a.775.775 0 01-.775.775H33.29a.775.775 0 01-.774-.775v-3.096c0-.428.348-.775.774-.775h12.387c.427 0 .775.347.775.774z"/></g><defs><clipPath id="clip0_1165_2411"><path fill="#fff" d="M0 0h48v48H0z"/></clipPath></defs></svg>