<svg width="48" height="48" viewBox="0 0 48 48" fill="none" xmlns="http://www.w3.org/2000/svg"><g clip-path="url(#clip0_1165_2444)" fill="#fff"><path d="M5.6 3.2h-.8a.8.8 0 100 1.6h.8a.8.8 0 100-1.6zm4 0h-.8a.8.8 0 100 1.6h.8a.8.8 0 100-1.6zm4 0h-.8a.8.8 0 100 1.6h.8a.8.8 0 100-1.6zm24.8 0H16.8a.8.8 0 100 1.6h21.6a.8.8 0 100-1.6z"/><path d="M46.4 28.8h-.8v-4c0-2.24-.86-4.395-2.4-6.02V4a4.005 4.005 0 00-4-4H4a4.005 4.005 0 00-4 4v32a4.005 4.005 0 004 4h21.6v2.4a5.606 5.606 0 005.6 5.6h11.2a5.606 5.606 0 005.6-5.6v-12a1.6 1.6 0 00-1.6-1.6zm-2.4-4v4H29.6v-4a7.2 7.2 0 0114.4 0zM1.6 4A2.4 2.4 0 014 1.6h35.2A2.4 2.4 0 0141.6 4v2.4h-40V4zm24 26.4v8H4A2.4 2.4 0 011.6 36V8h40v9.434A8.789 8.789 0 0028 24.8v4h-.8a1.6 1.6 0 00-1.6 1.6zM46.4 32H44a.8.8 0 100 1.6h2.4v1.6H44a.8.8 0 100 1.6h2.4v1.6H44a.8.8 0 100 1.6h2.4v1.6H44a.8.8 0 100 1.6h2.32a4.007 4.007 0 01-3.92 3.2H31.2a4.007 4.007 0 01-3.92-3.2h2.32a.8.8 0 000-1.6h-2.4V40h2.4a.8.8 0 100-1.6h-2.4v-1.6h2.4a.8.8 0 000-1.6h-2.4v-1.6h2.4a.8.8 0 100-1.6h-2.4v-1.6h19.2V32z"/><path d="M36 39.053V40.8a.8.8 0 001.6 0v-1.747a2.394 2.394 0 00-.8-4.653 2.394 2.394 0 00-.8 4.653zM36.8 36a.8.8 0 110 1.6.8.8 0 010-1.6zM13.6 16a.8.8 0 00-.8.8v2.4H6.4v-6.4h3.2a.8.8 0 100-1.6H6.4a1.6 1.6 0 00-1.6 1.6v6.4a1.6 1.6 0 001.6 1.6h6.4a1.6 1.6 0 001.6-1.6v-2.4a.8.8 0 00-.8-.8z"/><path d="M8.565 14.634a.8.8 0 00-1.131 1.131l1.6 1.6a.8.8 0 00.565.235h.036a.8.8 0 00.579-.287l4-4.8a.8.8 0 00-1.23-1.025l-3.44 4.128-.98-.982zM13.6 29.6a.8.8 0 00-.8.8v2.4H6.4v-6.4h3.2a.8.8 0 000-1.6H6.4a1.6 1.6 0 00-1.6 1.6v6.4a1.6 1.6 0 001.6 1.6h6.4a1.6 1.6 0 001.6-1.6v-2.4a.8.8 0 00-.8-.8z"/><path d="M8.565 28.235a.8.8 0 00-1.131 1.13l1.6 1.6a.8.8 0 00.565.235h.036a.8.8 0 00.579-.286l4-4.8a.8.8 0 10-1.23-1.026l-3.44 4.128-.98-.981zM17.6 13.6H24a.8.8 0 100-1.6h-6.4a.8.8 0 100 1.6zm11.2 3.2a.8.8 0 00-.8-.8H17.6a.8.8 0 100 1.6H28a.8.8 0 00.8-.8zM24 25.6h-6.4a.8.8 0 100 1.6H24a.8.8 0 100-1.6zm-.8 4h-5.6a.8.8 0 100 1.6h5.6a.8.8 0 100-1.6z"/></g><defs><clipPath id="clip0_1165_2444"><path fill="#fff" d="M0 0h48v48H0z"/></clipPath></defs></svg>