<svg width="48" height="48" viewBox="0 0 48 48" fill="none" xmlns="http://www.w3.org/2000/svg">
<path d="M44.2517 29.25H28.5017C28.3028 29.25 28.112 29.329 27.9714 29.4697C27.8307 29.6103 27.7517 29.8011 27.7517 30C27.7517 30.1989 27.8307 30.3897 27.9714 30.5303C28.112 30.671 28.3028 30.75 28.5017 30.75H44.2517V33H30.3467C30.1478 33 29.957 33.079 29.8164 33.2197C29.6757 33.3603 29.5967 33.5511 29.5967 33.75C29.5967 33.9489 29.6757 34.1397 29.8164 34.2803C29.957 34.421 30.1478 34.5 30.3467 34.5H41.2517V36.75H30.7517C30.5528 36.75 30.362 36.829 30.2214 36.9697C30.0807 37.1103 30.0017 37.3011 30.0017 37.5C30.0017 37.6989 30.0807 37.8897 30.2214 38.0303C30.362 38.171 30.5528 38.25 30.7517 38.25H44.2517V40.5H29.8067C29.6078 40.5 29.417 40.579 29.2764 40.7197C29.1357 40.8603 29.0567 41.0511 29.0567 41.25C29.0567 41.4489 29.1357 41.6397 29.2764 41.7803C29.417 41.921 29.6078 42 29.8067 42H44.2517V44.25H27.1367C26.9378 44.25 26.747 44.329 26.6064 44.4697C26.4657 44.6103 26.3867 44.8011 26.3867 45C26.3867 45.1989 26.4657 45.3897 26.6064 45.5303C26.747 45.671 26.9378 45.75 27.1367 45.75H44.2517C44.6495 45.75 45.0311 45.592 45.3124 45.3107C45.5937 45.0294 45.7517 44.6478 45.7517 44.25V42C45.749 41.7359 45.6765 41.4771 45.5417 41.25C45.6765 41.0229 45.749 40.7641 45.7517 40.5V38.25C45.7517 37.8522 45.5937 37.4706 45.3124 37.1893C45.0311 36.908 44.6495 36.75 44.2517 36.75H42.7517V34.5H44.2517C44.6495 34.5 45.0311 34.342 45.3124 34.0607C45.5937 33.7794 45.7517 33.3978 45.7517 33V30.75C45.7517 30.3522 45.5937 29.9706 45.3124 29.6893C45.0311 29.408 44.6495 29.25 44.2517 29.25Z" fill="white"/>
<path d="M12.75 22.5C13.3872 22.4968 14.013 22.3313 14.5685 22.0191C15.124 21.7069 15.5907 21.2583 15.9247 20.7157C16.2587 20.173 16.4489 19.5542 16.4774 18.9177C16.5059 18.2811 16.3717 17.6478 16.0875 17.0775L20.8425 13.3275C21.51 13.9084 22.3651 14.2283 23.25 14.2283C24.1349 14.2283 24.99 13.9084 25.6575 13.3275L30.4125 17.0775C30.1068 17.6965 29.9779 18.388 30.04 19.0756C30.1022 19.7632 30.353 20.4203 30.7647 20.9745C31.1765 21.5287 31.7333 21.9585 32.3737 22.2165C33.0142 22.4744 33.7134 22.5506 34.3943 22.4365C35.0752 22.3224 35.7115 22.0226 36.2329 21.57C36.7543 21.1175 37.1407 20.5297 37.3494 19.8716C37.5581 19.2135 37.581 18.5105 37.4157 17.8402C37.2504 17.1698 36.9033 16.5581 36.4125 16.0725L40.68 9.48749C41.1003 9.65484 41.5477 9.74381 42 9.74999C42.8695 9.75186 43.7126 9.45152 44.3851 8.90035C45.0576 8.34918 45.5177 7.58145 45.6866 6.72851C45.8555 5.87557 45.7228 4.99044 45.3111 4.22456C44.8995 3.45868 44.2345 2.85966 43.4299 2.52999C42.6253 2.20032 41.7311 2.16049 40.9004 2.41731C40.0697 2.67413 39.3541 3.21165 38.8759 3.93789C38.3978 4.66413 38.1869 5.53395 38.2793 6.39853C38.3717 7.26311 38.7617 8.06871 39.3825 8.67749L35.1075 15.2625C34.484 15.0149 33.8045 14.9434 33.1432 15.0558C32.4818 15.1682 31.8641 15.4603 31.3575 15.9L26.6025 12.15C26.8954 11.5783 27.0365 10.941 27.0124 10.2991C26.9882 9.65726 26.7996 9.03235 26.4646 8.48431C26.1296 7.93626 25.6594 7.48346 25.0991 7.16929C24.5389 6.85513 23.9073 6.69014 23.265 6.69014C22.6227 6.69014 21.9911 6.85513 21.4309 7.16929C20.8706 7.48346 20.4004 7.93626 20.0654 8.48431C19.7304 9.03235 19.5418 9.65726 19.5177 10.2991C19.4935 10.941 19.6346 11.5783 19.9275 12.15L15.1725 15.9C14.4995 15.3184 13.6395 14.9988 12.75 15C11.7554 15 10.8016 15.3951 10.0983 16.0983C9.39509 16.8016 9 17.7554 9 18.75C9 19.7446 9.39509 20.6984 10.0983 21.4016C10.8016 22.1049 11.7554 22.5 12.75 22.5ZM42 3.74999C42.445 3.74999 42.88 3.88195 43.25 4.12919C43.62 4.37642 43.9084 4.72782 44.0787 5.13895C44.249 5.55009 44.2936 6.00249 44.2068 6.43895C44.12 6.8754 43.9057 7.27631 43.591 7.59098C43.2763 7.90565 42.8754 8.11994 42.439 8.20676C42.0025 8.29358 41.5501 8.24902 41.139 8.07872C40.7278 7.90842 40.3764 7.62004 40.1292 7.25003C39.882 6.88001 39.75 6.445 39.75 5.99999C39.75 5.40325 39.9871 4.83096 40.409 4.409C40.831 3.98705 41.4033 3.74999 42 3.74999ZM33.75 16.5C34.195 16.5 34.63 16.632 35 16.8792C35.37 17.1264 35.6584 17.4778 35.8287 17.889C35.999 18.3001 36.0436 18.7525 35.9568 19.1889C35.87 19.6254 35.6557 20.0263 35.341 20.341C35.0263 20.6557 34.6254 20.8699 34.189 20.9568C33.7525 21.0436 33.3001 20.999 32.889 20.8287C32.4778 20.6584 32.1264 20.37 31.8792 20C31.632 19.63 31.5 19.195 31.5 18.75C31.5 18.1533 31.7371 17.581 32.159 17.159C32.581 16.737 33.1533 16.5 33.75 16.5ZM23.25 8.24999C23.695 8.24999 24.13 8.38195 24.5 8.62919C24.87 8.87642 25.1584 9.22782 25.3287 9.63895C25.499 10.0501 25.5436 10.5025 25.4568 10.9389C25.37 11.3754 25.1557 11.7763 24.841 12.091C24.5263 12.4057 24.1254 12.6199 23.689 12.7068C23.2525 12.7936 22.8001 12.749 22.389 12.5787C21.9778 12.4084 21.6264 12.12 21.3792 11.75C21.132 11.38 21 10.945 21 10.5C21 9.90325 21.2371 9.33096 21.659 8.909C22.081 8.48704 22.6533 8.24999 23.25 8.24999ZM12.75 16.5C13.195 16.5 13.63 16.632 14 16.8792C14.37 17.1264 14.6584 17.4778 14.8287 17.889C14.999 18.3001 15.0436 18.7525 14.9568 19.1889C14.87 19.6254 14.6557 20.0263 14.341 20.341C14.0263 20.6557 13.6254 20.8699 13.189 20.9568C12.7525 21.0436 12.3001 20.999 11.889 20.8287C11.4778 20.6584 11.1264 20.37 10.8792 20C10.632 19.63 10.5 19.195 10.5 18.75C10.5 18.1533 10.7371 17.581 11.159 17.159C11.581 16.737 12.1533 16.5 12.75 16.5Z" fill="white"/>
<path d="M19.5 30.75C18.3133 30.75 17.1533 31.1019 16.1666 31.7612C15.1799 32.4205 14.4109 33.3575 13.9567 34.4539C13.5026 35.5503 13.3838 36.7567 13.6153 37.9205C13.8468 39.0844 14.4182 40.1535 15.2574 40.9926C16.0965 41.8318 17.1656 42.4032 18.3295 42.6347C19.4933 42.8662 20.6997 42.7474 21.7961 42.2933C22.8925 41.8392 23.8295 41.0701 24.4888 40.0834C25.1481 39.0967 25.5 37.9367 25.5 36.75C25.5 35.1587 24.8679 33.6326 23.7426 32.5074C22.6174 31.3821 21.0913 30.75 19.5 30.75ZM19.5 41.25C18.61 41.25 17.74 40.9861 16.9999 40.4916C16.2599 39.9971 15.6831 39.2943 15.3425 38.4721C15.002 37.6498 14.9128 36.745 15.0865 35.8721C15.2601 34.9992 15.6887 34.1974 16.318 33.568C16.9474 32.9387 17.7492 32.5101 18.6221 32.3365C19.495 32.1628 20.3998 32.2519 21.2221 32.5925C22.0443 32.9331 22.7472 33.5099 23.2416 34.2499C23.7361 34.99 24 35.86 24 36.75C24 37.9435 23.5259 39.0881 22.682 39.932C21.8381 40.7759 20.6935 41.25 19.5 41.25Z" fill="white"/>
<path d="M19.5 27.75C17.72 27.75 15.9799 28.2778 14.4999 29.2668C13.0198 30.2557 11.8663 31.6613 11.1851 33.3058C10.5039 34.9504 10.3257 36.76 10.6729 38.5058C11.0202 40.2516 11.8774 41.8553 13.136 43.114C14.3947 44.3726 15.9984 45.2298 17.7442 45.5771C19.49 45.9243 21.2996 45.7461 22.9442 45.0649C24.5887 44.3837 25.9943 43.2302 26.9832 41.7501C27.9722 40.2701 28.5 38.53 28.5 36.75C28.5 34.3631 27.5518 32.0739 25.864 30.386C24.1761 28.6982 21.887 27.75 19.5 27.75ZM19.5 44.25C18.0166 44.25 16.5666 43.8101 15.3332 42.986C14.0999 42.1619 13.1386 40.9906 12.5709 39.6201C12.0032 38.2497 11.8547 36.7417 12.1441 35.2868C12.4335 33.832 13.1478 32.4956 14.1967 31.4467C15.2456 30.3978 16.582 29.6835 18.0368 29.3941C19.4917 29.1047 20.9997 29.2532 22.3701 29.8209C23.7406 30.3886 24.9119 31.3499 25.736 32.5832C26.5601 33.8166 27 35.2666 27 36.75C27 38.7391 26.2098 40.6468 24.8033 42.0533C23.3968 43.4598 21.4891 44.25 19.5 44.25Z" fill="white"/>
<path d="M19.1265 35.25H21.0015C21.2005 35.25 21.3912 35.171 21.5319 35.0303C21.6725 34.8897 21.7515 34.6989 21.7515 34.5C21.7515 34.3011 21.6725 34.1103 21.5319 33.9697C21.3912 33.829 21.2005 33.75 21.0015 33.75H20.2515C20.2515 33.5511 20.1725 33.3603 20.0319 33.2197C19.8912 33.079 19.7005 33 19.5015 33C19.3026 33 19.1119 33.079 18.9712 33.2197C18.8306 33.3603 18.7515 33.5511 18.7515 33.75C18.5053 33.7746 18.2663 33.8475 18.0483 33.9645C17.8302 34.0815 17.6373 34.2402 17.4806 34.4318C17.1642 34.8185 17.0143 35.3152 17.064 35.8125C17.0887 36.0587 17.1615 36.2977 17.2785 36.5158C17.3955 36.7338 17.5543 36.9267 17.7458 37.0834C18.1326 37.3999 18.6293 37.5497 19.1265 37.5H19.8765C19.976 37.5 20.0714 37.5395 20.1417 37.6098C20.212 37.6802 20.2515 37.7755 20.2515 37.875C20.2515 37.9745 20.212 38.0698 20.1417 38.1402C20.0714 38.2105 19.976 38.25 19.8765 38.25H18.0015C17.8026 38.25 17.6119 38.329 17.4712 38.4697C17.3306 38.6103 17.2515 38.8011 17.2515 39C17.2515 39.1989 17.3306 39.3897 17.4712 39.5303C17.6119 39.671 17.8026 39.75 18.0015 39.75H18.7515C18.7515 39.9489 18.8306 40.1397 18.9712 40.2803C19.1119 40.421 19.3026 40.5 19.5015 40.5C19.7005 40.5 19.8912 40.421 20.0319 40.2803C20.1725 40.1397 20.2515 39.9489 20.2515 39.75C20.7488 39.7003 21.206 39.455 21.5225 39.0682C21.8389 38.6815 21.9888 38.1848 21.939 37.6875C21.8893 37.1902 21.6441 36.7331 21.2573 36.4166C20.8705 36.1001 20.3738 35.9503 19.8765 36H19.1265C19.0271 36 18.9317 35.9605 18.8614 35.8902C18.7911 35.8198 18.7515 35.7245 18.7515 35.625C18.7515 35.5255 18.7911 35.4302 18.8614 35.3598C18.9317 35.2895 19.0271 35.25 19.1265 35.25Z" fill="white"/>
<path d="M11.2505 27.7501C11.8396 27.7491 12.4231 27.8637 12.968 28.0876C13.1511 28.1622 13.3562 28.1615 13.5388 28.0857C13.7214 28.0098 13.8667 27.8649 13.943 27.6826C14.0176 27.4995 14.017 27.2943 13.9411 27.1117C13.8653 26.9291 13.7204 26.7839 13.538 26.7076C12.8142 26.4022 12.0361 26.2466 11.2505 26.2501C9.97289 26.2508 8.72886 26.6593 7.69955 27.4162C6.67025 28.173 5.9094 29.2387 5.5278 30.4579C5.14619 31.6772 5.16376 32.9865 5.57793 34.1951C5.9921 35.4037 6.78126 36.4486 7.8305 37.1776C7.99369 37.2907 8.19508 37.3345 8.39051 37.2993C8.58593 37.2642 8.75944 37.1529 8.873 36.9901C8.98611 36.8269 9.02989 36.6255 8.99474 36.43C8.95959 36.2346 8.84838 36.0611 8.6855 35.9476C7.89775 35.4011 7.30511 34.6174 6.99395 33.7105C6.68279 32.8037 6.66939 31.8212 6.95568 30.9063C7.24198 29.9913 7.81301 29.1917 8.58556 28.6239C9.3581 28.0562 10.2918 27.75 11.2505 27.7501Z" fill="white"/>
<path d="M9.00079 39.4126C7.94725 39.0773 6.98087 38.5131 6.17084 37.7606C5.36082 37.0081 4.72718 36.0859 4.3153 35.0598C3.90342 34.0338 3.72348 32.9294 3.78837 31.8257C3.85326 30.7219 4.16137 29.6462 4.69064 28.6755C5.21992 27.7048 5.95726 26.8631 6.84988 26.2107C7.7425 25.5583 8.76833 25.1113 9.85391 24.9018C10.9395 24.6922 12.058 24.7253 13.1293 24.9986C14.2006 25.2718 15.1982 25.7786 16.0508 26.4826C16.1266 26.5456 16.2141 26.5931 16.3083 26.6223C16.4025 26.6515 16.5015 26.6619 16.5997 26.6528C16.6979 26.6438 16.7934 26.6155 16.8806 26.5695C16.9679 26.5236 17.0453 26.4609 17.1083 26.3851C17.1713 26.3092 17.2188 26.2217 17.248 26.1275C17.2772 26.0333 17.2876 25.9343 17.2786 25.8361C17.2695 25.7379 17.2412 25.6425 17.1953 25.5552C17.1493 25.468 17.0866 25.3906 17.0108 25.3276C15.9835 24.4643 14.7761 23.8416 13.477 23.5052C12.178 23.1688 10.8202 23.1271 9.50292 23.3832C8.18568 23.6394 6.94239 24.1868 5.86405 24.9855C4.78571 25.7841 3.89962 26.8138 3.27063 27.9992C2.64164 29.1846 2.28567 30.4956 2.22879 31.8363C2.17191 33.177 2.41555 34.5134 2.94188 35.7478C3.46821 36.9822 4.2639 38.0832 5.27072 38.9704C6.27753 39.8575 7.46999 40.5083 8.76079 40.8751C8.95971 40.9049 9.16232 40.8545 9.32407 40.735C9.48582 40.6154 9.59346 40.4365 9.62329 40.2376C9.65313 40.0387 9.60273 39.836 9.48317 39.6743C9.36362 39.5125 9.18471 39.4049 8.98579 39.3751L9.00079 39.4126Z" fill="white"/>
</svg>
