<svg width="48" height="48" viewBox="0 0 48 48" fill="none" xmlns="http://www.w3.org/2000/svg">
<g clip-path="url(#clip0_5656_3364)">
<path d="M3.41156 24C3.41156 32.1497 8.1477 39.1926 15.0155 42.5301L5.19412 15.6208C4.05171 18.1814 3.41156 21.0151 3.41156 24Z" fill="#21759B"/>
<path d="M37.9001 22.961C37.9001 20.4165 36.9861 18.6543 36.2022 17.2827C35.1585 15.5867 34.1802 14.1504 34.1802 12.4545C34.1802 10.5618 35.6157 8.8 37.6376 8.8C37.7289 8.8 37.8155 8.81136 37.9044 8.81645C34.2413 5.46053 29.361 3.41156 24.0008 3.41156C16.8078 3.41156 10.4795 7.10206 6.79804 12.6919C7.2811 12.7064 7.73634 12.7166 8.12302 12.7166C10.2766 12.7166 13.6102 12.4552 13.6102 12.4552C14.7201 12.3898 14.8509 14.02 13.7422 14.1512C13.7422 14.1512 12.6268 14.2825 11.3857 14.3475L18.8834 36.6492L23.3892 23.1357L20.1814 14.3467C19.0727 14.2817 18.0223 14.1504 18.0223 14.1504C16.9128 14.0854 17.0429 12.389 18.1524 12.4545C18.1524 12.4545 21.5526 12.7158 23.5757 12.7158C25.7289 12.7158 29.0629 12.4545 29.0629 12.4545C30.1736 12.389 30.304 14.0192 29.1949 14.1504C29.1949 14.1504 28.0772 14.2817 26.8384 14.3467L34.2789 36.4795L36.3326 29.6168C37.2227 26.7691 37.9001 24.7236 37.9001 22.961Z" fill="#21759B"/>
<path d="M24.362 25.801L18.1845 43.7516C20.029 44.2938 21.9796 44.5904 24.0008 44.5904C26.3984 44.5904 28.6977 44.1759 30.838 43.4233C30.7828 43.3352 30.7326 43.2415 30.6915 43.1397L24.362 25.801Z" fill="#21759B"/>
<path d="M42.067 14.1218C42.1555 14.7777 42.2057 15.4817 42.2057 16.239C42.2057 18.3283 41.8155 20.677 40.6402 23.6137L34.351 41.7971C40.4721 38.2276 44.5892 31.5961 44.5892 24.0004C44.5896 20.4208 43.6752 17.0547 42.067 14.1218Z" fill="#21759B"/>
<path d="M24.0008 0C10.7671 0 0 10.7663 0 24C0 37.2353 10.7671 48.0012 24.0008 48.0012C37.2341 48.0012 48.0027 37.2353 48.0027 24C48.0023 10.7663 37.2341 0 24.0008 0ZM24.0008 46.9011C11.3739 46.9011 1.10049 36.6276 1.10049 24C1.10049 11.3732 11.3736 1.10049 24.0008 1.10049C36.6272 1.10049 46.8999 11.3732 46.8999 24C46.8999 36.6276 36.6272 46.9011 24.0008 46.9011Z" fill="#21759B"/>
</g>
<defs>
<clipPath id="clip0_5656_3364">
<rect width="48" height="48.0012" fill="white"/>
</clipPath>
</defs>
</svg>
