<svg width="48" height="48" viewBox="0 0 48 48" fill="none" xmlns="http://www.w3.org/2000/svg">
<g clip-path="url(#clip0_5656_3349)">
<path d="M6.68961 43.2028L2.83789 0H45.1619L41.306 43.196L23.974 48.0012L6.68961 43.2028Z" fill="#264DE4"/>
<path d="M38.0051 40.4454L41.3003 3.53235H24V44.3283L38.0051 40.4454Z" fill="#2965F1"/>
<path d="M11.6672 19.5555L12.142 24.8541H23.999V19.5555H11.6672ZM11.1946 14.1296H23.999V8.83093H10.7129L11.1946 14.1296ZM23.999 33.3167L23.9758 33.3229L18.0748 31.7295L17.6976 27.5035H12.3786L13.121 35.8232L23.9747 38.8364L23.999 38.8295V33.3167Z" fill="#EBEBEB"/>
<path d="M23.9824 19.5555V24.8541H30.507L29.892 31.7261L23.9824 33.3211V38.8337L34.8447 35.8232L34.9244 34.9279L36.1694 20.9783L36.2987 19.5555L37.2553 8.83093H23.9824V14.1296H31.4486L30.9663 19.5555H23.9824Z" fill="white"/>
</g>
<defs>
<clipPath id="clip0_5656_3349">
<rect width="48" height="48.0012" fill="white"/>
</clipPath>
</defs>
</svg>
