<svg width="48" height="48" viewBox="0 0 48 48" fill="none" xmlns="http://www.w3.org/2000/svg">
<g clip-path="url(#clip0_5656_2412)">
<path d="M29.1757 0.798206C27.5549 0.290257 25.7867 0 23.9818 0C18.7878 0 14.1096 2.32205 10.9785 5.98654L19.0089 12.6262L29.1757 0.798206Z" fill="#1A73E8"/>
<path d="M10.9783 5.98633C8.51029 8.88889 7 12.6622 7 16.7258C7 19.8824 7.62622 22.4221 8.69447 24.7079L19.0087 12.6259L10.9783 5.98633Z" fill="#EA4335"/>
<path d="M24.0176 10.3403C27.6275 10.3403 30.5376 13.2066 30.5376 16.7622C30.5376 18.3223 29.9482 19.7736 28.9905 20.8984C28.9905 20.8984 34.1107 14.8755 39.1205 9.03412C37.0576 5.11566 33.4845 2.14053 29.1747 0.798096L19.0078 12.626C20.2234 11.2473 21.9916 10.3403 24.0176 10.3403Z" fill="#4285F4"/>
<path d="M24.0193 23.148C20.4093 23.148 17.4992 20.2817 17.4992 16.7261C17.4992 15.166 18.0518 13.7147 19.0095 12.6262L8.69531 24.7081C10.4635 28.554 13.4104 31.6743 16.431 35.5565L28.9922 20.8623C27.7766 22.2773 26.0084 23.148 24.0193 23.148Z" fill="#FBBC04"/>
<path d="M28.7699 39.6197C34.4427 30.8757 41.0364 26.921 41.0364 16.762C41.0364 13.9683 40.3365 11.356 39.1209 9.03394L16.4297 35.5561C17.3874 36.7897 18.382 38.2047 19.3398 39.656C22.8024 44.9169 21.8446 48.0372 24.0548 48.0372C26.265 48.0372 25.3073 44.8806 28.7699 39.6197Z" fill="#34A853"/>
</g>
<defs>
<clipPath id="clip0_5656_2412">
<rect width="48" height="48.0012" fill="white"/>
</clipPath>
</defs>
</svg>
