<svg width="48" height="48" viewBox="0 0 48 48" fill="none" xmlns="http://www.w3.org/2000/svg">
<g clip-path="url(#clip0_5656_3384)">
<path d="M28.1756 46.0354L19.8438 37.9106L37.7374 19.6375L46.3638 28.0922L28.1756 46.0354Z" fill="#8AB4F8"/>
<path d="M28.2095 10.1135L19.9077 1.63696L1.755 19.6183C-0.585 21.9584 -0.585 25.7521 1.755 28.0949L19.635 46.0926L28.0895 38.1833L14.4668 23.8566L28.2095 10.1135Z" fill="#4285F4"/>
<path d="M46.2416 19.7575L28.2416 1.75709C25.8989 -0.585696 22.0998 -0.585696 19.757 1.75709C17.4143 4.09987 17.4143 7.89906 19.757 10.2418L37.757 28.2423C40.0998 30.5851 43.8989 30.5851 46.2416 28.2423C48.5843 25.8995 48.5843 22.1003 46.2416 19.7575Z" fill="#8AB4F8"/>
<path d="M23.8636 48.002C27.102 48.002 29.7273 45.3767 29.7273 42.1382C29.7273 38.8997 27.102 36.2744 23.8636 36.2744C20.6252 36.2744 18 38.8997 18 42.1382C18 45.3767 20.6252 48.002 23.8636 48.002Z" fill="#246FDB"/>
</g>
<defs>
<clipPath id="clip0_5656_3384">
<rect width="48" height="48.0012" fill="white"/>
</clipPath>
</defs>
</svg>
