<svg width="48" height="48" viewBox="0 0 48 48" fill="none" xmlns="http://www.w3.org/2000/svg">
<path d="M43.489 31.0397C42.8266 31.0397 42.1848 31.1845 41.6178 31.4421C41.3692 31.291 41.243 31.1444 40.868 31.0015V14.2903L23.9532 4.44629L9.74775 12.8317C9.50663 12.6905 9.26401 12.5431 9.0152 12.3924C8.99476 9.92338 6.98218 7.92087 4.50854 7.92087C2.02215 7.92087 0 9.94382 0 12.4303C0 14.9167 2.02327 16.9397 4.50966 16.9397C5.17209 16.9397 5.82795 16.7949 6.39494 16.5373C6.62987 16.6802 6.93118 16.8189 7.11867 16.9543V33.8166L24.0095 43.5937L38.3526 35.2036C38.5633 35.3277 38.7707 35.4558 38.9872 35.5872C39.0079 38.0562 41.0188 40.0587 43.4924 40.0587C45.9788 40.0587 48 38.0356 48 35.5491C48 33.0627 45.9754 31.0397 43.489 31.0397Z" fill="#B8C6C9"/>
<path d="M23.9758 40.7948L38.4411 32.3308V15.7087L23.975 7.28613L9.51758 15.8266V32.4288L23.9758 40.7948Z" fill="#759BC5"/>
<path d="M45.5506 35.5864C45.5506 36.7204 44.6324 37.6396 43.4999 37.6396C42.3673 37.6396 41.4492 36.7204 41.4492 35.5864C41.4492 34.4525 42.3673 33.5332 43.4999 33.5332C44.6324 33.5332 45.5506 34.4525 45.5506 35.5864Z" fill="#759BC5"/>
<path d="M2.45117 12.4284C2.45117 11.2946 3.36922 10.3752 4.50186 10.3752C5.63432 10.3752 6.55255 11.2946 6.55255 12.4284C6.55255 13.5623 5.63432 14.4816 4.50186 14.4816C3.36922 14.4816 2.45117 13.5623 2.45117 12.4284Z" fill="#759BC5"/>
<path d="M43.5177 36.7975C42.8389 36.7975 42.2868 36.2453 42.2868 35.5665C42.2868 34.8877 42.8389 34.3356 43.5177 34.3356C44.1964 34.3356 44.7485 34.8877 44.7485 35.5665C44.7485 36.2453 44.1964 36.7975 43.5177 36.7975ZM26.8003 38.1766C28.1399 36.2468 29.7277 33.481 30.7044 30.1589C32.7793 30.5847 34.7159 31.2747 36.8167 32.323L26.8003 38.1766ZM16.69 19.0392C16.3663 20.3898 16.1445 21.8282 16.0944 23.3415C14.2085 23.342 12.371 23.342 10.3068 23.342V16.7011C12.371 17.814 14.5438 18.5642 16.69 19.0392ZM4.50599 13.659C3.82724 13.659 3.27498 13.1069 3.27498 12.4281C3.27498 11.7494 3.82724 11.1973 4.50599 11.1973C5.18474 11.1973 5.73681 11.7494 5.73681 12.4281C5.73681 13.1069 5.18474 13.659 4.50599 13.659ZM20.8982 10.0659C19.5523 11.9455 18.0119 14.5815 17.0497 17.7789C15.11 17.3568 13.2803 16.6972 11.3105 15.7229L20.8982 10.0659ZM24.533 28.269C24.5342 27.7644 24.5357 27.2519 24.5372 26.7336C25.6008 26.5204 26.445 25.6999 26.6978 24.6511C27.9975 24.6522 29.2394 24.653 30.4577 24.6532C30.4081 26.0558 30.2051 27.4052 29.8969 28.6839C28.2493 28.4159 26.5004 28.2895 24.533 28.269ZM24.5308 29.5817C26.3807 29.6006 28.0166 29.713 29.552 29.9519C28.2533 34.2317 25.8903 37.578 24.558 39.2324C24.5353 36.1715 24.5263 33.0222 24.5308 29.5817ZM17.0529 30.3417C18.0167 33.5518 19.5591 36.1771 20.9062 38.0417L11.0654 32.3543C12.27 31.7884 14.3355 30.9495 17.0529 30.3417ZM21.2785 24.6517C21.5274 25.6834 22.3489 26.4932 23.3885 26.7219C23.3868 27.2453 23.3853 27.7629 23.3842 28.2724C21.3574 28.3065 19.5001 28.5201 17.8445 28.8294C17.5256 27.5195 17.3172 26.1231 17.2704 24.6539C18.5763 24.6536 19.8985 24.6528 21.2785 24.6517ZM23.3833 19.7249C23.3846 20.2428 23.3861 20.7595 23.3878 21.2753C22.3508 21.5037 21.5309 22.3103 21.2802 23.3386C19.9002 23.3398 18.5782 23.3405 17.2725 23.3411C17.3226 21.9062 17.5258 20.5423 17.8347 19.2614C19.538 19.5581 21.3431 19.6996 23.3833 19.7249ZM23.3703 9.64891C23.372 12.5282 23.3739 15.4774 23.3801 18.4118C21.4594 18.3882 19.7687 18.2628 18.18 17.9965C19.5153 13.6269 21.9815 10.3695 23.3698 8.78193L23.3703 9.64891ZM30.6768 17.7398C29.7029 14.4869 28.1431 11.7832 26.8202 9.88686L36.903 15.7505C35.6579 16.3159 33.508 17.1541 30.6768 17.7398ZM24.5191 9.64816L24.5186 8.7671C25.8339 10.375 28.2109 13.683 29.528 17.9558C28.0166 18.2122 26.3411 18.3856 24.5289 18.4109C24.5227 15.4767 24.5208 12.5274 24.5191 9.64816ZM23.9881 25.4755C23.1737 25.4755 22.5111 24.8129 22.5111 23.9984C22.5111 23.184 23.1737 22.5214 23.9881 22.5214C24.8025 22.5214 25.4651 23.184 25.4651 23.9984C25.4651 24.8129 24.8025 25.4755 23.9881 25.4755ZM23.4099 39.3219C22.0389 37.7574 19.5508 34.4912 18.1973 30.1073C19.7557 29.8187 21.496 29.6194 23.382 29.5854C23.3775 33.0577 23.3867 36.2338 23.4099 39.3219ZM26.6957 23.3381C26.4405 22.2928 25.5978 21.4757 24.5364 21.2633C24.5349 20.7512 24.5334 20.2381 24.5321 19.7239C26.4818 19.6982 28.2741 19.5119 29.8814 19.2358C30.1991 20.5344 30.4085 21.9085 30.458 23.3403C29.2392 23.3399 27.9962 23.3392 26.6957 23.3381ZM37.5167 23.3362C35.6401 23.3388 33.5403 23.3403 31.547 23.3403C31.4988 21.8278 31.2552 20.3821 30.9298 19.0197C33.9901 18.3848 36.3907 17.4647 37.5167 16.8655V23.3362ZM10.3068 24.6549C12.371 24.6549 14.2165 24.6549 16.1015 24.6543C16.1471 26.21 16.3511 27.6831 16.6795 29.0617C13.7508 29.717 11.6203 30.6326 10.3068 31.2348V24.6549ZM30.9778 28.8954C31.2925 27.5546 31.4684 26.1351 31.5164 24.6534C33.5093 24.6532 35.6401 24.6519 37.5167 24.6491V31.273C35.4525 30.124 33.2139 29.3636 30.9778 28.8954ZM43.5177 32.6946C42.7464 32.6946 42.0097 33.0018 41.4932 33.4983C40.7133 33.0091 39.9562 32.5626 39.2055 32.1535V15.2338L23.9475 6.33936L9.58767 14.8229C8.82129 14.3939 8.03558 13.9197 7.19789 13.3942C7.30654 13.0917 7.37335 12.7674 7.37335 12.4281C7.37335 10.8445 6.08717 9.55621 4.50355 9.55621C2.91993 9.55621 1.63281 10.8445 1.63281 12.4281C1.63281 14.0118 2.92181 15.3003 4.50543 15.3003C5.27669 15.3003 5.93348 14.9931 6.45009 14.4965C7.21553 14.9765 8.05491 15.4153 8.61787 15.8182V32.8854L23.9472 41.7197L38.4981 33.2286C39.2328 33.6424 40.0053 34.0984 40.8057 34.6004C40.697 34.9029 40.6402 35.2272 40.6402 35.5665C40.6402 37.1502 41.9312 38.4386 43.5148 38.4386C45.0985 38.4386 46.3882 37.1502 46.3882 35.5665C46.3882 33.9828 45.1013 32.6946 43.5177 32.6946Z" fill="#343532"/>
</svg>
