<svg width="48" height="48" viewBox="0 0 48 48" fill="none" xmlns="http://www.w3.org/2000/svg">
<g clip-path="url(#clip0_5656_1031)">
<path fill-rule="evenodd" clip-rule="evenodd" d="M41.6523 23.3064L30.6155 12.2727L25.9116 18.2344L30.9812 23.3065C31.4549 23.7721 31.4549 24.537 30.9812 25.0111L29.5186 26.4744C29.5186 26.4744 30.5159 27.9545 30.5491 28.0543C30.7819 28.5033 30.8317 29.576 30.1834 30.0665L18.6562 38.9133V48.0014L41.6523 25.0109C42.1176 24.537 42.1176 23.7804 41.6523 23.3064Z" fill="#5E8CDA"/>
<path fill-rule="evenodd" clip-rule="evenodd" d="M16.0204 24.6948C15.555 24.2293 15.555 23.4643 16.0204 22.9986L17.483 21.5269L16.4857 20.0801C16.0037 19.3982 16.1534 18.4337 16.8182 17.9349L28.3536 9.08805V0H28.337L5.34933 22.9986C5.12566 23.2256 5 23.532 5 23.8508C5 24.1698 5.12566 24.4761 5.34933 24.7032L16.3861 35.7534L21.09 29.7835L16.0204 24.7114V24.6948Z" fill="#093071"/>
<path fill-rule="evenodd" clip-rule="evenodd" d="M34.1533 5.54584C34.3028 5.54584 34.4607 5.62893 34.5272 5.77869C34.6519 6.02811 34.4856 6.26096 34.3277 6.4689L24.2218 19.2902C24.0722 19.4815 24.0555 19.839 24.1969 20.0386C24.1969 20.0386 29.657 27.9376 29.8482 28.212C30.0477 28.5113 30.0642 29.3926 29.5989 29.7585L13.3513 42.2307C13.1185 42.397 12.9855 42.4552 12.8278 42.4552C12.6782 42.4552 12.5285 42.3472 12.4704 42.2223C12.3374 41.9729 12.5036 41.7233 12.6615 41.5239L22.7591 28.6942C22.9087 28.503 22.9254 28.162 22.784 27.9625L17.1576 19.8474C16.7919 19.3318 16.9083 18.6002 17.4069 18.226L33.6462 5.75393C33.9122 5.54613 34.0452 5.52107 34.1448 5.52107M34.1448 5.31313C33.9536 5.31313 33.7708 5.39637 33.5215 5.5876L17.2739 18.0597C16.6921 18.5087 16.5591 19.3568 16.983 19.9555L22.6178 28.0707C22.701 28.187 22.701 28.4282 22.6012 28.553L12.5036 41.4075C12.3706 41.5739 12.0881 41.9396 12.2792 42.3223C12.379 42.5135 12.595 42.6548 12.8112 42.6715C13.0605 42.6715 13.2517 42.5717 13.476 42.397L29.7153 29.9082C30.2804 29.4924 30.2804 28.4697 30.0144 28.0789C29.8233 27.8128 24.3631 19.9054 24.3631 19.9054C24.2799 19.7807 24.2966 19.5313 24.388 19.4066L34.5023 6.60182C34.627 6.43549 34.9012 6.08629 34.7184 5.68725C34.6103 5.48766 34.3859 5.35461 34.1533 5.35461L34.1449 5.31299L34.1448 5.31313Z" fill="#5E8CDA"/>
<path fill-rule="evenodd" clip-rule="evenodd" d="M29.4339 28.2452C29.5669 28.4448 29.6832 29.1931 29.3508 29.4426L13.1115 41.9147C12.9703 42.0311 12.8871 42.0811 12.8455 42.0811C12.7874 42.0811 12.829 41.9813 12.9785 41.79L23.0761 28.9687C23.3254 28.6362 23.3505 28.0956 23.1177 27.7631L17.483 19.6479C17.483 19.6479 29.301 28.0458 29.4339 28.2537V28.2455V28.2452Z" fill="#F5CD21"/>
<path fill-rule="evenodd" clip-rule="evenodd" d="M29.4328 28.2451L23.8812 20.2628C23.6485 19.9136 23.6652 19.3732 23.9145 19.0489L34.0037 6.23576C34.17 6.03617 34.2032 5.93652 34.1533 5.93652C34.1117 5.93652 34.0203 5.98635 33.8873 6.10285L17.6397 18.575C17.3239 18.8244 17.249 19.2984 17.4901 19.6393L29.4327 28.2451H29.4328Z" fill="#FDDD75"/>
</g>
<defs>
<clipPath id="clip0_5656_1031">
<rect width="48" height="48.0012" fill="white"/>
</clipPath>
</defs>
</svg>
