<svg width="48" height="48" viewBox="0 0 48 48" fill="none" xmlns="http://www.w3.org/2000/svg">
<path d="M3.2255 35.9905C3.44329 36.3777 3.75787 36.668 4.14505 36.8858L22.7781 47.6303C23.5524 48.0901 24.4962 48.0901 25.2464 47.6303L43.8794 36.8858C44.6537 36.4503 45.1135 35.6275 45.1135 34.7321V13.2431C45.1135 12.3477 44.6537 11.5249 43.8794 11.0893L25.2464 0.344841C24.472 -0.114947 23.5282 -0.114947 22.7781 0.344841L4.14505 11.0893C3.34649 11.5249 2.88672 12.3477 2.88672 13.2431V34.7563C2.88672 35.1919 2.98351 35.6033 3.2255 35.9905Z" fill="#009639"/>
<path d="M18.0355 32.1913C18.0355 33.5222 16.9707 34.587 15.6398 34.587C14.3089 34.587 13.2441 33.5222 13.2441 32.1913V15.7599C13.2441 14.4774 14.3815 13.4368 15.9544 13.4368C17.0917 13.4368 18.4227 13.8966 19.2212 14.8888L19.9472 15.7599L29.9655 27.7386V15.8083C29.9655 14.4774 31.0302 13.4126 32.3611 13.4126C33.6921 13.4126 34.7568 14.4774 34.7568 15.8083V32.2397C34.7568 33.5222 33.6195 34.5628 32.0466 34.5628C30.9092 34.5628 29.5783 34.103 28.7797 33.1109L18.0355 20.2852V32.1913Z" fill="white"/>
</svg>
