<svg width="48" height="48" viewBox="0 0 48 48" fill="none" xmlns="http://www.w3.org/2000/svg"><path d="M20 30.91c-.77 4.102-1.787 7.087-3.049 8.941-.983 1.433-2.06 2.15-3.233 2.15-.312 0-.698-.092-1.155-.276v-.99c.223.033.485.05.787.05.547 0 .988-.148 1.323-.444.402-.361.603-.766.603-1.216 0-.307-.157-.937-.469-1.89l-2.077-6.327h1.86l1.49 4.732c.334 1.075.474 1.825.418 2.252.815-2.136 1.385-4.464 1.709-6.981h1.792m-8.206 8.182H9.9c-.066-3.133-.25-6.08-.552-8.842H9.33l-2.88 8.842H5.008l-2.864-8.842h-.016c-.213 2.651-.347 5.598-.402 8.842H0c.111-3.944.39-7.641.837-11.092h2.345l2.73 8.15h.017L8.677 28h2.244c.491 4.042.782 7.74.87 11.092" fill="#00758F"/><path d="M44 38.578h-5.151V28.157h1.733v9.138H44v1.282m-12.954-2.085c-.439-.68-.658-1.77-.658-3.273 0-2.624.83-3.937 2.487-3.937.867 0 1.504.314 1.91.942.438.68.658 1.76.658 3.243 0 2.645-.83 3.969-2.488 3.969-.866 0-1.503-.314-1.909-.943m6.451 2.337l-1.991-.945c.177-.14.346-.291.498-.466.846-.956 1.268-2.371 1.268-4.245 0-3.448-1.407-5.173-4.22-5.173-1.38 0-2.456.437-3.226 1.313-.846.957-1.269 2.367-1.269 4.23 0 1.832.375 3.177 1.123 4.03.682.772 1.714 1.158 3.096 1.158.515 0 .989-.06 1.418-.183l2.593 1.452.707-1.172m-9.691-3.14c0 .884-.338 1.61-1.01 2.178-.674.565-1.58.848-2.712.848-1.06 0-2.086-.326-3.081-.973l.465-.895c.856.411 1.631.617 2.326.617.653 0 1.163-.14 1.533-.416.368-.278.59-.666.59-1.157 0-.619-.45-1.148-1.272-1.592-.76-.4-2.278-1.238-2.278-1.238-.823-.578-1.236-1.198-1.236-2.218 0-.844.308-1.527.922-2.046.616-.52 1.41-.78 2.384-.78 1.006 0 1.92.258 2.744.773l-.419.894a5.492 5.492 0 00-2.085-.431c-.555 0-.984.128-1.283.386-.3.256-.486.586-.486.988 0 .617.459 1.152 1.305 1.605.77.401 2.325 1.255 2.325 1.255.846.577 1.268 1.191 1.268 2.204m17.609 3.31h.302v-1.66h.396V37H45v.34h.411V39zm2.303 0H48v-2h-.429l-.35 1.363-.38-1.363h-.413v2h.27v-1.522h.016L47.112 39h.205l.398-1.522V39z" fill="#F29111"/><path d="M24.489 6.001c-.595-.008-1.114.211-1.382.853-.459 1.082.68 2.145 1.072 2.695.289.382.663.815.866 1.246.12.283.154.583.273.882.272.732.527 1.546.884 2.23.187.348.39.714.628 1.029.138.184.375.266.426.566-.237.332-.256.831-.392 1.248-.611 1.878-.374 4.207.494 5.587.271.416.918 1.33 1.786.98.765-.298.595-1.246.816-2.077.05-.201.017-.333.118-.466v.034c.238.465.477.913.698 1.38.528.814 1.445 1.662 2.21 2.227.408.3.731.815 1.241.998v-.05h-.033c-.103-.15-.255-.216-.392-.332a8.241 8.241 0 01-.883-.998c-.714-.93-1.344-1.962-1.904-3.026-.273-.517-.51-1.082-.732-1.597-.101-.198-.101-.498-.272-.598-.256.366-.629.682-.815 1.13-.324.715-.358 1.596-.477 2.51-.068.018-.034 0-.068.034-.543-.133-.73-.682-.935-1.146-.51-1.182-.596-3.078-.153-4.441.118-.349.63-1.446.425-1.78-.103-.316-.443-.498-.63-.748a6.55 6.55 0 01-.61-1.064c-.409-.931-.614-1.963-1.055-2.893-.204-.434-.562-.882-.85-1.28-.324-.45-.68-.766-.936-1.297-.084-.184-.203-.483-.068-.682.034-.134.103-.184.239-.217.22-.183.85.05 1.07.15.63.248 1.157.482 1.683.83.238.167.493.483.799.567h.358c.544.115 1.156.032 1.667.182.9.283 1.716.698 2.448 1.147a14.881 14.881 0 015.303 5.687c.205.382.29.731.478 1.13.357.816.8 1.648 1.156 2.445.357.782.698 1.58 1.208 2.228.254.349 1.275.532 1.734.715.34.15.867.282 1.173.465.578.348 1.155.748 1.7 1.131.271.2 1.121.615 1.172.948-1.36-.033-2.414.1-3.298.466-.255.1-.663.1-.697.416.137.133.153.349.273.532.203.333.56.781.884 1.015.357.266.714.53 1.088.764.663.4 1.411.632 2.057 1.031.375.233.748.532 1.123.782.186.133.304.35.543.432v-.051c-.12-.15-.153-.365-.272-.532-.17-.165-.34-.316-.51-.482a8.031 8.031 0 00-1.768-1.679c-.544-.367-1.735-.866-1.955-1.479l-.035-.034c.374-.034.817-.167 1.174-.268.578-.149 1.105-.115 1.7-.264.272-.067.544-.15.818-.233v-.15c-.308-.299-.528-.699-.85-.981a22.777 22.777 0 00-2.806-2.046c-.528-.332-1.208-.547-1.77-.83-.203-.1-.542-.15-.662-.317-.306-.366-.477-.847-.698-1.28a41.002 41.002 0 01-1.394-2.894c-.306-.648-.493-1.296-.867-1.895-1.752-2.828-3.656-4.54-6.58-6.22-.63-.35-1.377-.498-2.175-.681-.426-.018-.85-.05-1.276-.067-.273-.117-.545-.433-.783-.582-.606-.374-1.81-1.021-2.8-1.036l-.002.001zm4.195 4.11c-.289 0-.492.035-.698.084v.034h.034c.137.265.375.45.544.682.137.266.256.531.392.798l.033-.034c.24-.166.358-.432.358-.831-.102-.117-.118-.233-.204-.35-.102-.166-.323-.249-.46-.382z" fill="#00758F"/></svg>