<svg width="48" height="48" viewBox="0 0 48 48" fill="none" xmlns="http://www.w3.org/2000/svg">
<g clip-path="url(#clip0_4739_733)">
<path d="M19.3678 47.7245C15.1693 46.8564 11.2517 44.9199 8.17621 42.1925C0.280633 35.1905 -2.15953 24.1909 2.01153 14.4036C3.03583 12.0001 4.70108 9.56095 6.76436 7.44185L8.58339 5.57361L8.71168 16.5083C8.83449 26.9748 8.86216 27.502 9.358 28.821C10.35 31.4596 11.4134 33.1395 13.2441 34.96C17.9732 39.6627 24.9098 40.8363 30.8065 37.9315C36.3491 35.2012 39.8433 29.2644 39.4372 23.2677C39.1645 19.2396 37.8078 16.2859 34.8788 13.3429C32.664 11.1176 30.0582 9.66403 27.2213 9.07134C24.3349 8.46831 24.4734 8.38019 24.4734 10.8197V12.9258L26.0558 13.2169C32.184 14.3444 36.237 20.3532 34.9597 26.4173C34.5517 28.3541 33.6417 30.0643 32.181 31.6398C29.9611 34.034 26.8378 35.1784 24.1107 35.1731C19.6014 35.1644 15.8361 32.6058 14.0111 28.8222C14.0111 28.8222 13.533 27.7407 13.3794 27.0724C12.4759 23.1421 13.0534 14.8687 13.0534 14.8687L12.9835 2.77164L13.6987 2.40234C14.092 2.19923 14.4693 2.03305 14.537 2.03305C14.6048 2.03305 14.6907 7.58924 14.7281 14.3802C14.7281 14.3802 13.8596 23.2821 14.9329 26.6935C15.0877 27.1857 15.3817 28.0275 15.3817 28.0275C16.3225 29.9415 17.8305 31.625 19.7898 32.5517C21.277 33.2552 22.0259 33.5735 24.2262 33.5735C25.6638 33.5735 26.9374 33.1204 28.4029 32.4474C30.1304 31.6541 32.1121 29.5507 32.8444 27.6302C34.8621 22.339 32.0526 16.6464 26.6403 15.059C24.4283 14.4103 24.4734 14.3746 24.4734 16.7762V18.8741L25.5352 19.1576C29.3625 20.1797 30.5303 25.3021 27.5258 27.934C26.4642 28.864 25.5077 29.275 23.8344 29.275C22.0465 29.275 20.3303 28.1944 19.4479 26.5371C18.9179 25.5415 18.8732 24.5971 18.8732 24.1646C18.8732 20.1695 18.7865 12.9843 18.7865 12.9843L18.715 0.659167L19.2644 0.522895C19.5666 0.447944 20.7881 0.262487 21.9788 0.110766C26.017 -0.403782 31.9912 0.915777 36.0048 3.20875C41.4767 6.33487 45.617 11.7051 47.3409 17.9122C47.9339 20.0473 48 20.6681 48 24.1027C48 27.522 47.9324 28.1634 47.352 30.2518C45.0073 38.6881 39.0431 44.7188 30.5149 47.2765C28.7201 47.8148 27.8794 47.9174 24.7123 47.9849C22.1566 48.0393 20.5001 47.9586 19.3678 47.7245Z" fill="#C60C30"/>
</g>
<defs>
<clipPath id="clip0_4739_733">
<rect width="48" height="48.0012" fill="white"/>
</clipPath>
</defs>
</svg>
