<svg width="48" height="48" viewBox="0 0 48 48" fill="none" xmlns="http://www.w3.org/2000/svg"><g clip-path="url(#clip0_3377_476)"><path d="M48 0H0v48.001h48V0z" fill="#F7DF1E"/><path d="M32.244 37.501c.967 1.579 2.225 2.74 4.45 2.74 1.868 0 3.062-.935 3.062-2.225 0-1.547-1.227-2.095-3.284-2.995l-1.127-.484c-3.255-1.386-5.417-3.124-5.417-6.796 0-3.383 2.577-5.958 6.605-5.958 2.868 0 4.93.998 6.416 3.611l-3.513 2.256c-.773-1.387-1.607-1.933-2.903-1.933-1.32 0-2.158.838-2.158 1.933 0 1.353.838 1.9 2.773 2.739l1.128.483c3.832 1.643 5.996 3.319 5.996 7.086 0 4.06-3.19 6.285-7.474 6.285-4.19 0-6.896-1.996-8.22-4.612l3.666-2.13zm-15.934.391c.709 1.257 1.353 2.32 2.903 2.32 1.482 0 2.417-.58 2.417-2.834V22.04h4.51v15.4c0 4.67-2.738 6.796-6.735 6.796-3.612 0-5.703-1.869-6.767-4.12l3.672-2.223z" fill="#000"/></g><defs><clipPath id="clip0_3377_476"><path fill="#fff" d="M0 0h48v48.001H0z"/></clipPath></defs></svg>