<svg width="48" height="48" viewBox="0 0 48 48" fill="none" xmlns="http://www.w3.org/2000/svg"><g clip-path="url(#clip0_3377_546)"><path d="M41.052 13.202a19.483 19.483 0 014.392 6.34A19.107 19.107 0 0147 27.045a19.106 19.106 0 01-1.522 7.51 19.476 19.476 0 01-4.364 6.358 24.92 24.92 0 01-8.084 5.257 25.388 25.388 0 01-9.53 1.832 25.368 25.368 0 01-10.517-2.253 24.813 24.813 0 01-8.556-6.384c9.753 7.868 24.278 7.374 33.434-1.478a15.153 15.153 0 003.423-4.946 14.86 14.86 0 001.203-5.853 14.86 14.86 0 00-1.203-5.852 15.153 15.153 0 00-3.423-4.946c-6.169-5.965-16.17-5.965-22.34 0a6.493 6.493 0 00-1.468 2.12 6.368 6.368 0 000 5.017 6.49 6.49 0 001.468 2.12 6.904 6.904 0 004.787 1.918 6.903 6.903 0 004.787-1.918c.426-.41.999-.639 1.596-.639.597 0 1.17.23 1.596.64.209.2.375.44.488.705a2.121 2.121 0 010 1.67 2.18 2.18 0 01-.488.707 11.506 11.506 0 01-7.978 3.195 11.506 11.506 0 01-7.978-3.195 10.825 10.825 0 01-2.444-3.533 10.615 10.615 0 010-8.36 10.825 10.825 0 012.444-3.533c7.93-7.67 20.789-7.67 28.72 0v-.002zM23.5.002a25.367 25.367 0 0110.517 2.253 24.81 24.81 0 018.555 6.385C32.818.772 18.292 1.267 9.141 10.114v.002a15.151 15.151 0 00-3.423 4.947 14.86 14.86 0 00-1.204 5.853c0 2.01.41 4 1.204 5.853a15.152 15.152 0 003.423 4.946c6.166 5.966 16.167 5.966 22.336 0a6.493 6.493 0 001.467-2.12 6.367 6.367 0 000-5.016 6.493 6.493 0 00-1.467-2.12 6.903 6.903 0 00-4.787-1.917 6.903 6.903 0 00-4.787 1.917 2.3 2.3 0 01-1.595.639c-.597 0-1.17-.23-1.596-.639a2.164 2.164 0 01-.488-.706 2.123 2.123 0 01.488-2.378 11.506 11.506 0 017.979-3.195 11.51 11.51 0 017.978 3.195 10.82 10.82 0 012.444 3.533 10.613 10.613 0 010 8.36 10.82 10.82 0 01-2.444 3.533c-7.931 7.67-20.79 7.67-28.723 0a19.48 19.48 0 01-4.396-6.35A19.105 19.105 0 010 20.935c-.003-2.58.52-5.136 1.536-7.518A19.479 19.479 0 015.918 7.06C10.592 2.526 16.914-.012 23.5.001z" fill="url(#paint0_radial_3377_546)"/></g><defs><radialGradient id="paint0_radial_3377_546" cx="0" cy="0" r="1" gradientUnits="userSpaceOnUse" gradientTransform="matrix(3952.87312 2481.89247 -2524.28326 4020.3883 -362.353 140.111)"><stop stop-color="#00FFC4"/><stop offset="1" stop-color="#00E1FF"/></radialGradient><clipPath id="clip0_3377_546"><path fill="#fff" transform="translate(0 .001)" d="M0 0h48v48.001H0z"/></clipPath></defs></svg>