<svg width="48" height="48" viewBox="0 0 48 48" fill="none" xmlns="http://www.w3.org/2000/svg">
<g clip-path="url(#clip0_4739_946)">
<mask id="mask0_4739_946" style="mask-type:alpha" maskUnits="userSpaceOnUse" x="0" y="0" width="48" height="49">
<path d="M24 48.0041C37.2548 48.0041 48 37.2587 48 24.0035C48 10.7484 37.2548 0.00292969 24 0.00292969C10.7452 0.00292969 0 10.7484 0 24.0035C0 37.2587 10.7452 48.0041 24 48.0041Z" fill="white"/>
</mask>
<g mask="url(#mask0_4739_946)">
<path d="M48 0.00463867H0V48.0058H48V0.00463867Z" fill="url(#paint0_linear_4739_946)"/>
<path d="M0 30.002H15V48.0024H0V30.002Z" fill="url(#paint1_linear_4739_946)"/>
<path d="M15 24.6019C15 21.2416 15 19.5614 15.654 18.2778C16.2292 17.1489 17.1471 16.231 18.276 15.6557C19.5596 15.0017 21.2397 15.0017 24.6 15.0017H33V48.0025H15V24.6019Z" fill="url(#paint2_linear_4739_946)"/>
<path d="M33 0.0012207H48V48.0024H33V0.0012207Z" fill="url(#paint3_linear_4739_946)"/>
</g>
</g>
<defs>
<linearGradient id="paint0_linear_4739_946" x1="34.4001" y1="34.8033" x2="-5.20126" y2="-20.3971" gradientUnits="userSpaceOnUse">
<stop stop-color="#4643B9"/>
<stop offset="1" stop-color="#1E8AFF"/>
</linearGradient>
<linearGradient id="paint1_linear_4739_946" x1="15.9876" y1="41.7741" x2="-28.2415" y2="33.7505" gradientUnits="userSpaceOnUse">
<stop stop-color="#FF002E"/>
<stop offset="1" stop-color="#FFADA1"/>
</linearGradient>
<linearGradient id="paint2_linear_4739_946" x1="125.7" y1="120.421" x2="136.811" y2="31.2079" gradientUnits="userSpaceOnUse">
<stop stop-color="#3C3BA0"/>
<stop offset="0.489583" stop-color="#1E8AFF"/>
<stop offset="1" stop-color="#00B2FF"/>
</linearGradient>
<linearGradient id="paint3_linear_4739_946" x1="33" y1="2.46913" x2="75.1734" y2="24.6026" gradientUnits="userSpaceOnUse">
<stop stop-color="#FFEA1A"/>
<stop offset="1" stop-color="#FFB800"/>
</linearGradient>
<clipPath id="clip0_4739_946">
<rect width="48" height="48.0012" fill="white" transform="translate(0 0.0012207)"/>
</clipPath>
</defs>
</svg>
