<svg width="48" height="48" viewBox="0 0 48 48" fill="none" xmlns="http://www.w3.org/2000/svg"><g clip-path="url(#clip0_3377_562)"><path d="M0 23.945c0 6.973 10.745 12.626 24 12.626s24-5.653 24-12.626c0-6.972-10.745-12.625-24-12.625S0 16.973 0 23.945z" fill="#777BB3"/><path d="M13.478 25.336c1.005 0 1.756-.185 2.23-.55.47-.362.795-.989.965-1.863.159-.817.098-1.388-.18-1.696-.283-.314-.897-.474-1.824-.474h-1.607l-.89 4.583h1.306zm-5.255 5.646a.25.25 0 01-.246-.297l2.36-12.146a.25.25 0 01.246-.203h5.088c1.6 0 2.79.434 3.537 1.29.753.862.985 2.065.69 3.578a5.708 5.708 0 01-.611 1.7 5.696 5.696 0 01-1.126 1.411 4.938 4.938 0 01-1.853 1.11c-.667.218-1.523.328-2.546.328h-2.06l-.588 3.027a.25.25 0 01-.246.202H8.223z" fill="#000"/><path d="M13.269 21.003h1.4c1.119 0 1.507.245 1.64.392.218.242.26.755.119 1.48-.158.813-.452 1.389-.872 1.712-.43.332-1.13.5-2.078.5h-1.003l.794-4.084zm2.402-2.917h-5.088a.5.5 0 00-.49.405L7.731 30.637a.5.5 0 00.49.595h2.646a.5.5 0 00.491-.404l.55-2.825h1.853c1.049 0 1.931-.114 2.624-.34a5.188 5.188 0 001.946-1.165 5.95 5.95 0 001.173-1.471c.3-.536.514-1.133.64-1.776.309-1.592.057-2.867-.748-3.789-.798-.913-2.051-1.376-3.726-1.376zm-3.803 7.5h1.61c1.067 0 1.861-.2 2.383-.602.522-.402.875-1.073 1.058-2.014.175-.902.095-1.54-.24-1.91-.335-.371-1.005-.557-2.01-.557h-1.813l-.988 5.083zm3.803-7c1.53 0 2.647.402 3.35 1.205.7.804.912 1.925.632 3.365a5.44 5.44 0 01-.584 1.627 5.426 5.426 0 01-1.077 1.348 4.675 4.675 0 01-1.761 1.057c-.646.21-1.469.315-2.469.315h-2.266l-.628 3.23H8.223l2.36-12.147h5.088z" fill="#fff"/><path d="M25.965 27.753a.25.25 0 01-.245-.297l1.044-5.375c.1-.51.075-.878-.069-1.033-.088-.094-.352-.253-1.134-.253H23.67l-1.313 6.756a.25.25 0 01-.245.202h-2.625a.25.25 0 01-.245-.297l2.36-12.147a.25.25 0 01.246-.202h2.625a.25.25 0 01.245.298l-.57 2.931h2.036c1.55 0 2.601.274 3.214.836.624.574.819 1.49.579 2.727l-1.099 5.652a.25.25 0 01-.245.202h-2.667z" fill="#000"/><path d="M24.472 14.857h-2.625a.5.5 0 00-.491.405l-2.36 12.146a.5.5 0 00.49.595h2.625a.5.5 0 00.49-.404l1.274-6.554h1.686c.78 0 .944.166.95.173.048.051.11.287.008.816l-1.045 5.374a.5.5 0 00.491.595h2.667a.5.5 0 00.49-.404l1.099-5.653c.258-1.326.037-2.322-.655-2.958-.66-.607-1.767-.902-3.383-.902H24.45l.511-2.634a.5.5 0 00-.49-.595zm0 .5l-.628 3.23h2.339c1.471 0 2.486.256 3.044.77.56.512.726 1.344.503 2.494l-1.098 5.652h-2.667l1.044-5.374c.12-.611.076-1.028-.13-1.25-.207-.223-.646-.334-1.318-.334h-2.098l-1.352 6.958h-2.625l2.36-12.146h2.626z" fill="#fff"/><path d="M34.13 25.336c1.005 0 1.755-.185 2.23-.55.47-.362.794-.989.965-1.863.158-.817.098-1.388-.18-1.696-.284-.314-.898-.474-1.825-.474h-1.606l-.891 4.583h1.306zm-5.256 5.646a.25.25 0 01-.245-.297l2.36-12.146a.25.25 0 01.246-.203h5.087c1.6 0 2.79.434 3.538 1.29.752.862.984 2.065.69 3.578a5.714 5.714 0 01-.612 1.7 5.697 5.697 0 01-1.126 1.411 4.938 4.938 0 01-1.853 1.11c-.667.218-1.523.328-2.545.328h-2.06l-.589 3.027a.25.25 0 01-.245.202h-2.646z" fill="#000"/><path d="M33.92 21.003h1.4c1.119 0 1.508.245 1.64.392.219.242.26.755.12 1.48-.16.813-.452 1.389-.872 1.712-.43.332-1.13.5-2.079.5h-1.003l.794-4.084zm2.402-2.917h-5.087a.5.5 0 00-.491.405l-2.36 12.146a.5.5 0 00.49.595h2.646a.5.5 0 00.49-.404l.55-2.825h1.854c1.048 0 1.93-.114 2.623-.34a5.189 5.189 0 001.946-1.165c.48-.441.874-.936 1.173-1.471.3-.536.515-1.133.64-1.776.309-1.592.057-2.867-.748-3.789-.798-.913-2.051-1.376-3.726-1.376zm-3.802 7.5h1.61c1.066 0 1.86-.2 2.383-.602.522-.402.874-1.073 1.057-2.014.175-.902.095-1.54-.24-1.91-.334-.371-1.004-.557-2.01-.557h-1.812l-.988 5.083zm3.802-7c1.531 0 2.648.402 3.35 1.205.701.804.913 1.925.633 3.365a5.44 5.44 0 01-.585 1.627 5.424 5.424 0 01-1.077 1.348 4.674 4.674 0 01-1.76 1.057c-.647.21-1.47.315-2.47.315h-2.266l-.627 3.23h-2.646l2.36-12.147h5.088z" fill="#fff"/></g><defs><clipPath id="clip0_3377_562"><path fill="#fff" d="M0 0h48v48.001H0z"/></clipPath></defs></svg>