<svg width="48" height="48" viewBox="0 0 48 48" fill="none" xmlns="http://www.w3.org/2000/svg"><g clip-path="url(#clip0_3377_559)"><path fill-rule="evenodd" clip-rule="evenodd" d="M47.258 10.877c.017.064.026.13.026.196v10.29a.75.75 0 01-.377.651l-8.636 4.973v9.856a.752.752 0 01-.376.651L19.867 47.873c-.041.023-.086.038-.132.054-.016.006-.032.016-.05.02a.755.755 0 01-.385 0c-.02-.005-.039-.016-.059-.024-.041-.015-.084-.028-.123-.05L1.093 37.494a.751.751 0 01-.377-.65V5.971c0-.068.01-.133.026-.197.006-.022.019-.042.026-.063.014-.04.027-.08.048-.116.014-.025.035-.044.052-.067.021-.03.04-.061.066-.087.022-.022.05-.038.074-.056.028-.023.052-.047.083-.065L10.105.13a.752.752 0 01.75 0l9.013 5.19h.002c.03.019.055.042.082.064.025.018.052.035.073.056.027.027.045.058.068.088.016.023.037.042.05.067.022.037.034.077.05.116.007.021.02.041.025.064.018.064.027.13.027.196v19.282l7.51-4.325v-9.857c0-.066.01-.132.027-.195.006-.023.018-.042.026-.064.015-.04.028-.08.049-.116.014-.025.034-.044.05-.067.023-.03.041-.06.068-.087.021-.022.048-.038.073-.056.028-.023.052-.047.082-.065l9.015-5.19a.751.751 0 01.75 0l9.013 5.19c.032.019.056.042.085.064.023.018.05.035.072.056.026.027.045.058.067.088.017.023.038.042.051.067.022.036.034.077.049.116.008.022.02.041.026.064zm-1.476 10.052v-8.557l-3.154 1.816-4.358 2.508v8.558l7.513-4.325h-.001zm-9.013 15.48v-8.563l-4.286 2.448-12.24 6.985v8.644l16.526-9.514zM2.219 7.27v29.138l16.522 9.513V37.28l-8.632-4.885-.002-.002-.004-.002c-.03-.017-.054-.041-.08-.062-.024-.019-.052-.034-.072-.054l-.002-.003c-.024-.024-.041-.053-.062-.079-.019-.025-.041-.047-.056-.073l-.001-.003c-.017-.028-.027-.062-.04-.094-.012-.028-.028-.054-.035-.084-.01-.036-.011-.074-.015-.11-.004-.029-.011-.057-.011-.085V11.595l-4.357-2.51-3.154-1.814zm8.262-5.622L2.97 5.972l7.508 4.322 7.508-4.323-7.508-4.322h.002zm3.905 26.977l4.356-2.508V7.271l-3.154 1.815-4.357 2.51v18.847l3.155-1.817zM37.52 6.75l-7.508 4.323 7.508 4.322 7.508-4.323L37.52 6.75zm-.751 9.946l-4.357-2.509-3.154-1.815v8.557l4.356 2.508 3.155 1.817v-8.558zM19.492 35.98l11.013-6.287 5.505-3.142-7.503-4.32-8.638 4.973-7.874 4.533 7.497 4.243z" fill="#FF2D20"/></g><defs><clipPath id="clip0_3377_559"><path fill="#fff" transform="translate(0 .001)" d="M0 0h48v48.001H0z"/></clipPath></defs></svg>