<svg width="48" height="48" viewBox="0 0 48 48" fill="none" xmlns="http://www.w3.org/2000/svg"><g clip-path="url(#clip0_3377_467)"><path d="M16.003 48.001c4.416 0 8-3.584 8-8v-8h-8c-4.416 0-8 3.584-8 8s3.584 8 8 8z" fill="#0ACF83"/><path d="M8.003 24c0-4.415 3.584-8 8-8h8v16h-8c-4.416 0-8-3.583-8-8z" fill="#A259FF"/><path d="M8.003 8c0-4.416 3.584-8 8-8h8v16h-8c-4.416 0-8-3.584-8-8z" fill="#F24E1E"/><path d="M24.003 0h8c4.416 0 8 3.584 8 8s-3.584 8-8 8h-8V0z" fill="#FF7262"/><path d="M40.003 24c0 4.417-3.584 8-8 8s-8-3.583-8-8c0-4.415 3.584-8 8-8s8 3.585 8 8z" fill="#1ABCFE"/></g><defs><clipPath id="clip0_3377_467"><path fill="#fff" d="M0 0h48v48.001H0z"/></clipPath></defs></svg>