<?xml version="1.0" encoding="utf-8"?><svg width="16" height="16" fill="none" xmlns="http://www.w3.org/2000/svg" viewBox="0 0 16 16"><path fill-rule="evenodd" clip-rule="evenodd" d="M10.333 2a1 1 0 010-2H15a1 1 0 011 1v4.667a1 1 0 11-2 0V3.414l-6.848 6.849a1 1 0 01-1.415-1.415L12.586 2h-2.253zM2.556 4.333A.556.556 0 002 4.89v8.555a.556.556 0 00.556.556h8.555a.555.555 0 00.556-.556V9.778a1 1 0 112 0v3.666A2.556 2.556 0 0111.11 16H2.556A2.555 2.555 0 010 13.444V4.89a2.556 2.556 0 012.556-2.556h3.666a1 1 0 110 2H2.556z" fill="#0F5EB8"/></svg>