<?xml version="1.0" encoding="utf-8"?><svg width="16" height="16" fill="none" xmlns="http://www.w3.org/2000/svg" viewBox="0 0 16 16"><path fill-rule="evenodd" clip-rule="evenodd" d="M9.642.768c0-.424.344-.768.769-.768h4.82c.425 0 .769.344.769.768V5.59a.768.768 0 01-1.537 0V2.623L6.936 10.15A.768.768 0 115.85 9.064l7.527-7.527H10.41a.768.768 0 01-.769-.769zm-7.267 3.18a.839.839 0 00-.838.838v8.839a.839.839 0 00.838.838h8.84a.839.839 0 00.838-.838V8.804a.768.768 0 111.536 0v4.82A2.375 2.375 0 0111.214 16H2.375A2.376 2.376 0 010 13.625v-8.84a2.375 2.375 0 012.375-2.374h4.821a.768.768 0 110 1.536h-4.82z" fill="#0070E0"/></svg>