<?xml version="1.0" encoding="utf-8"?><svg width="24" height="24" fill="none" xmlns="http://www.w3.org/2000/svg" viewBox="0 0 24 24"><path d="M11 12.605c.288.4.655.73 1.076.97a3.236 3.236 0 002.776.207c.45-.176.859-.448 1.198-.801l2.01-2.087A3.55 3.55 0 0019 8.448a3.547 3.547 0 00-.98-2.43A3.289 3.289 0 0015.68 5a3.284 3.284 0 00-2.356.976l-1.152 1.19" stroke="#1F5AFF" stroke-width="2" stroke-linecap="round" stroke-linejoin="round"/><path d="M13 11.395a3.39 3.39 0 00-1.076-.97 3.235 3.235 0 00-2.776-.207c-.45.176-.859.448-1.198.801l-2.01 2.087A3.55 3.55 0 005 15.552c.008.912.36 1.785.98 2.43.622.644 1.462 1.01 2.34 1.018a3.284 3.284 0 002.356-.976l1.145-1.19" stroke="#1F5AFF" stroke-width="2" stroke-linecap="round" stroke-linejoin="round"/></svg>