<?xml version="1.0" encoding="utf-8"?><svg width="24" height="24" fill="none" xmlns="http://www.w3.org/2000/svg" viewBox="0 0 24 24"><path d="M16.123 12l6.73-6.73A2.915 2.915 0 0020.792.293a2.896 2.896 0 00-2.062.854L12 7.877l-6.73-6.73A2.915 2.915 0 101.146 5.27L7.877 12l-6.73 6.73a2.915 2.915 0 004.122 4.124L12 16.124l6.73 6.73a2.916 2.916 0 004.123-4.123L16.123 12zm6.084 10.207a2.001 2.001 0 01-2.83 0l-7.054-7.054a.457.457 0 00-.646 0l-7.054 7.054a2.001 2.001 0 01-2.83-2.83l7.054-7.053a.457.457 0 000-.647L1.793 4.623a2 2 0 012.83-2.83l7.054 7.055a.457.457 0 00.646 0l7.054-7.055a2 2 0 112.83 2.83l-7.054 7.054a.457.457 0 000 .647l7.054 7.054a2.003 2.003 0 010 2.83z" fill="#fff"/><path fill-rule="evenodd" clip-rule="evenodd" d="M5.27 1.147L12 7.877l6.73-6.73a2.896 2.896 0 012.062-.854 2.915 2.915 0 012.061 4.977L16.123 12l6.73 6.73a2.915 2.915 0 01-4.123 4.124L12 16.124l-6.73 6.73a2.896 2.896 0 01-2.062.853 2.915 2.915 0 01-2.061-4.976L7.877 12 1.147 5.27a2.915 2.915 0 014.122-4.123zM7.462 12L.94 5.477A3.208 3.208 0 015.476.94L12 7.464 18.523.94a3.191 3.191 0 012.27-.94 3.208 3.208 0 012.267 5.477L16.537 12l6.523 6.524a3.209 3.209 0 01-4.536 4.537L12 16.537 5.477 23.06a3.191 3.191 0 01-2.27.94m4.256-12L.94 18.524A3.208 3.208 0 003.207 24m9.116-8.847l.207-.207L19.584 22A1.71 1.71 0 0022 19.584l-7.054-7.053a.75.75 0 010-1.06l.207.206a.457.457 0 000 .647l7.054 7.054a2.003 2.003 0 01-1.415 3.415c-.53 0-1.04-.21-1.415-.586l-7.054-7.054zm-7.7 7.054a2.001 2.001 0 01-2.83-2.83l7.054-7.053a.457.457 0 000-.647l.207-.207a.75.75 0 010 1.06L2 19.586A1.708 1.708 0 104.416 22l7.054-7.054a.75.75 0 011.06 0l-.207.207a.457.457 0 00-.646 0l-7.054 7.054zM1.793 4.623l7.054 7.054.207-.207L2 4.416l-.207.207zm2.83-2.83a2 2 0 10-2.83 2.83L2 4.416A1.708 1.708 0 014.416 2l7.054 7.055a.75.75 0 001.06 0L19.584 2A1.708 1.708 0 0122 4.416l-7.054 7.054.207.207 7.054-7.054a2.001 2.001 0 00-2.83-2.83l-7.054 7.055a.457.457 0 01-.646 0L4.623 1.793z" fill="#fff"/></svg>