<svg width="48" height="48" viewBox="0 0 48 48" fill="none" xmlns="http://www.w3.org/2000/svg"><g clip-path="url(#clip0_1165_2953)" fill="#fff"><path d="M9.668 25.755v-1.406h-3.54v6.467h3.54V29.41H7.535v-1.125H9.51V26.88H7.535v-1.124h2.133zm5.416 3.795l.55 1.457 1.315-.497-2.32-6.149-1.185.002-2.34 6.145 1.314.5.555-1.458h2.11zm-.53-1.406h-1.045l.524-1.378.52 1.378zm6.143 1.289c-.49 0-.96-.196-1.259-.526l-.472-.52-1.042.944.472.52c.569.629 1.408.989 2.3.989 1.108 0 2.04-.71 2.214-1.687.131-.738-.2-1.7-1.526-2.19a27.177 27.177 0 01-1.38-.556.292.292 0 01-.095-.268c.012-.078.07-.268.361-.356.68-.205 1.316.289 1.346.312l.535.45.904-1.077-.538-.452c-.05-.041-1.224-1.01-2.652-.58-.73.22-1.246.796-1.348 1.503a1.687 1.687 0 00.753 1.67c.031.02.064.039.098.054.03.013.735.327 1.529.62.163.06.69.282.628.623-.046.26-.369.527-.828.527zm6.704 1.464l.008-3.104 1.888-2.901-1.178-.767-1.414 2.17-1.426-2.184-1.177.77 1.9 2.91-.007 3.102 1.406.004zm-9.749 9.37a3.26 3.26 0 003.257 3.256 3.26 3.26 0 003.257-3.256 3.26 3.26 0 00-3.257-3.257 3.26 3.26 0 00-3.257 3.257zm5.108 0c0 1.02-.83 1.85-1.85 1.85-1.021 0-1.851-.83-1.851-1.85s.83-1.851 1.85-1.851 1.85.83 1.85 1.85zM15.284 43.5v-5.06H16.7v-1.407h-4.227v1.407h1.404v5.06h1.407zm11.695-6.49v4.217c0 1.265 1.096 2.295 2.444 2.297h.004c.7 0 1.376-.276 1.856-.755.42-.419.65-.968.65-1.545V37.01h-1.405v4.214c0 .207-.08.392-.238.55a1.258 1.258 0 01-.863.343h-.002c-.492 0-1.04-.366-1.04-.89V37.01h-1.407zm8.768 1.456c.679-.204 1.315.29 1.345.313l.535.45.905-1.077-.538-.452c-.05-.042-1.224-1.01-2.653-.58-.73.22-1.245.796-1.347 1.503a1.687 1.687 0 00.753 1.67c.031.02.064.038.097.053.03.014.735.328 1.53.62.162.06.689.283.628.624-.046.259-.369.527-.829.527-.49 0-.96-.197-1.259-.526l-.472-.521-1.042.944.473.521c.569.628 1.407.988 2.3.988 1.108 0 2.039-.709 2.213-1.686.132-.738-.2-1.7-1.526-2.19a26.957 26.957 0 01-1.379-.557.292.292 0 01-.095-.267c.011-.078.069-.269.36-.357zm4.163 5.011h3.539V42.07h-2.133v-1.125h1.976V39.54h-1.976v-1.124h2.133V37.01H39.91v6.467zm1.059 2.415h1.406v1.406h-1.406v-1.406z"/><path d="M45.89 33.235H35.037a2.1 2.1 0 00.12-.703v-5.16l2.63-2.63 4.154-1.21 5.362-5.363c.45-.45.698-1.05.698-1.69 0-.64-.248-1.24-.698-1.69a2.368 2.368 0 00-1.18-.644 2.409 2.409 0 00-.61-2.338 2.367 2.367 0 00-1.178-.644 2.392 2.392 0 00-1.456-2.884l3.497-3.497c.45-.45.698-1.05.698-1.69 0-.64-.248-1.24-.698-1.69a2.393 2.393 0 00-3.38 0l-8.646 8.647-2.093-3.791c-.38-.689-.896-1.182-1.493-1.426a2.268 2.268 0 00-1.737 0c-1.14.473-1.708 1.717-1.349 2.958.264.915.434 1.392.557 1.742.136.383.193.542.26.968l.983 6.186-3.893 3.893H2.11a2.111 2.111 0 00-2.109 2.11v2.109h1.406v-2.11c0-.387.316-.703.703-.703h30.938c.388 0 .703.316.703.703v9.844a.704.704 0 01-.703.703H2.109a.704.704 0 01-.703-.703v-6.328H0v6.328c0 1.163.946 2.11 2.11 2.11h5.932c-.078.22-.12.456-.12.703v9.843c0 1.164.946 2.11 2.11 2.11h29.53V45.89h-29.53a.704.704 0 01-.704-.703v-9.843c0-.388.316-.703.703-.703h35.86c.387 0 .703.315.703.703v9.843a.704.704 0 01-.703.703h-2.11v1.407h2.11A2.111 2.111 0 0048 45.187v-9.843c0-1.163-.946-2.11-2.11-2.11zM33.048 20.58h-5.474l3.405-3.405-1.095-6.895a5.717 5.717 0 00-.323-1.218c-.118-.332-.28-.787-.532-1.66-.186-.643.148-1.109.537-1.27.517-.214 1.063.087 1.46.806l2.288 4.146-.78.782.993.994L43.99 2.396a.985.985 0 011.392 0 .976.976 0 01.286.696.977.977 0 01-.287.696l-5.036 5.037-2.088 2.087.994.995 2.088-2.088a.985.985 0 011.391 1.392l-2.386 2.385.995.995 1.79-1.79a.977.977 0 01.695-.286.976.976 0 01.981.982.976.976 0 01-.286.696l-2.087 2.087.994.994 1.491-1.49a.976.976 0 01.696-.287.976.976 0 01.982.982.976.976 0 01-.287.696L41.2 22.282l-4.154 1.212-1.89 1.89v-2.696c0-1.163-.946-2.11-2.11-2.11z"/><path d="M32.344 2.089l1.364-.342.704 2.812-1.364.342-.704-2.812zm3.535 2.494l.704-2.812 1.364.342-.704 2.812-1.364-.342zm.349 10.686l.995-.995.994.995-.994.994-.995-.994zm1.989 1.987l.994-.994.994.994-.994.994-.994-.994z"/></g><defs><clipPath id="clip0_1165_2953"><path fill="#fff" d="M0 0h48v48H0z"/></clipPath></defs></svg>