<svg width="900" height="328" viewBox="0 0 900 328" fill="none" xmlns="http://www.w3.org/2000/svg"><g clip-path="url(#clip0_524_431)"><g opacity=".75"><path d="M140 0H0v328h140V0z" fill="#1F5AFF"/><path d="M140 0H0v328h140V0z" fill="url(#paint0_linear_524_431)"/></g><g opacity=".75"><path d="M140.33 0H0v236.541h140.33c31.29-.239 61.218-12.805 83.26-34.959 22.041-22.154 34.41-52.1 34.41-83.311 0-31.212-12.369-61.158-34.41-83.312C201.548 12.805 171.62.24 140.33 0z" fill="#1F5AFF"/><path d="M140.33 0H0v236.541h140.33c31.29-.239 61.218-12.805 83.26-34.959 22.041-22.154 34.41-52.1 34.41-83.311 0-31.212-12.369-61.158-34.41-83.312C201.548 12.805 171.62.24 140.33 0z" fill="url(#paint1_linear_524_431)"/></g><g opacity=".75"><path d="M559.098 328H338V.004L559.098 328z" fill="#1F5AFF"/><path d="M559.098 328H338V.004L559.098 328z" fill="url(#paint2_linear_524_431)"/></g><g opacity=".75"><path d="M441.346.003H338v235.983h103.346a117.53 117.53 0 0045.338-8.72 117.758 117.758 0 0038.508-25.517 118 118 0 0025.758-38.391 118.205 118.205 0 000-90.727 118.005 118.005 0 00-25.758-38.39 117.737 117.737 0 00-38.508-25.517 117.54 117.54 0 00-45.338-8.72z" fill="#1F5AFF"/><path d="M441.346.003H338v235.983h103.346a117.53 117.53 0 0045.338-8.72 117.758 117.758 0 0038.508-25.517 118 118 0 0025.758-38.391 118.205 118.205 0 000-90.727 118.005 118.005 0 00-25.758-38.39 117.737 117.737 0 00-38.508-25.517 117.54 117.54 0 00-45.338-8.72z" fill="url(#paint3_linear_524_431)"/></g><g opacity=".75"><path d="M803.995 327.981c90.573 0 163.996-73.421 163.996-163.991C967.991 73.421 894.568 0 803.995 0 713.423 0 640 73.421 640 163.99c0 90.57 73.423 163.991 163.995 163.991z" fill="#1F5AFF"/><path d="M803.995 327.981c90.573 0 163.996-73.421 163.996-163.991C967.991 73.421 894.568 0 803.995 0 713.423 0 640 73.421 640 163.99c0 90.57 73.423 163.991 163.995 163.991z" fill="url(#paint4_linear_524_431)"/></g><g opacity=".75"><path d="M688.04 279.97a164.008 164.008 0 00231.932-.014 163.989 163.989 0 00-.014-231.925L688.04 279.97z" fill="#1F5AFF"/><path d="M688.04 279.97a164.008 164.008 0 00231.932-.014 163.989 163.989 0 00-.014-231.925L688.04 279.97z" fill="url(#paint5_linear_524_431)"/></g></g><defs><linearGradient id="paint0_linear_524_431" x1="70" y1="-393.931" x2="70" y2="328" gradientUnits="userSpaceOnUse"><stop stop-color="#D5EBFF"/><stop offset="1" stop-color="#D5EBFF" stop-opacity="0"/></linearGradient><linearGradient id="paint1_linear_524_431" x1="129" y1="-284.088" x2="129" y2="236.541" gradientUnits="userSpaceOnUse"><stop stop-color="#D5EBFF"/><stop offset="1" stop-color="#D5EBFF" stop-opacity="0"/></linearGradient><linearGradient id="paint2_linear_524_431" x1="448.549" y1="-393.922" x2="448.549" y2="328" gradientUnits="userSpaceOnUse"><stop stop-color="#D5EBFF"/><stop offset="1" stop-color="#D5EBFF" stop-opacity="0"/></linearGradient><linearGradient id="paint3_linear_524_431" x1="449" y1="-283.426" x2="449" y2="235.99" gradientUnits="userSpaceOnUse"><stop stop-color="#D5EBFF"/><stop offset="1" stop-color="#D5EBFF" stop-opacity="0"/></linearGradient><linearGradient id="paint4_linear_524_431" x1="803.995" y1="-393.909" x2="803.995" y2="327.981" gradientUnits="userSpaceOnUse"><stop stop-color="#D5EBFF"/><stop offset="1" stop-color="#D5EBFF" stop-opacity="0"/></linearGradient><linearGradient id="paint5_linear_524_431" x1="828.02" y1="-288.21" x2="828.02" y2="327.996" gradientUnits="userSpaceOnUse"><stop stop-color="#D5EBFF"/><stop offset="1" stop-color="#D5EBFF" stop-opacity="0"/></linearGradient><clipPath id="clip0_524_431"><path fill="#fff" d="M0 0h968v328H0z"/></clipPath></defs></svg>