<svg width="328" height="32" viewBox="0 0 328 32" fill="none" xmlns="http://www.w3.org/2000/svg"><g clip-path="url(#clip0_622_1140)" fill="#1F5AFF"><path opacity=".75" d="M13.283 0H0v31.72h13.283V0zm170.415 0h-13.283v31.72h13.283V0z"/><path opacity=".75" d="M13.283 0H0v22.821h13.283a11.134 11.134 0 007.881-3.373 11.508 11.508 0 003.258-8.037c0-3.012-1.171-5.9-3.258-8.038A11.134 11.134 0 0013.284 0zm43.97 31.72H36.178V0l21.075 31.72z"/><path opacity=".75" d="M46.029 0h-9.851v22.821h9.85c1.482.012 2.95-.275 4.323-.843a11.212 11.212 0 003.67-2.468 11.425 11.425 0 002.456-3.712 11.576 11.576 0 000-8.774A11.424 11.424 0 0054.02 3.31 11.211 11.211 0 0050.35.843 11.064 11.064 0 0046.029 0zm94.751 0l-16.342 31.72h32.684L140.78 0z"/><path opacity=".75" d="M123.974 0l-16.342 31.72h32.684L123.974 0zM83.955 31.72c8.616 0 15.6-7.101 15.6-15.86C99.555 7.1 92.572 0 83.956 0s-15.6 7.1-15.6 15.86c0 8.759 6.984 15.86 15.6 15.86z"/><path opacity=".75" d="M72.925 27.076a15.472 15.472 0 0011.032 4.645c4.137 0 8.105-1.672 11.03-4.646a15.995 15.995 0 004.57-11.215c0-4.206-1.645-8.24-4.57-11.214l-22.062 22.43zM310.358 0l-16.335 32h32.67L310.358 0z"/><path opacity=".75" d="M293.371 0l-16.335 32h32.669L293.371 0zm-39.857 32c8.661 0 15.682-7.163 15.682-16 0-8.836-7.021-16-15.682-16-8.66 0-15.681 7.164-15.681 16 0 8.837 7.021 16 15.681 16zm-28.75-26.707a15.692 15.692 0 00-8.024-4.85 15.506 15.506 0 00-9.317.62 15.787 15.787 0 00-7.332 5.875A16.185 16.185 0 00197.322 16c0 3.236.966 6.396 2.769 9.062a15.787 15.787 0 007.332 5.875 15.506 15.506 0 009.317.621 15.692 15.692 0 008.024-4.851L218.658 16l6.106-10.707z"/><path opacity=".75" d="M224.765 5.294a16.478 16.478 0 00-7.159-4.52 16.853 16.853 0 00-8.522-.412L218.392 16l6.373-10.706zm-15.681 26.344a16.85 16.85 0 008.522-.412 16.477 16.477 0 007.159-4.52L218.393 16l-9.309 15.638zm33.976-4.213c2.871 2.93 6.765 4.575 10.825 4.575 4.061 0 7.955-1.646 10.826-4.575 2.871-2.93 4.484-6.903 4.484-11.046s-1.613-8.116-4.484-11.045l-21.651 22.09z"/></g><defs><clipPath id="clip0_622_1140"><path fill="#fff" d="M0 0h328v32H0z"/></clipPath></defs></svg>