<svg width="74" height="24" viewBox="0 0 74 24" fill="none" xmlns="http://www.w3.org/2000/svg"><g clip-path="url(#clip0_567_2071)" fill="#1F5AFF"><path opacity=".75" d="M10.165 0H0v23.79h10.165V0z"/><path opacity=".75" d="M10.165 0H0v17.116h10.165a8.605 8.605 0 006.03-2.53 8.542 8.542 0 002.494-6.028 8.542 8.542 0 00-2.493-6.028A8.605 8.605 0 0010.165 0zm32.648 23.79H26.684V0l16.128 23.79z"/><path opacity=".75" d="M34.223 0h-7.538v17.116h7.538a8.616 8.616 0 006.116-2.483 8.557 8.557 0 002.54-6.075 8.53 8.53 0 00-2.54-6.074A8.591 8.591 0 0034.223 0zm27.023 23.79c6.593 0 11.938-5.326 11.938-11.895C73.184 5.325 67.839 0 61.246 0c-6.593 0-11.938 5.326-11.938 11.895 0 6.57 5.345 11.895 11.938 11.895z"/><path opacity=".75" d="M52.806 20.307a11.96 11.96 0 008.442 3.484 11.96 11.96 0 008.441-3.485 11.873 11.873 0 003.497-8.41c0-3.156-1.259-6.181-3.498-8.412L52.806 20.307z"/></g><defs><clipPath id="clip0_567_2071"><path fill="#fff" d="M0 0h74v24H0z"/></clipPath></defs></svg>