<svg width="48" height="48" viewBox="0 0 48 48" fill="none" xmlns="http://www.w3.org/2000/svg"><g clip-path="url(#clip0_1042_2916)" fill="#1F5AFF"><path d="M43.313 1.875H28.218a.938.938 0 000 1.875h15.093a2.816 2.816 0 012.813 2.813v21.49H27.748a11.259 11.259 0 002.526-7.115c0-6.238-5.075-11.313-11.313-11.313-6.237 0-11.312 5.075-11.312 11.313 0 1.861.452 3.62 1.252 5.17l-2.017 2.017H1.875V6.562A2.816 2.816 0 014.688 3.75H19.78a.938.938 0 000-1.875H4.688A4.693 4.693 0 000 6.563v25.5c0 .833.226 1.654.644 2.37a3.463 3.463 0 00.369 4.453A3.435 3.435 0 003.457 39.9c.924 0 1.792-.36 2.445-1.013l2.136-2.136h9.067l-.874 3.375h-1.044c-1.654 0-3 1.346-3 3s1.346 3 3 3h17.626c1.654 0 3-1.346 3-3s-1.346-3-3-3h-1.044l-.874-3.375h12.418A4.693 4.693 0 0048 32.062v-25.5a4.693 4.693 0 00-4.688-4.687zM18.96 11.5c5.204 0 9.438 4.234 9.438 9.438 0 5.203-4.234 9.437-9.438 9.437-5.204 0-9.437-4.234-9.437-9.437 0-5.204 4.233-9.438 9.437-9.438zM5.01 30l-2.981 2.982a2.806 2.806 0 01-.153-.92V30H5.01zm-.433 7.56a1.584 1.584 0 01-2.237 0 1.584 1.584 0 010-2.237l7.586-7.587c.638.846 1.392 1.6 2.238 2.238L4.576 37.56zm29.361 5.565c0 .62-.504 1.125-1.124 1.125H15.186a1.126 1.126 0 01.001-2.25h17.626c.62 0 1.124.505 1.124 1.125zm-4.105-3H18.168l.874-3.375h9.916l.874 3.375zm13.48-5.25h-33.4l3.878-3.878c1.55.8 3.308 1.253 5.17 1.253 2.576 0 4.954-.866 6.858-2.322h20.306v2.134a2.816 2.816 0 01-2.813 2.813z"/><path d="M18.96 25.844a8.292 8.292 0 007.373-4.473.938.938 0 000-.867 8.292 8.292 0 00-7.372-4.473 8.292 8.292 0 00-7.372 4.473.938.938 0 000 .867 8.292 8.292 0 007.372 4.473zm0-6.438a1.532 1.532 0 01.001 3.062 1.533 1.533 0 01-1.532-1.53c0-.845.687-1.532 1.532-1.532zm5.462 1.532a6.421 6.421 0 01-3.364 2.68 3.401 3.401 0 000-5.362 6.421 6.421 0 013.364 2.681zm-7.558-2.682a3.401 3.401 0 000 5.363 6.421 6.421 0 01-3.365-2.681 6.422 6.422 0 013.365-2.682zm15.704-4.836c0 .519.42.938.938.938h9.431a.938.938 0 000-1.875h-9.431a.938.938 0 00-.938.938zm10.369-3.562a.938.938 0 000-1.875H37.51a.938.938 0 000 1.875h5.427zm-9.51-1.875c-.247 0-.489.1-.663.275a.943.943 0 000 1.326.948.948 0 00.663.274.943.943 0 00.938-.937.94.94 0 00-.938-.938zM43.6 18.584a.944.944 0 00.275-.663c0-.247-.1-.488-.275-.663a.944.944 0 00-.663-.275c-.247 0-.488.1-.662.275a.944.944 0 00-.275.663c0 .247.1.487.275.663a.945.945 0 00.663.274c.246 0 .488-.1.662-.274zm-5.378.274c.246 0 .488-.1.662-.274a.944.944 0 00.275-.663c0-.247-.1-.488-.275-.663a.94.94 0 00-1.6.663.94.94 0 00.938.938zm-4.053-.274a.942.942 0 000-1.326.944.944 0 00-.663-.275c-.248 0-.49.1-.664.275a.942.942 0 000 1.326.947.947 0 00.664.274c.246 0 .488-.1.663-.274zm-.663 4.774h3.01a.938.938 0 000-1.875h-3.01a.938.938 0 000 1.875zm6.197-.938c0 .519.42.938.938.938h3.088a.938.938 0 000-1.875H40.64a.938.938 0 00-.938.938zM24 3.75c.247 0 .488-.1.663-.275a.944.944 0 00.274-.663c0-.246-.1-.488-.274-.662A.944.944 0 0024 1.875c-.247 0-.488.1-.663.275a.944.944 0 00-.274.663c0 .246.1.488.274.662A.944.944 0 0024 3.75z"/></g><defs><clipPath id="clip0_1042_2916"><path fill="#fff" d="M0 0h48v48H0z"/></clipPath></defs></svg>