<svg width="48" height="48" viewBox="0 0 48 48" fill="none" xmlns="http://www.w3.org/2000/svg"><g clip-path="url(#clip0_1042_2932)" fill="#1F5AFF"><path d="M44.149 3.492h-6.135a.703.703 0 000 1.406h6.135a.703.703 0 000-1.406zM34.53 4.898h.747a.703.703 0 100-1.406h-.748a.703.703 0 000 1.406zm0 3.303h9.618a.703.703 0 000-1.406H34.53a.703.703 0 000 1.406zm2.543 33.433a12.84 12.84 0 00-2.646-7.79l.13-2.4a2.86 2.86 0 00-2.857-3.017h-7.697a1.341 1.341 0 01-.568-1.096v-1.963c1.193-.772 2.03-1.652 2.646-2.7h1.36a2.858 2.858 0 002.856-2.854v-5.251c0-.886-.513-1.669-1.279-2.04V8.84a3.046 3.046 0 00-3.043-3.043h-.078a.087.087 0 01-.087-.087 3.046 3.046 0 00-3.043-3.043H15.32A6.711 6.711 0 008.617 9.37v3.154a2.265 2.265 0 00-1.279 2.039v2.67A2.269 2.269 0 009.604 19.5h.908c.235 1.987 1.167 3.802 2.627 5.064.343.296.697.56 1.062.797v1.971c0 .438-.216.844-.572 1.096H5.935a2.86 2.86 0 00-2.857 3.016l.13 2.4a12.842 12.842 0 00-2.645 7.791v2.648c-.35.392-.563.908-.563 1.473 0 1.222.994 2.215 2.215 2.215H35.42a2.218 2.218 0 002.215-2.215 2.21 2.21 0 00-.562-1.473v-2.648zm-1.407 0v1.92a2.224 2.224 0 00-.246-.014H33.9l.398-7.311a11.425 11.425 0 011.368 5.405zm-6.848-27.415a.856.856 0 01.073.344v2.67a.86.86 0 01-.86.86h-.836v-2.65l.433-.151c.536-.187.958-.58 1.19-1.072zm-4.694 8.147H22.36a.516.516 0 010-1.032h1.764a.516.516 0 010 1.032zm3.318-1.104h-.71a8.275 8.275 0 00.406-1.762h.893c.304 0 .594-.061.86-.17v.484a1.45 1.45 0 01-1.449 1.448zM10.023 9.37a5.303 5.303 0 015.298-5.298h7.446a1.64 1.64 0 011.637 1.637c0 .823.67 1.493 1.493 1.493h.079c.902 0 1.636.734 1.636 1.637v4.496c0 .283-.18.536-.447.629l-1.477.514a.09.09 0 01-.121-.086l.003-2.794c.008-2.04-1.901-3.818-4.577-2.958-1.345.432-3.01.43-4.351 0-2.648-.851-4.585.896-4.576 2.956l.003 2.796a.09.09 0 01-.12.086l-1.479-.514a.666.666 0 01-.447-.629V9.37zm-1.278 7.864v-2.671c0-.122.026-.238.072-.344.233.492.654.886 1.19 1.073l.434.15v2.651h-.836a.86.86 0 01-.86-.86zm3.115 1.453c-.023-.924-.009-1.905-.013-2.804a1.497 1.497 0 001.628-1.493l-.003-2.798c-.005-1.142 1.02-2.167 2.74-1.614 1.63.524 3.587.523 5.212 0 1.639-.526 2.744.4 2.74 1.616l-.003 2.796a1.497 1.497 0 001.627 1.493v2.861a6.902 6.902 0 01-.29 1.765 1.915 1.915 0 00-1.374-.58H22.36c-1.06 0-1.923.861-1.923 1.921s.863 1.922 1.922 1.922h.894c-1.299 1.014-2.776 1.543-4.398 1.57-3.55-.029-6.893-2.651-6.995-6.655zm3.747 8.644v-1.23c1.016.42 2.1.639 3.246.647h.015a8.58 8.58 0 003.16-.641v1.224c0 .384.081.756.229 1.096h-6.88c.15-.34.23-.712.23-1.096zM3.337 36.23l.112 2.046a.703.703 0 101.404-.077l-.37-6.83a1.454 1.454 0 011.452-1.535H31.7c.833 0 1.499.697 1.453 1.534l-.66 12.174H21.467a4.318 4.318 0 011.053-2.178l.02-.023c2.129-2.38 1.492-6.104-1.26-7.667-.705-.401-1.602.099-1.602.93v3.19a.265.265 0 01-.265.266h-1.19a.266.266 0 01-.266-.265v-3.19c0-.83-.895-1.333-1.602-.931-2.759 1.567-3.383 5.292-1.258 7.67l.018.02a4.317 4.317 0 011.054 2.177H5.143l-.113-2.078a.703.703 0 10-1.404.076l.109 2.002h-1.52a2.25 2.25 0 00-.246.014v-1.92c0-1.89.479-3.752 1.369-5.405zm14.253 7.31a5.717 5.717 0 00-1.428-3.118l-.017-.019a3.586 3.586 0 01.407-5.166v2.557c0 .921.75 1.671 1.672 1.671h1.19c.922 0 1.671-.75 1.671-1.671v-2.557a3.587 3.587 0 01.406 5.168l-.015.017a5.718 5.718 0 00-1.429 3.118H17.59zm17.831 3.024H2.215a.81.81 0 010-1.617H35.42a.81.81 0 010 1.617z"/><path d="M47.297 4.841A.703.703 0 0048 4.138v-1.36a2.751 2.751 0 00-2.748-2.75H33.427a2.751 2.751 0 00-2.748 2.748v5.915a2.751 2.751 0 002.748 2.748c.27 0 .49.22.49.49v3.658c0 .529.343.978.852 1.12a1.15 1.15 0 001.305-.523l2.703-4.507a.494.494 0 01.421-.238h6.054A2.751 2.751 0 0048 8.692V7.425a.703.703 0 00-1.406 0v1.267c0 .74-.602 1.341-1.342 1.341h-6.054c-.663 0-1.286.354-1.627.922l-2.247 3.747v-2.771a1.9 1.9 0 00-1.897-1.897c-.74 0-1.342-.602-1.342-1.342V2.777c0-.74.602-1.341 1.342-1.341h11.825c.74 0 1.342.601 1.342 1.341v1.361c0 .388.315.703.703.703z"/></g><defs><clipPath id="clip0_1042_2932"><path fill="#fff" d="M0 0h48v48H0z"/></clipPath></defs></svg>