<svg width="48" height="48" viewBox="0 0 48 48" fill="none" xmlns="http://www.w3.org/2000/svg"><g clip-path="url(#clip0_1042_2957)" fill="#1F5AFF"><path d="M41.983 29.79c.606-1.867.913-3.814.913-5.799 0-1.977-.305-3.918-.907-5.779a9.367 9.367 0 003.523-2.349 9.343 9.343 0 002.564-6.726c-.148-5.185-4.487-9.28-9.672-9.133a9.344 9.344 0 00-6.57 2.944 9.387 9.387 0 00-1.967 3.141 18.77 18.77 0 00-5.78-.906c-1.98 0-3.922.306-5.785.908C16.96 2.535 13.52 0 9.5 0 4.313 0 .094 4.22.094 9.406c0 4.02 2.535 7.458 6.09 8.801a18.764 18.764 0 00-.907 5.784c0 1.985.308 3.932.913 5.8C2.632 31.133.094 34.572.094 38.594a9.32 9.32 0 00.912 4.046.703.703 0 001.27-.606 7.924 7.924 0 01-.776-3.44c0-4.41 3.589-7.999 8-7.999s8 3.589 8 8c0 4.41-3.589 7.999-8 7.999a7.976 7.976 0 01-5.415-2.111.703.703 0 00-.952 1.035A9.382 9.382 0 009.5 48c4.026 0 7.47-2.543 8.808-6.107 1.861.601 3.801.906 5.778.906 1.978 0 3.919-.305 5.78-.905C31.203 45.457 34.647 48 38.673 48c5.186 0 9.406-4.22 9.406-9.406 0-4.022-2.538-7.462-6.096-8.803zM32.858 3.914a7.948 7.948 0 015.82-2.507c4.306 0 7.87 3.44 7.993 7.77a7.948 7.948 0 01-2.18 5.722 7.947 7.947 0 01-5.82 2.507c-4.306 0-7.87-3.44-7.993-7.77a7.946 7.946 0 012.18-5.722zm-3.386 36.63a17.38 17.38 0 01-5.385.85c-1.843 0-3.65-.287-5.383-.85.133-.629.203-1.28.203-1.949 0-5.186-4.22-9.405-9.406-9.405a9.42 9.42 0 00-1.96.206 17.357 17.357 0 01-.856-5.404c0-1.844.286-3.653.85-5.387a9.413 9.413 0 006.563-.991.703.703 0 00-.688-1.226 8.006 8.006 0 01-3.91 1.018c-4.41 0-7.999-3.589-7.999-8 0-4.41 3.589-7.999 8-7.999s8 3.589 8 8a8.013 8.013 0 01-1.812 5.07.703.703 0 101.088.891A9.425 9.425 0 0018.7 7.442a17.364 17.364 0 015.387-.851c1.844 0 3.653.286 5.386.85a9.497 9.497 0 00-.2 2.235c.145 5.093 4.335 9.136 9.398 9.136.09 0 .182 0 .273-.004a9.504 9.504 0 001.696-.202 17.37 17.37 0 01.85 5.386c0 1.85-.288 3.665-.856 5.404a9.392 9.392 0 00-1.96-.206c-5.186 0-9.405 4.219-9.405 9.405 0 .669.07 1.32.203 1.95zm9.203 6.05c-4.412 0-8-3.588-8-7.998 0-4.411 3.588-8 8-8 4.411 0 8 3.589 8 8 0 4.41-3.589 7.999-8 7.999z"/><path d="M14.288 5.255a.703.703 0 00-.801.007c-.24.168-.496.31-.765.421a2.618 2.618 0 00-3.326.087 2.61 2.61 0 00-.882 1.68 3.833 3.833 0 01-2.576-1.592.704.704 0 00-1.218.119 5.95 5.95 0 00-.433 2.45c.046 1.012.409 2.317 1.73 3.325a4.269 4.269 0 01-1.48.204.703.703 0 00-.369 1.318c1.103.612 2.285.92 3.44.92a6.197 6.197 0 003.158-.852c1.21-.711 2.088-1.8 2.565-3.131a7.307 7.307 0 00.409-2.569 3.999 3.999 0 00.836-1.64.704.704 0 00-.288-.747zm-1.973 2.278c.014.074.02.15.02.222a5.924 5.924 0 01-.324 1.986 4.453 4.453 0 01-1.958 2.39c-.85.5-1.827.713-2.821.64.227-.112.447-.24.658-.383a.704.704 0 00-.11-1.224c-1.312-.584-2.014-1.512-2.086-2.758a4.08 4.08 0 01.026-.725 5.24 5.24 0 003.499 1.216.703.703 0 00.685-.703v-.436a1.209 1.209 0 012.118-.808c.088.1.2.172.323.21a.706.706 0 00-.03.373zM36.36 9.96h.997v4.193a.703.703 0 001.406 0V9.96h1.086a.703.703 0 000-1.406h-1.086V6.586c0-.675.55-1.225 1.226-1.225h.91a.703.703 0 000-1.406h-.91a2.634 2.634 0 00-2.632 2.631v1.968h-.997a.703.703 0 000 1.406zM7.905 42.23a.967.967 0 00.484-.129l4.786-2.764a.97.97 0 000-1.675l-4.786-2.765a.969.969 0 00-1.451.838v5.529a.97.97 0 00.967.967zm.439-5.735l3.47 2.004-3.47 2.005v-4.009zm33.385-2.881h-6.11a1.927 1.927 0 00-1.926 1.925v6.11c0 1.062.864 1.925 1.925 1.925h6.11a1.927 1.927 0 001.926-1.925v-6.11a1.927 1.927 0 00-1.925-1.925zm.518 8.035a.519.519 0 01-.518.519h-6.11a.52.52 0 01-.52-.52V35.54a.52.52 0 01.52-.519h6.11a.52.52 0 01.518.52v6.109z"/><path d="M38.673 36.469a2.128 2.128 0 00-2.125 2.125c0 1.172.953 2.125 2.125 2.125a2.128 2.128 0 002.126-2.125 2.128 2.128 0 00-2.126-2.125zm0 2.844a.72.72 0 11.002-1.44.72.72 0 01-.002 1.44zm-9.497-22.617a.703.703 0 00-.703.703v.316a20.983 20.983 0 01-3.104 1.5c-.858.331-1.744.606-2.64.82a.81.81 0 00-.496-.17h-3.22c-.777 0-1.41.634-1.41 1.411v3.693c0 .777.633 1.41 1.41 1.41h.644l.244 4.688a.703.703 0 101.404-.073l-.24-4.615h1.168a.81.81 0 00.496-.17c.57.138 1.138.3 1.693.484a.703.703 0 00.442-1.335 22.49 22.49 0 00-1.818-.519v-3.432a22.437 22.437 0 005.426-2.077v7.586a22.27 22.27 0 00-.936-.477.703.703 0 10-.61 1.267c.525.252 1.042.53 1.546.826v.313a.703.703 0 101.406 0V17.4a.703.703 0 00-.702-.703zm-7.536 8.276l-2.63-.003.004-3.697h2.626v3.7z"/></g><defs><clipPath id="clip0_1042_2957"><path fill="#fff" d="M0 0h48v48H0z"/></clipPath></defs></svg>