<svg width="48" height="48" viewBox="0 0 48 48" fill="none" xmlns="http://www.w3.org/2000/svg"><g clip-path="url(#clip0_1042_3034)" fill="#fff"><path d="M30 19.178A7.178 7.178 0 1022.82 12 7.187 7.187 0 0030 19.178zm0-12.857A5.678 5.678 0 1124.32 12 5.685 5.685 0 0130 6.32z"/><path d="M19.699 14.772h.682a.27.27 0 01.24.207c.17.532.384 1.05.642 1.545a.272.272 0 01-.024.317l-.485.485a.75.75 0 00-.092.95 11.258 11.258 0 003.062 3.061.75.75 0 00.95-.09l.485-.486a.272.272 0 01.317-.024 9.795 9.795 0 001.546.643.27.27 0 01.207.24v.681a.75.75 0 00.606.736c1.43.284 2.9.284 4.33 0a.75.75 0 00.607-.736v-.681a.27.27 0 01.206-.24 9.798 9.798 0 001.546-.643.27.27 0 01.317.024l.486.485a.751.751 0 00.949.092 11.265 11.265 0 003.062-3.062.75.75 0 00-.092-.95l-.486-.485a.27.27 0 01-.023-.317 9.84 9.84 0 00.642-1.545.27.27 0 01.24-.207h.682a.75.75 0 00.736-.607c.284-1.43.284-2.9 0-4.33a.75.75 0 00-.736-.606h-.682a.27.27 0 01-.24-.207 9.786 9.786 0 00-.642-1.546.27.27 0 01.024-.317l.485-.485a.75.75 0 00.091-.95 11.26 11.26 0 00-3.062-3.061.75.75 0 00-.949.092l-.485.485a.272.272 0 01-.317.023 9.793 9.793 0 00-1.546-.642.27.27 0 01-.206-.24v-.682a.75.75 0 00-.607-.736c-1.43-.283-2.9-.283-4.33 0a.75.75 0 00-.607.736v.682a.27.27 0 01-.206.24c-.533.17-1.05.384-1.546.642a.272.272 0 01-.317-.024l-.485-.484a.75.75 0 00-.95-.092 11.259 11.259 0 00-3.061 3.061.75.75 0 00.09.95l.486.485a.271.271 0 01.024.317 9.796 9.796 0 00-.642 1.546.27.27 0 01-.24.207h-.682a.75.75 0 00-.736.606 11.11 11.11 0 000 4.33.75.75 0 00.736.607zm.636-4.043h.046a1.762 1.762 0 001.67-1.253c.143-.45.325-.889.543-1.309a1.762 1.762 0 00-.294-2.069l-.035-.034a9.73 9.73 0 011.799-1.798l.034.034a1.76 1.76 0 002.07.294c.42-.218.857-.4 1.308-.543a1.762 1.762 0 001.253-1.67v-.045a9.536 9.536 0 012.543 0v.045a1.763 1.763 0 001.252 1.67c.451.143.889.325 1.309.543a1.76 1.76 0 002.069-.294l.034-.034a9.736 9.736 0 011.799 1.798l-.034.034a1.762 1.762 0 00-.295 2.07c.218.42.4.857.544 1.308a1.763 1.763 0 001.67 1.253h.045a9.58 9.58 0 010 2.543h-.046a1.761 1.761 0 00-1.67 1.253 8.34 8.34 0 01-.543 1.308 1.76 1.76 0 00.294 2.07l.035.034a9.766 9.766 0 01-1.799 1.798l-.034-.034a1.76 1.76 0 00-2.07-.294c-.42.218-.857.4-1.308.543a1.762 1.762 0 00-1.253 1.67v.045a9.53 9.53 0 01-2.543 0v-.046a1.763 1.763 0 00-1.252-1.669 8.299 8.299 0 01-1.309-.543 1.761 1.761 0 00-2.069.293l-.034.035a9.736 9.736 0 01-1.798-1.799l.033-.034a1.762 1.762 0 00.295-2.069 8.3 8.3 0 01-.544-1.309 1.762 1.762 0 00-1.67-1.252h-.045a9.522 9.522 0 010-2.543z"/><path d="M29.25 15.707v.793h1.5v-.793a2.245 2.245 0 00-.438-4.457h-.624a.753.753 0 110-1.5h.624a.784.784 0 01.813.75v.3h1.5v-.3a2.269 2.269 0 00-1.875-2.207V7.5h-1.5v.793a2.244 2.244 0 00.438 4.457h.624a.753.753 0 110 1.5h-.624a.784.784 0 01-.813-.75v-.3h-1.5v.3a2.27 2.27 0 001.875 2.207zM1.167 20.923a141.94 141.94 0 0015.842 6.59 97.558 97.558 0 0021.537 5.083l-.363 1.753a.75.75 0 001.027.842l7.465-3.162a.75.75 0 00.236-1.223l-5.521-5.493a.75.75 0 00-1.271.423l-.256 1.743c-6.808-.764-13.324-2.315-21.622-5.136a144.237 144.237 0 01-16.345-6.859.75.75 0 00-1.089.659L.75 20.24a.75.75 0 00.417.683zm1.123-3.568a148.35 148.35 0 0015.469 6.408c8.699 2.957 15.477 4.538 22.663 5.285a.75.75 0 00.82-.637l.145-.985 3.675 3.657-5.12 2.17.24-1.162a.751.751 0 00-.657-.898c-7.194-.748-13.578-2.225-22.034-5.1a140.984 140.984 0 01-15.234-6.306l.033-2.432zM7.5 29.25a.75.75 0 00-.75.75v16.5a.75.75 0 00.75.75h6a.75.75 0 00.75-.75V30a.75.75 0 00-.75-.75h-6zm5.25 16.5h-4.5v-15h4.5v15zm3.75-13.5a.75.75 0 00-.75.75v13.5a.75.75 0 00.75.75h6a.75.75 0 00.75-.75V33a.75.75 0 00-.75-.75h-6zm5.25 13.5h-4.5v-12h4.5v12zM25.5 36a.75.75 0 00-.75.75v9.75a.75.75 0 00.75.75h6a.75.75 0 00.75-.75v-9.75a.75.75 0 00-.75-.75h-6zm5.25 9.75h-4.5V37.5h4.5v8.25zm3.75-7.5a.75.75 0 00-.75.75v7.5a.75.75 0 00.75.75h6a.75.75 0 00.75-.75V39a.75.75 0 00-.75-.75h-6zm5.25 7.5h-4.5v-6h4.5v6zM9.96 5.64c1.915.69 4.298 1.55 5.629 1.842l.322-1.464c-1.236-.273-3.667-1.148-5.442-1.788-.443-.16-.856-.309-1.219-.437a43.836 43.836 0 01-2.212-.852l-.576 1.385c.755.315 1.524.61 2.288.881l1.21.434zM5.563 2.295a42.656 42.656 0 01-1.474-.713L3.41 2.919c.484.246.992.492 1.526.739l.627-1.363zm5.187 10.498a43.871 43.871 0 01-2.212-.852l-.576 1.385c.755.315 1.524.61 2.288.881l1.21.434c1.915.69 4.298 1.549 5.629 1.841l.322-1.464c-1.236-.273-3.667-1.149-5.442-1.788-.443-.16-.856-.309-1.219-.437zm-4.26-.11l.625-1.363a43.633 43.633 0 01-1.526-.738l-.679 1.337a45.4 45.4 0 001.58.764z"/></g><defs><clipPath id="clip0_1042_3034"><path fill="#fff" d="M0 0h48v48H0z"/></clipPath></defs></svg>