<svg width="48" height="48" viewBox="0 0 48 48" fill="none" xmlns="http://www.w3.org/2000/svg"><path d="M2.952 43.87l1.929 1.928a.749.749 0 001.06 0l.673-.673c.329.17.67.311 1.022.425v.95a.75.75 0 00.75.75h2.728a.748.748 0 00.75-.75v-.95a6.812 6.812 0 001.022-.425l.673.673a.749.749 0 001.06 0l1.929-1.929a.748.748 0 000-1.06l-.673-.673c.17-.329.311-.67.425-1.022h.95a.75.75 0 00.75-.75v-2.728a.749.749 0 00-.75-.75h-.95a6.823 6.823 0 00-.425-1.022l.673-.673a.749.749 0 000-1.06l-1.929-1.929a.748.748 0 00-1.06 0l-.673.673a6.874 6.874 0 00-1.022-.425v-.95a.75.75 0 00-.75-.75H8.386a.748.748 0 00-.75.75v.95a6.812 6.812 0 00-1.022.425l-.673-.673a.749.749 0 00-1.06 0l-1.929 1.929a.749.749 0 000 1.06l.673.673c-.17.329-.311.67-.425 1.022h-.95a.75.75 0 00-.75.75v2.728a.75.75 0 00.75.75h.95c.114.352.256.694.425 1.022l-.673.673a.75.75 0 000 1.06zm.309-4.256H3v-1.228h.26a1.428 1.428 0 001.359-1.013c.093-.291.21-.574.351-.846a1.43 1.43 0 00-.242-1.681l-.185-.185.868-.868.185.185a1.431 1.431 0 001.681.242 5.39 5.39 0 01.843-.35 1.43 1.43 0 001.016-1.36v-.26h1.228v.26a1.429 1.429 0 001.013 1.359c.291.093.574.21.846.351a1.43 1.43 0 001.681-.242l.185-.185.868.868-.185.185a1.431 1.431 0 00-.242 1.681c.14.271.258.553.35.843a1.43 1.43 0 001.36 1.016h.26v1.228h-.26a1.429 1.429 0 00-1.359 1.013c-.093.291-.21.574-.351.846a1.43 1.43 0 00.242 1.681l.185.185-.868.868-.185-.185a1.43 1.43 0 00-1.681-.242 5.39 5.39 0 01-.843.35 1.43 1.43 0 00-1.016 1.36v.26H9.136v-.26a1.429 1.429 0 00-1.013-1.359 5.452 5.452 0 01-.846-.351 1.43 1.43 0 00-1.681.242l-.185.185-.868-.868.185-.185a1.43 1.43 0 00.242-1.681 5.445 5.445 0 01-.35-.843 1.43 1.43 0 00-1.36-1.016z" fill="#fff"/><path d="M9.75 43.125a4.125 4.125 0 100-8.25 4.125 4.125 0 000 8.25zm0-6.75a2.625 2.625 0 110 5.25 2.625 2.625 0 010-5.25zM46.5 44.25V1.5a.748.748 0 00-.75-.75h-30a.75.75 0 00-.75.75v29.25h1.5V2.25H45V43.5H18V45h27.75a.748.748 0 00.75-.75z" fill="#fff"/><path d="M20.25 12h6a.748.748 0 00.75-.75v-6a.748.748 0 00-.75-.75h-6a.75.75 0 00-.75.75v6a.748.748 0 00.75.75zm1.81-1.5l3.44-3.44v3.44h-3.44zM24.44 6L21 9.44V6h3.44zM19.5 21a.748.748 0 00.75.75h6A.748.748 0 0027 21v-6a.748.748 0 00-.75-.75h-6a.748.748 0 00-.75.75v6zm2.56-.75l3.44-3.44v3.44h-3.44zm2.38-4.5L21 19.19v-3.44h3.44zm-4.94 15a.748.748 0 00.75.75h6a.748.748 0 00.75-.75v-6a.748.748 0 00-.75-.75h-6a.748.748 0 00-.75.75v6zM21 25.5h4.5V30H21v-4.5zm-1.5 15a.748.748 0 00.75.75h6a.748.748 0 00.75-.75v-6a.748.748 0 00-.75-.75h-6a.748.748 0 00-.75.75v6zm1.5-5.25h4.5v4.5H21v-4.5zM42 7.5H29.25V9H42V7.5zm0 9.75H29.25v1.5H42v-1.5zM42 27H29.25v1.5H42V27zm0 9.75H29.25v1.5H42v-1.5z" fill="#fff"/></svg>