<svg width="48" height="48" viewBox="0 0 48 48" fill="none" xmlns="http://www.w3.org/2000/svg"><path d="M44.252 29.25h-15.75a.75.75 0 100 1.5h15.75V33H30.347a.75.75 0 100 1.5h10.905v2.25h-10.5a.75.75 0 100 1.5h13.5v2.25H29.807a.75.75 0 100 1.5h14.445v2.25H27.137a.75.75 0 100 1.5h17.115a1.5 1.5 0 001.5-1.5V42a1.5 1.5 0 00-.21-.75 1.5 1.5 0 00.21-.75v-2.25a1.5 1.5 0 00-1.5-1.5h-1.5V34.5h1.5a1.5 1.5 0 001.5-1.5v-2.25a1.5 1.5 0 00-1.5-1.5zM12.75 22.5a3.75 3.75 0 003.337-5.422l4.756-3.75a3.667 3.667 0 004.814 0l4.756 3.75a3.75 3.75 0 106-1.005l4.267-6.586c.42.168.868.257 1.32.263a3.75 3.75 0 10-2.617-1.073l-4.276 6.585a3.66 3.66 0 00-3.75.638l-4.755-3.75a3.75 3.75 0 10-6.675 0l-4.755 3.75a3.697 3.697 0 00-2.422-.9 3.75 3.75 0 000 7.5zM42 3.75a2.25 2.25 0 110 4.5 2.25 2.25 0 010-4.5zM33.75 16.5a2.25 2.25 0 110 4.5 2.25 2.25 0 010-4.5zm-10.5-8.25a2.25 2.25 0 110 4.5 2.25 2.25 0 010-4.5zm-10.5 8.25a2.25 2.25 0 110 4.5 2.25 2.25 0 010-4.5zm6.75 14.25a6 6 0 100 12 6 6 0 000-12zm0 10.5a4.5 4.5 0 110-9 4.5 4.5 0 010 9z" fill="#fff"/><path d="M19.5 27.75a9 9 0 100 17.999 9 9 0 000-17.999zm0 16.5a7.5 7.5 0 110-15 7.5 7.5 0 010 15z" fill="#fff"/><path d="M19.127 35.25h1.875a.75.75 0 100-1.5h-.75a.75.75 0 10-1.5 0 1.883 1.883 0 00-1.006 3.333 1.88 1.88 0 001.38.417h.75a.375.375 0 110 .75h-1.875a.75.75 0 000 1.5h.75a.75.75 0 001.5 0 1.884 1.884 0 10-.375-3.75h-.75a.375.375 0 010-.75zm-7.877-7.5a4.499 4.499 0 011.718.338.75.75 0 00.975-.405.75.75 0 00-.405-.975 5.817 5.817 0 00-2.287-.458 6 6 0 00-3.42 10.928.75.75 0 00.854-1.23 4.5 4.5 0 012.566-8.198z" fill="#fff"/><path d="M9 39.413a7.5 7.5 0 117.05-12.93.75.75 0 10.96-1.155 9 9 0 10-8.25 15.547.759.759 0 00.226-1.5l.015.038z" fill="#fff"/></svg>