<svg width="48" height="48" viewBox="0 0 48 48" fill="none" xmlns="http://www.w3.org/2000/svg"><g clip-path="url(#clip0_1075_6520)" fill="#fff"><path d="M47.25 24.182a3.937 3.937 0 00-3.931-3.932c-.745 0-1.453.215-2.069.599V3c0-1.24-1.01-2.25-2.25-2.25H6C4.76.75 3.75 1.76 3.75 3v6.75H3C1.76 9.75.75 10.76.75 12v12c0 1.24 1.01 2.25 2.25 2.25h.75V45c0 1.24 1.01 2.25 2.25 2.25h33c1.24 0 2.25-1.01 2.25-2.25V31.81l4.849-4.848a3.905 3.905 0 001.151-2.78zM6 2.25h33a.75.75 0 01.75.75v3.75H5.25V3A.75.75 0 016 2.25zM2.25 24V12a.75.75 0 01.75-.75h16.5a.75.75 0 01.75.75v12a.75.75 0 01-.75.75H3a.75.75 0 01-.75-.75zm37.5 21a.75.75 0 01-.75.75H6a.75.75 0 01-.75-.75V26.25H19.5c1.24 0 2.25-1.01 2.25-2.25V12c0-1.24-1.01-2.25-2.25-2.25H5.25v-1.5h34.5v13.94l-1.5 1.5v-4.94h-13.5v7.5h10.94L24.044 37.896l-.928 6.487 6.488-.927L39.75 33.31V45zm-14.47-5.16l2.38 2.38-2.776.396.396-2.775zm3.97 1.85l-1.19-1.19L40.5 28.06l1.19 1.19-12.44 12.44zM27 39.44l-1.19-1.19 12.44-12.44L39.44 27 27 39.44zm9.75-14.69h-10.5v-4.5h10.5v4.5zm8.288 1.151L42.75 28.19l-3.44-3.439 2.289-2.288a2.41 2.41 0 011.72-.712 2.435 2.435 0 012.431 2.432c0 .64-.26 1.267-.712 1.72z"/><path d="M9 3.75h1.5v1.5H9v-1.5zm-3 0h1.5v1.5H6v-1.5zm6 0h1.5v1.5H12v-1.5zM9.047 22.268l3.007-9.003 1.423.475-3.007 9.003-1.423-.475zm5.423-6.738L16.94 18l-2.47 2.47 1.061 1.06 3.53-3.53-3.53-3.53-1.06 1.06zm-7.5-1.06L3.44 18l3.53 3.53 1.06-1.06L5.56 18l2.47-2.47-1.06-1.06zm31.28-4.72h-13.5v7.5h13.5v-7.5zm-1.5 6h-10.5v-4.5h10.5v4.5zm-30 27h12v1.5h-12v-1.5zm0-3h15v1.5h-15v-1.5zm1.5-1.5h1.5v-1.5h1.5v-1.5h-1.5v-7.5h-1.5v7.5h-1.5v1.5h1.5v1.5zm6 0h1.5v-7.5h1.5v-1.5h-1.5v-1.5h-1.5v1.5h-1.5v1.5h1.5v7.5zm9-4.5v-1.5h-1.5v-4.5h-1.5v4.5h-1.5v1.5h1.5v4.5h1.5v-4.5h1.5zm-3 9h1.5v1.5h-1.5v-1.5zm16.5-6h1.5v1.5h-1.5v-1.5zm0 6h1.5v1.5h-1.5v-1.5zm0-3h1.5v1.5h-1.5v-1.5z"/></g><defs><clipPath id="clip0_1075_6520"><path fill="#fff" d="M0 0h48v48H0z"/></clipPath></defs></svg>