<svg width="48" height="48" viewBox="0 0 48 48" fill="none" xmlns="http://www.w3.org/2000/svg"><path d="M6 4.5h-.75a.75.75 0 000 1.5H6a.75.75 0 000-1.5zm3.75 0H9A.75.75 0 009 6h.75a.75.75 0 100-1.5zm3.75 0h-.75a.75.75 0 100 1.5h.75a.75.75 0 100-1.5z" fill="#fff"/><path d="M46.462 42.038L43.425 39h.825a2.257 2.257 0 002.25-2.25v-33a2.257 2.257 0 00-2.25-2.25H3.75A2.257 2.257 0 001.5 3.75v33A2.257 2.257 0 003.75 39h30.188l.652 3.697a.73.73 0 00.51.585.75.75 0 00.758-.187l1.59-1.59 4.77 4.777a.76.76 0 001.064 0l3.18-3.187a.727.727 0 00.218-.525.742.742 0 00-.218-.532zM3 3.75A.75.75 0 013.75 3h40.5a.75.75 0 01.75.75V7.5H3V3.75zm30.862 29.063a.744.744 0 00-.843.514.766.766 0 00-.026.355l.674 3.818H3.75a.75.75 0 01-.75-.75V9h42v27.75a.75.75 0 01-.75.75h-2.325l-.232-.233 1.59-1.597a.733.733 0 00.18-.75.75.75 0 00-.586-.517l-9.015-1.59zm8.888 11.88l-4.77-4.778a.755.755 0 00-.532-.218.742.742 0 00-.533.218l-1.102 1.102-1.156-6.54 6.54 1.156-1.102 1.102a.775.775 0 00-.218.532c.002.197.08.385.218.525l.975.975.023.023 3.78 3.78-2.123 2.123z" fill="#fff"/><path d="M26.25 16.5H24a.75.75 0 100 1.5h1.29a1.494 1.494 0 01-2.79-.75v-.75a4.494 4.494 0 00-6.375-4.087A4.494 4.494 0 009.75 16.5h-3a.75.75 0 00-.75.75v13.5a3.75 3.75 0 003.75 3.75H24a3 3 0 003-3V17.25a.75.75 0 00-.75-.75zm-8.25-3a3 3 0 013 3h-2.25a4.512 4.512 0 00-1.117-2.962c.121-.02.244-.033.367-.038zm-1.875.675A2.981 2.981 0 0117.25 16.5H15a2.982 2.982 0 011.125-2.325zM14.25 13.5c.123.005.246.017.367.038A4.512 4.512 0 0013.5 16.5h-2.25a3 3 0 013-3zM9.75 33a2.257 2.257 0 01-2.25-2.25V18h2.25v1.5a.75.75 0 100 1.5h1.5a.75.75 0 100-1.5V18h6v1.5a.75.75 0 100 1.5h1.5a.75.75 0 100-1.5V18H21v13.5a2.93 2.93 0 00.42 1.5H9.75zm15.75-1.5a1.5 1.5 0 11-3 0V19.83a2.889 2.889 0 003 0V31.5zM30.75 18h10.5a.75.75 0 100-1.5h-10.5a.75.75 0 100 1.5zm0 3h10.5a.75.75 0 100-1.5h-10.5a.75.75 0 100 1.5zm0 3h10.5a.75.75 0 100-1.5h-10.5a.75.75 0 100 1.5zm0 3h10.5a.75.75 0 100-1.5h-10.5a.75.75 0 100 1.5zM42 29.25a.75.75 0 00-.75-.75h-10.5a.75.75 0 100 1.5h10.5a.75.75 0 00.75-.75z" fill="#fff"/></svg>