<svg width="48" height="48" viewBox="0 0 48 48" fill="none" xmlns="http://www.w3.org/2000/svg"><g clip-path="url(#clip0_1075_6552)"><path d="M47.297 14.06h-3.519a.703.703 0 00-.703.704v1.056h-4.356V8.361h1.172a.703.703 0 00.703-.703V4.139a.703.703 0 00-.703-.703h-3.52a.703.703 0 00-.702.703v3.519c0 .388.314.703.703.703h.94v7.46H24.703v-4.782h2.99v1.056c0 .389.315.703.704.703h3.519a.703.703 0 00.703-.703V8.577a.703.703 0 00-.703-.704h-3.52a.703.703 0 00-.702.704v1.056h-2.99V4.949h1.055a.703.703 0 00.703-.704V.727a.703.703 0 00-.703-.704h-3.518a.703.703 0 00-.703.704v3.518c0 .389.314.704.703.704h1.056v4.684h-2.99V8.577a.703.703 0 00-.704-.704h-3.519a.703.703 0 00-.703.704v3.518c0 .389.315.703.703.703h3.52a.703.703 0 00.702-.703V11.04h2.99v4.781H10.689v-7.46h.94a.703.703 0 00.703-.703V4.139a.703.703 0 00-.703-.703H8.11a.703.703 0 00-.703.703v3.519c0 .388.315.703.703.703h1.172v7.46H4.925v-1.057a.703.703 0 00-.703-.703H.703a.703.703 0 00-.703.703v3.519c0 .388.315.703.703.703h3.519a.703.703 0 00.703-.703v-1.057h13.35v5.395h-6.969v-1.045a.703.703 0 00-.703-.703H7.084a.703.703 0 00-.703.703v3.52c0 .388.315.702.703.702h3.52a.703.703 0 00.702-.703v-1.067h7.673a.703.703 0 00.703-.703v-6.099h3.615v10.688h-2.581c-.91 0-.91 1.406 0 1.406h5.967l-2.313 3.301H12.082l2.313-3.3h2.59c.91 0 .91-1.407 0-1.407H14.03a.704.704 0 00-.576.3l-3.298 4.707c-.32.458.017 1.107.576 1.107h2.595v13.245c0 .388.314.703.703.703h19.94a.703.703 0 00.703-.703v-3.375c0-.909-1.406-.909-1.406 0v2.672h-4.53V30.845l2.019 2.883c.132.188.346.3.576.3h1.935v5.933c0 .909 1.407.909 1.407 0v-5.933h2.594c.56 0 .897-.65.576-1.107l-3.298-4.707a.703.703 0 00-.576-.3h-9.268V17.227h3.615v6.098c0 .388.315.703.703.703h7.673v1.067c0 .389.314.704.703.704h3.519a.703.703 0 00.703-.704v-3.518a.703.703 0 00-.703-.704h-3.52a.703.703 0 00-.702.704v1.045h-6.97v-5.395h13.35v1.056c0 .388.316.703.704.703h3.519a.703.703 0 00.703-.703v-3.519a.703.703 0 00-.703-.703zM37.075 4.843h2.112v2.113h-2.112V4.842zM29.1 9.28h2.112v2.112H29.1V9.28zm-6.156-7.85h2.112v2.112h-2.112V1.43zM18.9 11.392h-2.112V9.28H18.9v2.112zM8.813 4.842h2.112v2.113H8.812V4.842zM3.519 17.58H1.406v-2.113H3.52v2.113zM9.9 24.392H7.787V22.28H9.9v2.112zm4.832 22.178V34.028h10.004c.23 0 .444-.112.576-.3l2.019-2.881V46.57h-12.6zm18.873-17.25l2.313 3.301h-4.22l-2.312-3.3h4.22zm4.495-7.04h2.112v2.112H38.1V22.28zm8.494-4.7H44.48v-2.113h2.113v2.113z" fill="#fff"/></g><defs><clipPath id="clip0_1075_6552"><path fill="#fff" d="M0 0h48v48H0z"/></clipPath></defs></svg>