<?xml version="1.0" encoding="utf-8"?><svg viewBox="0 0 56 48" xmlns="http://www.w3.org/2000/svg" xmlns:xlink="http://www.w3.org/1999/xlink"><style>:root>svg{display:none}:root>svg:target{display:block}</style><svg fill="none" viewBox="0 0 40 32" id="arrow-right" xmlns="http://www.w3.org/2000/svg"><path d="M10 16h20M22 8l8 8-8 8" stroke="#1F5AFF" stroke-width="3" stroke-linecap="round" stroke-linejoin="round"/></svg><svg fill="none" viewBox="0 0 24 24" id="chevron-left" xmlns="http://www.w3.org/2000/svg"><path d="M15 18l-6-6 6-6" stroke="#1F5AFF" stroke-width="2" stroke-linecap="round" stroke-linejoin="round"/></svg><svg fill="none" viewBox="0 0 24 24" id="chevron-right" xmlns="http://www.w3.org/2000/svg"><path d="M9 18l6-6-6-6" stroke="#1F5AFF" stroke-width="2" stroke-linecap="round" stroke-linejoin="round"/></svg><svg fill="none" viewBox="0 0 12 12" id="dot" xmlns="http://www.w3.org/2000/svg"><g opacity=".75"><path d="M6 12A6 6 0 106 0a6 6 0 000 12z" fill="#1F5AFF"/><path d="M6 12A6 6 0 106 0a6 6 0 000 12z" fill="url(#adpaint0_linear_584_1933)"/></g><g opacity=".75"><path d="M1.758 10.243a6 6 0 008.485-8.486l-8.485 8.486z" fill="#1F5AFF"/><path d="M1.758 10.243a6 6 0 008.485-8.486l-8.485 8.486z" fill="url(#adpaint1_linear_584_1933)"/></g><defs><linearGradient id="adpaint0_linear_584_1933" x1="6" y1="-14.412" x2="6" y2="11.999" gradientUnits="userSpaceOnUse"><stop stop-color="#D5EBFF"/><stop offset="1" stop-color="#D5EBFF" stop-opacity="0"/></linearGradient><linearGradient id="adpaint1_linear_584_1933" x1="6.879" y1="-10.544" x2="6.879" y2="12" gradientUnits="userSpaceOnUse"><stop stop-color="#D5EBFF"/><stop offset="1" stop-color="#D5EBFF" stop-opacity="0"/></linearGradient></defs></svg><svg fill="none" viewBox="0 0 10 6" id="ic_arr" xmlns="http://www.w3.org/2000/svg"><path d="M1 1l4 4 4-4" stroke="#1F5AFF" stroke-width="2" stroke-linecap="round" stroke-linejoin="round"/></svg><svg fill="none" viewBox="0 0 25 24" id="ic_arrow-right" xmlns="http://www.w3.org/2000/svg"><path d="M5.5 12h14M12.5 5l7 7-7 7" stroke="#1F5AFF" stroke-width="2" stroke-linecap="round" stroke-linejoin="round"/></svg><svg fill="none" viewBox="0 0 48 48" id="ic_circle" xmlns="http://www.w3.org/2000/svg"><path d="M13.723 6.99a.829.829 0 00-1.148-.231 20.784 20.784 0 00-8.401 11.324.828.828 0 101.585.475 19.122 19.122 0 017.732-10.42.828.828 0 00.232-1.148zm2.003-.37a.828.828 0 100-1.654.828.828 0 000 1.655z" fill="#fff"/><path d="M24 0a24 24 0 1024 24A24.027 24.027 0 0024 0zm0 46.345A22.345 22.345 0 1146.345 24 22.37 22.37 0 0124 46.345z" fill="#fff"/></svg><svg viewBox="0 0 24 24" id="ic_close" xmlns="http://www.w3.org/2000/svg"><path d="M0 0h24v24H0V0z" fill="none"/><path d="M19 6.41L17.59 5 12 10.59 6.41 5 5 6.41 10.59 12 5 17.59 6.41 19 12 13.41 17.59 19 19 17.59 13.41 12 19 6.41z"/></svg><svg fill="none" viewBox="0 0 24 24" id="ic_doc" xmlns="http://www.w3.org/2000/svg"><path d="M14 2H6a2 2 0 00-2 2v16a2 2 0 002 2h12a2 2 0 002-2V8l-6-6z" stroke="#fff" stroke-width="2" stroke-linecap="round" stroke-linejoin="round"/><path d="M14 2v6h6m-4 5H8m8 4H8m2-8H8" stroke="#fff" stroke-width="2" stroke-linecap="round" stroke-linejoin="round"/></svg><svg viewBox="0 0 24 24" id="ic_expand" xmlns="http://www.w3.org/2000/svg"><path d="M24 24H0V0h24v24z" fill="none" opacity=".87"/><path d="M16.59 8.59L12 13.17 7.41 8.59 6 10l6 6 6-6-1.41-1.41z"/></svg><svg fill="none" viewBox="0 0 24 24" id="ic_link" xmlns="http://www.w3.org/2000/svg"><path d="M11 12.605c.288.4.655.73 1.076.97a3.236 3.236 0 002.776.207c.45-.176.859-.448 1.198-.801l2.01-2.087A3.55 3.55 0 0019 8.448a3.547 3.547 0 00-.98-2.43A3.289 3.289 0 0015.68 5a3.284 3.284 0 00-2.356.976l-1.152 1.19" stroke="#1F5AFF" stroke-width="2" stroke-linecap="round" stroke-linejoin="round"/><path d="M13 11.395a3.39 3.39 0 00-1.076-.97 3.235 3.235 0 00-2.776-.207c-.45.176-.859.448-1.198.801l-2.01 2.087A3.55 3.55 0 005 15.552c.008.912.36 1.785.98 2.43.622.644 1.462 1.01 2.34 1.018a3.284 3.284 0 002.356-.976l1.145-1.19" stroke="#1F5AFF" stroke-width="2" stroke-linecap="round" stroke-linejoin="round"/></svg><svg fill="none" viewBox="0 0 24 24" id="ic_menu" xmlns="http://www.w3.org/2000/svg"><path d="M6 12h16M2 6h20M2 18h20" stroke="#000" stroke-width="2" stroke-linecap="round" stroke-linejoin="round"/></svg><svg fill="none" viewBox="0 0 24 24" id="ic_menu-close" xmlns="http://www.w3.org/2000/svg"><path d="M18 6L6 18M6 6l12 12" stroke="#fff" stroke-width="2" stroke-linecap="round" stroke-linejoin="round"/></svg><svg fill="none" viewBox="0 0 44 44" id="ic_more" xmlns="http://www.w3.org/2000/svg"><path d="M22 9v26m0 0l13-13M22 35L9 22" stroke="#fff" stroke-width="4" stroke-linecap="round" stroke-linejoin="round"/></svg><svg viewBox="0 0 24 24" id="ic_person" xmlns="http://www.w3.org/2000/svg"><path d="M0 0h24v24H0V0z" fill="none"/><path d="M12 2C6.48 2 2 6.48 2 12s4.48 10 10 10 10-4.48 10-10S17.52 2 12 2zM7.07 18.28c.43-.9 3.05-1.78 4.93-1.78s4.51.88 4.93 1.78C15.57 19.36 13.86 20 12 20s-3.57-.64-4.93-1.72zm11.29-1.45c-1.43-1.74-4.9-2.33-6.36-2.33s-4.93.59-6.36 2.33A7.95 7.95 0 014 12c0-4.41 3.59-8 8-8s8 3.59 8 8c0 1.82-.62 3.49-1.64 4.83zM12 6c-1.94 0-3.5 1.56-3.5 3.5S10.06 13 12 13s3.5-1.56 3.5-3.5S13.94 6 12 6zm0 5c-.83 0-1.5-.67-1.5-1.5S11.17 8 12 8s1.5.67 1.5 1.5S12.83 11 12 11z"/></svg><svg fill="none" viewBox="0 0 24 24" id="ic_phone" xmlns="http://www.w3.org/2000/svg"><path d="M15.05 5A5 5 0 0119 8.95M15.05 1A9 9 0 0123 8.94m-1 7.98v3a1.998 1.998 0 01-2.18 2 19.791 19.791 0 01-8.63-3.07 19.5 19.5 0 01-6-6 19.79 19.79 0 01-3.07-8.67A2 2 0 014.11 2h3a2 2 0 012 1.72c.127.96.362 1.903.7 2.81a2 2 0 01-.45 2.11L8.09 9.91a16.001 16.001 0 006 6l1.27-1.27a2 2 0 012.11-.45c.908.339 1.85.573 2.81.7A2 2 0 0122 16.92z" stroke="#000" stroke-width="2" stroke-linecap="round" stroke-linejoin="round"/></svg><svg fill="none" viewBox="0 0 24 24" id="ic_ps-cross" xmlns="http://www.w3.org/2000/svg"><path d="M16.123 12l6.73-6.73A2.915 2.915 0 0020.792.293a2.896 2.896 0 00-2.062.854L12 7.877l-6.73-6.73A2.915 2.915 0 101.146 5.27L7.877 12l-6.73 6.73a2.915 2.915 0 004.122 4.124L12 16.124l6.73 6.73a2.916 2.916 0 004.123-4.123L16.123 12zm6.084 10.207a2.001 2.001 0 01-2.83 0l-7.054-7.054a.457.457 0 00-.646 0l-7.054 7.054a2.001 2.001 0 01-2.83-2.83l7.054-7.053a.457.457 0 000-.647L1.793 4.623a2 2 0 012.83-2.83l7.054 7.055a.457.457 0 00.646 0l7.054-7.055a2 2 0 112.83 2.83l-7.054 7.054a.457.457 0 000 .647l7.054 7.054a2.003 2.003 0 010 2.83z" fill="#fff"/><path fill-rule="evenodd" clip-rule="evenodd" d="M5.27 1.147L12 7.877l6.73-6.73a2.896 2.896 0 012.062-.854 2.915 2.915 0 012.061 4.977L16.123 12l6.73 6.73a2.915 2.915 0 01-4.123 4.124L12 16.124l-6.73 6.73a2.896 2.896 0 01-2.062.853 2.915 2.915 0 01-2.061-4.976L7.877 12 1.147 5.27a2.915 2.915 0 014.122-4.123zM7.462 12L.94 5.477A3.208 3.208 0 015.476.94L12 7.464 18.523.94a3.191 3.191 0 012.27-.94 3.208 3.208 0 012.267 5.477L16.537 12l6.523 6.524a3.209 3.209 0 01-4.536 4.537L12 16.537 5.477 23.06a3.191 3.191 0 01-2.27.94m4.256-12L.94 18.524A3.208 3.208 0 003.207 24m9.116-8.847l.207-.207L19.584 22A1.71 1.71 0 0022 19.584l-7.054-7.053a.75.75 0 010-1.06l.207.206a.457.457 0 000 .647l7.054 7.054a2.003 2.003 0 01-1.415 3.415c-.53 0-1.04-.21-1.415-.586l-7.054-7.054zm-7.7 7.054a2.001 2.001 0 01-2.83-2.83l7.054-7.053a.457.457 0 000-.647l.207-.207a.75.75 0 010 1.06L2 19.586A1.708 1.708 0 104.416 22l7.054-7.054a.75.75 0 011.06 0l-.207.207a.457.457 0 00-.646 0l-7.054 7.054zM1.793 4.623l7.054 7.054.207-.207L2 4.416l-.207.207zm2.83-2.83a2 2 0 10-2.83 2.83L2 4.416A1.708 1.708 0 014.416 2l7.054 7.055a.75.75 0 001.06 0L19.584 2A1.708 1.708 0 0122 4.416l-7.054 7.054.207.207 7.054-7.054a2.001 2.001 0 00-2.83-2.83l-7.054 7.055a.457.457 0 01-.646 0L4.623 1.793z" fill="#fff"/></svg><svg fill="none" viewBox="0 0 26 22" id="ic_ps-graph" xmlns="http://www.w3.org/2000/svg"><path fill-rule="evenodd" clip-rule="evenodd" d="M14.857 1.467h-3.714a.37.37 0 00-.372.366v18.334c0 .202.167.366.372.366h3.714a.369.369 0 00.372-.366V1.833a.37.37 0 00-.372-.366zm9.286 3.666h-3.714a.37.37 0 00-.372.367v14.667c0 .202.166.366.372.366h3.714a.369.369 0 00.371-.366V5.5a.37.37 0 00-.371-.367zM5.57 8.8H1.857a.37.37 0 00-.371.367v11c0 .202.166.366.371.366h3.714a.369.369 0 00.372-.366v-11A.37.37 0 005.57 8.8zm3.715-6.967C9.286.821 10.117 0 11.143 0h3.714c1.026 0 1.857.82 1.857 1.833v18.334A1.845 1.845 0 0114.857 22h-3.714a1.845 1.845 0 01-1.857-1.833V1.833zM18.57 5.5c0-1.013.832-1.833 1.858-1.833h3.714c1.026 0 1.857.82 1.857 1.833v14.667A1.845 1.845 0 0124.143 22h-3.714a1.845 1.845 0 01-1.858-1.833V5.5zM1.857 7.333C.831 7.333 0 8.154 0 9.167v11C0 21.179.831 22 1.857 22h3.714c1.026 0 1.858-.82 1.858-1.833v-11A1.845 1.845 0 005.57 7.333H1.857z" fill="#fff"/></svg><svg fill="none" viewBox="0 0 27 21" id="ic_ps-ok" xmlns="http://www.w3.org/2000/svg"><path d="M25.586 1.553a3.757 3.757 0 00-5.308 0l-9.76 9.76-3.966-3.967a3.753 3.753 0 10-5.309 5.308l6.35 6.349a4.142 4.142 0 005.851 0L25.586 6.86a3.757 3.757 0 000-5.308zm-1.17 4.138L12.274 17.833a2.486 2.486 0 01-3.512 0l-6.348-6.35A2.099 2.099 0 015.38 8.517l4.552 4.552a.826.826 0 001.17 0L21.448 2.723a2.098 2.098 0 012.968 2.968z" fill="#fff"/></svg><svg fill="none" viewBox="0 0 56 40" id="ic_quote-left" xmlns="http://www.w3.org/2000/svg"><path d="M14.703 40L0 20.109 14.595 0h15.567L16.216 20l13.946 20h-15.46zm25.838 0L25.838 20.109 40.432 0H56L42.054 20 56 40H40.54z" fill="#1F5AFF"/></svg><svg fill="none" viewBox="0 0 56 40" id="ic_quote-right" xmlns="http://www.w3.org/2000/svg"><path d="M15.676 40H0l14.054-20L0 0h15.784l14.378 20.109L15.676 40zm25.838 0H25.837l14.054-20L25.838 0h15.784L56 20.109 41.514 40z" fill="#1F5AFF"/></svg><svg viewBox="0 0 24 24" id="ic_up" xmlns="http://www.w3.org/2000/svg"><path d="M0 0h24v24H0V0z" fill="none"/><path d="M4 12l1.41 1.41L11 7.83V20h2V7.83l5.58 5.59L20 12l-8-8-8 8z"/></svg><svg fill="none" viewBox="0 0 44 44" id="icon_arrow_right" xmlns="http://www.w3.org/2000/svg"><path d="M9 22h26M22 9l13 13-13 13" stroke="#fff" stroke-width="4" stroke-linecap="round" stroke-linejoin="round"/></svg><svg fill="none" viewBox="0 0 24 24" id="icon_check_24" xmlns="http://www.w3.org/2000/svg"><path d="M19 7l-9.625 9L5 11.91" stroke="#1F5AFF" stroke-width="2" stroke-linecap="round" stroke-linejoin="round"/></svg><svg fill="none" viewBox="0 0 24 24" id="icon_go_top" xmlns="http://www.w3.org/2000/svg"><path d="M17 11l-5-5-5 5M17 18l-5-5-5 5" stroke="#fff" stroke-width="2" stroke-linecap="round" stroke-linejoin="round"/></svg><svg fill="none" viewBox="0 0 32 32" id="icon_minus_32" xmlns="http://www.w3.org/2000/svg"><path d="M8 16h16" stroke="#1F5AFF" stroke-width="2" stroke-linecap="round" stroke-linejoin="round"/></svg><svg fill="none" viewBox="0 0 32 32" id="icon_plus_32" xmlns="http://www.w3.org/2000/svg"><path d="M16 8v16M7.999 16h16" stroke="#1F5AFF" stroke-width="2" stroke-linecap="round" stroke-linejoin="round"/></svg><svg fill="none" viewBox="0 0 18 20" id="play" xmlns="http://www.w3.org/2000/svg"><path d="M18 10L0 20V0l18 10z" fill="#fff"/></svg><svg fill="none" viewBox="0 0 12 12" id="plus" xmlns="http://www.w3.org/2000/svg"><path d="M6 1v10M1 6h10" stroke="#4778FF" stroke-width="2" stroke-linecap="round" stroke-linejoin="round"/></svg><svg fill="none" viewBox="0 0 32 32" id="skype" xmlns="http://www.w3.org/2000/svg"><g clip-path="url(#bdclip0_578_3822)"><path d="M16.065 25.63c-5.316 0-7.744-2.707-7.744-4.694a1.722 1.722 0 011.817-1.723c2.276 0 1.68 3.414 5.927 3.414 2.17 0 3.445-1.307 3.445-2.535 0-.737-.42-1.58-1.854-1.917l-4.742-1.196c-3.809-.97-4.473-3.087-4.473-5.052 0-4.078 3.73-5.554 7.281-5.554 3.272 0 7.16 1.807 7.16 4.252 0 1.054-.88 1.618-1.9 1.618-1.945 0-1.618-2.73-5.528-2.73-1.944 0-2.966.912-2.966 2.187s1.512 1.707 2.84 1.997l3.498.791c3.836.864 4.858 3.113 4.858 5.268 0 3.313-2.566 5.875-7.623 5.875m14.681-7.012c.152-.87.228-1.751.227-2.635a14.971 14.971 0 00-17.565-14.81A8.8 8.8 0 008.989 0a8.956 8.956 0 00-7.728 13.388 14.984 14.984 0 0017.343 17.437A8.81 8.81 0 0023.014 32a8.955 8.955 0 007.73-13.381z" fill="#00AAE8"/></g><defs><clipPath id="bdclip0_578_3822"><path fill="#fff" d="M0 0h32v32H0z"/></clipPath></defs></svg><svg fill="none" viewBox="0 0 32 32" id="telegram" xmlns="http://www.w3.org/2000/svg"><g clip-path="url(#beclip0_578_3815)"><path fill-rule="evenodd" clip-rule="evenodd" d="M16 0C7.164 0 0 7.164 0 16s7.164 16 16 16 16-7.164 16-16S24.836 0 16 0zm7.416 10.881c-.24 2.53-1.283 8.67-1.812 11.503-.224 1.2-.667 1.601-1.093 1.64-.93.085-1.635-.615-2.535-1.204-1.408-.923-2.204-1.497-3.57-2.399-1.58-1.041-.557-1.613.343-2.548.236-.245 4.33-3.969 4.41-4.306.009-.043.02-.2-.075-.283-.095-.083-.232-.055-.33-.032-.142.032-2.391 1.519-6.75 4.46-.639.439-1.217.652-1.736.641-.57-.012-1.67-.322-2.487-.589-1.001-.325-1.798-.499-1.729-1.05.036-.289.432-.583 1.19-.885 4.663-2.032 7.774-3.372 9.33-4.02 4.444-1.848 5.367-2.169 5.97-2.18.754-.01.935.612.874 1.252z" fill="#1C93CF"/></g><defs><clipPath id="beclip0_578_3815"><path fill="#fff" d="M0 0h32v32H0z"/></clipPath></defs></svg><svg fill="none" viewBox="0 0 32 32" id="whatsapp" xmlns="http://www.w3.org/2000/svg"><g clip-path="url(#bfclip0_578_3818)"><path fill-rule="evenodd" clip-rule="evenodd" d="M27.284 4.65A15.756 15.756 0 0016.067 0C7.327 0 .214 7.112.21 15.856a15.828 15.828 0 002.117 7.928L.077 32l8.405-2.205a15.84 15.84 0 007.577 1.93h.006c8.74 0 15.854-7.113 15.858-15.857a15.755 15.755 0 00-4.639-11.217zM16.067 29.048h-.006c-2.365 0-4.684-.636-6.707-1.838l-.482-.285-4.988 1.308 1.332-4.864-.313-.499a13.14 13.14 0 01-2.015-7.013C2.891 8.589 8.804 2.677 16.073 2.677c3.52 0 6.83 1.374 9.318 3.864a13.103 13.103 0 013.856 9.324c-.004 7.27-5.916 13.182-13.18 13.182zm7.23-9.871c-.397-.199-2.345-1.157-2.709-1.29-.363-.131-.627-.198-.892.198s-1.023 1.29-1.255 1.555c-.23.264-.462.297-.858.098-.396-.198-1.673-.616-3.187-1.966-1.177-1.051-1.973-2.348-2.204-2.746-.23-.397-.024-.61.174-.808.178-.177.396-.462.594-.694.2-.23.265-.395.399-.66.132-.264.066-.496-.034-.695-.1-.197-.891-2.148-1.22-2.941-.322-.774-.649-.668-.893-.68-.23-.012-.495-.014-.76-.014-.264 0-.693.099-1.056.496-.362.398-1.386 1.356-1.386 3.306s1.42 3.834 1.617 4.098c.197.264 2.793 4.267 6.768 5.983a22.94 22.94 0 002.259.835c.949.301 1.813.258 2.495.157.762-.113 2.345-.959 2.675-1.884.33-.925.33-1.72.23-1.884-.098-.167-.362-.265-.758-.464z" fill="#48A91F"/></g><defs><clipPath id="bfclip0_578_3818"><path fill="#fff" d="M0 0h32v32H0z"/></clipPath></defs></svg></svg>