<svg width="12" height="12" viewBox="0 0 12 12" fill="none" xmlns="http://www.w3.org/2000/svg">
<g opacity="0.75">
<path d="M5.9999 11.9994C9.31355 11.9994 11.9998 9.31327 11.9998 5.99972C11.9998 2.68617 9.31355 0 5.9999 0C2.68625 0 0 2.68617 0 5.99972C0 9.31327 2.68625 11.9994 5.9999 11.9994Z" fill="#1F5AFF"/>
<path d="M5.9999 11.9994C9.31355 11.9994 11.9998 9.31327 11.9998 5.99972C11.9998 2.68617 9.31355 0 5.9999 0C2.68625 0 0 2.68617 0 5.99972C0 9.31327 2.68625 11.9994 5.9999 11.9994Z" fill="url(#paint0_linear_584_1933)"/>
</g>
<g opacity="0.75">
<path d="M1.75781 10.243C2.88311 11.3681 4.4093 12.0002 6.00062 12.0001C7.59194 12 9.11805 11.3677 10.2432 10.2425C11.3684 9.1172 12.0004 7.59107 12.0004 5.99979C12.0003 4.40852 11.368 2.88246 10.2427 1.75732L1.75781 10.243Z" fill="#1F5AFF"/>
<path d="M1.75781 10.243C2.88311 11.3681 4.4093 12.0002 6.00062 12.0001C7.59194 12 9.11805 11.3677 10.2432 10.2425C11.3684 9.1172 12.0004 7.59107 12.0004 5.99979C12.0003 4.40852 11.368 2.88246 10.2427 1.75732L1.75781 10.243Z" fill="url(#paint1_linear_584_1933)"/>
</g>
<defs>
<linearGradient id="paint0_linear_584_1933" x1="5.9999" y1="-14.4115" x2="5.9999" y2="11.9994" gradientUnits="userSpaceOnUse">
<stop stop-color="#D5EBFF"/>
<stop offset="1" stop-color="#D5EBFF" stop-opacity="0"/>
</linearGradient>
<linearGradient id="paint1_linear_584_1933" x1="6.87908" y1="-10.5443" x2="6.87908" y2="12.0001" gradientUnits="userSpaceOnUse">
<stop stop-color="#D5EBFF"/>
<stop offset="1" stop-color="#D5EBFF" stop-opacity="0"/>
</linearGradient>
</defs>
</svg>
