<svg width="16" height="16" viewBox="0 0 16 16" fill="none" xmlns="http://www.w3.org/2000/svg">
<path fill-rule="evenodd" clip-rule="evenodd" d="M10.3333 2C9.78105 2 9.33333 1.55228 9.33333 1C9.33333 0.447715 9.78105 0 10.3333 0H15C15.5523 0 16 0.447715 16 1V5.66667C16 6.21895 15.5523 6.66667 15 6.66667C14.4477 6.66667 14 6.21895 14 5.66667V3.41421L7.15155 10.2627C6.76103 10.6532 6.12786 10.6532 5.73734 10.2627C5.34681 9.87214 5.34681 9.23897 5.73734 8.84845L12.5858 2H10.3333ZM2.55556 4.33333C2.40821 4.33333 2.26691 4.39186 2.16272 4.49605C2.05853 4.60024 2 4.74155 2 4.88889V13.4444C2 13.5918 2.05853 13.7331 2.16272 13.8373C2.26691 13.9415 2.40821 14 2.55556 14H11.1111C11.2585 14 11.3998 13.9415 11.5039 13.8373C11.6081 13.7331 11.6667 13.5918 11.6667 13.4444V9.77778C11.6667 9.22549 12.1144 8.77778 12.6667 8.77778C13.219 8.77778 13.6667 9.22549 13.6667 9.77778V13.4444C13.6667 14.1222 13.3974 14.7722 12.9182 15.2515C12.4389 15.7308 11.7889 16 11.1111 16H2.55556C1.87778 16 1.22776 15.7308 0.748505 15.2515C0.269245 14.7722 0 14.1222 0 13.4444V4.88889C0 4.21111 0.269245 3.5611 0.748505 3.08184C1.22776 2.60258 1.87778 2.33333 2.55556 2.33333H6.22222C6.77451 2.33333 7.22222 2.78105 7.22222 3.33333C7.22222 3.88562 6.77451 4.33333 6.22222 4.33333H2.55556Z" fill="#0F5EB8"/>
</svg>
