<svg width="16" height="16" viewBox="0 0 16 16" fill="none" xmlns="http://www.w3.org/2000/svg">
<path fill-rule="evenodd" clip-rule="evenodd" d="M9.64218 0.768362C9.64218 0.344007 9.98619 0 10.4105 0H15.2316C15.656 0 16 0.344007 16 0.768362V5.58945C16 6.01381 15.656 6.35781 15.2316 6.35781C14.8073 6.35781 14.4633 6.01381 14.4633 5.58945V2.62335L6.93628 10.1503C6.63622 10.4504 6.14972 10.4504 5.84966 10.1503C5.54959 9.85028 5.54959 9.36378 5.84966 9.06372L13.3766 1.53672H10.4105C9.98619 1.53672 9.64218 1.19272 9.64218 0.768362ZM2.37539 3.94727C2.15296 3.94727 1.93964 4.03563 1.78236 4.19291C1.62508 4.35019 1.53672 4.56351 1.53672 4.78594V13.6246C1.53672 13.847 1.62508 14.0604 1.78236 14.2176C1.93964 14.3749 2.15296 14.4633 2.37539 14.4633H11.2141C11.4365 14.4633 11.6498 14.3749 11.8071 14.2176C11.9644 14.0604 12.0527 13.847 12.0527 13.6246V8.80352C12.0527 8.37916 12.3967 8.03515 12.8211 8.03515C13.2454 8.03515 13.5895 8.37916 13.5895 8.80352V13.6246C13.5895 14.2546 13.3392 14.8588 12.8937 15.3043C12.4482 15.7497 11.8441 16 11.2141 16H2.37539C1.7454 16 1.14121 15.7497 0.695736 15.3043C0.250264 14.8588 0 14.2546 0 13.6246V4.78594C0 4.15594 0.250264 3.55175 0.695736 3.10628C1.14121 2.66081 1.7454 2.41055 2.37539 2.41055H7.19648C7.62084 2.41055 7.96485 2.75455 7.96485 3.17891C7.96485 3.60326 7.62084 3.94727 7.19648 3.94727H2.37539Z" fill="#0070E0"/>
</svg>
