<svg width="27" height="21" viewBox="0 0 27 21" fill="none" xmlns="http://www.w3.org/2000/svg">
<path d="M25.586 1.55285C24.8816 0.849881 23.9271 0.455078 22.9319 0.455078C21.9368 0.455078 20.9823 0.849881 20.2779 1.55285L10.5181 11.3125L6.55151 7.34595C6.20332 6.99584 5.78947 6.71788 5.33367 6.52798C4.87787 6.33808 4.38908 6.23998 3.89531 6.2393C3.40153 6.23862 2.91248 6.33538 2.45616 6.52403C1.99984 6.71267 1.58523 6.9895 1.23607 7.33865C0.886921 7.68781 0.610093 8.10242 0.421447 8.55874C0.2328 9.01506 0.136044 9.50411 0.136722 9.99789C0.1374 10.4917 0.235499 10.9805 0.425398 11.4363C0.615296 11.8921 0.893263 12.3059 1.24337 12.6541L7.59212 19.0028C8.36869 19.7778 9.42101 20.2131 10.5181 20.2131C11.6153 20.2131 12.6676 19.7778 13.4441 19.0028L25.586 6.86099C26.289 6.15659 26.6838 5.20208 26.6838 4.20692C26.6838 3.21176 26.289 2.25725 25.586 1.55285V1.55285ZM24.4158 5.69078L12.2739 17.8326C11.8079 18.2976 11.1765 18.5588 10.5181 18.5588C9.8598 18.5588 9.22835 18.2976 8.76232 17.8326L2.41358 11.4839C2.02228 11.0899 1.80309 10.5568 1.80405 10.0015C1.80501 9.44622 2.02603 8.91393 2.41869 8.52127C2.81135 8.12861 3.34364 7.90759 3.89894 7.90663C4.45425 7.90568 4.98729 8.12486 5.3813 8.51616L9.93303 13.0679C10.0098 13.1448 10.101 13.2058 10.2014 13.2474C10.3018 13.289 10.4095 13.3104 10.5181 13.3104C10.6268 13.3104 10.7344 13.289 10.8348 13.2474C10.9352 13.2058 11.0264 13.1448 11.1032 13.0679L21.4481 2.72306C21.8421 2.33175 22.3751 2.11257 22.9304 2.11353C23.4857 2.11449 24.018 2.33551 24.4107 2.72817C24.8033 3.12083 25.0244 3.65311 25.0253 4.20842C25.0263 4.76372 24.8071 5.29677 24.4158 5.69078V5.69078Z" fill="white"/>
</svg>
