<svg width="26" height="22" viewBox="0 0 26 22" fill="none" xmlns="http://www.w3.org/2000/svg"><path fill-rule="evenodd" clip-rule="evenodd" d="M14.857 1.467h-3.714a.37.37 0 00-.372.366v18.334a.37.37 0 00.372.366h3.714a.369.369 0 00.372-.366V1.833a.37.37 0 00-.372-.366zm9.286 3.666h-3.714a.37.37 0 00-.372.367v14.667c0 .202.166.366.372.366h3.714a.369.369 0 00.371-.366V5.5a.37.37 0 00-.371-.367zM5.57 8.8H1.857a.37.37 0 00-.371.367v11c0 .202.166.366.371.366h3.714a.369.369 0 00.372-.366v-11A.37.37 0 005.57 8.8zm3.715-6.967A1.847 1.847 0 0111.143 0h3.714c1.026 0 1.857.82 1.857 1.833v18.334A1.845 1.845 0 0114.857 22h-3.714a1.845 1.845 0 01-1.857-1.833V1.833zM18.57 5.5c0-1.013.832-1.833 1.858-1.833h3.714c1.026 0 1.857.82 1.857 1.833v14.667A1.845 1.845 0 0124.143 22h-3.714a1.845 1.845 0 01-1.858-1.833V5.5zM1.857 7.333A1.845 1.845 0 000 9.167v11C0 21.179.831 22 1.857 22h3.714c1.026 0 1.858-.82 1.858-1.833v-11A1.845 1.845 0 005.57 7.333H1.857z" fill="#fff"/></svg>