<svg width="32" height="32" viewBox="0 0 32 32" fill="none" xmlns="http://www.w3.org/2000/svg"><g clip-path="url(#clip0_578_3822)"><path d="M16.065 25.63c-5.316 0-7.744-2.707-7.744-4.694a1.722 1.722 0 011.817-1.723c2.276 0 1.68 3.414 5.927 3.414 2.17 0 3.445-1.307 3.445-2.535 0-.737-.42-1.58-1.854-1.917l-4.742-1.196c-3.809-.97-4.473-3.087-4.473-5.052 0-4.078 3.73-5.554 7.281-5.554 3.272 0 7.16 1.807 7.16 4.252 0 1.054-.88 1.618-1.9 1.618-1.945 0-1.618-2.73-5.528-2.73-1.944 0-2.966.912-2.966 2.187s1.512 1.707 2.84 1.997l3.498.791c3.836.864 4.858 3.113 4.858 5.268 0 3.313-2.566 5.875-7.623 5.875m14.681-7.012c.152-.87.228-1.751.227-2.635a14.971 14.971 0 00-17.565-14.81A8.8 8.8 0 008.989 0a8.956 8.956 0 00-7.728 13.388 14.984 14.984 0 0017.343 17.437A8.81 8.81 0 0023.014 32a8.955 8.955 0 007.73-13.381z" fill="#00AAE8"/></g><defs><clipPath id="clip0_578_3822"><path fill="#fff" d="M0 0h32v32H0z"/></clipPath></defs></svg>