<svg width="32" height="32" viewBox="0 0 32 32" fill="none" xmlns="http://www.w3.org/2000/svg"><g clip-path="url(#clip0_578_3818)"><path fill-rule="evenodd" clip-rule="evenodd" d="M27.284 4.65A15.756 15.756 0 0016.067 0C7.327 0 .214 7.112.21 15.856a15.828 15.828 0 002.117 7.928L.077 32l8.405-2.205a15.84 15.84 0 007.577 1.93h.006c8.74 0 15.854-7.113 15.858-15.857a15.755 15.755 0 00-4.639-11.217zM16.067 29.048h-.006c-2.365 0-4.684-.636-6.707-1.838l-.482-.285-4.988 1.308 1.332-4.864-.313-.499a13.14 13.14 0 01-2.015-7.013c.003-7.268 5.916-13.18 13.185-13.18 3.52 0 6.83 1.374 9.318 3.864a13.103 13.103 0 013.856 9.324c-.004 7.27-5.916 13.182-13.18 13.182zm7.23-9.871c-.397-.199-2.345-1.157-2.709-1.29-.363-.131-.627-.198-.892.198s-1.023 1.29-1.255 1.555c-.23.264-.462.297-.858.098-.396-.198-1.673-.616-3.187-1.966-1.177-1.051-1.973-2.348-2.204-2.746-.23-.397-.024-.61.174-.808.178-.177.396-.462.594-.694.2-.23.265-.395.399-.66.132-.264.066-.496-.034-.695-.1-.197-.891-2.148-1.22-2.941-.322-.774-.649-.668-.893-.68-.23-.012-.495-.014-.76-.014-.264 0-.693.099-1.056.496-.362.398-1.386 1.356-1.386 3.306s1.42 3.834 1.617 4.098c.197.264 2.793 4.267 6.768 5.983a22.94 22.94 0 002.259.835c.949.301 1.813.258 2.495.157.762-.113 2.345-.959 2.675-1.884.33-.925.33-1.72.23-1.884-.098-.167-.362-.265-.758-.464z" fill="#48A91F"/></g><defs><clipPath id="clip0_578_3818"><path fill="#fff" d="M0 0h32v32H0z"/></clipPath></defs></svg>