<svg width="120" height="122" viewBox="0 0 120 122" fill="none" xmlns="http://www.w3.org/2000/svg"><path d="M54.962 4.085a8 8 0 0110.076 0l2.003 1.624a8 8 0 007.287 1.463l2.439-.714a8 8 0 019.277 3.856l1.304 2.399a8 8 0 006.118 4.127l2.622.3a8 8 0 017.041 7.067l.32 2.889a7.999 7.999 0 004.033 6.093l2.454 1.379a8 8 0 013.778 9.155l-.819 2.889a8.002 8.002 0 001.402 7.118l1.83 2.333a8 8 0 010 9.874l-1.83 2.333a8.002 8.002 0 00-1.402 7.118l.819 2.889a8 8 0 01-3.778 9.156l-2.454 1.378a7.999 7.999 0 00-4.033 6.094l-.32 2.888a8 8 0 01-7.04 7.067l-2.623.3a8.002 8.002 0 00-6.118 4.127l-1.304 2.399a8 8 0 01-9.277 3.856l-2.439-.714a7.999 7.999 0 00-7.287 1.463l-2.003 1.624a8 8 0 01-10.076 0l-2.003-1.624a7.999 7.999 0 00-7.287-1.463l-2.439.714a8 8 0 01-9.277-3.856l-1.304-2.399a8.002 8.002 0 00-6.118-4.127l-2.622-.3a8 8 0 01-7.041-7.067l-.32-2.888a8 8 0 00-4.033-6.094l-2.454-1.379a8 8 0 01-3.778-9.155l.819-2.889a8 8 0 00-1.403-7.118l-1.83-2.333a8 8 0 010-9.874l1.83-2.333a8 8 0 001.403-7.118l-.819-2.889a8 8 0 013.778-9.155l2.454-1.38a8 8 0 004.033-6.093l.32-2.888a8 8 0 017.04-7.067l2.623-.3a8 8 0 006.118-4.127l1.304-2.399a8 8 0 019.277-3.856l2.439.714a8 8 0 007.287-1.463l2.003-1.624z" fill="url(#paint0_linear_2169_14024)"/><path d="M80.289 43.757a12.615 12.615 0 00-4.096-2.783 12.444 12.444 0 00-9.664 0 12.615 12.615 0 00-4.096 2.783L60 46.23l-2.432-2.473a12.522 12.522 0 00-8.928-3.76c-3.349 0-6.56 1.353-8.928 3.76a12.946 12.946 0 00-3.698 9.077c0 3.404 1.33 6.67 3.698 9.076l2.432 2.474L60 82.537l17.856-18.153 2.433-2.474a12.85 12.85 0 002.738-4.164 13.02 13.02 0 000-9.825 12.85 12.85 0 00-2.738-4.164z" fill="#fff"/><defs><linearGradient id="paint0_linear_2169_14024" x1="0" y1="61" x2="120" y2="61" gradientUnits="userSpaceOnUse"><stop stop-color="#0155AB"/><stop offset="1" stop-color="#05ADFF"/></linearGradient></defs></svg>