<svg width="400" height="72" viewBox="0 0 400 72" fill="none" xmlns="http://www.w3.org/2000/svg">
<path fill-rule="evenodd" clip-rule="evenodd" d="M83.2281 26.6784H102.984C104.447 26.6784 105.087 26.0464 105.087 24.6922C105.087 23.1574 104.355 22.4351 102.984 22.4351H87.7097V16.9279H102.984C104.447 16.9279 105.087 16.2057 105.087 14.6709C105.087 13.4069 104.355 12.7749 102.984 12.7749H83.2281V26.6784ZM76.7344 6.63576H104.63C109.477 6.63576 111.855 8.80253 111.855 13.2264C111.855 15.032 111.489 16.4765 110.666 17.4696C109.843 18.4627 108.746 19.185 107.282 19.4558C108.746 19.7267 109.843 20.4489 110.666 21.5323C111.489 22.6157 111.855 24.1505 111.855 26.1367C111.855 30.5605 109.477 32.7273 104.63 32.7273H76.7344V6.63576ZM144.964 12.7749H129.69C128.318 12.7749 127.221 12.8652 126.398 13.1361C125.483 13.4069 124.843 13.768 124.294 14.3097C123.745 14.8514 123.379 15.5737 123.196 16.4765C123.013 17.3793 122.831 18.4627 122.831 19.817V26.5881H138.104C139.385 26.5881 140.482 26.4978 141.397 26.3173C142.312 26.1367 142.952 25.7756 143.501 25.2339C144.049 24.6922 144.415 23.9699 144.69 23.0671C144.964 22.1643 145.055 21.0809 145.055 19.7267V12.7749H144.964ZM151.458 6.63576V19.7267C151.458 21.7129 151.183 23.6088 150.543 25.1436C149.994 26.7687 149.08 28.1229 147.982 29.2063C146.885 30.2897 145.421 31.1925 143.867 31.7342C142.22 32.3662 140.391 32.637 138.287 32.637H116.428V19.5461C116.428 17.5599 116.703 15.7543 117.343 14.1292C117.983 12.5041 118.806 11.1499 119.995 10.0665C121.093 8.9831 122.556 8.08027 124.111 7.44829C125.757 6.81632 127.587 6.54547 129.69 6.54547L151.458 6.63576ZM162.342 32.7273H155.939V19.6364C155.939 17.6502 156.214 15.8445 156.854 14.2195C157.494 12.5944 158.317 11.2401 159.506 10.1568C160.695 8.98309 162.067 8.17055 163.713 7.53858C165.36 6.90661 167.189 6.63576 169.201 6.63576H189.505V12.7749H169.293C167.372 12.7749 165.817 13.1361 164.811 13.768C163.805 14.4903 163.073 15.3931 162.707 16.7474C162.342 19.0947 162.342 21.2615 162.342 26.4978V32.7273ZM226.547 32.7273H192.981V19.6364C192.981 17.6502 193.255 15.8445 193.895 14.2195C194.536 12.5944 195.359 11.2401 196.548 10.1568C197.737 8.98309 199.109 8.17055 200.755 7.53858C202.401 6.90661 204.231 6.63576 206.243 6.63576H226.547V12.7749H206.334C204.413 12.7749 202.859 13.1361 201.853 13.768C200.846 14.4903 200.115 15.3931 199.749 16.7474H222.431V22.6157H199.383V26.4978H226.455V32.7273H226.547ZM262.857 6.63576V16.1154C262.857 18.0113 260.845 18.8238 259.93 19.5461C260.753 20.1781 262.491 20.7198 262.674 22.8865C262.674 23.6991 262.308 24.5116 262.034 25.2339C261.485 26.859 260.57 28.2132 259.473 29.2966C258.375 30.38 257.003 31.2828 255.357 31.8245C253.711 32.4564 251.882 32.7273 249.778 32.7273H230.388V26.4978H249.686C251.607 26.4978 253.162 26.227 254.168 25.595C255.174 24.963 255.906 23.9699 256.272 22.6157H241.364V16.7474H256.638V12.7749H240.998H230.48V6.63576H242.37H262.857Z" fill="white"/>
<path fill-rule="evenodd" clip-rule="evenodd" d="M26.4271 0.282948C22.3471 0.282948 19.009 6.31911 19.009 13.5814V51.7789C19.009 59.1354 22.3471 65.0773 26.4271 65.0773V0.282948ZM29.0235 65.2659L51.927 44.2337C53.5033 42.819 54.3379 40.8384 54.4306 38.8577C54.5233 36.8771 53.8742 34.8022 52.4833 33.2932C51.2779 31.9728 49.6088 31.0296 47.9397 30.841H47.847C49.3306 28.2002 49.0524 24.7105 46.9197 22.3526C46.5488 21.9754 46.2706 21.6924 45.8997 21.4095L28.9307 3.96124V0L48.5888 20.0891C48.7743 20.2777 48.867 20.372 49.0525 20.5606C49.9797 21.5981 50.6288 22.7299 50.9997 23.956C51.4633 25.1821 51.6488 26.5025 51.5561 27.8229C51.5561 28.2945 51.4633 28.766 51.3706 29.2376C52.5761 29.8035 53.5961 30.6523 54.5233 31.5955C55.4506 32.633 56.1924 33.859 56.5633 35.1795C57.027 36.4999 57.2124 37.9146 57.1197 39.235C57.027 40.6497 56.7488 41.9701 56.0997 43.1962C55.5433 44.4223 54.7088 45.5541 53.6888 46.4972L33.0107 65.4545H29.0235V65.2659ZM29.1162 44.4223L44.5088 30.2751C46.1779 28.766 46.3634 26.0309 44.787 24.3332C43.3034 22.6356 40.6143 22.4469 38.9452 24.0503L29.0235 33.1989L29.1162 44.4223ZM29.0235 48.5722V61.2104L49.9797 42.0644C51.8343 40.3668 52.0197 37.3487 50.3506 35.4624C48.6815 33.5761 45.7143 33.3875 43.8598 35.0852L29.0235 48.5722ZM8.06723 46.4972V20.2777C6.5836 21.0322 5.1927 22.0697 3.98725 23.2958C2.41089 24.8991 1.29817 26.9741 0.556361 29.2376C0.185454 30.558 0 31.9727 0 33.4818C0 34.9908 0.185454 36.3112 0.556361 37.726C1.57636 41.3099 3.98725 44.328 7.04723 46.12C7.41814 46.2143 7.69632 46.3086 8.06723 46.4972ZM17.2472 10.3746C13.1672 10.3746 9.82904 14.5245 9.82904 19.5232V45.837C9.82904 50.93 13.1672 54.9856 17.2472 54.9856V10.3746Z" fill="white"/>
<path d="M82.9522 53.9089H79.2628V63.8182H77.5425V53.9089H73.8945V52.4339H82.9522V53.9089Z" fill="white"/>
<path d="M89.9994 64.0259C88.3206 64.0259 86.994 63.5135 86.0198 62.4886C85.0526 61.4638 84.569 60.0407 84.569 58.2195C84.569 56.3845 85.018 54.9268 85.9162 53.8466C86.8213 52.7663 88.0338 52.2262 89.5538 52.2262C90.9771 52.2262 92.1032 52.6971 92.9323 53.6388C93.7614 54.5737 94.1759 55.8097 94.1759 57.347V58.4377H86.3515C86.386 59.7741 86.7211 60.7886 87.3567 61.4811C87.9993 62.1736 88.9009 62.5198 90.0616 62.5198C91.2845 62.5198 92.4936 62.2636 93.6889 61.7511V63.2884C93.0809 63.5516 92.504 63.7385 91.9581 63.8493C91.4192 63.9671 90.7663 64.0259 89.9994 64.0259ZM89.5331 53.67C88.6211 53.67 87.8922 53.9678 87.3464 54.5633C86.8075 55.1588 86.4897 55.9829 86.3929 57.0354H92.3312C92.3312 55.9482 92.0894 55.1173 91.6058 54.5425C91.1222 53.9608 90.4313 53.67 89.5331 53.67Z" fill="white"/>
<path d="M98.8395 63.8182H97.1192V52.4339H106.654V63.8182H104.913V53.9297H98.8395V63.8182Z" fill="white"/>
<path d="M118.769 63.8182H117.028V53.9089H113.618C113.431 56.3741 113.172 58.3303 112.841 59.7776C112.509 61.2249 112.077 62.2843 111.545 62.956C111.02 63.6277 110.35 63.9636 109.535 63.9636C109.162 63.9636 108.865 63.922 108.643 63.8389V62.5613C108.795 62.6029 108.968 62.6237 109.162 62.6237C109.956 62.6237 110.588 61.7823 111.058 60.0996C111.528 58.4169 111.884 55.8617 112.126 52.4339H118.769V63.8182Z" fill="white"/>
<path d="M132.231 58.1157C132.231 59.9715 131.764 61.4222 130.832 62.4679C129.899 63.5066 128.61 64.0259 126.966 64.0259C125.95 64.0259 125.049 63.787 124.261 63.3092C123.474 62.8314 122.866 62.1459 122.437 61.2526C122.009 60.3593 121.795 59.3136 121.795 58.1157C121.795 56.2598 122.258 54.816 123.183 53.7843C124.109 52.7455 125.394 52.2262 127.039 52.2262C128.628 52.2262 129.889 52.7559 130.821 53.8154C131.761 54.8749 132.231 56.3083 132.231 58.1157ZM123.577 58.1157C123.577 59.5699 123.867 60.6778 124.448 61.4395C125.028 62.2012 125.881 62.5821 127.008 62.5821C128.134 62.5821 128.987 62.2047 129.567 61.4499C130.155 60.6882 130.448 59.5768 130.448 58.1157C130.448 56.6684 130.155 55.5708 129.567 54.823C128.987 54.0682 128.127 53.6908 126.987 53.6908C125.861 53.6908 125.011 54.0612 124.437 54.8022C123.864 55.5431 123.577 56.6476 123.577 58.1157Z" fill="white"/>
<path d="M142.916 53.9089H139.226V63.8182H137.506V53.9089H133.858V52.4339H142.916V53.9089Z" fill="white"/>
<path d="M149.963 64.0259C148.284 64.0259 146.957 63.5135 145.983 62.4886C145.016 61.4638 144.532 60.0407 144.532 58.2195C144.532 56.3845 144.981 54.9268 145.88 53.8466C146.785 52.7663 147.997 52.2262 149.517 52.2262C150.94 52.2262 152.067 52.6971 152.896 53.6388C153.725 54.5737 154.139 55.8097 154.139 57.347V58.4377H146.315C146.349 59.7741 146.684 60.7886 147.32 61.4811C147.963 62.1736 148.864 62.5198 150.025 62.5198C151.248 62.5198 152.457 62.2636 153.652 61.7511V63.2884C153.044 63.5516 152.467 63.7385 151.921 63.8493C151.383 63.9671 150.73 64.0259 149.963 64.0259ZM149.496 53.67C148.584 53.67 147.856 53.9678 147.31 54.5633C146.771 55.1588 146.453 55.9829 146.356 57.0354H152.295C152.295 55.9482 152.053 55.1173 151.569 54.5425C151.085 53.9608 150.395 53.67 149.496 53.67Z" fill="white"/>
<path d="M159.818 57.991L155.87 52.4339H157.829L160.824 56.7965L163.808 52.4339H165.746L161.798 57.991L165.954 63.8182H164.005L160.824 59.2063L157.611 63.8182H155.663L159.818 57.991Z" fill="white"/>
<path d="M169.933 52.4339V57.2016H176.296V52.4339H178.017V63.8182H176.296V58.687H169.933V63.8182H168.213V52.4339H169.933Z" fill="white"/>
<path d="M183.281 52.4339V59.653L183.209 61.5434L183.178 62.1355L189.323 52.4339H191.469V63.8182H189.862V56.8588L189.893 55.4877L189.945 54.1374L183.81 63.8182H181.665V52.4339H183.281Z" fill="white"/>
<path d="M201.739 52.4339H203.625L198.723 57.9287L204.029 63.8182H202.019L196.837 58.0533V63.8182H195.117V52.4339H196.837V57.9702L201.739 52.4339Z" fill="white"/>
<path d="M213.128 63.8182L212.786 62.1978H212.704C212.137 62.911 211.57 63.3958 211.004 63.652C210.444 63.9013 209.743 64.0259 208.9 64.0259C207.774 64.0259 206.89 63.7351 206.247 63.1534C205.611 62.5717 205.294 61.7442 205.294 60.6709C205.294 58.3719 207.128 57.167 210.797 57.0562L212.724 56.9939V56.2875C212.724 55.3943 212.531 54.7364 212.144 54.314C211.764 53.8847 211.152 53.67 210.31 53.67C209.363 53.67 208.292 53.9608 207.097 54.5425L206.568 53.2234C207.128 52.9187 207.739 52.6798 208.403 52.5066C209.073 52.3335 209.743 52.247 210.413 52.247C211.767 52.247 212.769 52.5482 213.419 53.1506C214.075 53.7531 214.403 54.7191 214.403 56.0486V63.8182H213.128ZM209.242 62.6029C210.313 62.6029 211.152 62.3086 211.76 61.72C212.375 61.1314 212.683 60.3073 212.683 59.2479V58.2195L210.962 58.2922C209.594 58.3407 208.606 58.5554 207.998 58.9362C207.397 59.3102 207.097 59.8953 207.097 60.6917C207.097 61.3149 207.283 61.7892 207.656 62.1147C208.036 62.4402 208.565 62.6029 209.242 62.6029Z" fill="white"/>
<path d="M225.088 52.4339V59.653L225.015 61.5434L224.984 62.1355L231.13 52.4339H233.275V63.8182H231.669V56.8588L231.7 55.4877L231.752 54.1374L225.616 63.8182H223.471V52.4339H225.088Z" fill="white"/>
<path d="M249.421 63.8182L249.079 62.1978H248.997C248.43 62.911 247.863 63.3958 247.297 63.652C246.737 63.9013 246.036 64.0259 245.193 64.0259C244.067 64.0259 243.183 63.7351 242.54 63.1534C241.904 62.5717 241.587 61.7442 241.587 60.6709C241.587 58.3719 243.421 57.167 247.09 57.0562L249.017 56.9939V56.2875C249.017 55.3943 248.824 54.7364 248.437 54.314C248.057 53.8847 247.445 53.67 246.603 53.67C245.656 53.67 244.585 53.9608 243.39 54.5425L242.861 53.2234C243.421 52.9187 244.032 52.6798 244.696 52.5066C245.366 52.3335 246.036 52.247 246.706 52.247C248.06 52.247 249.062 52.5482 249.712 53.1506C250.368 53.7531 250.696 54.7191 250.696 56.0486V63.8182H249.421ZM245.535 62.6029C246.606 62.6029 247.445 62.3086 248.053 61.72C248.668 61.1314 248.976 60.3073 248.976 59.2479V58.2195L247.255 58.2922C245.888 58.3407 244.9 58.5554 244.292 58.9362C243.69 59.3102 243.39 59.8953 243.39 60.6917C243.39 61.3149 243.576 61.7892 243.95 62.1147C244.33 62.4402 244.858 62.6029 245.535 62.6029Z" fill="white"/>
<path d="M263.464 55.2904C263.464 56.0313 263.25 56.5957 262.822 56.9835C262.4 57.3643 261.806 57.6206 261.039 57.7521V57.8456C262.006 57.9772 262.711 58.2611 263.153 58.6973C263.602 59.1336 263.827 59.7361 263.827 60.5047C263.827 61.5642 263.436 62.3813 262.656 62.956C261.882 63.5308 260.749 63.8182 259.256 63.8182H254.251V52.4339H259.236C262.055 52.4339 263.464 53.3861 263.464 55.2904ZM262.106 60.3904C262.106 59.7741 261.872 59.3275 261.402 59.0505C260.939 58.7666 260.168 58.6246 259.091 58.6246H255.971V62.3744H259.132C261.115 62.3744 262.106 61.7131 262.106 60.3904ZM261.785 55.4566C261.785 54.9026 261.571 54.5114 261.143 54.2828C260.721 54.0474 260.079 53.9297 259.215 53.9297H255.971V57.1393H258.883C259.947 57.1393 260.697 57.0077 261.132 56.7446C261.568 56.4814 261.785 56.0521 261.785 55.4566Z" fill="white"/>
<path d="M273.993 53.9089H270.304V63.8182H268.584V53.9089H264.936V52.4339H273.993V53.9089Z" fill="white"/>
<path d="M286.046 58.1157C286.046 59.9715 285.58 61.4222 284.647 62.4679C283.714 63.5066 282.426 64.0259 280.781 64.0259C279.766 64.0259 278.864 63.787 278.077 63.3092C277.289 62.8314 276.681 62.1459 276.253 61.2526C275.824 60.3593 275.61 59.3136 275.61 58.1157C275.61 56.2598 276.073 54.816 276.999 53.7843C277.925 52.7455 279.21 52.2262 280.854 52.2262C282.443 52.2262 283.704 52.7559 284.637 53.8154C285.576 54.8749 286.046 56.3083 286.046 58.1157ZM277.393 58.1157C277.393 59.5699 277.683 60.6778 278.263 61.4395C278.844 62.2012 279.697 62.5821 280.823 62.5821C281.949 62.5821 282.802 62.2047 283.383 61.4499C283.97 60.6882 284.264 59.5768 284.264 58.1157C284.264 56.6684 283.97 55.5708 283.383 54.823C282.802 54.0682 281.942 53.6908 280.802 53.6908C279.676 53.6908 278.826 54.0612 278.253 54.8022C277.679 55.5431 277.393 56.6476 277.393 58.1157Z" fill="white"/>
<path d="M294.969 62.1562L295.29 61.1902L295.736 59.9646L298.814 52.4547H301.001V63.8182H299.477V54.4179L299.27 55.0203L298.669 56.6095L295.736 63.8182H294.296L291.363 56.5888C290.996 55.6609 290.744 54.9372 290.606 54.4179V63.8182H289.072V52.4547H291.176L294.15 59.6737C294.448 60.4354 294.72 61.263 294.969 62.1562Z" fill="white"/>
<path d="M311.665 63.8182L311.323 62.1978H311.24C310.673 62.911 310.107 63.3958 309.54 63.652C308.981 63.9013 308.279 64.0259 307.436 64.0259C306.31 64.0259 305.426 63.7351 304.783 63.1534C304.148 62.5717 303.83 61.7442 303.83 60.6709C303.83 58.3719 305.664 57.167 309.333 57.0562L311.261 56.9939V56.2875C311.261 55.3943 311.067 54.7364 310.68 54.314C310.3 53.8847 309.689 53.67 308.846 53.67C307.899 53.67 306.828 53.9608 305.633 54.5425L305.105 53.2234C305.664 52.9187 306.276 52.6798 306.939 52.5066C307.609 52.3335 308.279 52.247 308.95 52.247C310.304 52.247 311.305 52.5482 311.955 53.1506C312.611 53.7531 312.939 54.7191 312.939 56.0486V63.8182H311.665ZM307.778 62.6029C308.849 62.6029 309.689 62.3086 310.297 61.72C310.912 61.1314 311.219 60.3073 311.219 59.2479V58.2195L309.499 58.2922C308.131 58.3407 307.143 58.5554 306.535 58.9362C305.934 59.3102 305.633 59.8953 305.633 60.6917C305.633 61.3149 305.82 61.7892 306.193 62.1147C306.573 62.4402 307.101 62.6029 307.778 62.6029Z" fill="white"/>
<path d="M324.153 53.9089H320.463V63.8182H318.743V53.9089H315.095V52.4339H324.153V53.9089Z" fill="white"/>
<path d="M328.018 52.4339V59.653L327.946 61.5434L327.915 62.1355L334.06 52.4339H336.206V63.8182H334.599V56.8588L334.63 55.4877L334.682 54.1374L328.547 63.8182H326.402V52.4339H328.018Z" fill="white"/>
<path d="M342.02 57.1601C344.168 57.1601 345.243 56.5645 345.243 55.3735C345.243 54.2517 344.372 53.6908 342.631 53.6908C342.099 53.6908 341.615 53.7392 341.18 53.8362C340.745 53.9331 340.175 54.127 339.47 54.4179L338.859 53.0156C340.033 52.4893 341.315 52.2262 342.704 52.2262C344.009 52.2262 345.039 52.4963 345.792 53.0364C346.545 53.5696 346.921 54.3001 346.921 55.2281C346.921 56.5022 346.213 57.3366 344.797 57.7313V57.8144C345.667 58.0707 346.303 58.4377 346.704 58.9155C347.105 59.3864 347.305 59.9784 347.305 60.6917C347.305 61.7442 346.88 62.5648 346.03 63.1534C345.187 63.7351 344.02 64.0259 342.527 64.0259C340.89 64.0259 339.626 63.7801 338.734 63.2884V61.7096C339.999 62.3051 341.277 62.6029 342.569 62.6029C343.564 62.6029 344.313 62.4332 344.818 62.0939C345.329 61.7477 345.585 61.2526 345.585 60.6086C345.585 59.2859 344.51 58.6246 342.362 58.6246H340.786V57.1601H342.02Z" fill="white"/>
<path d="M357.098 63.8182L356.756 62.1978H356.674C356.107 62.911 355.54 63.3958 354.974 63.652C354.414 63.9013 353.713 64.0259 352.87 64.0259C351.744 64.0259 350.86 63.7351 350.217 63.1534C349.581 62.5717 349.264 61.7442 349.264 60.6709C349.264 58.3719 351.098 57.167 354.767 57.0562L356.694 56.9939V56.2875C356.694 55.3943 356.501 54.7364 356.114 54.314C355.734 53.8847 355.122 53.67 354.28 53.67C353.333 53.67 352.262 53.9608 351.067 54.5425L350.538 53.2234C351.098 52.9187 351.709 52.6798 352.373 52.5066C353.043 52.3335 353.713 52.247 354.383 52.247C355.737 52.247 356.739 52.5482 357.389 53.1506C358.045 53.7531 358.373 54.7191 358.373 56.0486V63.8182H357.098ZM353.212 62.6029C354.283 62.6029 355.122 62.3086 355.73 61.72C356.345 61.1314 356.653 60.3073 356.653 59.2479V58.2195L354.932 58.2922C353.564 58.3407 352.577 58.5554 351.969 58.9362C351.367 59.3102 351.067 59.8953 351.067 60.6917C351.067 61.3149 351.253 61.7892 351.626 62.1147C352.007 62.4402 352.535 62.6029 353.212 62.6029Z" fill="white"/>
<path d="M373.006 67.7549H371.286V63.8182H361.928V52.4339H363.648V62.3328H369.68V52.4339H371.4V62.3328H373.006V67.7549Z" fill="white"/>
<path d="M376.831 52.4339V59.653L376.758 61.5434L376.727 62.1355L382.873 52.4339H385.018V63.8182H383.411V56.8588L383.443 55.4877L383.494 54.1374L377.359 63.8182H375.214V52.4339H376.831Z" fill="white"/>
<path d="M389.236 63.8182H387.225L390.49 59.009C389.612 58.8151 388.939 58.4411 388.469 57.8872C388.006 57.3262 387.774 56.6234 387.774 55.7786C387.774 54.7399 388.123 53.9228 388.821 53.3272C389.519 52.7317 390.493 52.4339 391.744 52.4339H396.801V63.8182H395.081V59.2686H392.21L389.236 63.8182ZM389.453 55.7993C389.453 57.115 390.407 57.7729 392.314 57.7729H395.081V53.9297H391.961C390.289 53.9297 389.453 54.5529 389.453 55.7993Z" fill="white"/>
</svg>
