<svg width="400" height="72" viewBox="0 0 400 72" fill="none" xmlns="http://www.w3.org/2000/svg"><path fill-rule="evenodd" clip-rule="evenodd" d="M83.228 26.678h19.756c1.463 0 2.103-.632 2.103-1.986 0-1.535-.732-2.257-2.103-2.257H87.71v-5.507h15.274c1.463 0 2.103-.722 2.103-2.257 0-1.264-.732-1.896-2.103-1.896H83.228v13.903zM76.734 6.636h27.896c4.847 0 7.225 2.167 7.225 6.59 0 1.806-.366 3.25-1.189 4.244a5.588 5.588 0 01-3.384 1.986c1.464.27 2.561.993 3.384 2.076.823 1.084 1.189 2.619 1.189 4.605 0 4.424-2.378 6.59-7.225 6.59H76.734V6.636zm68.23 6.139H129.69c-1.372 0-2.469.09-3.292.361-.915.27-1.555.632-2.104 1.174-.549.541-.915 1.264-1.098 2.167-.183.902-.365 1.986-.365 3.34v6.771h15.273c1.281 0 2.378-.09 3.293-.27.915-.181 1.555-.542 2.104-1.084.548-.542.914-1.264 1.189-2.167.274-.903.365-1.986.365-3.34v-6.952h-.091zm6.494-6.14v13.092c0 1.986-.275 3.882-.915 5.417a10.34 10.34 0 01-2.561 4.062c-1.097 1.084-2.561 1.986-4.115 2.528-1.647.632-3.476.903-5.58.903h-21.859v-13.09c0-1.987.275-3.793.915-5.418s1.463-2.98 2.652-4.063c1.098-1.083 2.561-1.986 4.116-2.618 1.646-.632 3.476-.903 5.579-.903l21.768.09zm10.884 26.092h-6.403v-13.09c0-1.987.275-3.793.915-5.418s1.463-2.979 2.652-4.062c1.189-1.174 2.561-1.986 4.207-2.618 1.647-.632 3.476-.903 5.488-.903h20.304v6.139h-20.212c-1.921 0-3.476.361-4.482.993-1.006.722-1.738 1.625-2.104 2.98-.365 2.347-.365 4.514-.365 9.75v6.23zm64.205 0h-33.566v-13.09c0-1.987.274-3.793.914-5.418.641-1.625 1.464-2.979 2.653-4.062 1.189-1.174 2.561-1.986 4.207-2.618 1.646-.632 3.476-.903 5.488-.903h20.304v6.139h-20.213c-1.921 0-3.475.361-4.481.993-1.007.722-1.738 1.625-2.104 2.98h22.682v5.868h-23.048v3.882h27.072v6.23h.092zm36.31-26.091v9.48c0 1.895-2.012 2.708-2.927 3.43.823.632 2.561 1.174 2.744 3.34 0 .813-.366 1.626-.64 2.348a10.352 10.352 0 01-2.561 4.063 10.524 10.524 0 01-4.116 2.527c-1.646.632-3.475.903-5.579.903h-19.39v-6.23h19.298c1.921 0 3.476-.27 4.482-.902 1.006-.632 1.738-1.625 2.104-2.98h-14.908v-5.868h15.274v-3.972H230.48v-6.14h32.377zM26.427.283c-4.08 0-7.418 6.036-7.418 13.298V51.78c0 7.356 3.338 13.298 7.418 13.298V.283zm2.596 64.983l22.904-21.032c1.576-1.415 2.41-3.396 2.504-5.376.092-1.98-.557-4.056-1.948-5.565-1.205-1.32-2.874-2.263-4.543-2.452h-.093c1.484-2.64 1.205-6.13-.927-8.488-.371-.378-.65-.66-1.02-.944L28.93 3.962V0l19.66 20.09.464.47c.927 1.038 1.576 2.17 1.947 3.396a9.125 9.125 0 01.556 3.867c0 .471-.093.943-.185 1.415 1.205.566 2.225 1.414 3.152 2.358.928 1.037 1.67 2.263 2.04 3.583.464 1.32.65 2.736.557 4.056-.093 1.415-.371 2.735-1.02 3.961a10.39 10.39 0 01-2.411 3.301L33.01 65.454h-3.988v-.188zm.093-20.844L44.51 30.275c1.669-1.509 1.854-4.244.278-5.942-1.484-1.697-4.173-1.886-5.842-.283l-9.923 9.15.093 11.223zm-.093 4.15V61.21L49.98 42.064c1.854-1.697 2.04-4.715.37-6.602-1.669-1.886-4.636-2.075-6.49-.377L29.023 48.572zM8.067 46.497v-26.22a15.866 15.866 0 00-4.08 3.019c-1.576 1.603-2.689 3.678-3.43 5.942C.184 30.558 0 31.973 0 33.482s.185 2.83.556 4.244a14.355 14.355 0 006.491 8.394c.371.094.65.189 1.02.377zm9.18-36.122c-4.08 0-7.418 4.15-7.418 9.148v26.314c0 5.093 3.338 9.149 7.418 9.149V10.375z" fill="#fff"/><path d="M82.952 53.909h-3.69v9.91h-1.72v-9.91h-3.648v-1.475h9.058v1.475zM90 64.026c-1.68 0-3.006-.512-3.98-1.537-.967-1.025-1.451-2.448-1.451-4.27 0-1.834.449-3.292 1.347-4.372.905-1.08 2.118-1.62 3.638-1.62 1.423 0 2.55.47 3.378 1.412.83.935 1.244 2.17 1.244 3.708v1.09H86.35c.035 1.337.37 2.352 1.006 3.044.642.693 1.544 1.039 2.705 1.039 1.222 0 2.432-.256 3.627-.769v1.537a8.776 8.776 0 01-1.73.561c-.54.118-1.193.177-1.96.177zm-.467-10.356c-.912 0-1.64.298-2.187.893-.538.596-.856 1.42-.953 2.472h5.938c0-1.087-.242-1.918-.725-2.492-.484-.582-1.175-.873-2.073-.873zm9.307 10.148h-1.72V52.434h9.534v11.384h-1.741V53.93H98.84v9.888zm19.929 0h-1.741v-9.91h-3.41c-.187 2.466-.446 4.422-.777 5.87-.332 1.447-.764 2.506-1.296 3.178-.525.672-1.195 1.008-2.01 1.008-.373 0-.67-.042-.892-.125V62.56c.152.042.325.063.519.063.794 0 1.426-.842 1.896-2.524.47-1.683.826-4.238 1.068-7.666h6.643v11.384zm13.462-5.702c0 1.855-.467 3.306-1.399 4.352-.933 1.039-2.222 1.558-3.866 1.558-1.016 0-1.917-.239-2.705-.717-.787-.478-1.395-1.163-1.824-2.056-.428-.894-.642-1.94-.642-3.137 0-1.856.463-3.3 1.388-4.332.926-1.038 2.211-1.558 3.856-1.558 1.589 0 2.85.53 3.782 1.59.94 1.059 1.41 2.492 1.41 4.3zm-8.654 0c0 1.454.29 2.562.871 3.324.58.761 1.433 1.142 2.56 1.142 1.126 0 1.979-.377 2.559-1.132.588-.762.881-1.873.881-3.334 0-1.448-.293-2.545-.881-3.293-.58-.755-1.44-1.132-2.58-1.132-1.126 0-1.976.37-2.55 1.111-.573.741-.86 1.846-.86 3.314zm19.339-4.207h-3.69v9.91h-1.72v-9.91h-3.648v-1.475h9.058v1.475zm7.047 10.117c-1.679 0-3.006-.512-3.98-1.537-.967-1.025-1.451-2.448-1.451-4.27 0-1.834.449-3.292 1.348-4.372.905-1.08 2.117-1.62 3.637-1.62 1.423 0 2.55.47 3.379 1.412.829.935 1.243 2.17 1.243 3.708v1.09h-7.824c.034 1.337.369 2.352 1.005 3.044.643.693 1.544 1.039 2.705 1.039 1.223 0 2.432-.256 3.627-.769v1.537a8.775 8.775 0 01-1.731.561c-.538.118-1.191.177-1.958.177zm-.467-10.356c-.912 0-1.64.298-2.186.893-.539.596-.857 1.42-.954 2.472h5.939c0-1.087-.242-1.918-.726-2.492-.484-.582-1.174-.873-2.073-.873zm10.322 4.321l-3.948-5.557h1.959l2.995 4.363 2.984-4.363h1.938l-3.948 5.557 4.156 5.827h-1.949l-3.181-4.612-3.213 4.612h-1.948l4.155-5.827zm10.115-5.557v4.768h6.363v-4.768h1.721v11.384h-1.721v-5.131h-6.363v5.131h-1.72V52.434h1.72zm13.348 0v7.219l-.072 1.89-.031.593 6.145-9.702h2.146v11.384h-1.607v-6.96l.031-1.37.052-1.35-6.135 9.68h-2.145V52.434h1.616zm18.458 0h1.886l-4.902 5.495 5.306 5.89h-2.01l-5.182-5.766v5.765h-1.72V52.434h1.72v5.536l4.902-5.536zm11.389 11.384l-.342-1.62h-.082c-.567.713-1.134 1.198-1.7 1.454-.56.25-1.261.374-2.104.374-1.126 0-2.01-.29-2.653-.873-.636-.581-.953-1.409-.953-2.482 0-2.3 1.834-3.504 5.503-3.615l1.927-.062v-.706c0-.894-.193-1.552-.58-1.974-.38-.43-.992-.644-1.834-.644-.947 0-2.018.29-3.213.872l-.529-1.319a8.096 8.096 0 011.835-.716c.67-.173 1.34-.26 2.01-.26 1.354 0 2.356.301 3.006.904.656.602.984 1.568.984 2.898v7.77h-1.275zm-3.886-1.215c1.071 0 1.91-.294 2.518-.883.615-.589.923-1.413.923-2.472v-1.029l-1.721.073c-1.368.049-2.356.263-2.964.644-.601.374-.901.96-.901 1.756 0 .623.186 1.097.559 1.423.38.325.909.488 1.586.488zm15.846-10.169v7.219l-.073 1.89-.031.593 6.146-9.702h2.145v11.384h-1.606v-6.96l.031-1.37.052-1.35-6.136 9.68h-2.145V52.434h1.617zm24.333 11.384l-.342-1.62h-.082c-.567.713-1.134 1.198-1.7 1.454-.56.25-1.261.374-2.104.374-1.126 0-2.01-.29-2.653-.873-.636-.581-.953-1.409-.953-2.482 0-2.3 1.834-3.504 5.503-3.615l1.927-.062v-.706c0-.894-.193-1.552-.58-1.974-.38-.43-.992-.644-1.834-.644-.947 0-2.018.29-3.213.872l-.529-1.319a8.096 8.096 0 011.835-.716c.67-.173 1.34-.26 2.01-.26 1.354 0 2.356.301 3.006.904.656.602.984 1.568.984 2.898v7.77h-1.275zm-3.886-1.215c1.071 0 1.91-.294 2.518-.883.615-.589.923-1.413.923-2.472v-1.029l-1.721.073c-1.367.049-2.355.263-2.963.644-.602.374-.902.96-.902 1.756 0 .623.186 1.097.56 1.423.38.325.908.488 1.585.488zm17.929-7.313c0 .741-.214 1.306-.642 1.694-.422.38-1.016.637-1.783.768v.094c.967.131 1.672.415 2.114.851.449.437.674 1.04.674 1.808 0 1.06-.391 1.876-1.171 2.451-.774.575-1.907.862-3.4.862h-5.005V52.434h4.985c2.819 0 4.228.952 4.228 2.856zm-1.358 5.1c0-.616-.234-1.063-.704-1.34-.463-.283-1.234-.425-2.311-.425h-3.12v3.75h3.161c1.983 0 2.974-.662 2.974-1.985zm-.321-4.933c0-.554-.214-.946-.642-1.174-.422-.236-1.064-.353-1.928-.353h-3.244v3.21h2.912c1.064 0 1.814-.132 2.249-.395.436-.264.653-.693.653-1.288zm12.208-1.548h-3.689v9.91h-1.72v-9.91h-3.648v-1.475h9.057v1.475zm12.053 4.207c0 1.855-.466 3.306-1.399 4.352-.933 1.039-2.221 1.558-3.866 1.558-1.015 0-1.917-.239-2.704-.717-.788-.478-1.396-1.163-1.824-2.056-.429-.894-.643-1.94-.643-3.137 0-1.856.463-3.3 1.389-4.332.926-1.038 2.211-1.558 3.855-1.558 1.589 0 2.85.53 3.783 1.59.939 1.059 1.409 2.492 1.409 4.3zm-8.653 0c0 1.454.29 2.562.87 3.324.581.761 1.434 1.142 2.56 1.142 1.126 0 1.979-.377 2.56-1.132.587-.762.881-1.873.881-3.334 0-1.448-.294-2.545-.881-3.293-.581-.755-1.441-1.132-2.581-1.132-1.126 0-1.976.37-2.549 1.111-.574.741-.86 1.846-.86 3.314zm17.576 4.04l.321-.966.446-1.225 3.078-7.51h2.187v11.363h-1.524v-9.4l-.207.602-.601 1.59-2.933 7.208h-1.44l-2.933-7.23c-.367-.927-.619-1.65-.757-2.17v9.4h-1.534V52.455h2.104l2.974 7.219c.298.761.57 1.589.819 2.482zm16.696 1.662l-.342-1.62h-.083c-.567.713-1.133 1.198-1.7 1.454-.559.25-1.261.374-2.104.374-1.126 0-2.01-.29-2.653-.873-.635-.581-.953-1.409-.953-2.482 0-2.3 1.834-3.504 5.503-3.615l1.928-.062v-.706c0-.894-.194-1.552-.581-1.974-.38-.43-.991-.644-1.834-.644-.947 0-2.018.29-3.213.872l-.528-1.319a8.088 8.088 0 011.834-.716c.67-.173 1.34-.26 2.011-.26 1.354 0 2.355.301 3.005.904.656.602.984 1.568.984 2.898v7.77h-1.274zm-3.887-1.215c1.071 0 1.911-.294 2.519-.883.615-.589.922-1.413.922-2.472v-1.029l-1.72.073c-1.368.049-2.356.263-2.964.644-.601.374-.902.96-.902 1.756 0 .623.187 1.097.56 1.423.38.325.908.488 1.585.488zm16.375-8.694h-3.69v9.91h-1.72v-9.91h-3.648v-1.475h9.058v1.475zm3.865-1.475v7.219l-.072 1.89-.031.593 6.145-9.702h2.146v11.384h-1.607v-6.96l.031-1.37.052-1.35-6.135 9.68h-2.145V52.434h1.616zm14.002 4.726c2.148 0 3.223-.595 3.223-1.786 0-1.122-.871-1.683-2.612-1.683-.532 0-1.016.048-1.451.145-.435.097-1.005.291-1.71.582l-.611-1.402c1.174-.527 2.456-.79 3.845-.79 1.305 0 2.335.27 3.088.81.753.534 1.129 1.264 1.129 2.192 0 1.274-.708 2.109-2.124 2.503v.083c.87.257 1.506.624 1.907 1.102.401.47.601 1.062.601 1.776 0 1.052-.425 1.873-1.275 2.461-.843.582-2.01.873-3.503.873-1.637 0-2.901-.246-3.793-.738V61.71c1.265.595 2.543.893 3.835.893.995 0 1.744-.17 2.249-.51.511-.345.767-.84.767-1.484 0-1.323-1.075-1.984-3.223-1.984h-1.576V57.16h1.234zm15.078 6.658l-.342-1.62h-.082c-.567.713-1.134 1.198-1.7 1.454-.56.25-1.261.374-2.104.374-1.126 0-2.01-.29-2.653-.873-.636-.581-.953-1.409-.953-2.482 0-2.3 1.834-3.504 5.503-3.615l1.927-.062v-.706c0-.894-.193-1.552-.58-1.974-.38-.43-.992-.644-1.834-.644-.947 0-2.018.29-3.213.872l-.529-1.319a8.096 8.096 0 011.835-.716c.67-.173 1.34-.26 2.01-.26 1.354 0 2.356.301 3.006.904.656.602.984 1.568.984 2.898v7.77h-1.275zm-3.886-1.215c1.071 0 1.91-.294 2.518-.883.615-.589.923-1.413.923-2.472v-1.029l-1.721.073c-1.368.049-2.355.263-2.963.644-.602.374-.902.96-.902 1.756 0 .623.186 1.097.559 1.423.381.325.909.488 1.586.488zm19.794 5.152h-1.72v-3.937h-9.358V52.434h1.72v9.899h6.032v-9.9h1.72v9.9h1.606v5.422zm3.825-15.321v7.219l-.073 1.89-.031.593 6.146-9.702h2.145v11.384h-1.607v-6.96l.032-1.37.051-1.35-6.135 9.68h-2.145V52.434h1.617zm12.405 11.384h-2.011l3.265-4.809c-.878-.194-1.551-.568-2.021-1.122-.463-.56-.695-1.264-.695-2.108 0-1.04.349-1.856 1.047-2.452.698-.595 1.672-.893 2.923-.893h5.057v11.384h-1.72v-4.55h-2.871l-2.974 4.55zm.217-8.019c0 1.316.954 1.974 2.861 1.974h2.767V53.93h-3.12c-1.672 0-2.508.623-2.508 1.87z" fill="#fff"/></svg>