<svg width="70" height="64" viewBox="0 0 70 64" fill="none" xmlns="http://www.w3.org/2000/svg">
<path d="M67.9808 5.33301H2.0192C0.904121 5.33301 0 6.22852 0 7.33298V18.6663H70V7.33298C70 6.22852 69.0959 5.33301 67.9808 5.33301ZM51.1539 14.6663H48.4616C47.3464 14.6663 46.4424 13.7708 46.4424 12.6663C46.4424 11.5619 47.3465 10.6664 48.4616 10.6664H51.1539C52.2691 10.6664 53.1731 11.5619 53.1731 12.6663C53.1731 13.7708 52.2689 14.6663 51.1539 14.6663ZM60.577 14.6663H57.8847C56.7695 14.6663 55.8655 13.7708 55.8655 12.6663C55.8655 11.5619 56.7696 10.6664 57.8847 10.6664H60.577C61.6922 10.6664 62.5962 11.5619 62.5962 12.6663C62.5962 13.7708 61.692 14.6663 60.577 14.6663Z" fill="#253678"/>
<path fill-rule="evenodd" clip-rule="evenodd" d="M5.38477 22.667L5.38477 33.5145C5.38477 41.3014 8.46533 48.6223 14.0589 54.1284C19.6524 59.6346 27.0896 62.667 35.0002 62.667C42.9107 62.667 50.3478 59.6346 55.9414 54.1284C61.535 48.6223 64.6155 41.3014 64.6155 33.5145V22.667H5.38477ZM41.813 41.2467C41.9172 41.2211 42.0214 41.2082 42.1256 41.2082C42.6792 41.2082 43.0764 41.6249 43.0634 42.2019V42.8814C43.0634 43.5481 42.5098 44.093 41.8326 44.093H41.6828L41.8782 44.561C42.1973 45.3302 42.4578 46.6252 42.4578 47.4586V53.2473C42.4578 53.914 41.9042 54.4589 41.2269 54.4589H39.6184C38.9411 54.4589 38.3875 53.914 38.3875 53.2473V51.7985H24.5358V53.2473C24.5358 53.914 23.9822 54.4589 23.3049 54.4589H21.6964C21.0191 54.4589 20.4655 53.914 20.4655 53.2473V47.4586C20.4655 46.6316 20.726 45.3302 21.0451 44.561L21.2405 44.093H21.1103C20.433 44.093 19.8794 43.5481 19.8794 42.8814V42.2019C19.8794 41.6249 20.2767 41.2082 20.8302 41.2082C20.9344 41.2082 21.0386 41.2211 21.1428 41.2467L22.2955 41.5608L23.5133 38.6504C23.8585 37.8299 24.8809 37.1568 25.7861 37.1568H37.1632C38.0749 37.1568 39.0909 37.8299 39.436 38.6504L40.6538 41.5672L41.8195 41.2467H41.813ZM23.1812 43.4263L25.0177 39.0158H25.0112C25.2196 38.5222 25.8252 38.1184 26.3722 38.1184H36.5445C37.0916 38.1184 37.6972 38.5222 37.9056 39.0158L39.7421 43.4263C39.9505 43.9199 39.677 44.3238 39.1299 44.3238H23.7803C23.2528 44.3238 22.9793 43.9199 23.1812 43.4263ZM27.2905 49.0035C27.2905 49.2663 27.0691 49.4843 26.8021 49.4843H23.3049C23.0379 49.4843 22.8165 49.2663 22.8165 49.0035V47.3496C22.8165 47.0868 23.0379 46.8688 23.3049 46.8688H26.8021C27.0691 46.8688 27.2905 47.0868 27.2905 47.3496V49.0035ZM40.1003 49.0035C40.1003 49.2663 39.8789 49.4843 39.6119 49.4843H36.1147C35.8477 49.4843 35.6263 49.2663 35.6263 49.0035V47.3496C35.6263 47.0868 35.8477 46.8688 36.1147 46.8688H39.6119C39.8789 46.8688 40.1003 47.0868 40.1003 47.3496V49.0035ZM50.4465 32.9131H48.3756L48.3691 32.9067L26.7546 26.1243C26.6569 26.0922 26.5527 26.0794 26.4485 26.0794C26.0056 26.0794 25.6214 26.3551 25.4912 26.7718L25.0223 28.2206C24.9441 28.477 24.9702 28.7462 25.0874 28.977C25.2111 29.2142 25.4195 29.3809 25.6735 29.4642L46.7866 36.0863V52.3371C46.7866 52.8884 47.2424 53.3307 47.796 53.3307H50.4465C51.0066 53.3307 51.4559 52.882 51.4559 52.3371V33.9067C51.4559 33.3554 51 32.9131 50.4465 32.9131ZM27.9789 28.9001L28.3045 27.8936C28.4087 27.5795 28.2329 27.2397 27.9138 27.1372C27.5881 27.0346 27.2495 27.2141 27.1453 27.5218L26.8197 28.5283C26.7155 28.8488 26.8978 29.1821 27.2104 29.2847C27.2756 29.3039 27.3342 29.3104 27.3993 29.3104C27.6533 29.3104 27.8942 29.1565 27.9789 28.8937V28.9001ZM31.5477 30.0219L31.8733 29.0155C31.9775 28.7014 31.7951 28.3616 31.4825 28.259C31.1569 28.1565 30.8183 28.3359 30.7141 28.6437L30.3885 29.6501C30.2843 29.9706 30.4666 30.304 30.7857 30.4066C30.8443 30.4258 30.9094 30.4322 30.9746 30.4322C31.2285 30.4322 31.4695 30.2784 31.5542 30.0155L31.5477 30.0219ZM35.1164 31.1438L35.4421 30.1373C35.5462 29.8168 35.3639 29.4834 35.0448 29.3809C34.7192 29.2783 34.3805 29.4578 34.2763 29.7655L33.9507 30.772C33.8465 31.0925 34.0289 31.4258 34.3415 31.5284C34.4066 31.5476 34.4652 31.5541 34.5303 31.5541C34.7843 31.5541 35.0253 31.4002 35.1099 31.1374L35.1164 31.1438ZM38.6787 32.2592L39.0043 31.2528C39.1085 30.9386 38.9327 30.5989 38.6136 30.4963C38.2879 30.3937 37.9493 30.5732 37.8451 30.8809L37.5195 31.8874C37.4153 32.2079 37.5976 32.5413 37.9102 32.6439C37.9753 32.6631 38.034 32.6695 38.0991 32.6695C38.3531 32.6695 38.594 32.5156 38.6787 32.2528V32.2592ZM42.2475 33.3811L42.5731 32.3746C42.6773 32.0605 42.4949 31.7207 42.1823 31.6182C41.8567 31.5156 41.5181 31.6951 41.4139 32.0028L41.0883 33.0093C40.9841 33.3298 41.1664 33.6631 41.479 33.7657C41.5441 33.7849 41.6027 33.7913 41.6679 33.7913C41.9218 33.7913 42.1628 33.6375 42.2475 33.3747V33.3811ZM45.8162 34.5029L46.1418 33.4965C46.2395 33.1759 46.0637 32.8426 45.7446 32.74C45.419 32.6374 45.0803 32.8169 44.9761 33.1247L44.6505 34.1311C44.5463 34.4516 44.7287 34.785 45.0413 34.8876C45.1064 34.9068 45.165 34.9132 45.2301 34.9132C45.4841 34.9132 45.725 34.7593 45.8097 34.4965L45.8162 34.5029Z" fill="#253678"/>
</svg>
