<svg width="48" height="48" viewBox="0 0 48 48" fill="none" xmlns="http://www.w3.org/2000/svg"><g clip-path="url(#clip0_1071_3725)" fill="#1F5AFF"><path d="M0 23.297h5.063v1.406H0v-1.406zm42.938 0H48v1.406h-5.063v-1.406zM23.297 42.938h1.406V48h-1.406v-5.063zm21.247-22.566l1.385-.244c-.836-4.769-3.27-9.212-6.85-12.51l-.953 1.035a20.943 20.943 0 016.418 11.719zM37.98 6.67a22.25 22.25 0 00-10.108-4.6l-.243 1.385a20.839 20.839 0 019.468 4.31l.884-1.095zM20.371 3.455l-.243-1.385C10.938 3.682 3.682 10.94 2.07 20.128l1.386.243c1.51-8.608 8.307-15.406 16.915-16.916zm7.258 41.09l.243 1.385c9.19-1.612 16.446-8.869 18.058-18.058l-1.385-.243c-1.51 8.608-8.308 15.406-16.916 16.916zM3.456 27.629l-1.386.243c1.612 9.19 8.869 16.446 18.058 18.058l.243-1.385c-8.608-1.51-15.406-8.308-16.915-16.916zM23.297 0h1.406v5.063h-1.406V0z"/><path d="M20.016 19.36c0 .831.256 1.604.694 2.244a7.263 7.263 0 00-2.759 2.467 5.814 5.814 0 00-1.192-.855c.31-.501.491-1.092.491-1.724v-1.289a3.285 3.285 0 00-3.281-3.281 3.285 3.285 0 00-3.281 3.281v1.29c0 .624.175 1.208.479 1.705a5.897 5.897 0 00-3.058 5.17v1.679H6.656v1.406h7.032v-1.406h-1.454V28.03h-1.406v2.016H9.516v-1.68a4.482 4.482 0 012.688-4.111c.51.327 1.115.517 1.765.517a3.26 3.26 0 001.744-.503c.592.252 1.12.628 1.552 1.105a7.31 7.31 0 00-.53 2.734v1.938h-1.641v1.406h26.25v-1.406H39.89v-1.68c0-.774-.15-1.527-.442-2.24l-1.3.535a4.46 4.46 0 01.335 1.705v1.68h-1.312V28.03h-1.406v2.016h-4.5v-1.938c0-.957-.188-1.88-.533-2.73a4.43 4.43 0 011.554-1.11 3.262 3.262 0 003.509-.013 4.45 4.45 0 011.744 1.357l1.111-.862a5.868 5.868 0 00-1.819-1.552c.305-.498.48-1.082.48-1.707v-1.289a3.285 3.285 0 00-3.28-3.281 3.285 3.285 0 00-3.282 3.281v1.29c0 .63.18 1.221.49 1.723a5.826 5.826 0 00-1.197.86 7.256 7.256 0 00-2.768-2.45c.446-.645.71-1.425.71-2.267v-.187h-1.407v.187A2.581 2.581 0 0124 21.937a2.581 2.581 0 01-2.578-2.578v-1.64A2.581 2.581 0 0124 15.14a2.581 2.581 0 012.578 2.578v.047h1.406v-.047A3.989 3.989 0 0024 13.734a3.989 3.989 0 00-3.984 3.985v1.64zm-4.172 2.132a1.877 1.877 0 01-1.875 1.875 1.877 1.877 0 01-1.875-1.875v-1.289c0-1.034.84-1.875 1.875-1.875 1.034 0 1.875.841 1.875 1.875v1.29zm16.312-1.289c0-1.034.841-1.875 1.875-1.875s1.875.841 1.875 1.875v1.29a1.877 1.877 0 01-1.875 1.874 1.877 1.877 0 01-1.875-1.875v-1.289zm-10.384 2.458c.636.43 1.403.683 2.228.683.812 0 1.569-.245 2.2-.664a5.857 5.857 0 013.66 5.43v1.937h-1.876V27.75h-1.406v2.297h-5.156V27.75h-1.406v2.297H18.14v-1.938a5.896 5.896 0 013.631-5.448zm11.741 11.846l.994-.994.994.994-.994.995-.994-.995zm1.988 1.989l.995-.994.994.994-.994.995-.995-.995zM10.51 11.504l.994-.994.995.994-.995.994-.994-.994zm1.988 1.989l.994-.995.995.995-.995.994-.994-.994zm-1.989 23.005l.994-.995.994.995-.994.994-.994-.994zm1.988-1.99l.995-.994.994.994-.994.995-.995-.995zm23.005-23.002l.994-.994.995.994-.995.995-.994-.995zm-1.989 1.988l.994-.994.995.994-.995.995-.994-.995z"/><path d="M23.297 24.656h1.406v1.407h-1.406v-1.407zm0 2.813h1.406v1.406h-1.406v-1.406z"/></g><defs><clipPath id="clip0_1071_3725"><path fill="#fff" d="M0 0h48v48H0z"/></clipPath></defs></svg>