<svg width="48" height="48" viewBox="0 0 48 48" fill="none" xmlns="http://www.w3.org/2000/svg"><g clip-path="url(#clip0_1071_3748)" fill="#1F5AFF"><path d="M6.191 20.043H4.79a.703.703 0 100 1.407h1.403a.703.703 0 100-1.407zm0-3.377H4.79a.703.703 0 100 1.407h1.403a.703.703 0 100-1.407zm0 6.754H4.79a.703.703 0 100 1.407h1.403a.703.703 0 100-1.407zm0 3.377H4.79a.703.703 0 100 1.407h1.403a.703.703 0 100-1.407zm0 3.376H4.79a.703.703 0 100 1.407h1.403a.703.703 0 100-1.407zm0 3.377H4.79a.703.703 0 100 1.407h1.403a.703.703 0 100-1.407zm0 3.377H4.79a.703.703 0 100 1.407h1.403a.703.703 0 100-1.407zm12.95-1.215l-1.239-1.24 1.24-1.238a.704.704 0 00-.996-.995l-1.736 1.736a.704.704 0 000 .995l1.736 1.736a.701.701 0 00.995 0 .703.703 0 000-.995zm7.537-1.737l-1.736-1.736a.704.704 0 00-.995.995l1.239 1.239-1.239 1.238a.703.703 0 10.995.995l1.736-1.736a.704.704 0 000-.995zm-3.995-2.687a.703.703 0 00-.901.42l-1.95 5.357a.704.704 0 101.322.481l1.95-5.357a.703.703 0 00-.42-.901zM5.479 7.84a.733.733 0 00-.104-.252.704.704 0 00-.586-.314.707.707 0 00-.703.704.707.707 0 00.841.69.702.702 0 00.551-.827zm2.192-.36a.709.709 0 00-.498-.206.708.708 0 00-.703.704.707.707 0 00.703.703.709.709 0 00.498-.206.71.71 0 00.207-.497.71.71 0 00-.207-.497zm2.577.36a.73.73 0 00-.192-.36.738.738 0 00-.228-.152.714.714 0 00-.66.065.754.754 0 00-.194.195.7.7 0 00-.119.39.71.71 0 00.313.585.652.652 0 00.122.064.649.649 0 00.27.055.68.68 0 00.268-.055.693.693 0 00.228-.152.706.706 0 00.192-.635zm19.014-.566H12.488a.703.703 0 100 1.407h16.774a.703.703 0 100-1.407zm5.35 0h-2.876a.703.703 0 100 1.407h2.876a.703.703 0 100-1.407zm5.752 14.55h-9.23a.703.703 0 100 1.407h9.23a.703.703 0 100-1.407zm-3.936-3.376h-2.673a.703.703 0 100 1.407h2.673a.703.703 0 100-1.407zm7.048 0h-4.35a.703.703 0 100 1.407h4.35a.703.703 0 100-1.407zm-12.746 0h-8.887a.703.703 0 100 1.407h8.887a.703.703 0 100-1.407zm-2.205 3.376h-2.673a.703.703 0 100 1.407h2.673a.703.703 0 100-1.407zm-5.408 0h-1.402a.703.703 0 100 1.407h1.402a.703.703 0 100-1.407zm-4.901 0h-1.402a.703.703 0 100 1.407h1.402a.703.703 0 100-1.407zm0-3.376h-1.402a.703.703 0 100 1.407h1.402a.703.703 0 100-1.407zm25.95 3.942a.665.665 0 00-.105-.253.647.647 0 00-.195-.195.736.736 0 00-.253-.104.677.677 0 00-.406.04.766.766 0 00-.122.064.753.753 0 00-.194.195.741.741 0 00-.105.254.74.74 0 000 .275.702.702 0 00.552.551.694.694 0 00.635-.192.605.605 0 00.088-.107.641.641 0 00.064-.121.648.648 0 00.055-.27.685.685 0 00-.014-.136z"/><path d="M46.171 29h-7.43v-2.533h7.43c1.008 0 1.83-.82 1.83-1.829v-7.597a1.832 1.832 0 00-1.83-1.829h-1.963a.703.703 0 100 1.407h1.963c.229 0 .422.193.422.422v7.597a.428.428 0 01-.422.422H13.613a.428.428 0 01-.422-.422v-7.597c0-.229.193-.422.422-.422h27.312a.703.703 0 100-1.407h-2.184V7.011a3.46 3.46 0 00-3.456-3.456c-33.852.005-31.803-.01-32.082.011A3.458 3.458 0 00.128 6.114c-.176.652-.12.704-.12 9.615a.703.703 0 101.408 0V12.4h35.918v2.811h-23.72c-1.01 0-1.83.82-1.83 1.83v7.596c0 1.009.82 1.83 1.83 1.83h23.72V29h-23.72c-1.01 0-1.83.82-1.83 1.829v7.597c0 1.008.82 1.829 1.83 1.829h23.72v.735a2.05 2.05 0 01-2.049 2.048H11.2a.703.703 0 100 1.407h24.085a3.46 3.46 0 003.456-3.455v-.735h7.43c1.008 0 1.83-.82 1.83-1.83V30.83c0-1.009-.822-1.83-1.83-1.83zM1.416 10.994c.003-4.121-.215-4.686.667-5.494a2.046 2.046 0 011.381-.538h31.822a2.05 2.05 0 012.048 2.049v3.983H1.416zm45.177 27.432a.428.428 0 01-.422.422H13.613a.428.428 0 01-.422-.422v-7.597c0-.23.193-.422.422-.422h32.558c.229 0 .422.193.422.422v7.597z"/><path d="M7.917 43.038H3.464a2.05 2.05 0 01-2.048-2.049V19.011a.703.703 0 10-1.407 0V40.99a3.46 3.46 0 003.455 3.456h4.453a.703.703 0 100-1.407z"/></g><defs><clipPath id="clip0_1071_3748"><path fill="#fff" d="M0 0h48v48H0z"/></clipPath></defs></svg>