<svg width="48" height="48" viewBox="0 0 48 48" fill="none" xmlns="http://www.w3.org/2000/svg"><g clip-path="url(#clip0_1071_3772)" fill="#1F5AFF"><path d="M46.818 1.114a3.802 3.802 0 00-3.382-1.05l-8.2 1.518A19.095 19.095 0 0023.71 8.543l-5.987 7.6-1.049-.358a9.33 9.33 0 00-8.083.976l-1.737 1.112a.7.7 0 00.754 1.179l1.738-1.112a7.938 7.938 0 016.877-.83l2.727.93-9.945 9.945-5.993-5.993 2.004-1.282a.7.7 0 00-.755-1.179l-2.136 1.367c-.675.409-.787 1.429-.214 1.973l6.194 6.194a1.274 1.274 0 001.8 0l1.968-1.968 2.011 2.012-4.399 5.982a1.306 1.306 0 00.13 1.706l1.656 1.656a1.306 1.306 0 001.707.13l5.982-4.399 2.011 2.012-1.967 1.967c-.494.474-.494 1.327 0 1.8l2.747 2.747a.7.7 0 00.99-.99l-2.658-2.657 9.945-9.944.93 2.727a7.938 7.938 0 01-.83 6.877l-4.052 6.333-1.212-1.212a.7.7 0 00-.99.99l1.324 1.323c.546.574 1.564.461 1.972-.214l4.137-6.466a9.33 9.33 0 00.977-8.083l-.424-1.241 7.528-5.932a19.094 19.094 0 006.961-11.526l.13-.696a.7.7 0 10-1.377-.255l-.129.696a17.695 17.695 0 01-6.451 10.682l-7.141 5.626a1.4 1.4 0 00-1.033-1.004 1.38 1.38 0 00-1.296.37l-7.09 7.092-1.861-1.861a9.896 9.896 0 003.145-3.708l2.546-5.22a1.6 1.6 0 00-2.14-2.14l-5.22 2.546a9.895 9.895 0 00-3.709 3.145l-1.86-1.861 7.09-7.091a1.38 1.38 0 00.371-1.295c-.122-.595-.634-.96-1.197-1.1L24.81 9.41a17.695 17.695 0 0110.68-6.45l8.2-1.519a2.372 2.372 0 012.137.664 2.37 2.37 0 01.663 2.137l-.826 4.463a.7.7 0 001.376.255l.827-4.463a3.802 3.802 0 00-1.05-3.382zM15.95 28.664a8.461 8.461 0 013.095-2.583l5.22-2.546a.2.2 0 01.268.268l-2.546 5.22a8.46 8.46 0 01-2.582 3.096l-7.197 5.292-1.55-1.551 5.292-7.197z"/><path d="M40.635 13.449a.966.966 0 00.33-1.075 8.34 8.34 0 00-.439-1.06.966.966 0 00-.994-.528 1.987 1.987 0 01-1.683-.567 1.985 1.985 0 01-.567-1.683.966.966 0 00-.527-.995 8.35 8.35 0 00-1.061-.438.966.966 0 00-1.075.33 1.985 1.985 0 01-1.59.79 1.987 1.987 0 01-1.592-.79.966.966 0 00-1.075-.33c-.362.122-.719.27-1.06.439a.966.966 0 00-.527.995 1.985 1.985 0 01-.567 1.682 1.987 1.987 0 01-1.683.567.966.966 0 00-.995.528 8.26 8.26 0 00-.438 1.06.966.966 0 00.33 1.075c.502.382.79.962.79 1.59 0 .629-.288 1.209-.79 1.59a.966.966 0 00-.33 1.076c.122.363.27.72.438 1.06a.966.966 0 00.995.527 1.987 1.987 0 011.683.568c.445.445.651 1.058.567 1.683-.055.41.157.81.527.994.342.17.698.317 1.06.439a.966.966 0 001.076-.33 1.986 1.986 0 011.59-.79c.63 0 1.209.288 1.591.79a.967.967 0 001.075.33c.363-.122.72-.27 1.06-.439a.966.966 0 00.528-.995 1.985 1.985 0 01.567-1.682 1.985 1.985 0 011.683-.567c.41.056.81-.156.994-.527.17-.341.317-.698.439-1.061a.966.966 0 00-.33-1.075 1.986 1.986 0 01-.79-1.59c.001-.63.288-1.209.79-1.591zm-1.096 4.087a7.204 7.204 0 01-.141.341 3.37 3.37 0 00-2.539.993 3.37 3.37 0 00-.992 2.538c-.113.05-.226.097-.341.141a3.37 3.37 0 00-2.497-1.093 3.37 3.37 0 00-2.497 1.093 7.081 7.081 0 01-.341-.14 3.37 3.37 0 00-.993-2.54 3.376 3.376 0 00-2.538-.992 6.945 6.945 0 01-.141-.341 3.37 3.37 0 001.093-2.497 3.37 3.37 0 00-1.093-2.496c.044-.115.09-.23.14-.341a3.369 3.369 0 002.54-.993 3.37 3.37 0 00.992-2.539c.112-.05.226-.097.34-.14a3.372 3.372 0 002.498 1.092 3.37 3.37 0 002.496-1.093c.115.044.23.091.342.141a3.37 3.37 0 00.992 2.539c.68.68 1.59 1.032 2.539.992.05.113.097.227.14.342a3.37 3.37 0 00-1.092 2.496c0 .961.395 1.854 1.093 2.497zM2.43 38.35a.7.7 0 00.99 0l6.216-6.215a.7.7 0 10-.99-.99l-6.215 6.216a.7.7 0 000 .99zm10.484 1.66a.7.7 0 00-.99 0l-4.342 4.343a.7.7 0 10.99.99L12.914 41a.7.7 0 000-.99zm5.624 1.71l-2.632 2.633a.7.7 0 10.99.99l2.632-2.633a.7.7 0 00-.99-.99zm-9.637-2.553a.7.7 0 00-.99 0L.274 46.805a.7.7 0 10.99.99l7.638-7.638a.7.7 0 000-.99zm4.755 4.835a.658.658 0 100-1.315.658.658 0 000 1.315zm-.892 2.258a.658.658 0 100-1.316.658.658 0 000 1.315zM2.513 34.185a.658.658 0 100-1.316.658.658 0 000 1.316zm-.658 9.578a.658.658 0 100-1.316.658.658 0 000 1.316z"/><path d="M33.013 11.537a3.49 3.49 0 100 6.982 3.49 3.49 0 000-6.982zm0 5.512a2.021 2.021 0 110-4.042 2.021 2.021 0 010 4.042z"/></g><defs><clipPath id="clip0_1071_3772"><path fill="#fff" d="M0 0h48v48H0z"/></clipPath></defs></svg>