<svg width="80" height="80" viewBox="0 0 80 80" fill="none" xmlns="http://www.w3.org/2000/svg"><rect width="80" height="80" rx="40" fill="#1F5AFF"/><g clip-path="url(#clip0_1115_3992)" fill="#fff"><path d="M61.023 40.163l1.632-1.632a.703.703 0 000-.995l-2.008-2.009a.703.703 0 00-.995 0L58.02 37.16a14.834 14.834 0 00-6.805-2.825V32.75h1.664a.703.703 0 00.703-.703v-2.84a.703.703 0 00-.703-.704h-7.576a.703.703 0 00-.703.703v2.841c0 .389.315.703.703.703h1.665v1.583c-3.332.469-6.376 2.04-8.731 4.54a.703.703 0 001.023.964 13.377 13.377 0 019.831-4.246c7.445 0 13.502 6.057 13.502 13.502s-6.057 13.502-13.502 13.502S35.59 56.537 35.59 49.092c0-2.376.625-4.712 1.809-6.756a.703.703 0 00-1.217-.705 14.904 14.904 0 00-1.998 7.46c0 8.221 6.688 14.91 14.908 14.91C57.311 64 64 57.311 64 49.09c0-3.345-1.109-6.437-2.977-8.928zm-.874-3.144l1.015 1.014-1.04 1.041a15.03 15.03 0 00-1.015-1.014l1.04-1.041zm-14.143-7.11h6.17v1.434h-6.17v-1.435zm2.368 4.291v-1.45h1.434v1.45a15.109 15.109 0 00-1.434 0z"/><path d="M49.091 51.216a2.126 2.126 0 002.124-2.124c0-.925-.594-1.713-1.42-2.004V41.99a.703.703 0 10-1.407 0v5.1a2.127 2.127 0 00-1.42 2.003c0 1.17.952 2.124 2.123 2.124zm0-2.842a.718.718 0 11-.001 1.437.718.718 0 01.001-1.437z"/><path d="M49.092 61.158c6.654 0 12.067-5.413 12.067-12.067s-5.413-12.068-12.067-12.068-12.068 5.414-12.068 12.068 5.414 12.067 12.068 12.067zm0-22.728c5.879 0 10.661 4.782 10.661 10.661s-4.782 10.661-10.661 10.661S38.43 54.97 38.43 49.091 43.213 38.43 49.09 38.43zm-30.341-2.66h5.091l3.689 2.92a.702.702 0 001.14-.552V35.77h9.019a2.754 2.754 0 002.75-2.75v-8.68a.703.703 0 10-1.405 0v8.678c0 .742-.604 1.345-1.345 1.345h-9.723a.703.703 0 00-.703.703v1.619l-2.74-2.17a.702.702 0 00-.437-.152H18.75a1.347 1.347 0 01-1.345-1.345V18.751c0-.741.604-1.345 1.345-1.345h18.94c.741 0 1.345.604 1.345 1.345v2.305a.703.703 0 101.406 0V18.75A2.754 2.754 0 0037.69 16H18.75A2.754 2.754 0 0016 18.751v14.267a2.754 2.754 0 002.751 2.751z"/><path d="M25.607 26.311a.703.703 0 00-.994 0l-3.144 3.144a.703.703 0 000 .995l1.326 1.326a4.008 4.008 0 002.843 1.176 4.01 4.01 0 002.844-1.176L34 26.256a3.995 3.995 0 001.178-2.843A3.995 3.995 0 0034 20.57l-1.327-1.326a.703.703 0 00-.994 0l-3.144 3.144a.703.703 0 000 .994l1.145 1.145-2.93 2.93-1.144-1.146zm5.096-.817c.259-.258.4-.602.4-.967s-.141-.708-.4-.966l-.675-.676 2.15-2.15.828.83c.494.493.766 1.15.766 1.849 0 .698-.272 1.355-.766 1.848l-5.519 5.52a2.618 2.618 0 01-3.698 0l-.829-.83 2.15-2.149.675.676c.259.258.602.4.967.4s.708-.142.966-.4l2.985-2.985zm-14 24.301h12.312a.703.703 0 100-1.406H16.703a.703.703 0 100 1.406zm0-3.788h2.273a.703.703 0 100-1.406h-2.273a.703.703 0 100 1.406zM30.909 44.6h-9.002a.703.703 0 100 1.407h9.002a.703.703 0 100-1.406zm-3.084-3.084a.703.703 0 00-.703-.703h-8.525a.703.703 0 100 1.406h8.525a.703.703 0 00.703-.703zm4.978-.703h-2.841a.703.703 0 100 1.406h2.841a.703.703 0 000-1.407zM19.68 52.88a.703.703 0 00-.704-.703h-2.273a.703.703 0 100 1.406h2.273a.703.703 0 00.703-.703zm11.229-.703h-9.002a.703.703 0 100 1.406h9.002a.703.703 0 100-1.406zm-3.787 3.788h-8.525a.703.703 0 000 1.406h8.525a.703.703 0 100-1.406zm5.681 0h-2.841a.703.703 0 000 1.406h2.841a.703.703 0 100-1.406z"/></g><defs><clipPath id="clip0_1115_3992"><path fill="#fff" transform="translate(16 16)" d="M0 0h48v48H0z"/></clipPath></defs></svg>