<svg width="80" height="80" viewBox="0 0 80 80" fill="none" xmlns="http://www.w3.org/2000/svg"><rect width="80" height="80" rx="40" fill="#1F5AFF"/><g clip-path="url(#clip0_1115_4070)" fill="#fff"><path d="M27.172 28.432h-5.34a.703.703 0 00-.704.703v5.341c0 .389.315.703.703.703h5.341a.703.703 0 00.704-.703v-5.341a.703.703 0 00-.704-.703zm-.703 5.341h-3.935v-3.935h3.935v3.935zm8.454-5.341h-3.96a.703.703 0 000 1.406h3.96a.703.703 0 000-1.406zm-7.751 10.152h-5.34a.703.703 0 00-.704.703v5.342c0 .388.315.703.703.703h5.341a.703.703 0 00.704-.703v-5.342a.703.703 0 00-.704-.703zm-.703 5.341h-3.935V39.99h3.935v3.935zm8.454-5.341h-3.96a.703.703 0 100 1.406h3.96a.703.703 0 000-1.406zm-7.751 10.152h-5.34a.703.703 0 00-.704.704v5.341c0 .388.315.703.703.703h5.341a.703.703 0 00.704-.703V49.44a.703.703 0 00-.704-.704zm-.703 5.342h-3.935v-3.935h3.935v3.935zm8.454-5.342h-3.96a.703.703 0 000 1.407h3.96a.703.703 0 000-1.407zm7.305 5.342H30.964a.703.703 0 100 1.406h11.264a.703.703 0 000-1.406z"/><path d="M58.431 29.676v-12.5a.703.703 0 00-.703-.703H16.703a.703.703 0 00-.703.703v24.137a.703.703 0 001.406 0V23.127h27.625a.703.703 0 000-1.406H17.406v-3.842h39.619v3.841H48a.703.703 0 100 1.407h9.025v5.628a13.718 13.718 0 00-6.829-1.811 13.762 13.762 0 00-9.865 4.158h-9.367a.703.703 0 000 1.407h8.163c-.302.405-.582.827-.84 1.264h-7.323a.703.703 0 000 1.406h6.602a13.724 13.724 0 00-1.164 6.076h-5.438a.703.703 0 000 1.406h5.561c.06.428.139.85.237 1.265h-5.798a.703.703 0 000 1.406h6.212a13.857 13.857 0 004.26 6.076H30.964a.703.703 0 000 1.406h11.264a.703.703 0 00.625-.383 13.72 13.72 0 007.343 2.12c2.483 0 4.814-.659 6.83-1.81v9.38h-39.62V44.382a.703.703 0 00-1.406 0v18.443c0 .388.315.703.703.703h41.025a.703.703 0 00.703-.703V51.819C61.81 49.3 64 45.275 64 40.747c0-4.527-2.191-8.553-5.569-11.071zm-8.235 23.469c-6.836 0-12.398-5.562-12.398-12.398 0-6.836 5.562-12.397 12.398-12.397 6.836 0 12.398 5.561 12.398 12.397s-5.562 12.398-12.398 12.398z"/><path d="M58.547 35.95a.703.703 0 10-1.22.701 8.22 8.22 0 011.092 4.096c0 4.534-3.689 8.223-8.223 8.223-4.534 0-8.222-3.689-8.222-8.223 0-4.534 3.688-8.222 8.222-8.222 1.987 0 3.905.718 5.401 2.022a.703.703 0 00.924-1.06 9.623 9.623 0 00-6.325-2.369c-5.31 0-9.629 4.32-9.629 9.629 0 5.31 4.32 9.629 9.63 9.629 5.309 0 9.628-4.32 9.628-9.629a9.627 9.627 0 00-1.278-4.797z"/><path d="M50.825 40.188h-1.153a.809.809 0 010-1.615h1.869c.05 0 .092.041.092.092a.703.703 0 001.406 0 1.5 1.5 0 00-1.498-1.498h-.59v-1.1a.703.703 0 00-1.406 0v1.103a2.217 2.217 0 00-2.087 2.21c0 1.221.993 2.215 2.214 2.215h1.153a.809.809 0 010 1.616h-1.869a.092.092 0 01-.092-.093.703.703 0 00-1.406 0 1.5 1.5 0 001.498 1.499h.59v1.099a.703.703 0 001.406 0v-1.103a2.217 2.217 0 002.087-2.21 2.217 2.217 0 00-2.214-2.215zM33.863 19.097h-.886a.703.703 0 100 1.406h.886a.703.703 0 000-1.406zm3.797 0h-.887a.703.703 0 100 1.406h.886a.703.703 0 100-1.406zm3.795 0h-.887a.703.703 0 100 1.406h.887a.703.703 0 100-1.406z"/></g><defs><clipPath id="clip0_1115_4070"><path fill="#fff" transform="translate(16 16)" d="M0 0h48v48H0z"/></clipPath></defs></svg>