<svg width="80" height="80" viewBox="0 0 80 80" fill="none" xmlns="http://www.w3.org/2000/svg"><rect width="80" height="80" rx="40" fill="#1F5AFF"/><g clip-path="url(#clip0_1115_4114)" fill="#fff"><path d="M54.79 54.79a20.767 20.767 0 006.112-14.085h2.112a.705.705 0 000-1.41h-2.112a20.767 20.767 0 00-6.113-14.084 20.766 20.766 0 00-14.084-6.113v-2.111a.705.705 0 10-1.41 0v2.111a20.765 20.765 0 00-14.084 6.113 20.766 20.766 0 00-6.113 14.085h-2.111a.705.705 0 100 1.409h2.111a20.766 20.766 0 006.113 14.084 20.767 20.767 0 0014.085 6.113v2.112a.704.704 0 101.409 0v-2.112a20.768 20.768 0 0014.084-6.113zM20.508 40.704h.852a.705.705 0 100-1.41h-.852c.363-10.196 8.59-18.423 18.787-18.787v.853a.705.705 0 101.409 0v-.853c10.196.364 18.423 8.591 18.787 18.788h-.853a.704.704 0 100 1.409h.853c-.364 10.196-8.59 18.423-18.787 18.787v-.853a.705.705 0 00-1.41 0v.853c-10.196-.364-18.423-8.59-18.787-18.787zM18.25 27.531a2.253 2.253 0 002.251-2.25V20.5h4.78c1.24 0 2.25-1.01 2.25-2.25a2.254 2.254 0 00-2.25-2.251h-6.228A3.056 3.056 0 0016 19.053v6.227a2.254 2.254 0 002.25 2.251zm-.841-8.478c0-.907.737-1.644 1.644-1.644h6.227a.842.842 0 010 1.683h-5.483a.704.704 0 00-.705.705v5.483a.843.843 0 01-1.683 0v-6.227zM60.947 16h-1.67a.705.705 0 000 1.41h1.67c.906 0 1.644.736 1.644 1.643v6.227a.843.843 0 01-1.684 0v-5.483a.705.705 0 00-.704-.705h-5.484a.843.843 0 010-1.683h1.74a.705.705 0 000-1.409h-1.74a2.253 2.253 0 00-2.25 2.25 2.254 2.254 0 002.25 2.251h4.78v4.78c0 1.24 1.01 2.25 2.25 2.25 1.241 0 2.25-1.01 2.25-2.25v-6.228A3.056 3.056 0 0060.948 16zM25.28 59.499h-4.779v-4.78c0-1.24-1.01-2.25-2.25-2.25A2.253 2.253 0 0016 54.719v6.228A3.056 3.056 0 0019.053 64h1.598a.704.704 0 100-1.41h-1.598a1.646 1.646 0 01-1.644-1.643v-6.228a.842.842 0 011.683 0v5.484c0 .39.316.705.705.705h5.483a.842.842 0 010 1.683h-1.81a.705.705 0 000 1.409h1.81a2.254 2.254 0 002.251-2.25 2.253 2.253 0 00-2.25-2.251zm36.47-7.03a2.253 2.253 0 00-2.251 2.25v4.78h-4.78a2.253 2.253 0 00-2.25 2.25c0 1.241 1.01 2.25 2.25 2.25h6.228A3.056 3.056 0 0064 60.948V54.72c0-1.24-1.01-2.25-2.25-2.25zm.84 8.478c0 .906-.737 1.644-1.643 1.644h-6.228a.842.842 0 010-1.683h5.484c.39 0 .705-.316.705-.705v-5.484a.843.843 0 011.683 0v6.228z"/><path d="M42.946 38.82a.704.704 0 00.704-.705v-1.077a.705.705 0 00-1.409 0v1.078c0 .389.316.704.705.704zm-5.892 0c.39 0 .705-.315.705-.705v-1.077a.705.705 0 00-1.41 0v1.078c0 .389.316.704.705.704zm.586 2.844c.222.505.952 1.323 2.36 1.323s2.138-.818 2.36-1.323a.705.705 0 10-1.282-.582c-.025.05-.265.496-1.078.496-.813 0-1.053-.446-1.077-.496a.705.705 0 10-1.282.582z"/><path d="M49.734 51.687a.704.704 0 00.166-.882c-1.73-3.137-4.038-4.756-5.458-5.51a7.355 7.355 0 002.854-4.948 2.933 2.933 0 003.263-2.911c0-.926-.433-1.753-1.105-2.29a8.532 8.532 0 00.257-4.408c-.334-1.584-1.125-2.934-2.173-3.704-1.345-.988-2.842-1.02-3.516-.973-.556-.46-1.94-1.388-4.022-1.388-.928 0-3.327.136-5.556 1.392a.705.705 0 00.692 1.227c1.938-1.092 4.047-1.21 4.864-1.21 2.08 0 3.23 1.153 3.276 1.199a.71.71 0 00.632.207c.015-.002 1.531-.248 2.795.681 1.732 1.273 2.113 4.176 1.456 6.386a2.932 2.932 0 00-1.48.11c-.735-.401-1.606-1.152-2.54-2.193a21.246 21.246 0 01-1.396-1.732.704.704 0 00-1.016-.145c-.046.036-4.531 3.585-8.274 4.119a2.899 2.899 0 00-1.654-.152c-.205-2.326.258-4.22 1.383-5.633a.704.704 0 10-1.102-.877c-1.449 1.82-1.996 4.231-1.629 7.173a2.923 2.923 0 00-1.01 2.21 2.933 2.933 0 003.264 2.912 7.354 7.354 0 002.853 4.948c-1.42.754-3.727 2.373-5.458 5.51a.704.704 0 00.166.882A15.25 15.25 0 0040 55.203a15.25 15.25 0 009.734-3.516zm-2.38-15.748a1.522 1.522 0 011.796 1.496 1.522 1.522 0 01-1.796 1.497v-2.993zm-14.708 2.993a1.522 1.522 0 01-1.796-1.496 1.522 1.522 0 011.796-1.497v2.993zm12.176 8.245c.994.685 2.38 1.884 3.547 3.796a13.837 13.837 0 01-5.39 2.494l-.777-4.261 1.138-2.884c.373.174.892.448 1.482.855zm-10.767-7.738v-3.397c1.63-.306 3.502-1.085 5.575-2.322a31.123 31.123 0 002.395-1.585c.74.957 2.315 2.83 3.92 3.734v3.57A5.951 5.951 0 0140 45.384a5.951 5.951 0 01-5.945-5.945zm2.965 14.028a13.837 13.837 0 01-5.39-2.494c1.73-2.835 3.974-4.153 5.03-4.65l1.138 2.883-.778 4.261zM40 46.793c.592 0 1.168-.072 1.72-.205l-.727 1.842h-1.987l-.726-1.842a7.342 7.342 0 001.72.205zm-.885 3.046h1.77l.705 3.862a13.766 13.766 0 01-3.18 0l.705-3.862z"/></g><defs><clipPath id="clip0_1115_4114"><path fill="#fff" transform="translate(16 16)" d="M0 0h48v48H0z"/></clipPath></defs></svg>