<svg width="80" height="80" viewBox="0 0 80 80" fill="none" xmlns="http://www.w3.org/2000/svg"><rect width="80" height="80" rx="40" fill="#1F5AFF"/><g clip-path="url(#clip0_980_2014)" fill="#fff"><path d="M63.25 56.5h-46.5a.75.75 0 01-.75-.75v-33a.75.75 0 01.75-.75H35.5v1.5h-18V55h45V23.5h-2.25V22h3a.75.75 0 01.75.75v33a.75.75 0 01-.75.75z"/><path d="M49.75 61h-19.5a.75.75 0 01-.712-.987l1.5-4.5A.75.75 0 0131.75 55h16.5a.75.75 0 01.712.513l1.5 4.5a.75.75 0 01-.712.987zm-18.46-1.5h17.42l-1-3H32.29l-1 3z"/><path d="M52.75 64h-25.5a.75.75 0 01-.75-.75 3.754 3.754 0 013.75-3.75h19.5a3.754 3.754 0 013.75 3.75.75.75 0 01-.75.75zm-24.622-1.5h23.744A2.253 2.253 0 0049.75 61h-19.5a2.254 2.254 0 00-2.122 1.5zM16.75 49h46.5v1.5h-46.5V49zm42.75-3H61v1.5h-1.5V46zm0-12H61v10.5h-1.5V34z"/><path d="M44.875 53.5h-9.75a3.616 3.616 0 01-3.75-3.75h1.5a2.139 2.139 0 002.25 2.25h9.75a2.138 2.138 0 002.25-2.25l1.5.004a3.616 3.616 0 01-3.75 3.746zm12.375-9H43V43h13.5v-9H58v9.75a.75.75 0 01-.75.75z"/><path d="M54.25 44.5h-3a.75.75 0 01-.75-.75V35.5a.75.75 0 01.75-.75h3a.75.75 0 01.75.75v8.25a.75.75 0 01-.75.75zM52 43h1.5v-6.75H52V43zm-3.75 1.5h-3a.75.75 0 01-.75-.75v-6a.75.75 0 01.75-.75h3a.75.75 0 01.75.75v6a.75.75 0 01-.75.75zM46 43h1.5v-4.5H46V43zm10.5 3H58v1.5h-1.5V46zm-18.75 0H55v1.5H37.75V46zm-1.11-4.304a2.244 2.244 0 01-2.065-1.407l-4.496-11.04a2.25 2.25 0 01-.007-1.697 2.152 2.152 0 011.192-1.2l1.334-.543a.75.75 0 01.975.412l5.62 13.8a.75.75 0 01-.412.975l-1.33.542a2.142 2.142 0 01-.81.158zm-4.171-14.22l-.64.26a.66.66 0 00-.365.374.762.762 0 00.005.573l4.495 11.04a.719.719 0 00.92.426l.639-.26-5.054-12.414z"/><path d="M26.805 40.982a.749.749 0 01-.695-.467l-2.25-5.52a.75.75 0 01.186-.834l6.216-5.746 1.018 1.102-5.83 5.393 1.856 4.559 7.945-.213.04 1.5-8.464.225-.022.001z"/><path d="M21.607 42.986a2.25 2.25 0 01-2.063-1.41l-1.126-2.761a2.25 2.25 0 01-.008-1.697 2.149 2.149 0 011.193-1.2l4.67-1.9.566 1.39-4.67 1.898a.667.667 0 00-.366.375.76.76 0 00.006.573l1.125 2.76a.76.76 0 00.396.414.666.666 0 00.525.012l4.67-1.9.566 1.389-4.674 1.897c-.257.105-.533.16-.81.16z"/><path d="M24.488 46.75a.75.75 0 01-.696-.467l-1.686-4.14 1.39-.568 1.403 3.45 1.28-.525-1.404-3.443 1.39-.566 1.685 4.14a.75.75 0 01-.412.975l-2.67 1.085a.734.734 0 01-.28.059zm3.198-15.727l1.39-.565 3.932 9.658-1.39.566-3.931-9.659zM42.25 36.25a.75.75 0 01-.75-.75v-3h-2.25A2.25 2.25 0 0137 30.25v-12A2.25 2.25 0 0139.25 16h19.5A2.25 2.25 0 0161 18.25v12a2.25 2.25 0 01-2.25 2.25H46.31l-3.53 3.53a.75.75 0 01-.53.22zm-3-18.75a.75.75 0 00-.75.75v12a.75.75 0 00.75.75h3a.75.75 0 01.75.75v1.94l2.47-2.47A.75.75 0 0146 31h12.75a.75.75 0 00.75-.75v-12a.75.75 0 00-.75-.75h-19.5z"/><path d="M43 26.5a2.25 2.25 0 110-4.5 2.25 2.25 0 010 4.5zm0-3a.75.75 0 100 1.5.75.75 0 000-1.5zm6 3a2.25 2.25 0 110-4.5 2.25 2.25 0 010 4.5zm0-3a.75.75 0 100 1.5.75.75 0 000-1.5zm6 3a2.25 2.25 0 110-4.5 2.25 2.25 0 010 4.5zm0-3a.75.75 0 100 1.5.75.75 0 000-1.5zm-34.5 5.25H19v-3a.75.75 0 01.75-.75h3v1.5H20.5v2.25zm-1.5 1.5h1.5v1.5H19v-1.5z"/></g><defs><clipPath id="clip0_980_2014"><path fill="#fff" transform="translate(16 16)" d="M0 0h48v48H0z"/></clipPath></defs></svg>