<svg width="80" height="80" viewBox="0 0 80 80" fill="none" xmlns="http://www.w3.org/2000/svg"><rect width="80" height="80" rx="40" fill="#1F5AFF"/><path fill-rule="evenodd" clip-rule="evenodd" d="M26.501 41.875a.75.75 0 01.75.75v10.5a.75.75 0 01-.75.75h-7.5a.75.75 0 01-.75-.75v-10.5a.75.75 0 01.75-.75h7.5zm-6.75 10.5v-9h6v9h-6zm18.75-18a.75.75 0 01.75.75v18a.75.75 0 01-.75.75h-7.5a.75.75 0 01-.75-.75v-18a.75.75 0 01.75-.75h7.5zm-6.75 18v-16.5h6v16.5h-6z" fill="#fff"/><path d="M19 56.875h31.5a.75.75 0 000-1.5H19a.75.75 0 000 1.5zm23.251-27.751h-3.75a.75.75 0 01-.53-1.28l8.25-8.25a.75.75 0 011.06 0l8.25 8.25a.75.75 0 01-.53 1.281h-3.75v10.5a.75.75 0 01-1.5 0v-11.25a.75.75 0 01.75-.75h2.69l-6.44-6.44-6.439 6.44h2.69a.75.75 0 01.75.75v13.5a.75.75 0 01-1.5 0v-12.75z" fill="#fff"/><path fill-rule="evenodd" clip-rule="evenodd" d="M49 53.875a5.978 5.978 0 003.679-1.26l1.636 1.635-.595.595a.75.75 0 000 1.06l4.5 4.5a.75.75 0 001.06 0l2.25-2.25a.75.75 0 000-1.06l-4.5-4.5a.75.75 0 00-1.06 0l-.595.595-1.636-1.636A5.978 5.978 0 0055 47.875c0-3.311-2.689-6-6-6s-6 2.689-6 6 2.689 6 6 6zm10.94 3.75l-1.19 1.19-3.44-3.44 1.19-1.19 3.44 3.44zm-6.44-9.75c0-2.483-2.017-4.5-4.5-4.5a4.503 4.503 0 00-4.5 4.5c0 2.483 2.017 4.5 4.5 4.5s4.5-2.017 4.5-4.5z" fill="#fff"/><path d="M53.5 38.125a.75.75 0 100-1.5.75.75 0 000 1.5zm-.75-6.75v3a.75.75 0 001.5 0v-3a.75.75 0 00-1.5 0z" fill="#fff"/></svg>