<svg width="80" height="80" viewBox="0 0 80 80" fill="none" xmlns="http://www.w3.org/2000/svg"><rect width="80" height="80" rx="40" fill="#1F5AFF"/><g clip-path="url(#clip0_1115_4147)" fill="#fff"><path d="M30.34 40.674a.703.703 0 00-.704.703v.854a2.162 2.162 0 00-1.856 2.137c0 1.191.969 2.16 2.16 2.16h.8a.754.754 0 010 1.505h-.903a.609.609 0 01-.586-.436.703.703 0 10-1.347.404 2.004 2.004 0 001.732 1.428v.843a.703.703 0 001.406 0v-.854a2.162 2.162 0 001.856-2.138c0-1.19-.968-2.159-2.159-2.159h-.8a.754.754 0 010-1.506h.715c.272 0 .508.176.586.437a.703.703 0 101.347-.404 2.003 2.003 0 00-1.545-1.4v-.871a.703.703 0 00-.703-.703zm2.911 16.096h-5.824a.703.703 0 100 1.406h5.824a.703.703 0 100-1.407zm0-2.91h-5.824a.703.703 0 100 1.407h5.824a.703.703 0 100-1.407z"/><path d="M61.705 54.209c0-.467-.144-.9-.39-1.258 1.675-1.238.811-4.025-1.323-4.025h-6.02c.557-1.986.472-4.061-.256-6.445-.67-2.2-4.135-1.689-4.01.712.138 2.65-1.1 3.575-2.815 4.854-.493.369-1.025.766-1.558 1.232a.702.702 0 00-.611-.357h-2.213l-.003-17.659a.704.704 0 00-.206-.497l-8.737-8.735a.703.703 0 00-.497-.206h-2.208v-5.122a.703.703 0 10-1.407 0v5.122h-2.209a.703.703 0 00-.497.205l-8.736 8.736a.703.703 0 00-.206.497v15.942a.703.703 0 101.406 0v-15.65l8.325-8.324h1.917v4.487a3.62 3.62 0 00-2.912 3.546 3.62 3.62 0 003.615 3.615 3.62 3.62 0 003.616-3.615 3.621 3.621 0 00-2.912-3.546V23.23h1.917l8.325 8.323v15.84h-1.506V37.089a.703.703 0 00-.703-.703h-7.205a.703.703 0 100 1.406h6.502v9.604h-2.203a.703.703 0 00-.703.703v11.584h-13.16v-21.89h6.5a.703.703 0 100-1.407h-7.204a.703.703 0 00-.703.703v23.297c0 .388.315.703.703.703h13.864v1.506H19.21V50.268a.703.703 0 10-1.406 0v13.029c0 .388.315.703.703.703h23.3a.703.703 0 00.703-.703v-.753h2.213a.703.703 0 00.703-.703v-.491c.701.09 1.239.263 1.754.658a2.59 2.59 0 001.567.536h2.842a.703.703 0 000-1.406h-2.842a1.17 1.17 0 01-.71-.246c-.85-.65-1.742-.866-2.611-.959v-8.788c.74-.802 1.536-1.395 2.307-1.97 1.829-1.365 3.556-2.654 3.379-6.055-.04-.752 1.05-.92 1.26-.229.748 2.452.738 4.511-.032 6.482-.119.55.1.87.655.959h6.998c1.064 0 1.066 1.646 0 1.646h-1.898a.703.703 0 100 1.407h1.381c1.064 0 1.065 1.647 0 1.647h-1.382a.703.703 0 100 1.406h.875c1.064 0 1.064 1.646 0 1.646h-1.383a.703.703 0 100 1.407h.764c1.065 0 1.065 1.647 0 1.647h-3.696a.703.703 0 100 1.406h3.696c1.671 0 2.752-2.08 1.872-3.438.904-.618 1.199-2.215.583-3.107.553-.414.853-1.011.9-1.79zM32.364 31.264a2.211 2.211 0 01-2.21 2.209 2.211 2.211 0 01-2.208-2.21c0-.972.631-1.799 1.505-2.093v2.094a.703.703 0 101.407 0V29.17a2.212 2.212 0 011.506 2.094zm4.324 31.33V48.8H41.1v13.793h-4.412zm7.33-1.456H42.51v-10.81h1.51v10.81z"/><path d="M38.898 52.352a.703.703 0 110-1.407.703.703 0 010 1.407z"/></g><defs><clipPath id="clip0_1115_4147"><path fill="#fff" transform="translate(16 16)" d="M0 0h48v48H0z"/></clipPath></defs></svg>