<svg width="80" height="80" viewBox="0 0 80 80" fill="none" xmlns="http://www.w3.org/2000/svg"><rect width="80" height="80" rx="40" fill="#1F5AFF"/><g clip-path="url(#clip0_1115_4129)" fill="#fff"><path d="M38.4 60.8h3.2a.8.8 0 000-1.6h-3.2a.8.8 0 000 1.6zM26.4 28a.8.8 0 00.8-.8v-4.8h25.6v6.4a.8.8 0 001.6 0v-9.6c0-1.44-1.847-3.2-4-3.2H29.6a4.005 4.005 0 00-4 4v7.2a.8.8 0 00.8.8zm.8-8a2.4 2.4 0 012.4-2.4h20.8c1.386 0 2.4 1.12 2.4 1.6v1.6H27.2V20z"/><path d="M53.6 51.2a.8.8 0 00-.8.8v4H27.2v-3.2a.8.8 0 00-1.6 0V60a4.005 4.005 0 004 4h20.8a4.005 4.005 0 004-4v-8a.8.8 0 00-.8-.8zm-.8 8.8a2.4 2.4 0 01-2.4 2.4H29.6a2.4 2.4 0 01-2.4-2.4v-2.4h25.6V60zM38.4 18.4h-1.6a.8.8 0 000 1.6h1.6a.8.8 0 000-1.6zm4.8 0h-1.6a.8.8 0 000 1.6h1.6a.8.8 0 000-1.6z"/><path d="M63.816 31.49a.8.8 0 00-.616-.29H42.202l-.408-2.75a2.415 2.415 0 00-2.375-2.05H36V28h3.42a.8.8 0 01.791.684l2.795 18.868a2.415 2.415 0 002.375 2.048h1.966a2.386 2.386 0 004.506 0h3.494a2.4 2.4 0 100-1.6h-3.494a2.386 2.386 0 00-4.506 0h-1.966a.806.806 0 01-.792-.683l-.255-1.717H60.8a.8.8 0 00.786-.652l2.4-12.8a.8.8 0 00-.17-.659zM57.6 48a.8.8 0 110 1.6.8.8 0 010-1.6zm-8 0a.8.8 0 110 1.6.8.8 0 010-1.6zm10.536-4H44.098l-1.659-11.2H62.24L60.136 44zM36.8 40c0-5.744-4.656-10.4-10.4-10.4C20.656 29.6 16 34.256 16 40c0 5.743 4.656 10.4 10.4 10.4 5.741-.007 10.393-4.66 10.4-10.4zm-19.2 0a8.8 8.8 0 118.8 8.8 8.81 8.81 0 01-8.8-8.8z"/><path d="M27.2 46.4v-.914a3.194 3.194 0 00-.8-6.286 1.6 1.6 0 111.6-1.6.8.8 0 001.6 0 3.2 3.2 0 00-2.4-3.087V33.6a.8.8 0 00-1.6 0v.913a3.194 3.194 0 00.8 6.287 1.6 1.6 0 11-1.6 1.6.8.8 0 00-1.6 0 3.2 3.2 0 002.4 3.086v.914a.8.8 0 001.6 0zm17.6-11.2H56a.8.8 0 000-1.6H44.8a.8.8 0 000 1.6zm13.6 0H60a.8.8 0 000-1.6h-1.6a.8.8 0 000 1.6z"/></g><defs><clipPath id="clip0_1115_4129"><path fill="#fff" transform="translate(16 16)" d="M0 0h48v48H0z"/></clipPath></defs></svg>