<svg width="80" height="80" viewBox="0 0 80 80" fill="none" xmlns="http://www.w3.org/2000/svg"><rect width="80" height="80" rx="40" fill="#1F5AFF"/><path d="M46.677 32.542a.703.703 0 00.703-.703v-.923a.703.703 0 10-1.406 0v.923c0 .389.315.703.703.703zm-6.059 0a.703.703 0 00.703-.703v-.923a.703.703 0 10-1.406 0v.923c0 .389.315.703.703.703zm3.022 5.588a2.47 2.47 0 002.467-2.467.703.703 0 10-1.406 0 1.062 1.062 0 01-2.12 0 .703.703 0 10-1.407 0 2.47 2.47 0 002.467 2.467z" fill="#fff"/><path d="M59.658 53.706a.703.703 0 00.703-.703v-2.18a4.63 4.63 0 00-3.208-4.414l-8.695-2.74v-2.797c2.029-1.498 3.027-3.95 2.94-6.43 1.614.124 3.372-.832 3.372-2.662v-1.468c0-.703-.275-1.343-.722-1.82.01-.045.014-2.005.014-2.005a.703.703 0 10-1.406 0v1.162h-9.843a2.112 2.112 0 01-2.11-2.11v-6.023c0-1.163.946-2.11 2.11-2.11h4.773a5.076 5.076 0 015.07 5.07v.946a.703.703 0 101.407 0v-.945A6.484 6.484 0 0047.585 16h-4.773a3.52 3.52 0 00-3.463 2.912h-1.18a4.928 4.928 0 00-4.922 4.922s.004 4.595.01 4.631a2.653 2.653 0 00-.747 1.847v1.468c0 1.802 1.75 2.8 3.37 2.663-.154 2.465.944 4.954 2.942 6.43v2.825l-6.326 2.364a3.52 3.52 0 00-1.553 1.148L26.87 52.5v-2.354c0-.635-.283-1.205-.729-1.592V45.64c0-1.191-.968-2.16-2.159-2.16-1.19 0-2.16.969-2.16 2.16v2.395c-1.48 0-2.183.83-2.183 2.109v5.924c0 .935.611 1.73 1.456 2.006v2.413c0 3.382 4.368 4.852 6.47 1.982l3.723-4.498v5.325c0 .388.315.703.703.703h27.667a.703.703 0 00.703-.703v-7.229a.703.703 0 10-1.406 0v6.526h-4.418v-9.33a.703.703 0 10-1.407 0v.569H32.694v-.726a.703.703 0 10-1.406 0v2.66L26.46 61.6c-1.151 1.39-3.959 1.431-3.959-1.112v-2.309h2.234v.753a.703.703 0 101.407 0v-1.27c.445-.387.728-.958.728-1.593v-1.266l5.188-6.735c.24-.312.563-.55.932-.689l6.422-2.4 3.805 2.865c.275.207.638.16.891-.034l3.78-2.846 8.836 2.784a3.226 3.226 0 012.23 3.074v2.181c0 .389.316.703.704.703zM53.13 55.24v4.446H41.058a.703.703 0 100 1.407H53.13v1.502H32.694v-1.502h5.3a.703.703 0 100-1.407h-5.3V55.24H53.13zm-29.9-9.598a.754.754 0 011.505 0v2.395h-1.506V45.64zm-2.185 4.504c0-.388.315-.703.703-.703h3.012c.388 0 .703.315.703.703v.803h-2.209a.703.703 0 100 1.406h2.21v1.506h-2.21a.703.703 0 100 1.407h2.21v.803c0 .468-.285.67-.703.702h-3.013a.704.704 0 01-.703-.702v-5.925zM53.364 31.78c0 .693-.564 1.256-1.256 1.256h-.71v-3.98h.71c.692 0 1.256.563 1.256 1.256v1.468zm-18.71-7.946a3.52 3.52 0 013.517-3.515h1.126v5.221c0 1.163-.947 2.11-2.11 2.11h-2.532v-3.816zm.52 9.202a1.257 1.257 0 01-1.257-1.256v-1.468c0-.693.563-1.256 1.256-1.256h.709v3.98h-.709zm2.114 2.025v-6.008A3.512 3.512 0 0040 27.647a3.513 3.513 0 002.813 1.409h7.18v6.005c0 7.727-12.705 7.718-12.705 0zm9.763 6.623v2.148l-3.41 2.57-3.411-2.57v-2.148c1.676 1.006 5.02.943 6.821 0zm-23.566-5.587c.332.275.663.275.995 0l2.912-2.912a.703.703 0 00-.994-.995l-2.415 2.416-.96-.96a.703.703 0 00-.994.995l1.456 1.456z" fill="#fff"/><path d="M21.748 40.705h5.924c1.164 0 2.11-.946 2.11-2.11v-.802h2.21c.742-.006 1.07-.573.5-1.198l-2.71-2.74v-4.162c0-1.164-.946-2.11-2.11-2.11h-5.924c-1.163 0-2.11.946-2.11 2.11v8.903c0 1.163.947 2.11 2.11 2.11zm-.703-11.012c0-.388.315-.704.703-.704h5.924c.388 0 .704.316.704.703v4.452c0 .185.073.363.203.494l1.728 1.748H29.08a.703.703 0 00-.703.704v1.506a.704.704 0 01-.704.703h-5.924a.704.704 0 01-.703-.703v-8.903z" fill="#fff"/></svg>