<svg width="60" height="60" viewBox="0 0 60 60" fill="none" xmlns="http://www.w3.org/2000/svg">
<g clip-path="url(#clip0_1006_3264)">
<path d="M0 30C0 22.0435 3.16071 14.4129 8.7868 8.7868C14.4129 3.16071 22.0435 0 30 0C37.9565 0 45.5871 3.16071 51.2132 8.7868C56.8393 14.4129 60 22.0435 60 30C60 37.9565 56.8393 45.5871 51.2132 51.2132C45.5871 56.8393 37.9565 60 30 60C22.0435 60 14.4129 56.8393 8.7868 51.2132C3.16071 45.5871 0 37.9565 0 30H0Z" fill="#1A4A7F"/>
<path fill-rule="evenodd" clip-rule="evenodd" d="M25.0948 59.595C19.0818 58.6073 13.5136 55.8076 9.13477 51.57L36.1648 26.76L20.7148 30.51C19.6921 30.7614 18.6296 30.8066 17.5892 30.6432C16.5488 30.4797 15.5514 30.1108 14.6551 29.5579C13.7587 29.005 12.9814 28.2793 12.3685 27.4229C11.7555 26.5665 11.3191 25.5967 11.0848 24.57C10.6097 22.4808 10.9738 20.2886 12.0988 18.4652C13.2237 16.6417 15.0195 15.3328 17.0998 14.82L49.2598 7.005C53.1765 10.2847 56.1909 14.5103 58.0172 19.2812C59.8435 24.0522 60.4212 29.2105 59.6956 34.2673C58.9699 39.3241 56.965 44.1118 53.8709 48.1767C50.7767 52.2416 46.6957 55.449 42.0148 57.495C41.9248 56.43 42.0298 55.32 42.4048 54.24L47.5048 39.03L25.0948 59.595Z" fill="url(#paint0_linear_1006_3264)"/>
</g>
<defs>
<linearGradient id="paint0_linear_1006_3264" x1="73.5898" y1="3.79501" x2="-29.1152" y2="98.04" gradientUnits="userSpaceOnUse">
<stop stop-color="#FFB800"/>
<stop offset="1" stop-color="#FFF11D"/>
</linearGradient>
<clipPath id="clip0_1006_3264">
<rect width="60" height="60" fill="white"/>
</clipPath>
</defs>
</svg>
