<svg width="60" height="60" viewBox="0 0 60 60" fill="none" xmlns="http://www.w3.org/2000/svg"><g clip-path="url(#clip0_1006_3264)"><path d="M0 30a30 30 0 1160 0 30 30 0 01-60 0z" fill="#1A4A7F"/><path fill-rule="evenodd" clip-rule="evenodd" d="M25.095 59.595a29.925 29.925 0 01-15.96-8.025l27.03-24.81-15.45 3.75a7.936 7.936 0 01-9.63-5.94 8.174 8.174 0 016.015-9.75l32.16-7.815a30 30 0 01-7.245 50.49 7.874 7.874 0 01.39-3.255l5.1-15.21-22.41 20.565z" fill="url(#paint0_linear_1006_3264)"/></g><defs><linearGradient id="paint0_linear_1006_3264" x1="73.59" y1="3.795" x2="-29.115" y2="98.04" gradientUnits="userSpaceOnUse"><stop stop-color="#FFB800"/><stop offset="1" stop-color="#FFF11D"/></linearGradient><clipPath id="clip0_1006_3264"><path fill="#fff" d="M0 0h60v60H0z"/></clipPath></defs></svg>